<?xml version="1.0" encoding="UTF-8" standalone="no"?>
<!-- Generator: Adobe Illustrator 15.0.0, SVG Export Plug-In . SVG Version: 6.00 Build 0)  -->

<svg
   xmlns:dc="http://purl.org/dc/elements/1.1/"
   xmlns:cc="http://creativecommons.org/ns#"
   xmlns:rdf="http://www.w3.org/1999/02/22-rdf-syntax-ns#"
   xmlns:svg="http://www.w3.org/2000/svg"
   xmlns="http://www.w3.org/2000/svg"
   xmlns:sodipodi="http://sodipodi.sourceforge.net/DTD/sodipodi-0.dtd"
   xmlns:inkscape="http://www.inkscape.org/namespaces/inkscape"
   version="1.1"
   id="Layer_1"
   x="0px"
   y="0px"
   width="48px"
   height="48px"
   viewBox="0 0 48 48"
   enable-background="new 0 0 48 48"
   xml:space="preserve"
   inkscape:version="0.48.2 r9819"
   sodipodi:docname="arrow_R.svg"><metadata
   id="metadata3803"><rdf:RDF><cc:Work
       rdf:about=""><dc:format>image/svg+xml</dc:format><dc:type
         rdf:resource="http://purl.org/dc/dcmitype/StillImage" /><dc:title></dc:title></cc:Work></rdf:RDF></metadata><defs
   id="defs3801" /><sodipodi:namedview
   pagecolor="#ffffff"
   bordercolor="#666666"
   borderopacity="1"
   objecttolerance="10"
   gridtolerance="10"
   guidetolerance="10"
   inkscape:pageopacity="0"
   inkscape:pageshadow="2"
   inkscape:window-width="1021"
   inkscape:window-height="993"
   id="namedview3799"
   showgrid="false"
   inkscape:zoom="4.9166667"
   inkscape:cx="12.326974"
   inkscape:cy="24"
   inkscape:window-x="22"
   inkscape:window-y="-1"
   inkscape:window-maximized="0"
   inkscape:current-layer="Layer_1" />

<path
   inkscape:connector-curvature="0"
   id="path6391-2"
   d="m 47.98438,23.98435 c 0,-13.2455 -10.72328,-23.96869997 -23.96875,-23.96869997 -13.24548,0 -24.00000997,10.72319997 -24.00000997,23.96869997 0,13.2455 10.75452997,24 24.00000997,24 13.24547,0 23.96875,-10.7545 23.96875,-24 z m -5.6875,-0.031 0,0.094 c 0,1.7465 -1.79643,3.1563 -4.03125,3.1563 l -20.625,0 8.3125,7 c 1.19052,0.9989 1.24764,2.8808 0.125,4.2187 l -0.0625,0.062 c -1.12263,1.3379 -2.96573,1.624 -4.15625,0.625 l -15.18751,-12.75 c -0.66555,-0.5585 -0.98917,-1.3891 -0.9375,-2.25 -5.2e-4,-0.021 0,-0.041 0,-0.062 l 0,-0.094 c 0,-0.031 -0.001,-0.063 0,-0.094 -0.0427,-0.8501 0.27976,-1.6668 0.9375,-2.2187 l 15.18751,-12.75 c 1.19052,-0.999 3.03362,-0.7129 4.15625,0.625 l 0.0625,0.062 c 1.12264,1.3379 1.06552,3.2197 -0.125,4.2187 l -8.3125,7 20.625,0 c 2.23482,0 4.03125,1.4098 4.03125,3.1563 z"
   style="color:#000000;fill:#003366;fill-opacity:1;fill-rule:evenodd;stroke:none;stroke-width:3;marker:none;visibility:visible;display:inline;overflow:visible;enable-background:accumulate" /></svg>