<?xml version="1.0" encoding="UTF-8" standalone="no"?>
<!-- Generator: Adobe Illustrator 15.0.0, SVG Export Plug-In . SVG Version: 6.00 Build 0)  -->

<svg
   xmlns:dc="http://purl.org/dc/elements/1.1/"
   xmlns:cc="http://creativecommons.org/ns#"
   xmlns:rdf="http://www.w3.org/1999/02/22-rdf-syntax-ns#"
   xmlns:svg="http://www.w3.org/2000/svg"
   xmlns="http://www.w3.org/2000/svg"
   xmlns:sodipodi="http://sodipodi.sourceforge.net/DTD/sodipodi-0.dtd"
   xmlns:inkscape="http://www.inkscape.org/namespaces/inkscape"
   version="1.1"
   id="Layer_1"
   x="0px"
   y="0px"
   width="48px"
   height="48px"
   viewBox="0 0 48 48"
   enable-background="new 0 0 48 48"
   xml:space="preserve"
   inkscape:version="0.48.2 r9819"
   sodipodi:docname="arrow_sqr_down.svg"><metadata
   id="metadata3803"><rdf:RDF><cc:Work
       rdf:about=""><dc:format>image/svg+xml</dc:format><dc:type
         rdf:resource="http://purl.org/dc/dcmitype/StillImage" /><dc:title /></cc:Work></rdf:RDF></metadata><defs
   id="defs3801" /><sodipodi:namedview
   pagecolor="#ffffff"
   bordercolor="#666666"
   borderopacity="1"
   objecttolerance="10"
   gridtolerance="10"
   guidetolerance="10"
   inkscape:pageopacity="0"
   inkscape:pageshadow="2"
   inkscape:window-width="1331"
   inkscape:window-height="993"
   id="namedview3799"
   showgrid="false"
   inkscape:zoom="2.4583333"
   inkscape:cx="-78.245356"
   inkscape:cy="13.060532"
   inkscape:window-x="22"
   inkscape:window-y="-1"
   inkscape:window-maximized="0"
   inkscape:current-layer="Layer_1" />

<g
   id="g3768"><path
     sodipodi:type="star"
     style="color:#000000;fill:#003366;fill-opacity:1;fill-rule:evenodd;stroke:none;stroke-width:2;marker:none;visibility:visible;display:inline;overflow:visible;enable-background:accumulate"
     id="path13739"
     sodipodi:sides="3"
     sodipodi:cx="483.73679"
     sodipodi:cy="296.64182"
     sodipodi:r1="4.9244938"
     sodipodi:r2="2.4622469"
     sodipodi:arg1="1.5707963"
     sodipodi:arg2="2.6179939"
     inkscape:flatsided="true"
     inkscape:rounded="0"
     inkscape:randomized="0"
     d="m 483.73679,301.56631 -4.26474,-7.38674 8.52947,0 z"
     inkscape:transform-center-y="1.1556204"
     transform="matrix(2.8404855,0,0,2.3254785,-1350.0473,-666.61789)"
     inkscape:transform-center-x="-1.6576417e-005" /><path
     id="path3765"
     d="M 10.1875 0 C 4.5456339 0 7.8791279e-018 4.545634 0 10.1875 L 0 37.8125 C 5.7824116e-019 43.454367 4.5456339 48 10.1875 48 L 37.8125 48 C 43.454366 48 48 43.454367 48 37.8125 L 48 10.1875 C 48 4.545634 43.454366 7.8791279e-018 37.8125 0 L 10.1875 0 z M 12.625 4.25 L 35.375 4.25 C 40.019805 4.25 43.75 7.9801949 43.75 12.625 L 43.75 35.375 C 43.75 40.019805 40.019805 43.75 35.375 43.75 L 12.625 43.75 C 7.9801949 43.75 4.25 40.019805 4.25 35.375 L 4.25 12.625 C 4.25 7.9801949 7.9801949 4.25 12.625 4.25 z "
     style="color:#000000;fill:#003366;stroke:none;stroke-width:4.21161078999999990;marker:none;visibility:visible;display:inline;overflow:visible;enable-background:accumulate;fill-opacity:1" /></g></svg>