<?xml version="1.0" encoding="UTF-8" standalone="no"?>
<!-- Generator: Adobe Illustrator 15.0.0, SVG Export Plug-In . SVG Version: 6.00 Build 0)  -->

<svg
   xmlns:dc="http://purl.org/dc/elements/1.1/"
   xmlns:cc="http://creativecommons.org/ns#"
   xmlns:rdf="http://www.w3.org/1999/02/22-rdf-syntax-ns#"
   xmlns:svg="http://www.w3.org/2000/svg"
   xmlns="http://www.w3.org/2000/svg"
   xmlns:sodipodi="http://sodipodi.sourceforge.net/DTD/sodipodi-0.dtd"
   xmlns:inkscape="http://www.inkscape.org/namespaces/inkscape"
   version="1.1"
   id="Layer_1"
   x="0px"
   y="0px"
   width="48px"
   height="48px"
   viewBox="0 0 48 48"
   enable-background="new 0 0 48 48"
   xml:space="preserve"
   inkscape:version="0.48.2 r9819"
   sodipodi:docname="Cross.svg"><metadata
   id="metadata3803"><rdf:RDF><cc:Work
       rdf:about=""><dc:format>image/svg+xml</dc:format><dc:type
         rdf:resource="http://purl.org/dc/dcmitype/StillImage" /><dc:title /></cc:Work></rdf:RDF></metadata><defs
   id="defs3801" /><sodipodi:namedview
   pagecolor="#ffffff"
   bordercolor="#666666"
   borderopacity="1"
   objecttolerance="10"
   gridtolerance="10"
   guidetolerance="10"
   inkscape:pageopacity="0"
   inkscape:pageshadow="2"
   inkscape:window-width="1920"
   inkscape:window-height="1020"
   id="namedview3799"
   showgrid="false"
   inkscape:zoom="4.9166667"
   inkscape:cx="-19.096755"
   inkscape:cy="24"
   inkscape:window-x="-4"
   inkscape:window-y="-4"
   inkscape:window-maximized="1"
   inkscape:current-layer="Layer_1" />

<path
   style="fill:#808080;fill-opacity:1;fill-rule:nonzero;stroke:none"
   d="M 7.15625 0 C 7.0172173 7.6180429e-009 6.8877841 0.049715934 6.78125 0.15625 L 0.15625 6.78125 C -0.056818133 6.9943181 -0.056818109 7.3494319 0.15625 7.5625 L 16.59375 24 L 0.15625 40.4375 C -0.05681811 40.650568 -0.056818133 41.005682 0.15625 41.21875 L 6.78125 47.84375 C 6.9943181 48.056818 7.3494319 48.056818 7.5625 47.84375 L 24 31.40625 L 40.4375 47.84375 C 40.650568 48.056818 41.005682 48.056818 41.21875 47.84375 L 47.84375 41.21875 C 48.056818 41.005682 48.056818 40.650568 47.84375 40.4375 L 31.40625 24 L 47.84375 7.5625 C 48.056818 7.3494319 48.056818 6.9943181 47.84375 6.78125 L 41.21875 0.15625 C 41.005682 -0.056818133 40.650568 -0.05681811 40.4375 0.15625 L 24 16.59375 L 7.5625 0.15625 C 7.4559659 0.049715945 7.2952827 -7.6180429e-009 7.15625 0 z "
   id="rect3756" /></svg>