<?xml version="1.0" encoding="UTF-8" standalone="no"?>
<!-- Generator: Adobe Illustrator 15.0.0, SVG Export Plug-In . SVG Version: 6.00 Build 0)  -->

<svg
   xmlns:dc="http://purl.org/dc/elements/1.1/"
   xmlns:cc="http://creativecommons.org/ns#"
   xmlns:rdf="http://www.w3.org/1999/02/22-rdf-syntax-ns#"
   xmlns:svg="http://www.w3.org/2000/svg"
   xmlns="http://www.w3.org/2000/svg"
   xmlns:sodipodi="http://sodipodi.sourceforge.net/DTD/sodipodi-0.dtd"
   xmlns:inkscape="http://www.inkscape.org/namespaces/inkscape"
   version="1.1"
   id="Layer_1"
   x="0px"
   y="0px"
   width="48px"
   height="48px"
   viewBox="0 0 48 48"
   enable-background="new 0 0 48 48"
   xml:space="preserve"
   inkscape:version="0.48.2 r9819"
   sodipodi:docname="cubo_xls2.svg"><metadata
   id="metadata3803"><rdf:RDF><cc:Work
       rdf:about=""><dc:format>image/svg+xml</dc:format><dc:type
         rdf:resource="http://purl.org/dc/dcmitype/StillImage" /><dc:title></dc:title></cc:Work></rdf:RDF></metadata><defs
   id="defs3801" /><sodipodi:namedview
   pagecolor="#ffffff"
   bordercolor="#666666"
   borderopacity="1"
   objecttolerance="10"
   gridtolerance="10"
   guidetolerance="10"
   inkscape:pageopacity="0"
   inkscape:pageshadow="2"
   inkscape:window-width="1021"
   inkscape:window-height="993"
   id="namedview3799"
   showgrid="false"
   inkscape:zoom="4.9166667"
   inkscape:cx="14.91927"
   inkscape:cy="24"
   inkscape:window-x="22"
   inkscape:window-y="-1"
   inkscape:window-maximized="0"
   inkscape:current-layer="Layer_1" />

<g
   style="display:inline"
   id="g4975"
   transform="translate(191.00728,-643.73774)"><g
     transform="translate(162.56273,-10.2192)"
     id="g4970"><path
       id="path6118"
       style="font-size:4.76152277px;font-style:normal;font-weight:bold;line-height:125%;letter-spacing:0px;word-spacing:0px;fill:#003366;fill-opacity:1;stroke:none;font-family:Sans;-inkscape-font-specification:Sans Bold"
       d="m -344.05555,672.26702 4.17406,-6.37357 -3.7825,-5.84034 2.88269,0 2.44945,3.92412 2.39946,-3.92412 2.85767,0 -3.79912,5.93197 4.17403,6.28194 -2.97432,0 -2.70771,-4.22406 -2.71606,4.22406 z"
       inkscape:connector-curvature="0" /><path
       id="path6120"
       style="font-size:4.76152277px;font-style:normal;font-weight:bold;line-height:125%;letter-spacing:0px;word-spacing:0px;fill:#003366;fill-opacity:1;stroke:none;font-family:Sans;-inkscape-font-specification:Sans Bold"
       d="m -331.45008,672.26702 0,-12.21391 3.69084,0 2.21616,8.33143 2.19115,-8.33143 3.69915,0 0,12.21391 -2.29113,0 0,-9.6145 -2.42444,9.6145 -2.37448,0 -2.41612,-9.6145 0,9.6145 z"
       inkscape:connector-curvature="0" /><path
       id="path6122"
       style="font-size:4.76152277px;font-style:normal;font-weight:bold;line-height:125%;letter-spacing:0px;word-spacing:0px;fill:#003366;fill-opacity:1;stroke:none;font-family:Sans;-inkscape-font-specification:Sans Bold"
       d="m -317.12002,672.26702 0,-12.11393 2.46611,0 0,10.05605 6.13193,0 0,2.05788 z"
       inkscape:connector-curvature="0" /></g><path
     style="fill:#003366;fill-opacity:1;stroke:none;display:inline"
     d="m -177.28853,643.73774 c -3.97281,0 -7.15625,3.18344 -7.15625,7.15625 l 0,10.09375 c 0,3.97281 3.18344,7.15625 7.15625,7.15625 l 27.09375,0 c 3.97281,0 7.1875,-3.18344 7.1875,-7.15625 l 0,-10.09375 c 0,-3.97281 -3.21469,-7.15625 -7.1875,-7.15625 l -27.09375,0 z m 0.875,1.28125 25.375,0 c 3.7235,0 6.71875,2.85464 6.71875,6.40625 l 0,9.03125 c 0,3.55161 -2.99525,6.40625 -6.71875,6.40625 l -25.375,0 c -3.72351,0 -6.71875,-2.85464 -6.71875,-6.40625 l 0,-9.03125 c 0,-3.55161 2.99524,-6.40625 6.71875,-6.40625 z"
     id="path4900"
     inkscape:connector-curvature="0" /><g
     transform="translate(-191.00728,643.77244)"
     id="g4902"><path
       inkscape:export-ydpi="90"
       inkscape:export-xdpi="90"
       inkscape:export-filename="C:\Documents and Settings\jhernandez\Mis documentos\imagenCorp\iconos\iconos_jorge\ico_web\g5029.png"
       id="path4904"
       d="m 26.174973,25.61897 9.77011,0 0,9.77011 -9.77011,0 z"
       style="color:#000000;fill:#003366;fill-opacity:1;stroke:none;stroke-width:1.70000005;marker:none;visibility:visible;display:inline;overflow:visible;enable-background:accumulate"
       inkscape:connector-curvature="0" /><path
       inkscape:export-ydpi="90"
       inkscape:export-xdpi="90"
       inkscape:export-filename="C:\Documents and Settings\jhernandez\Mis documentos\imagenCorp\iconos\iconos_jorge\ico_web\g5029.png"
       id="path4906"
       d="m 13.087609,25.61897 9.76987,0 0,9.77011 -9.76987,0 z"
       style="color:#000000;fill:#003366;fill-opacity:1;stroke:none;stroke-width:1.70000005;marker:none;visibility:visible;display:inline;overflow:visible;enable-background:accumulate"
       inkscape:connector-curvature="0" /><path
       inkscape:export-ydpi="90"
       inkscape:export-xdpi="90"
       inkscape:export-filename="C:\Documents and Settings\jhernandez\Mis documentos\imagenCorp\iconos\iconos_jorge\ico_web\g5029.png"
       id="path4909"
       d="m 5.783344e-6,25.61897 9.770144016656,0 0,9.77011 -9.770144016656,0 z"
       style="color:#000000;fill:#003366;fill-opacity:1;stroke:none;stroke-width:1.70000005;marker:none;visibility:visible;display:inline;overflow:visible;enable-background:accumulate"
       inkscape:connector-curvature="0" /><path
       id="path4911"
       d="m 0,13.03125 0,9.78125 9.15625,0 C 7.5636998,21.499288 6.5625,19.484707 6.5625,17.25 l 0,-4.21875 -6.5625,0 z"
       style="color:#000000;fill:#003366;fill-opacity:1;stroke:none;stroke-width:1.70000005;marker:none;visibility:visible;display:inline;overflow:visible;enable-background:accumulate"
       inkscape:connector-curvature="0" /><path
       id="path4913"
       d="m 0,0.46875 0,9.78125 6.5625,0 0,-3.09375 c 0,-2.5082491 1.2789847,-4.6879204 3.21875,-5.96875 l 0,-0.71875 -9.78125,0 z"
       style="color:#000000;fill:#003366;fill-opacity:1;stroke:none;stroke-width:1.70000005;marker:none;visibility:visible;display:inline;overflow:visible;enable-background:accumulate"
       inkscape:connector-curvature="0" /><path
       inkscape:export-ydpi="90"
       inkscape:export-xdpi="90"
       inkscape:export-filename="C:\Documents and Settings\jhernandez\Mis documentos\imagenCorp\iconos\iconos_jorge\ico_web\g5029.png"
       inkscape:connector-curvature="0"
       style="color:#000000;fill:#003366;fill-opacity:1;stroke:none;stroke-width:1.70000005;marker:none;visibility:visible;display:inline;overflow:visible;enable-background:accumulate"
       d="m 26.174973,38.195228 9.77011,0 0,9.770075 -9.77011,0 z"
       id="path4915" /><path
       inkscape:export-ydpi="90"
       inkscape:export-xdpi="90"
       inkscape:export-filename="C:\Documents and Settings\jhernandez\Mis documentos\imagenCorp\iconos\iconos_jorge\ico_web\g5029.png"
       inkscape:connector-curvature="0"
       style="color:#000000;fill:#003366;fill-opacity:1;stroke:none;stroke-width:1.70000005;marker:none;visibility:visible;display:inline;overflow:visible;enable-background:accumulate"
       d="m 13.087609,38.195228 9.76987,0 0,9.770075 -9.76987,0 z"
       id="path4917" /><path
       inkscape:export-ydpi="90"
       inkscape:export-xdpi="90"
       inkscape:export-filename="C:\Documents and Settings\jhernandez\Mis documentos\imagenCorp\iconos\iconos_jorge\ico_web\g5029.png"
       inkscape:connector-curvature="0"
       style="color:#000000;fill:#003366;fill-opacity:1;stroke:none;stroke-width:1.70000005;marker:none;visibility:visible;display:inline;overflow:visible;enable-background:accumulate"
       d="m 5.783344e-6,38.195228 9.770144016656,0 0,9.770075 -9.770144016656,0 z"
       id="path4919" /></g></g></svg>