<?xml version="1.0" encoding="UTF-8" standalone="no"?>
<!-- Generator: Adobe Illustrator 15.0.0, SVG Export Plug-In . SVG Version: 6.00 Build 0)  -->

<svg
   xmlns:dc="http://purl.org/dc/elements/1.1/"
   xmlns:cc="http://creativecommons.org/ns#"
   xmlns:rdf="http://www.w3.org/1999/02/22-rdf-syntax-ns#"
   xmlns:svg="http://www.w3.org/2000/svg"
   xmlns="http://www.w3.org/2000/svg"
   xmlns:sodipodi="http://sodipodi.sourceforge.net/DTD/sodipodi-0.dtd"
   xmlns:inkscape="http://www.inkscape.org/namespaces/inkscape"
   version="1.1"
   id="Layer_1"
   x="0px"
   y="0px"
   width="48px"
   height="48px"
   viewBox="0 0 48 48"
   enable-background="new 0 0 48 48"
   xml:space="preserve"
   inkscape:version="0.48.2 r9819"
   sodipodi:docname="document_doc.svg"><metadata
   id="metadata3803"><rdf:RDF><cc:Work
       rdf:about=""><dc:format>image/svg+xml</dc:format><dc:type
         rdf:resource="http://purl.org/dc/dcmitype/StillImage" /><dc:title></dc:title></cc:Work></rdf:RDF></metadata><defs
   id="defs3801" /><sodipodi:namedview
   pagecolor="#ffffff"
   bordercolor="#666666"
   borderopacity="1"
   objecttolerance="10"
   gridtolerance="10"
   guidetolerance="10"
   inkscape:pageopacity="0"
   inkscape:pageshadow="2"
   inkscape:window-width="1920"
   inkscape:window-height="1020"
   id="namedview3799"
   showgrid="false"
   inkscape:zoom="4.9166667"
   inkscape:cx="45.510422"
   inkscape:cy="21.639615"
   inkscape:window-x="-4"
   inkscape:window-y="-4"
   inkscape:window-maximized="1"
   inkscape:current-layer="Layer_1"
   showguides="true"
   inkscape:guide-bbox="true" />

<path
   style="fill:#003366;fill-opacity:1;stroke:none;display:inline"
   d="m 13.892845,-0.4272216 c -3.92181,0 -7.0644,3.294889 -7.0644,7.406784 l 0,10.4471246 c 0,4.111898 3.14259,7.406784 7.0644,7.406784 l 26.74597,0 c 3.92181,0 7.09524,-3.294886 7.09524,-7.406784 l 0,-10.4471246 c 0,-4.111895 -3.17343,-7.406784 -7.09524,-7.406784 l -26.74597,0 z m 0.86377,1.326106 25.04928,0 c 3.67571,0 6.6325,2.954575 6.6325,6.630527 l 0,9.3474266 c 0,3.675952 -2.95679,6.630528 -6.6325,6.630528 l -25.04928,0 c -3.67571,0 -6.6325,-2.954576 -6.6325,-6.630528 l 0,-9.3474266 c 0,-3.675952 2.95679,-6.630527 6.6325,-6.630527 z"
   id="path3838-989"
   inkscape:connector-curvature="0" /><path
   style="fill:#003366;fill-opacity:1;fill-rule:nonzero;stroke:none"
   d="M 0 13.34375 L 0 48 L 29.1875 48 L 29.1875 24.40625 L 13.71875 24.40625 C 9.74594 24.40625 6.5625 21.22281 6.5625 17.25 L 6.5625 13.34375 L 0 13.34375 z M 3.375 29.90625 L 25.84375 29.90625 L 25.84375 32.9375 L 3.375 32.9375 L 3.375 29.90625 z M 3.375 35.40625 L 25.84375 35.40625 L 25.84375 38.4375 L 3.375 38.4375 L 3.375 35.40625 z M 3.375 40.90625 L 25.84375 40.90625 L 25.84375 43.9375 L 3.375 43.9375 L 3.375 40.90625 z "
   id="rect5014-7" /><path
   inkscape:connector-curvature="0"
   id="path3009"
   d="M 13.71875,-2e-7 C 9.74594,-2e-7 6.5625,3.1834391 6.5625,7.1562501 l 0,10.0937499 c 0,3.972813 3.18344,7.15625 7.15625,7.15625 l 27.09375,0 C 44.78531,24.40625 48,21.222813 48,17.25 L 48,7.1562501 C 48,3.1834391 44.78531,-2e-7 40.8125,-2e-7 l -27.09375,0 z m 0.875,1.2812503 25.375,0 c 3.7235,0 6.71875,2.854638 6.71875,6.40625 l 0,9.0312499 c 0,3.551612 -2.99525,6.40625 -6.71875,6.40625 l -25.375,0 C 10.87024,23.125 7.875,20.270362 7.875,16.71875 l 0,-9.0312499 c 0,-3.551612 2.99524,-6.40625 6.71875,-6.40625 z"
   style="fill:#003366;fill-opacity:1;stroke:none;display:inline" /><g
   transform="scale(0.99395595,1.0060808)"
   style="font-size:16.57032776px;font-style:normal;font-variant:normal;font-weight:bold;font-stretch:normal;text-align:start;line-height:125%;letter-spacing:0px;word-spacing:0px;writing-mode:lr-tb;text-anchor:start;fill:#003366;fill-opacity:1;stroke:none;font-family:Sans;-inkscape-font-specification:Sans Bold"
   id="text3784"><path
     d="m 12.325099,18.060057 0,-11.8613775 5.040681,0 c 1.267579,1.19e-5 2.188602,0.106543 2.76307,0.3195937 0.57445,0.2130738 1.034287,0.592001 1.379512,1.1367828 0.345204,0.5448025 0.517812,1.1678074 0.517823,1.8690164 -1.1e-5,0.8900156 -0.261619,1.6249456 -0.784825,2.2047926 -0.523227,0.579859 -1.305354,0.945301 -2.346385,1.096327 0.517815,0.302069 0.945288,0.633798 1.282421,0.995191 0.337114,0.361401 0.791557,1.003285 1.36333,1.925653 l 1.448285,2.314021 -2.864207,0 -1.73147,-2.581023 c -0.614921,-0.922368 -1.035651,-1.50357 -1.262193,-1.743606 -0.226553,-0.240028 -0.466585,-0.404545 -0.720097,-0.49355 -0.253522,-0.089 -0.655374,-0.133496 -1.205556,-0.133501 l -0.485459,0 0,4.95168 z m 2.39493,-6.84497 1.771925,0 c 1.148913,7e-6 1.866312,-0.04854 2.152201,-0.145637 0.285873,-0.09708 0.509724,-0.264298 0.671551,-0.501641 0.161811,-0.237328 0.242721,-0.533997 0.24273,-0.890008 -9e-6,-0.3991462 -0.10654,-0.7214366 -0.319594,-0.9668721 -0.213071,-0.2454168 -0.513785,-0.4004938 -0.902144,-0.4652314 -0.194191,-0.02696 -0.776741,-0.040445 -1.747652,-0.040455 l -1.869017,0 z"
     style="line-height:125%;fill:#003366;font-family:Sans;-inkscape-font-specification:Sans Bold"
     id="path3803" /><path
     d="m 26.961683,18.060057 0,-9.8548144 -3.519576,0 0,-2.0065631 9.425992,0 0,2.0065631 -3.511486,0 0,9.8548144 z"
     style="line-height:125%;fill:#003366;font-family:Sans;-inkscape-font-specification:Sans Bold"
     id="path3805" /><path
     d="m 34.437749,18.060057 0,-11.8613775 8.131435,0 0,2.0065631 -5.736505,0 0,2.8075704 4.95168,0 0,2.006563 -4.95168,0 0,5.040681 z"
     style="line-height:125%;fill:#003366;font-family:Sans;-inkscape-font-specification:Sans Bold"
     id="path3807" /></g></svg>