<?xml version="1.0" encoding="UTF-8" standalone="no"?>
<!-- Generator: Adobe Illustrator 15.0.0, SVG Export Plug-In . SVG Version: 6.00 Build 0)  -->

<svg
   xmlns:dc="http://purl.org/dc/elements/1.1/"
   xmlns:cc="http://creativecommons.org/ns#"
   xmlns:rdf="http://www.w3.org/1999/02/22-rdf-syntax-ns#"
   xmlns:svg="http://www.w3.org/2000/svg"
   xmlns="http://www.w3.org/2000/svg"
   xmlns:sodipodi="http://sodipodi.sourceforge.net/DTD/sodipodi-0.dtd"
   xmlns:inkscape="http://www.inkscape.org/namespaces/inkscape"
   version="1.1"
   id="Layer_1"
   x="0px"
   y="0px"
   width="48px"
   height="48px"
   viewBox="0 0 48 48"
   enable-background="new 0 0 48 48"
   xml:space="preserve"
   inkscape:version="0.48.2 r9819"
   sodipodi:docname="document_doc.svg"><metadata
   id="metadata3803"><rdf:RDF><cc:Work
       rdf:about=""><dc:format>image/svg+xml</dc:format><dc:type
         rdf:resource="http://purl.org/dc/dcmitype/StillImage" /><dc:title /></cc:Work></rdf:RDF></metadata><defs
   id="defs3801" /><sodipodi:namedview
   pagecolor="#ffffff"
   bordercolor="#666666"
   borderopacity="1"
   objecttolerance="10"
   gridtolerance="10"
   guidetolerance="10"
   inkscape:pageopacity="0"
   inkscape:pageshadow="2"
   inkscape:window-width="1920"
   inkscape:window-height="1020"
   id="namedview3799"
   showgrid="false"
   inkscape:zoom="4.9166667"
   inkscape:cx="19.984999"
   inkscape:cy="21.639615"
   inkscape:window-x="-4"
   inkscape:window-y="-4"
   inkscape:window-maximized="1"
   inkscape:current-layer="Layer_1"
   showguides="true"
   inkscape:guide-bbox="true" />

<path
   style="fill:#003366;fill-opacity:1;stroke:none;display:inline"
   d="m 13.892845,-0.4272216 c -3.92181,0 -7.0644,3.294889 -7.0644,7.406784 l 0,10.4471246 c 0,4.111898 3.14259,7.406784 7.0644,7.406784 l 26.74597,0 c 3.92181,0 7.09524,-3.294886 7.09524,-7.406784 l 0,-10.4471246 c 0,-4.111895 -3.17343,-7.406784 -7.09524,-7.406784 l -26.74597,0 z m 0.86377,1.326106 25.04928,0 c 3.67571,0 6.6325,2.954575 6.6325,6.630527 l 0,9.3474266 c 0,3.675952 -2.95679,6.630528 -6.6325,6.630528 l -25.04928,0 c -3.67571,0 -6.6325,-2.954576 -6.6325,-6.630528 l 0,-9.3474266 c 0,-3.675952 2.95679,-6.630527 6.6325,-6.630527 z"
   id="path3838-989"
   inkscape:connector-curvature="0" /><path
   style="fill:#003366;fill-opacity:1;fill-rule:nonzero;stroke:none"
   d="M 0 13.34375 L 0 48 L 29.1875 48 L 29.1875 24.40625 L 13.71875 24.40625 C 9.74594 24.40625 6.5625 21.22281 6.5625 17.25 L 6.5625 13.34375 L 0 13.34375 z M 3.375 29.90625 L 25.84375 29.90625 L 25.84375 32.9375 L 3.375 32.9375 L 3.375 29.90625 z M 3.375 35.40625 L 25.84375 35.40625 L 25.84375 38.4375 L 3.375 38.4375 L 3.375 35.40625 z M 3.375 40.90625 L 25.84375 40.90625 L 25.84375 43.9375 L 3.375 43.9375 L 3.375 40.90625 z "
   id="rect5014-7" /><path
   inkscape:connector-curvature="0"
   id="path3009"
   d="M 13.71875,-2e-7 C 9.74594,-2e-7 6.5625,3.1834391 6.5625,7.1562501 l 0,10.0937499 c 0,3.972813 3.18344,7.15625 7.15625,7.15625 l 27.09375,0 C 44.78531,24.40625 48,21.222813 48,17.25 L 48,7.1562501 C 48,3.1834391 44.78531,-2e-7 40.8125,-2e-7 l -27.09375,0 z m 0.875,1.2812503 25.375,0 c 3.7235,0 6.71875,2.854638 6.71875,6.40625 l 0,9.0312499 c 0,3.551612 -2.99525,6.40625 -6.71875,6.40625 l -25.375,0 C 10.87024,23.125 7.875,20.270362 7.875,16.71875 l 0,-9.0312499 c 0,-3.551612 2.99524,-6.40625 6.71875,-6.40625 z"
   style="fill:#003366;fill-opacity:1;stroke:none;display:inline" /><g
   transform="scale(0.99395595,1.0060808)"
   style="font-size:16.57032776px;font-style:normal;font-variant:normal;font-weight:bold;font-stretch:normal;text-align:start;line-height:125%;letter-spacing:0px;word-spacing:0px;writing-mode:lr-tb;text-anchor:start;fill:#003366;fill-opacity:1;stroke:none;font-family:Sans;-inkscape-font-specification:Sans Bold"
   id="text3784"><path
     d="m 10.059625,6.1986795 4.37722,0 c 0.987093,1.19e-5 1.739554,0.075528 2.257384,0.2265474 0.695815,0.204983 1.29185,0.5690767 1.788106,1.0922824 0.496237,0.5232267 0.873816,1.163762 1.132738,1.9216078 0.2589,0.7578629 0.388356,1.6923699 0.388367,2.8035249 -1.1e-5,0.976316 -0.121376,1.817777 -0.364094,2.524386 -0.29668,0.86304 -0.720108,1.561561 -1.270284,2.095564 -0.415346,0.404549 -0.976321,0.720097 -1.682924,0.946644 -0.528618,0.167214 -1.23523,0.250821 -2.119837,0.250821 l -4.506676,0 z m 2.39493,2.0065631 0,7.8563424 1.788107,0 c 0.668848,2e-6 1.151609,-0.03776 1.448285,-0.113274 0.38836,-0.09709 0.71065,-0.261606 0.966872,-0.49355 0.256207,-0.231939 0.465223,-0.613563 0.627051,-1.144874 0.161811,-0.531303 0.242721,-1.255445 0.24273,-2.172428 -9e-6,-0.916971 -0.08092,-1.620885 -0.24273,-2.111746 C 17.123042,9.5348689 16.896495,9.1518962 16.605228,8.876794 16.313945,8.6017101 15.944457,8.4156178 15.496764,8.3185163 15.16233,8.2430103 14.506961,8.2052525 13.530655,8.2052426 z"
     style="line-height:125%;fill:#003366;font-family:Sans;-inkscape-font-specification:Sans Bold"
     id="path3796"
     inkscape:connector-curvature="0" /><path
     d="m 21.556908,12.202187 c 0,-1.208246 0.180698,-2.2223146 0.542096,-3.0422087 0.269698,-0.604117 0.637837,-1.1462122 1.104419,-1.6262871 C 23.67,7.0536374 24.18108,6.6976346 24.736664,6.4656818 25.475635,6.1528425 26.327884,5.996417 27.293413,5.996405 c 1.747644,1.2e-5 3.146034,0.5421072 4.195174,1.626287 1.049118,1.0842008 1.573683,2.591819 1.573695,4.522858 -1.2e-5,1.914869 -0.520531,3.413048 -1.561559,4.49454 -1.041049,1.081494 -2.432696,1.622241 -4.174946,1.622241 -1.763838,0 -3.166273,-0.53805 -4.207309,-1.61415 -1.041041,-1.076098 -1.56156,-2.558095 -1.56156,-4.445994 z m 2.467749,-0.08091 c -3e-6,1.343107 0.310151,2.361221 0.930463,3.054345 0.620304,0.69313 1.407825,1.039693 2.362566,1.039691 0.954729,2e-6 1.738204,-0.343864 2.35043,-1.0316 0.612208,-0.68773 0.918317,-1.719329 0.918326,-3.0948 -9e-6,-1.359277 -0.298027,-2.3733457 -0.894053,-3.0422084 C 29.096345,8.3778599 28.304778,8.043433 27.317686,8.043423 c -0.987105,10e-6 -1.782717,0.3384824 -2.386839,1.015418 -0.60413,0.6769537 -0.906193,1.697765 -0.90619,3.062436 z"
     style="line-height:125%;fill:#003366;font-family:Sans;-inkscape-font-specification:Sans Bold"
     id="path3798"
     inkscape:connector-curvature="0" /><path
     d="m 42.512547,13.699018 2.322111,0.736279 c -0.356014,1.29456 -0.948003,2.256037 -1.77597,2.884435 -0.827985,0.6284 -1.878463,0.942599 -3.151437,0.942599 -1.575048,0 -2.869604,-0.53805 -3.88367,-1.61415 -1.014071,-1.076098 -1.521105,-2.547307 -1.521105,-4.41363 0,-1.974192 0.509731,-3.5074308 1.529196,-4.5997225 1.01946,-1.0922708 2.359864,-1.6384115 4.021217,-1.6384235 1.450975,1.2e-5 2.62956,0.4288336 3.535758,1.2864659 0.539389,0.507045 0.943937,1.2352325 1.213647,2.1845647 L 42.431637,10.033804 C 42.291385,9.4188983 41.998761,8.93344 41.553766,8.5774277 41.108755,8.2214344 40.568008,8.043433 39.931524,8.043423 c -0.879225,10e-6 -1.592579,0.3155579 -2.140064,0.9466447 -0.547493,0.6311049 -0.821238,1.6532643 -0.821235,3.0664813 -3e-6,1.499533 0.269696,2.567541 0.809099,3.204028 0.539394,0.636493 1.240611,0.954738 2.103654,0.954736 0.636484,2e-6 1.183973,-0.202272 1.642469,-0.606823 0.458481,-0.404547 0.787514,-1.041036 0.9871,-1.909472 z"
     style="line-height:125%;fill:#003366;font-family:Sans;-inkscape-font-specification:Sans Bold"
     id="path3800"
     inkscape:connector-curvature="0" /></g></svg>