<?xml version="1.0" encoding="UTF-8" standalone="no"?>
<!-- Generator: Adobe Illustrator 15.0.0, SVG Export Plug-In . SVG Version: 6.00 Build 0)  -->

<svg
   xmlns:dc="http://purl.org/dc/elements/1.1/"
   xmlns:cc="http://creativecommons.org/ns#"
   xmlns:rdf="http://www.w3.org/1999/02/22-rdf-syntax-ns#"
   xmlns:svg="http://www.w3.org/2000/svg"
   xmlns="http://www.w3.org/2000/svg"
   xmlns:sodipodi="http://sodipodi.sourceforge.net/DTD/sodipodi-0.dtd"
   xmlns:inkscape="http://www.inkscape.org/namespaces/inkscape"
   version="1.1"
   id="Layer_1"
   x="0px"
   y="0px"
   width="48px"
   height="48px"
   viewBox="0 0 48 48"
   enable-background="new 0 0 48 48"
   xml:space="preserve"
   inkscape:version="0.48.2 r9819"
   sodipodi:docname="document.svg"><metadata
   id="metadata3803"><rdf:RDF><cc:Work
       rdf:about=""><dc:format>image/svg+xml</dc:format><dc:type
         rdf:resource="http://purl.org/dc/dcmitype/StillImage" /><dc:title></dc:title></cc:Work></rdf:RDF></metadata><defs
   id="defs3801" /><sodipodi:namedview
   pagecolor="#ffffff"
   bordercolor="#666666"
   borderopacity="1"
   objecttolerance="10"
   gridtolerance="10"
   guidetolerance="10"
   inkscape:pageopacity="0"
   inkscape:pageshadow="2"
   inkscape:window-width="1021"
   inkscape:window-height="993"
   id="namedview3799"
   showgrid="false"
   inkscape:zoom="1.7383042"
   inkscape:cx="-35.782485"
   inkscape:cy="26.11553"
   inkscape:window-x="22"
   inkscape:window-y="-1"
   inkscape:window-maximized="0"
   inkscape:current-layer="Layer_1" />

<path
   inkscape:connector-curvature="0"
   style="fill:#003366;fill-opacity:1;fill-rule:nonzero;stroke:none;display:inline"
   d="m 4.0624975,0.1250002 c -2.1773,0 -3.9375,1.76013 -3.9375,3.9375 l 0,39.8749998 c 0,2.17736 1.7602,3.9375 3.9375,3.9375 l 39.8749995,0 c 2.177405,0 3.937505,-1.76014 3.937505,-3.9375 l 0,-25.875 c 0,-8.3109502 -8.672795,-17.9374998 -17.937505,-17.9374998 z m 5.75,6.4999996 16.8124995,0 0,11.7812502 11.9375,0 0,22.625 c 0,0.17746 -0.13504,0.34375 -0.3125,0.34375 l -28.4374995,0 c -0.17745,0 -0.375,-0.16629 -0.375,-0.34375 l 0,-34.0625002 c 0,-0.17745 0.19755,-0.34375 0.375,-0.34375 z m 19.9062495,0.40625 8.3125,7.9062502 -8.3125,0 z m -17.71875,16.8750002 0,2.9375 22.5625,0 0,-2.9375 z m 0,5.75 0,2.9375 22.5625,0 0,-2.9375 z m 0,5.75 0,2.9375 22.5625,0 0,-2.9375 z"
   id="rect5139-1"
   sodipodi:nodetypes="sssssssssscccssssssccccccccccccccccccc" /></svg>