<?xml version="1.0" encoding="UTF-8" standalone="no"?>
<!-- Generator: Adobe Illustrator 15.0.0, SVG Export Plug-In . SVG Version: 6.00 Build 0)  -->

<svg
   xmlns:dc="http://purl.org/dc/elements/1.1/"
   xmlns:cc="http://creativecommons.org/ns#"
   xmlns:rdf="http://www.w3.org/1999/02/22-rdf-syntax-ns#"
   xmlns:svg="http://www.w3.org/2000/svg"
   xmlns="http://www.w3.org/2000/svg"
   xmlns:sodipodi="http://sodipodi.sourceforge.net/DTD/sodipodi-0.dtd"
   xmlns:inkscape="http://www.inkscape.org/namespaces/inkscape"
   version="1.1"
   id="Layer_1"
   x="0px"
   y="0px"
   width="48px"
   height="48px"
   viewBox="0 0 48 48"
   enable-background="new 0 0 48 48"
   xml:space="preserve"
   inkscape:version="0.48.2 r9819"
   sodipodi:docname="document_doc.svg"><metadata
   id="metadata3803"><rdf:RDF><cc:Work
       rdf:about=""><dc:format>image/svg+xml</dc:format><dc:type
         rdf:resource="http://purl.org/dc/dcmitype/StillImage" /><dc:title></dc:title></cc:Work></rdf:RDF></metadata><defs
   id="defs3801" /><sodipodi:namedview
   pagecolor="#ffffff"
   bordercolor="#666666"
   borderopacity="1"
   objecttolerance="10"
   gridtolerance="10"
   guidetolerance="10"
   inkscape:pageopacity="0"
   inkscape:pageshadow="2"
   inkscape:window-width="1920"
   inkscape:window-height="1020"
   id="namedview3799"
   showgrid="false"
   inkscape:zoom="4.9166667"
   inkscape:cx="-5.5404246"
   inkscape:cy="21.639615"
   inkscape:window-x="-4"
   inkscape:window-y="-4"
   inkscape:window-maximized="1"
   inkscape:current-layer="Layer_1"
   showguides="true"
   inkscape:guide-bbox="true" />

<g
   id="g3004"><path
     inkscape:connector-curvature="0"
     id="path3838-989"
     d="m 13.892845,-0.4272216 c -3.92181,0 -7.0644,3.294889 -7.0644,7.406784 l 0,10.4471246 c 0,4.111898 3.14259,7.406784 7.0644,7.406784 l 26.74597,0 c 3.92181,0 7.09524,-3.294886 7.09524,-7.406784 l 0,-10.4471246 c 0,-4.111895 -3.17343,-7.406784 -7.09524,-7.406784 l -26.74597,0 z m 0.86377,1.326106 25.04928,0 c 3.67571,0 6.6325,2.954575 6.6325,6.630527 l 0,9.3474266 c 0,3.675952 -2.95679,6.630528 -6.6325,6.630528 l -25.04928,0 c -3.67571,0 -6.6325,-2.954576 -6.6325,-6.630528 l 0,-9.3474266 c 0,-3.675952 2.95679,-6.630527 6.6325,-6.630527 z"
     style="fill:#003366;fill-opacity:1;stroke:none;display:inline" /><path
     id="rect5014-7"
     d="M 0 13.34375 L 0 48 L 29.1875 48 L 29.1875 24.40625 L 13.71875 24.40625 C 9.74594 24.40625 6.5625 21.22281 6.5625 17.25 L 6.5625 13.34375 L 0 13.34375 z M 3.375 29.90625 L 25.84375 29.90625 L 25.84375 32.9375 L 3.375 32.9375 L 3.375 29.90625 z M 3.375 35.40625 L 25.84375 35.40625 L 25.84375 38.4375 L 3.375 38.4375 L 3.375 35.40625 z M 3.375 40.90625 L 25.84375 40.90625 L 25.84375 43.9375 L 3.375 43.9375 L 3.375 40.90625 z "
     style="fill:#003366;fill-opacity:1;fill-rule:nonzero;stroke:none" /><path
     style="fill:#003366;fill-opacity:1;stroke:none;display:inline"
     d="M 13.71875,-2e-7 C 9.74594,-2e-7 6.5625,3.1834391 6.5625,7.1562501 l 0,10.0937499 c 0,3.972813 3.18344,7.15625 7.15625,7.15625 l 27.09375,0 C 44.78531,24.40625 48,21.222813 48,17.25 L 48,7.1562501 C 48,3.1834391 44.78531,-2e-7 40.8125,-2e-7 l -27.09375,0 z m 0.875,1.2812503 25.375,0 c 3.7235,0 6.71875,2.854638 6.71875,6.40625 l 0,9.0312499 c 0,3.551612 -2.99525,6.40625 -6.71875,6.40625 l -25.375,0 C 10.87024,23.125 7.875,20.270362 7.875,16.71875 l 0,-9.0312499 c 0,-3.551612 2.99524,-6.40625 6.71875,-6.40625 z"
     id="path3009"
     inkscape:connector-curvature="0" /><g
     id="text3089"
     style="font-size:16.57032776px;font-style:normal;font-variant:normal;font-weight:bold;font-stretch:normal;text-align:start;line-height:125%;letter-spacing:0px;word-spacing:0px;writing-mode:lr-tb;text-anchor:start;fill:#003366;fill-opacity:1;stroke:none;font-family:Sans;-inkscape-font-specification:Sans Bold"
     transform="matrix(0.99395595,0,0,1.0060808,57.402584,26.647872)"><path
       inkscape:connector-curvature="0"
       id="path2998"
       style="line-height:125%;fill:#003366;font-family:Sans;-inkscape-font-specification:Sans Bold"
       d="m -47.263191,-14.284624 c 0,-1.208246 0.180698,-2.222314 0.542096,-3.042208 0.269698,-0.604117 0.637837,-1.146213 1.104419,-1.626287 0.466577,-0.480054 0.977657,-0.836057 1.533241,-1.06801 0.738971,-0.312839 1.59122,-0.469265 2.55675,-0.469277 1.747643,1.2e-5 3.146033,0.542108 4.195173,1.626287 1.049119,1.084201 1.573683,2.591819 1.573695,4.522858 -1.2e-5,1.91487 -0.520531,3.413048 -1.561559,4.49454 -1.041049,1.0814947 -2.432696,1.6222413 -4.174946,1.6222415 -1.763838,-2e-7 -3.166273,-0.5380498 -4.207309,-1.6141506 -1.041041,-1.0760979 -1.56156,-2.5580939 -1.56156,-4.4459939 z m 2.467749,-0.08091 c -3e-6,1.343108 0.310151,2.361222 0.930463,3.054346 0.620304,0.693129 1.407825,1.039692 2.362566,1.03969 0.954729,2e-6 1.738205,-0.343864 2.35043,-1.0316 0.612208,-0.687729 0.918317,-1.719328 0.918327,-3.094799 -10e-6,-1.359278 -0.298028,-2.373346 -0.894054,-3.042209 -0.596044,-0.668845 -1.38761,-1.003272 -2.374703,-1.003282 -0.987105,10e-6 -1.782717,0.338483 -2.386839,1.015418 -0.60413,0.676954 -0.906193,1.697765 -0.90619,3.062436 z" /><path
       inkscape:connector-curvature="0"
       id="path3000"
       style="line-height:125%;fill:#003366;font-family:Sans;-inkscape-font-specification:Sans Bold"
       d="m -33.904982,-20.288131 4.37722,0 c 0.987093,1.2e-5 1.739553,0.07553 2.257383,0.226547 0.695816,0.204983 1.291851,0.569077 1.788107,1.092283 0.496237,0.523226 0.873816,1.163762 1.132737,1.921607 0.258901,0.757863 0.388356,1.692371 0.388367,2.803525 -1.1e-5,0.976317 -0.121375,1.817778 -0.364094,2.524386 -0.296679,0.86304 -0.720107,1.561561 -1.270284,2.0955639 -0.415346,0.4045498 -0.97632,0.7200977 -1.682924,0.9466447 -0.528618,0.1672137 -1.235229,0.2508204 -2.119836,0.2508204 l -4.506676,0 z m 2.39493,2.006563 0,7.856342 1.788106,0 c 0.668849,2e-6 1.15161,-0.03776 1.448286,-0.113274 0.38836,-0.09709 0.71065,-0.261606 0.966872,-0.49355 0.256206,-0.231938 0.465223,-0.613562 0.627051,-1.144873 0.161811,-0.531304 0.242721,-1.255446 0.242729,-2.172429 -8e-6,-0.916971 -0.08092,-1.620885 -0.242729,-2.111745 -0.161828,-0.490845 -0.388375,-0.873817 -0.679642,-1.14892 -0.291283,-0.275084 -0.660771,-0.461176 -1.108465,-0.558277 -0.334433,-0.07551 -0.989802,-0.113264 -1.966108,-0.113274 z" /><path
       inkscape:connector-curvature="0"
       id="path3002"
       style="line-height:125%;fill:#003366;font-family:Sans;-inkscape-font-specification:Sans Bold"
       d="m -19.252217,-8.426754 0,-9.854814 -3.519576,0 0,-2.006563 9.425992,0 0,2.006563 -3.511485,0 0,9.854814 z" /></g></g></svg>