<?xml version="1.0" encoding="UTF-8" standalone="no"?>
<!-- Generator: Adobe Illustrator 15.0.0, SVG Export Plug-In . SVG Version: 6.00 Build 0)  -->

<svg
   xmlns:dc="http://purl.org/dc/elements/1.1/"
   xmlns:cc="http://creativecommons.org/ns#"
   xmlns:rdf="http://www.w3.org/1999/02/22-rdf-syntax-ns#"
   xmlns:svg="http://www.w3.org/2000/svg"
   xmlns="http://www.w3.org/2000/svg"
   xmlns:sodipodi="http://sodipodi.sourceforge.net/DTD/sodipodi-0.dtd"
   xmlns:inkscape="http://www.inkscape.org/namespaces/inkscape"
   version="1.1"
   id="Layer_1"
   x="0px"
   y="0px"
   width="48px"
   height="48px"
   viewBox="0 0 48 48"
   enable-background="new 0 0 48 48"
   xml:space="preserve"
   inkscape:version="0.48.2 r9819"
   sodipodi:docname="expand.svg"><metadata
   id="metadata3803"><rdf:RDF><cc:Work
       rdf:about=""><dc:format>image/svg+xml</dc:format><dc:type
         rdf:resource="http://purl.org/dc/dcmitype/StillImage" /><dc:title /></cc:Work></rdf:RDF></metadata><defs
   id="defs3801" /><sodipodi:namedview
   pagecolor="#ffffff"
   bordercolor="#666666"
   borderopacity="1"
   objecttolerance="10"
   gridtolerance="10"
   guidetolerance="10"
   inkscape:pageopacity="0"
   inkscape:pageshadow="2"
   inkscape:window-width="1018"
   inkscape:window-height="993"
   id="namedview3799"
   showgrid="false"
   inkscape:zoom="4.9166667"
   inkscape:cx="21.305608"
   inkscape:cy="25.17125"
   inkscape:window-x="25"
   inkscape:window-y="-1"
   inkscape:window-maximized="0"
   inkscape:current-layer="Layer_1" />

<g
   id="g3765"><path
     inkscape:connector-curvature="0"
     id="rect8587"
     d="m 7.9001572,7.9159151 0,14.0834239 5.0095398,-5.041047 6.994452,7.025959 -7.025958,7.057465 -4.9780338,-5.00954 0,14.051917 14.2094498,0 -5.10406,-5.135566 7.025959,-7.057465 6.962945,7.025958 -5.135566,5.167073 14.240957,0 0,-14.083424 -5.00954,5.041047 -6.994452,-7.025959 7.025958,-7.057465 4.978034,5.00954 0,-14.0519169 -14.335476,0 5.230085,5.2615919 -7.025958,7.057465 -6.962946,-7.025958 5.261593,-5.2930989 -14.3669828,0 z"
     style="fill:#003366;fill-opacity:1;stroke:none" /><path
     id="rect3754"
     d="M 0 0 L 0 14.65625 L 5.71875 14.65625 L 5.71875 5.71875 L 14.65625 5.71875 L 14.65625 0 L 0 0 z M 33.34375 0 L 33.34375 5.71875 L 42.28125 5.71875 L 42.28125 14.65625 L 48 14.65625 L 48 0 L 33.34375 0 z M 0 33.34375 L 0 48 L 14.65625 48 L 14.65625 42.28125 L 5.71875 42.28125 L 5.71875 33.34375 L 0 33.34375 z M 42.28125 33.34375 L 42.28125 42.28125 L 33.34375 42.28125 L 33.34375 48 L 48 48 L 48 33.34375 L 42.28125 33.34375 z "
     style="fill:#003366;fill-opacity:1;fill-rule:nonzero;stroke:none" /></g></svg>