<?xml version="1.0" encoding="UTF-8" standalone="no"?>
<!-- Generator: Adobe Illustrator 15.0.0, SVG Export Plug-In . SVG Version: 6.00 Build 0)  -->

<svg
   xmlns:dc="http://purl.org/dc/elements/1.1/"
   xmlns:cc="http://creativecommons.org/ns#"
   xmlns:rdf="http://www.w3.org/1999/02/22-rdf-syntax-ns#"
   xmlns:svg="http://www.w3.org/2000/svg"
   xmlns="http://www.w3.org/2000/svg"
   xmlns:sodipodi="http://sodipodi.sourceforge.net/DTD/sodipodi-0.dtd"
   xmlns:inkscape="http://www.inkscape.org/namespaces/inkscape"
   version="1.1"
   id="Layer_1"
   x="0px"
   y="0px"
   width="48px"
   height="48px"
   viewBox="0 0 48 48"
   enable-background="new 0 0 48 48"
   xml:space="preserve"
   inkscape:version="0.48.2 r9819"
   sodipodi:docname="thumb_down.svg"><metadata
   id="metadata3803"><rdf:RDF><cc:Work
       rdf:about=""><dc:format>image/svg+xml</dc:format><dc:type
         rdf:resource="http://purl.org/dc/dcmitype/StillImage" /><dc:title></dc:title></cc:Work></rdf:RDF></metadata><defs
   id="defs3801" /><sodipodi:namedview
   pagecolor="#ffffff"
   bordercolor="#666666"
   borderopacity="1"
   objecttolerance="10"
   gridtolerance="10"
   guidetolerance="10"
   inkscape:pageopacity="0"
   inkscape:pageshadow="2"
   inkscape:window-width="1021"
   inkscape:window-height="993"
   id="namedview3799"
   showgrid="false"
   inkscape:zoom="4.9166667"
   inkscape:cx="12.326974"
   inkscape:cy="24"
   inkscape:window-x="22"
   inkscape:window-y="-1"
   inkscape:window-maximized="0"
   inkscape:current-layer="Layer_1" />

<path
   inkscape:connector-curvature="0"
   id="path2993"
   d="m 18.50525,2.01e-5 c -10.1935999,0 -18.44210005,8.24846 -18.44210005,18.4420599 0,10.1937 8.24850005,18.5053 18.44210005,18.5053 3.6413,0 6.9951,-1.0772 9.8527,-2.9053 l 14.5263,13.9579 5.0526,-4.8631 -14.4631,-13.9579 c 2.1607,-3.0326 3.4736,-6.7354 3.4736,-10.7369 0,-10.1935999 -8.2484,-18.4420599 -18.4421,-18.4420599 z m 0,4.9895 c 7.4573,0 13.5158,5.9953599 13.5158,13.4525599 0,7.4573 -6.0585,13.5158 -13.5158,13.5158 -7.4572,0 -13.5158,-6.0585 -13.5158,-13.5158 0,-7.4572 6.0586,-13.4525599 13.5158,-13.4525599 z"
   style="fill:#003366;fill-opacity:1;fill-rule:nonzero;stroke:none;display:inline" /></svg>