<?xml version="1.0" encoding="UTF-8" standalone="no"?>
<!-- Generator: Adobe Illustrator 15.0.0, SVG Export Plug-In . SVG Version: 6.00 Build 0)  -->

<svg
   xmlns:dc="http://purl.org/dc/elements/1.1/"
   xmlns:cc="http://creativecommons.org/ns#"
   xmlns:rdf="http://www.w3.org/1999/02/22-rdf-syntax-ns#"
   xmlns:svg="http://www.w3.org/2000/svg"
   xmlns="http://www.w3.org/2000/svg"
   xmlns:sodipodi="http://sodipodi.sourceforge.net/DTD/sodipodi-0.dtd"
   xmlns:inkscape="http://www.inkscape.org/namespaces/inkscape"
   version="1.1"
   id="Layer_1"
   x="0px"
   y="0px"
   width="48px"
   height="48px"
   viewBox="0 0 48 48"
   enable-background="new 0 0 48 48"
   xml:space="preserve"
   inkscape:version="0.48.2 r9819"
   sodipodi:docname="find_gris_cuadro.svg"><metadata
   id="metadata3803"><rdf:RDF><cc:Work
       rdf:about=""><dc:format>image/svg+xml</dc:format><dc:type
         rdf:resource="http://purl.org/dc/dcmitype/StillImage" /><dc:title /></cc:Work></rdf:RDF></metadata><defs
   id="defs3801" /><sodipodi:namedview
   pagecolor="#ffffff"
   bordercolor="#666666"
   borderopacity="1"
   objecttolerance="10"
   gridtolerance="10"
   guidetolerance="10"
   inkscape:pageopacity="0"
   inkscape:pageshadow="2"
   inkscape:window-width="1920"
   inkscape:window-height="1020"
   id="namedview3799"
   showgrid="false"
   inkscape:zoom="4.9166667"
   inkscape:cx="-19.096755"
   inkscape:cy="-0.4067795"
   inkscape:window-x="-4"
   inkscape:window-y="-4"
   inkscape:window-maximized="1"
   inkscape:current-layer="Layer_1" />

<path
   style="fill:#808080;fill-opacity:1;fill-rule:nonzero;stroke:none"
   d="M 3.9375 0 C 1.7481 0 0 1.74801 0 3.9375 L 0 44.0625 C 0 46.25199 1.7481 48 3.9375 48 L 44.0625 48 C 46.252 48 48 46.25199 48 44.0625 L 48 3.9375 C 48 1.74801 46.252 0 44.0625 0 L 3.9375 0 z M 19.15625 2.84375 C 28.140527 2.84375 35.40625 10.109562 35.40625 19.09375 C 35.40625 22.620496 34.248096 25.8897 32.34375 28.5625 L 45.09375 40.875 L 40.65625 45.15625 L 27.84375 32.84375 C 25.325188 34.454957 22.365531 35.40625 19.15625 35.40625 C 10.172061 35.40625 2.90625 28.078027 2.90625 19.09375 C 2.90625 10.109562 10.172061 2.84375 19.15625 2.84375 z M 19.15625 7.25 C 12.583803 7.25 7.25 12.521304 7.25 19.09375 C 7.25 25.666285 12.583803 31 19.15625 31 C 25.728785 31 31.0625 25.666285 31.0625 19.09375 C 31.0625 12.521304 25.728785 7.25 19.15625 7.25 z "
   id="rect2992" /></svg>