<?xml version="1.0" encoding="UTF-8" standalone="no"?>
<!-- Generator: Adobe Illustrator 15.0.0, SVG Export Plug-In . SVG Version: 6.00 Build 0)  -->

<svg
   xmlns:dc="http://purl.org/dc/elements/1.1/"
   xmlns:cc="http://creativecommons.org/ns#"
   xmlns:rdf="http://www.w3.org/1999/02/22-rdf-syntax-ns#"
   xmlns:svg="http://www.w3.org/2000/svg"
   xmlns="http://www.w3.org/2000/svg"
   xmlns:sodipodi="http://sodipodi.sourceforge.net/DTD/sodipodi-0.dtd"
   xmlns:inkscape="http://www.inkscape.org/namespaces/inkscape"
   version="1.1"
   id="Layer_1"
   x="0px"
   y="0px"
   width="48px"
   height="48px"
   viewBox="0 0 48 48"
   enable-background="new 0 0 48 48"
   xml:space="preserve"
   inkscape:version="0.91 r13725"
   sodipodi:docname="generico.svg"><metadata
   id="metadata3803"><rdf:RDF><cc:Work
       rdf:about=""><dc:format>image/svg+xml</dc:format><dc:type
         rdf:resource="http://purl.org/dc/dcmitype/StillImage" /><dc:title></dc:title></cc:Work></rdf:RDF></metadata><defs
   id="defs3801" /><sodipodi:namedview
   pagecolor="#ffffff"
   bordercolor="#666666"
   borderopacity="1"
   objecttolerance="10"
   gridtolerance="10"
   guidetolerance="10"
   inkscape:pageopacity="0"
   inkscape:pageshadow="2"
   inkscape:window-width="1920"
   inkscape:window-height="1020"
   id="namedview3799"
   showgrid="false"
   inkscape:zoom="2.8284271"
   inkscape:cx="-31.755395"
   inkscape:cy="83.731553"
   inkscape:window-x="-4"
   inkscape:window-y="-4"
   inkscape:window-maximized="1"
   inkscape:current-layer="Layer_1" />

<path
   style="color:#000000;fill:#003366;fill-opacity:1;stroke:none;stroke-width:2.68430781;marker:none;visibility:visible;display:inline;overflow:visible;enable-background:accumulate"
   d="M 4.625 0 C 2.06976 0 -2.8912058e-019 0.45473245 0 1.0390625 L 0 46.960938 C 0 47.54527 2.06976 48 4.625 48 L 43.375 48 C 45.93024 48 48 47.54527 48 46.960938 L 48 1.0390625 C 48 0.45473245 45.93024 -7.2280145e-020 43.375 0 L 4.625 0 z M 17.376953 12.105469 L 44.361328 12.105469 L 44.361328 12.113281 L 44.363281 12.113281 L 44.363281 19.796875 L 44.361328 19.796875 L 44.361328 21.785156 L 44.363281 21.785156 L 44.363281 27.570312 L 44.361328 27.570312 L 44.361328 29.558594 L 44.363281 29.558594 L 44.363281 35.34375 L 44.361328 35.34375 L 44.361328 37.333984 L 44.363281 37.333984 L 44.363281 44.158203 L 32.689453 44.158203 L 32.689453 44.15625 L 30.712891 44.15625 L 30.712891 44.158203 L 17.376953 44.158203 L 17.376953 44.15625 L 17.376953 37.333984 L 17.376953 35.34375 L 17.376953 29.558594 L 17.376953 27.570312 L 17.376953 21.785156 L 17.376953 19.796875 L 17.376953 12.113281 L 17.376953 12.105469 z M 3.6816406 12.113281 L 15.400391 12.113281 L 15.400391 19.796875 L 3.6816406 19.796875 L 3.6816406 12.113281 z M 22.1875 15.28125 L 22.1875 17.84375 L 39.208984 17.84375 L 39.208984 15.28125 L 22.1875 15.28125 z M 22.1875 19.203125 L 22.1875 21.765625 L 39.208984 21.765625 L 39.208984 19.203125 L 22.1875 19.203125 z M 3.6816406 21.785156 L 15.400391 21.785156 L 15.400391 27.570312 L 3.6816406 27.570312 L 3.6816406 21.785156 z M 22.1875 23.125 L 22.1875 25.6875 L 39.208984 25.6875 L 39.208984 23.125 L 22.1875 23.125 z M 22.1875 27.046875 L 22.1875 29.609375 L 39.208984 29.609375 L 39.208984 27.046875 L 22.1875 27.046875 z M 3.6816406 29.558594 L 15.400391 29.558594 L 15.400391 35.34375 L 3.6816406 35.34375 L 3.6816406 29.558594 z M 22.1875 30.96875 L 22.1875 33.53125 L 39.208984 33.53125 L 39.208984 30.96875 L 22.1875 30.96875 z M 22.1875 34.890625 L 22.1875 37.453125 L 39.208984 37.453125 L 39.208984 34.890625 L 22.1875 34.890625 z M 3.6816406 37.333984 L 15.400391 37.333984 L 15.400391 44.158203 L 3.6816406 44.158203 L 3.6816406 37.333984 z M 22.1875 38.8125 L 22.1875 41.375 L 39.208984 41.375 L 39.208984 38.8125 L 22.1875 38.8125 z "
   id="path3840" /></svg>