<?xml version="1.0" encoding="UTF-8" standalone="no"?>
<!-- Generator: Adobe Illustrator 15.0.0, SVG Export Plug-In . SVG Version: 6.00 Build 0)  -->

<svg
   xmlns:dc="http://purl.org/dc/elements/1.1/"
   xmlns:cc="http://creativecommons.org/ns#"
   xmlns:rdf="http://www.w3.org/1999/02/22-rdf-syntax-ns#"
   xmlns:svg="http://www.w3.org/2000/svg"
   xmlns="http://www.w3.org/2000/svg"
   xmlns:sodipodi="http://sodipodi.sourceforge.net/DTD/sodipodi-0.dtd"
   xmlns:inkscape="http://www.inkscape.org/namespaces/inkscape"
   version="1.1"
   id="Layer_1"
   x="0px"
   y="0px"
   width="48px"
   height="48px"
   viewBox="0 0 48 48"
   enable-background="new 0 0 48 48"
   xml:space="preserve"
   inkscape:version="0.91 r13725"
   sodipodi:docname="generico_ods.svg"><metadata
   id="metadata3803"><rdf:RDF><cc:Work
       rdf:about=""><dc:format>image/svg+xml</dc:format><dc:type
         rdf:resource="http://purl.org/dc/dcmitype/StillImage" /><dc:title></dc:title></cc:Work></rdf:RDF></metadata><defs
   id="defs3801" /><sodipodi:namedview
   pagecolor="#ffffff"
   bordercolor="#666666"
   borderopacity="1"
   objecttolerance="10"
   gridtolerance="10"
   guidetolerance="10"
   inkscape:pageopacity="0"
   inkscape:pageshadow="2"
   inkscape:window-width="1920"
   inkscape:window-height="1020"
   id="namedview3799"
   showgrid="false"
   inkscape:zoom="11.313709"
   inkscape:cx="8.2213116"
   inkscape:cy="33.320182"
   inkscape:window-x="-4"
   inkscape:window-y="-4"
   inkscape:window-maximized="1"
   inkscape:current-layer="Layer_1" />

<path
   style="color:#000000;display:inline;overflow:visible;visibility:visible;fill:#003366;fill-opacity:1;stroke:none;stroke-width:2.68430781;marker:none;enable-background:accumulate"
   d="M 3.5625 8.46875 C 1.59827 8.46875 0 8.83502 0 9.28125 L 0 44.34375 C 0 44.78998 1.59827 45.125 3.5625 45.125 L 33.34375 45.125 C 35.30798 45.125 36.90625 44.78998 36.90625 44.34375 L 36.90625 24.40625 L 34.275391 24.40625 L 34.275391 40.144531 L 34.275391 42.123047 L 34.275391 42.185547 L 34.09375 42.185547 L 34.09375 42.1875 L 25.125 42.1875 L 25.125 42.185547 L 23.59375 42.185547 L 23.59375 42.1875 L 13.34375 42.1875 L 13.34375 42.185547 L 13.259766 42.185547 L 13.259766 40.144531 L 13.263672 40.144531 L 13.263672 24.390625 L 13.46875 24.390625 C 12.37359 24.350825 11.35241 24.0659 10.4375 23.59375 L 2.84375 23.59375 L 2.84375 17.71875 L 6.59375 17.71875 C 6.58375 17.56596 6.5625 17.40535 6.5625 17.25 L 6.5625 8.46875 L 3.5625 8.46875 z M 2.84375 25.125 L 11.84375 25.125 L 11.84375 29.53125 L 2.84375 29.53125 L 2.84375 25.125 z M 16.082031 29.390625 L 16.082031 31.890625 L 31.457031 31.890625 L 31.457031 29.390625 L 16.082031 29.390625 z M 2.84375 31.0625 L 11.84375 31.0625 L 11.84375 35.46875 L 2.84375 35.46875 L 2.84375 31.0625 z M 16.082031 33.390625 L 16.082031 35.890625 L 31.457031 35.890625 L 31.457031 33.390625 L 16.082031 33.390625 z M 2.84375 37 L 11.84375 37 L 11.84375 42.1875 L 2.84375 42.1875 L 2.84375 37 z M 16.082031 37.390625 L 16.082031 39.890625 L 31.457031 39.890625 L 31.457031 37.390625 L 16.082031 37.390625 z "
   id="path4102" /><path
   inkscape:connector-curvature="0"
   id="path4114"
   d="M 13.71875,0 C 9.7459399,0 6.5624999,3.18344 6.5624999,7.15625 l 0,10.093748 c 0,3.97281 3.18344,7.15625 7.1562501,7.15625 l 27.09375,0 c 3.97281,0 7.1875,-3.18344 7.1875,-7.15625 L 48,7.15625 C 48,3.18344 44.78531,0 40.8125,0 L 13.71875,0 Z m 0.875,1.28125 25.375,0 c 3.7235,0 6.71875,2.85464 6.71875,6.40625 l 0,9.031248 c 0,3.55161 -2.99525,6.40625 -6.71875,6.40625 l -25.375,0 c -3.72351,0 -6.7187501,-2.85464 -6.7187501,-6.40625 l 0,-9.031248 c 0,-3.55161 2.9952401,-6.40625 6.7187501,-6.40625 z"
   style="display:inline;fill:#003366;fill-opacity:1;stroke:none" /><g
   transform="matrix(0.99395595,0,0,1.0060808,67.091632,18.508739)"
   style="font-style:normal;font-variant:normal;font-weight:bold;font-stretch:normal;font-size:16.57032776px;line-height:125%;font-family:Sans;-inkscape-font-specification:'Sans Bold';text-align:start;letter-spacing:0px;word-spacing:0px;writing-mode:lr-tb;text-anchor:start;fill:#003366;fill-opacity:1;stroke:none"
   id="text3012"><g
     id="g3032"
     transform="translate(6.1294224,33.316903)" /></g><g
   transform="scale(0.99683157,1.0031785)"
   style="font-style:normal;font-variant:normal;font-weight:bold;font-stretch:normal;font-size:16.34904099px;line-height:125%;font-family:Arial;-inkscape-font-specification:'Arial Bold';letter-spacing:0px;word-spacing:0px;fill:#003366;fill-opacity:1;stroke:none;stroke-width:1px;stroke-linecap:butt;stroke-linejoin:miter;stroke-opacity:1"
   id="text3369-2-8"><path
     d="m 10.408228,12.232314 q 0,-1.788177 0.534856,-3.0015819 0.399147,-0.8940882 1.085679,-1.604569 0.694515,-0.7104808 1.516757,-1.0537468 1.093661,-0.4630099 2.522606,-0.4630099 2.586469,0 4.135157,1.6045689 1.556672,1.604569 1.556672,4.4624577 0,2.833941 -1.540706,4.438509 -1.540705,1.596587 -4.119192,1.596587 -2.610418,0 -4.151123,-1.588604 -1.540706,-1.596586 -1.540706,-4.390611 z m 2.434794,-0.07983 q 0,1.987749 0.918037,3.017547 0.918037,1.021815 2.331015,1.021815 1.412979,0 2.31505,-1.013832 0.910054,-1.021815 0.910054,-3.057462 0,-2.011699 -0.886105,-3.0015819 -0.878122,-0.9898834 -2.338999,-0.9898834 -1.460876,0 -2.354964,1.0058492 -0.894088,0.9978661 -0.894088,3.0175481 z"
     style="font-style:normal;font-variant:normal;font-weight:bold;font-stretch:normal;font-family:Arial;-inkscape-font-specification:'Arial Bold';fill:#003366;fill-opacity:1;stroke:none;stroke-opacity:1"
     id="path3370" /><path
     d="m 23.588046,6.3089796 4.318765,0 q 1.460876,0 2.227238,0.2235221 1.029798,0.3033513 1.764227,1.0776956 0.73443,0.7743442 1.117611,1.8999373 0.38318,1.1176104 0.38318,2.7620934 0,1.444911 -0.359232,2.490675 -0.439061,1.277269 -1.25332,2.067579 -0.614685,0.598719 -1.660449,0.934002 -0.782327,0.247471 -2.091528,0.247471 l -4.446492,0 0,-11.7029754 z m 2.362947,1.9797667 0,7.7514257 1.764228,0 q 0.989883,0 1.428944,-0.111762 0.574771,-0.143692 0.949969,-0.486958 0.383181,-0.343266 0.622669,-1.125593 0.239488,-0.79031 0.239488,-2.147409 0,-1.357098 -0.239488,-2.083544 Q 30.477315,9.358459 30.046237,8.9513295 29.615158,8.5442001 28.952575,8.4005073 28.457633,8.2887463 27.012723,8.2887463 l -1.06173,0 z"
     style="font-style:normal;font-variant:normal;font-weight:bold;font-stretch:normal;font-family:Arial;-inkscape-font-specification:'Arial Bold';fill:#003366;fill-opacity:1;stroke:none;stroke-opacity:1"
     id="path3372" /><path
     d="m 34.812046,14.204098 2.299083,-0.223522 q 0.207557,1.157524 0.838208,1.700364 0.638635,0.542839 1.71633,0.542839 1.141559,0 1.71633,-0.478976 0.582754,-0.486959 0.582754,-1.133576 0,-0.415112 -0.247471,-0.702498 -0.239488,-0.295368 -0.84619,-0.510907 -0.415113,-0.143693 -1.891955,-0.510908 -1.899937,-0.470993 -2.666299,-1.157525 -1.077695,-0.965934 -1.077695,-2.3549642 0,-0.8940882 0.502924,-1.6684324 0.510908,-0.7823271 1.460877,-1.1894566 0.957951,-0.4071294 2.307066,-0.4071294 2.203289,0 3.312916,0.9659345 1.117611,0.9659346 1.173491,2.5784865 L 41.629468,9.7576055 Q 41.477792,8.8555344 40.974868,8.4643708 40.479926,8.0652243 39.48206,8.0652243 q -1.029798,0 -1.612552,0.4230953 -0.375198,0.2714196 -0.375198,0.7264466 0,0.4151124 0.351249,0.7104808 0.447044,0.375198 2.171357,0.782327 1.724313,0.40713 2.546555,0.846191 0.830224,0.431078 1.293234,1.189456 0.470993,0.750396 0.470993,1.860023 0,1.005849 -0.558805,1.883972 -0.558805,0.878122 -1.58062,1.3092 -1.021815,0.423095 -2.546555,0.423095 -2.219254,0 -3.408711,-1.021815 -1.189456,-1.029798 -1.420961,-2.993598 z"
     style="font-style:normal;font-variant:normal;font-weight:bold;font-stretch:normal;font-family:Arial;-inkscape-font-specification:'Arial Bold';fill:#003366;fill-opacity:1;stroke:none;stroke-opacity:1"
     id="path3374" /></g></svg>