<?xml version="1.0" encoding="UTF-8" standalone="no"?>
<!-- Generator: Adobe Illustrator 15.0.0, SVG Export Plug-In . SVG Version: 6.00 Build 0)  -->

<svg
   xmlns:dc="http://purl.org/dc/elements/1.1/"
   xmlns:cc="http://creativecommons.org/ns#"
   xmlns:rdf="http://www.w3.org/1999/02/22-rdf-syntax-ns#"
   xmlns:svg="http://www.w3.org/2000/svg"
   xmlns="http://www.w3.org/2000/svg"
   xmlns:sodipodi="http://sodipodi.sourceforge.net/DTD/sodipodi-0.dtd"
   xmlns:inkscape="http://www.inkscape.org/namespaces/inkscape"
   version="1.1"
   id="Layer_1"
   x="0px"
   y="0px"
   width="48px"
   height="48px"
   viewBox="0 0 48 48"
   enable-background="new 0 0 48 48"
   xml:space="preserve"
   inkscape:version="0.91 r13725"
   sodipodi:docname="generico_gta.svg"><metadata
   id="metadata3803"><rdf:RDF><cc:Work
       rdf:about=""><dc:format>image/svg+xml</dc:format><dc:type
         rdf:resource="http://purl.org/dc/dcmitype/StillImage" /><dc:title></dc:title></cc:Work></rdf:RDF></metadata><defs
   id="defs3801" /><sodipodi:namedview
   pagecolor="#ffffff"
   bordercolor="#666666"
   borderopacity="1"
   objecttolerance="10"
   gridtolerance="10"
   guidetolerance="10"
   inkscape:pageopacity="0"
   inkscape:pageshadow="2"
   inkscape:window-width="1920"
   inkscape:window-height="1020"
   id="namedview3799"
   showgrid="false"
   inkscape:zoom="11.313709"
   inkscape:cx="8.2213116"
   inkscape:cy="33.320182"
   inkscape:window-x="-4"
   inkscape:window-y="-4"
   inkscape:window-maximized="1"
   inkscape:current-layer="Layer_1" />

<path
   style="color:#000000;display:inline;overflow:visible;visibility:visible;fill:#003366;fill-opacity:1;stroke:none;stroke-width:2.68430781;marker:none;enable-background:accumulate"
   d="M 3.5625 8.46875 C 1.59827 8.46875 0 8.83502 0 9.28125 L 0 44.34375 C 0 44.78998 1.59827 45.125 3.5625 45.125 L 33.34375 45.125 C 35.30798 45.125 36.90625 44.78998 36.90625 44.34375 L 36.90625 24.40625 L 34.275391 24.40625 L 34.275391 40.144531 L 34.275391 42.123047 L 34.275391 42.185547 L 34.09375 42.185547 L 34.09375 42.1875 L 25.125 42.1875 L 25.125 42.185547 L 23.59375 42.185547 L 23.59375 42.1875 L 13.34375 42.1875 L 13.34375 42.185547 L 13.259766 42.185547 L 13.259766 40.144531 L 13.263672 40.144531 L 13.263672 24.390625 L 13.46875 24.390625 C 12.37359 24.350825 11.35241 24.0659 10.4375 23.59375 L 2.84375 23.59375 L 2.84375 17.71875 L 6.59375 17.71875 C 6.58375 17.56596 6.5625 17.40535 6.5625 17.25 L 6.5625 8.46875 L 3.5625 8.46875 z M 2.84375 25.125 L 11.84375 25.125 L 11.84375 29.53125 L 2.84375 29.53125 L 2.84375 25.125 z M 16.082031 29.390625 L 16.082031 31.890625 L 31.457031 31.890625 L 31.457031 29.390625 L 16.082031 29.390625 z M 2.84375 31.0625 L 11.84375 31.0625 L 11.84375 35.46875 L 2.84375 35.46875 L 2.84375 31.0625 z M 16.082031 33.390625 L 16.082031 35.890625 L 31.457031 35.890625 L 31.457031 33.390625 L 16.082031 33.390625 z M 2.84375 37 L 11.84375 37 L 11.84375 42.1875 L 2.84375 42.1875 L 2.84375 37 z M 16.082031 37.390625 L 16.082031 39.890625 L 31.457031 39.890625 L 31.457031 37.390625 L 16.082031 37.390625 z "
   id="path4102" /><path
   inkscape:connector-curvature="0"
   id="path4114"
   d="M 13.71875,0 C 9.7459399,0 6.5624999,3.18344 6.5624999,7.15625 l 0,10.093748 c 0,3.97281 3.18344,7.15625 7.1562501,7.15625 l 27.09375,0 c 3.97281,0 7.1875,-3.18344 7.1875,-7.15625 L 48,7.15625 C 48,3.18344 44.78531,0 40.8125,0 L 13.71875,0 Z m 0.875,1.28125 25.375,0 c 3.7235,0 6.71875,2.85464 6.71875,6.40625 l 0,9.031248 c 0,3.55161 -2.99525,6.40625 -6.71875,6.40625 l -25.375,0 c -3.72351,0 -6.7187501,-2.85464 -6.7187501,-6.40625 l 0,-9.031248 c 0,-3.55161 2.9952401,-6.40625 6.7187501,-6.40625 z"
   style="display:inline;fill:#003366;fill-opacity:1;stroke:none" /><g
   transform="matrix(0.99395595,0,0,1.0060808,67.091632,18.508739)"
   style="font-style:normal;font-variant:normal;font-weight:bold;font-stretch:normal;font-size:16.57032776px;line-height:125%;font-family:Sans;-inkscape-font-specification:'Sans Bold';text-align:start;letter-spacing:0px;word-spacing:0px;writing-mode:lr-tb;text-anchor:start;fill:#003366;fill-opacity:1;stroke:none"
   id="text3012"><g
     id="g3032"
     transform="translate(6.1294224,33.316903)" /></g><g
   transform="scale(0.99683157,1.0031785)"
   style="font-style:normal;font-variant:normal;font-weight:bold;font-stretch:normal;font-size:16.34904099px;line-height:125%;font-family:Arial;-inkscape-font-specification:'Arial Bold';letter-spacing:0px;word-spacing:0px;fill:#003366;fill-opacity:1;stroke:none;stroke-width:1px;stroke-linecap:butt;stroke-linejoin:miter;stroke-opacity:1"
   id="text3369-2-8"><path
     d="m 16.802555,13.709156 0,-1.971784 5.09311,0 0,4.662031 q -0.742413,0.718464 -2.155391,1.269286 -1.404996,0.54284 -2.849907,0.54284 -1.836073,0 -3.201155,-0.766362 -1.365081,-0.774344 -2.051613,-2.203289 -0.686532,-1.436927 -0.686532,-3.121325 0,-1.828091 0.766362,-3.2490528 0.766361,-1.4209616 2.243203,-2.1793399 1.125593,-0.5827539 2.802009,-0.5827539 2.17934,0 3.400728,0.9180369 1.229371,0.9100541 1.58062,2.522606 L 19.397008,9.9891104 Q 19.149537,9.126954 18.463005,8.6320123 17.784456,8.1290877 16.762641,8.1290877 q -1.548689,0 -2.466726,0.9819004 -0.910054,0.9819009 -0.910054,2.9137699 0,2.083544 0.92602,3.129308 0.92602,1.037781 2.426811,1.037781 0.742412,0 1.484825,-0.287385 0.750395,-0.295369 1.285252,-0.710481 l 0,-1.484825 -2.706214,0 z"
     style="font-style:normal;font-variant:normal;font-weight:bold;font-stretch:normal;font-family:Arial;-inkscape-font-specification:'Arial Bold';fill:#003366;fill-opacity:1;stroke:none;stroke-opacity:1"
     id="path3349" /><path
     d="m 26.701389,18.011955 0,-9.7232087 -3.472575,0 0,-1.9797667 9.300114,0 0,1.9797667 -3.464592,0 0,9.7232087 -2.362947,0 z"
     style="font-style:normal;font-variant:normal;font-weight:bold;font-stretch:normal;font-family:Arial;-inkscape-font-specification:'Arial Bold';fill:#003366;fill-opacity:1;stroke:none;stroke-opacity:1"
     id="path3351" /><path
     d="m 43.369747,18.011955 -2.570503,0 -1.021815,-2.658315 -4.677998,0 -0.965934,2.658315 -2.50664,0 4.558253,-11.7029754 2.498657,0 4.68598,11.7029754 z m -4.350697,-4.630099 -1.612552,-4.3427142 -1.58062,4.3427142 3.193172,0 z"
     style="font-style:normal;font-variant:normal;font-weight:bold;font-stretch:normal;font-family:Arial;-inkscape-font-specification:'Arial Bold';fill:#003366;fill-opacity:1;stroke:none;stroke-opacity:1"
     id="path3353" /></g></svg>