<?xml version="1.0" encoding="UTF-8" standalone="no"?>
<!-- Generator: Adobe Illustrator 15.0.0, SVG Export Plug-In . SVG Version: 6.00 Build 0)  -->

<svg
   xmlns:dc="http://purl.org/dc/elements/1.1/"
   xmlns:cc="http://creativecommons.org/ns#"
   xmlns:rdf="http://www.w3.org/1999/02/22-rdf-syntax-ns#"
   xmlns:svg="http://www.w3.org/2000/svg"
   xmlns="http://www.w3.org/2000/svg"
   xmlns:sodipodi="http://sodipodi.sourceforge.net/DTD/sodipodi-0.dtd"
   xmlns:inkscape="http://www.inkscape.org/namespaces/inkscape"
   version="1.1"
   id="Layer_1"
   x="0px"
   y="0px"
   width="48px"
   height="48px"
   viewBox="0 0 48 48"
   enable-background="new 0 0 48 48"
   xml:space="preserve"
   inkscape:version="0.91 r13725"
   sodipodi:docname="generico_doc.svg"><metadata
   id="metadata3803"><rdf:RDF><cc:Work
       rdf:about=""><dc:format>image/svg+xml</dc:format><dc:type
         rdf:resource="http://purl.org/dc/dcmitype/StillImage" /><dc:title></dc:title></cc:Work></rdf:RDF></metadata><defs
   id="defs3801" /><sodipodi:namedview
   pagecolor="#ffffff"
   bordercolor="#666666"
   borderopacity="1"
   objecttolerance="10"
   gridtolerance="10"
   guidetolerance="10"
   inkscape:pageopacity="0"
   inkscape:pageshadow="2"
   inkscape:window-width="1920"
   inkscape:window-height="1020"
   id="namedview3799"
   showgrid="false"
   inkscape:zoom="11.313709"
   inkscape:cx="16.12741"
   inkscape:cy="9.6765456"
   inkscape:window-x="-4"
   inkscape:window-y="-4"
   inkscape:window-maximized="1"
   inkscape:current-layer="Layer_1" />

<path
   style="color:#000000;display:inline;overflow:visible;visibility:visible;fill:#003366;fill-opacity:1;stroke:none;stroke-width:2.68430781;marker:none;enable-background:accumulate"
   d="M 3.5625 8.46875 C 1.59827 8.46875 0 8.83502 0 9.28125 L 0 44.34375 C 0 44.78998 1.59827 45.125 3.5625 45.125 L 33.34375 45.125 C 35.30798 45.125 36.90625 44.78998 36.90625 44.34375 L 36.90625 24.40625 L 34.275391 24.40625 L 34.275391 40.144531 L 34.275391 42.123047 L 34.275391 42.185547 L 34.09375 42.185547 L 34.09375 42.1875 L 25.125 42.1875 L 25.125 42.185547 L 23.59375 42.185547 L 23.59375 42.1875 L 13.34375 42.1875 L 13.34375 42.185547 L 13.259766 42.185547 L 13.259766 40.144531 L 13.263672 40.144531 L 13.263672 24.390625 L 13.46875 24.390625 C 12.37359 24.350825 11.35241 24.0659 10.4375 23.59375 L 2.84375 23.59375 L 2.84375 17.71875 L 6.59375 17.71875 C 6.58375 17.56596 6.5625 17.40535 6.5625 17.25 L 6.5625 8.46875 L 3.5625 8.46875 z M 2.84375 25.125 L 11.84375 25.125 L 11.84375 29.53125 L 2.84375 29.53125 L 2.84375 25.125 z M 16.082031 29.390625 L 16.082031 31.890625 L 31.457031 31.890625 L 31.457031 29.390625 L 16.082031 29.390625 z M 2.84375 31.0625 L 11.84375 31.0625 L 11.84375 35.46875 L 2.84375 35.46875 L 2.84375 31.0625 z M 16.082031 33.390625 L 16.082031 35.890625 L 31.457031 35.890625 L 31.457031 33.390625 L 16.082031 33.390625 z M 2.84375 37 L 11.84375 37 L 11.84375 42.1875 L 2.84375 42.1875 L 2.84375 37 z M 16.082031 37.390625 L 16.082031 39.890625 L 31.457031 39.890625 L 31.457031 37.390625 L 16.082031 37.390625 z "
   id="path4102" /><path
   inkscape:connector-curvature="0"
   id="path4114"
   d="M 13.71875,0 C 9.7459399,0 6.5624999,3.18344 6.5624999,7.15625 l 0,10.093748 c 0,3.97281 3.18344,7.15625 7.1562501,7.15625 l 27.09375,0 c 3.97281,0 7.1875,-3.18344 7.1875,-7.15625 L 48,7.15625 C 48,3.18344 44.78531,0 40.8125,0 L 13.71875,0 Z m 0.875,1.28125 25.375,0 c 3.7235,0 6.71875,2.85464 6.71875,6.40625 l 0,9.031248 c 0,3.55161 -2.99525,6.40625 -6.71875,6.40625 l -25.375,0 c -3.72351,0 -6.7187501,-2.85464 -6.7187501,-6.40625 l 0,-9.031248 c 0,-3.55161 2.9952401,-6.40625 6.7187501,-6.40625 z"
   style="display:inline;fill:#003366;fill-opacity:1;stroke:none" /><g
   transform="matrix(0.99395595,0,0,1.0060808,67.091632,18.508739)"
   style="font-style:normal;font-variant:normal;font-weight:bold;font-stretch:normal;font-size:16.57032776px;line-height:125%;font-family:Sans;-inkscape-font-specification:'Sans Bold';text-align:start;letter-spacing:0px;word-spacing:0px;writing-mode:lr-tb;text-anchor:start;fill:#003366;fill-opacity:1;stroke:none"
   id="text3012"><g
     id="g3032"
     transform="translate(6.1294224,33.316903)" /></g><g
   transform="scale(0.99683157,1.0031785)"
   style="font-style:normal;font-variant:normal;font-weight:bold;font-stretch:normal;font-size:16.34904099px;line-height:125%;font-family:Arial;-inkscape-font-specification:'Arial Bold';letter-spacing:0px;word-spacing:0px;fill:#003366;fill-opacity:1;stroke:none;stroke-width:1px;stroke-linecap:butt;stroke-linejoin:miter;stroke-opacity:1"
   id="text3369-2"><path
     d="m 10.212646,6.3129717 4.318766,0 q 1.460876,0 2.227237,0.2235221 1.029798,0.3033513 1.764228,1.0776955 0.734429,0.7743443 1.11761,1.8999374 0.383181,1.1176103 0.383181,2.7620943 0,1.44491 -0.359232,2.490674 -0.439061,1.277269 -1.25332,2.067579 -0.614686,0.598719 -1.66045,0.934003 -0.782327,0.24747 -2.091527,0.24747 l -4.446493,0 0,-11.7029753 z m 2.362948,1.9797667 0,7.7514256 1.764227,0 q 0.989884,0 1.428945,-0.111761 0.574771,-0.143693 0.949969,-0.486959 0.38318,-0.343266 0.622668,-1.125593 0.239488,-0.79031 0.239488,-2.147409 0,-1.357098 -0.239488,-2.083544 Q 17.101915,9.362451 16.670837,8.9553216 16.239759,8.5481922 15.577175,8.4044994 15.082234,8.2927384 13.637323,8.2927384 l -1.061729,0 z"
     style="font-style:normal;font-variant:normal;font-weight:bold;font-stretch:normal;font-family:Arial;-inkscape-font-specification:'Arial Bold';fill:#003366;fill-opacity:1;stroke:none;stroke-opacity:1"
     id="path4542" /><path
     d="m 21.55639,12.236306 q 0,-1.788176 0.534856,-3.0015818 0.399147,-0.8940882 1.085679,-1.604569 0.694515,-0.7104808 1.516756,-1.0537468 1.093662,-0.4630099 2.522606,-0.4630099 2.58647,0 4.135158,1.6045689 1.556672,1.604569 1.556672,4.4624576 0,2.833941 -1.540706,4.43851 -1.540705,1.596586 -4.119192,1.596586 -2.610418,0 -4.151124,-1.588604 -1.540705,-1.596586 -1.540705,-4.390611 z m 2.434794,-0.07983 q 0,1.987749 0.918037,3.017547 0.918037,1.021815 2.331015,1.021815 1.412979,0 2.31505,-1.013832 0.910054,-1.021815 0.910054,-3.057462 0,-2.011699 -0.886105,-3.0015819 -0.878123,-0.9898833 -2.338999,-0.9898833 -1.460876,0 -2.354964,1.0058492 -0.894088,0.997866 -0.894088,3.017548 z"
     style="font-style:normal;font-variant:normal;font-weight:bold;font-stretch:normal;font-family:Arial;-inkscape-font-specification:'Arial Bold';fill:#003366;fill-opacity:1;stroke:none;stroke-opacity:1"
     id="path4544" /><path
     d="m 42.232179,13.713148 2.291101,0.726447 q -0.526873,1.915903 -1.756244,2.849906 -1.221389,0.92602 -3.10536,0.92602 -2.331016,0 -3.831807,-1.588604 -1.500791,-1.596586 -1.500791,-4.358679 0,-2.9217528 1.508774,-4.5343047 1.508774,-1.6205348 3.967517,-1.6205348 2.147408,0 3.48854,1.2692859 0.798293,0.7503954 1.19744,2.1553911 L 42.15235,10.096881 Q 41.944794,9.1868266 41.282211,8.6599532 40.62761,8.1330798 39.685625,8.1330798 q -1.301218,0 -2.115477,0.9340028 -0.806276,0.9340024 -0.806276,3.0255304 0,2.219255 0.798293,3.161241 0.798293,0.941985 2.075562,0.941985 0.941986,0 1.620535,-0.598719 0.678549,-0.59872 0.973917,-1.883972 z"
     style="font-style:normal;font-variant:normal;font-weight:bold;font-stretch:normal;font-family:Arial;-inkscape-font-specification:'Arial Bold';fill:#003366;fill-opacity:1;stroke:none;stroke-opacity:1"
     id="path4546" /></g></svg>