<?xml version="1.0" encoding="UTF-8" standalone="no"?>
<!-- Generator: Adobe Illustrator 15.0.0, SVG Export Plug-In . SVG Version: 6.00 Build 0)  -->

<svg
   xmlns:dc="http://purl.org/dc/elements/1.1/"
   xmlns:cc="http://creativecommons.org/ns#"
   xmlns:rdf="http://www.w3.org/1999/02/22-rdf-syntax-ns#"
   xmlns:svg="http://www.w3.org/2000/svg"
   xmlns="http://www.w3.org/2000/svg"
   xmlns:sodipodi="http://sodipodi.sourceforge.net/DTD/sodipodi-0.dtd"
   xmlns:inkscape="http://www.inkscape.org/namespaces/inkscape"
   version="1.1"
   id="Layer_1"
   x="0px"
   y="0px"
   width="48px"
   height="48px"
   viewBox="0 0 48 48"
   enable-background="new 0 0 48 48"
   xml:space="preserve"
   inkscape:version="0.91 r13725"
   sodipodi:docname="generico_sdmx.svg"><metadata
   id="metadata3803"><rdf:RDF><cc:Work
       rdf:about=""><dc:format>image/svg+xml</dc:format><dc:type
         rdf:resource="http://purl.org/dc/dcmitype/StillImage" /><dc:title></dc:title></cc:Work></rdf:RDF></metadata><defs
   id="defs3801" /><sodipodi:namedview
   pagecolor="#ffffff"
   bordercolor="#666666"
   borderopacity="1"
   objecttolerance="10"
   gridtolerance="10"
   guidetolerance="10"
   inkscape:pageopacity="0"
   inkscape:pageshadow="2"
   inkscape:window-width="1920"
   inkscape:window-height="1020"
   id="namedview3799"
   showgrid="false"
   inkscape:zoom="11.313709"
   inkscape:cx="8.2213116"
   inkscape:cy="33.320182"
   inkscape:window-x="-4"
   inkscape:window-y="-4"
   inkscape:window-maximized="1"
   inkscape:current-layer="text4658-3" />

<path
   style="color:#000000;display:inline;overflow:visible;visibility:visible;fill:#003366;fill-opacity:1;stroke:none;stroke-width:2.68430781;marker:none;enable-background:accumulate"
   d="M 3.5625 8.46875 C 1.59827 8.46875 0 8.83502 0 9.28125 L 0 44.34375 C 0 44.78998 1.59827 45.125 3.5625 45.125 L 33.34375 45.125 C 35.30798 45.125 36.90625 44.78998 36.90625 44.34375 L 36.90625 24.40625 L 34.275391 24.40625 L 34.275391 40.144531 L 34.275391 42.123047 L 34.275391 42.185547 L 34.09375 42.185547 L 34.09375 42.1875 L 25.125 42.1875 L 25.125 42.185547 L 23.59375 42.185547 L 23.59375 42.1875 L 13.34375 42.1875 L 13.34375 42.185547 L 13.259766 42.185547 L 13.259766 40.144531 L 13.263672 40.144531 L 13.263672 24.390625 L 13.46875 24.390625 C 12.37359 24.350825 11.35241 24.0659 10.4375 23.59375 L 2.84375 23.59375 L 2.84375 17.71875 L 6.59375 17.71875 C 6.58375 17.56596 6.5625 17.40535 6.5625 17.25 L 6.5625 8.46875 L 3.5625 8.46875 z M 2.84375 25.125 L 11.84375 25.125 L 11.84375 29.53125 L 2.84375 29.53125 L 2.84375 25.125 z M 16.082031 29.390625 L 16.082031 31.890625 L 31.457031 31.890625 L 31.457031 29.390625 L 16.082031 29.390625 z M 2.84375 31.0625 L 11.84375 31.0625 L 11.84375 35.46875 L 2.84375 35.46875 L 2.84375 31.0625 z M 16.082031 33.390625 L 16.082031 35.890625 L 31.457031 35.890625 L 31.457031 33.390625 L 16.082031 33.390625 z M 2.84375 37 L 11.84375 37 L 11.84375 42.1875 L 2.84375 42.1875 L 2.84375 37 z M 16.082031 37.390625 L 16.082031 39.890625 L 31.457031 39.890625 L 31.457031 37.390625 L 16.082031 37.390625 z "
   id="path4102" /><path
   inkscape:connector-curvature="0"
   id="path4114"
   d="M 13.71875,0 C 9.7459399,0 6.5624999,3.18344 6.5624999,7.15625 l 0,10.093748 c 0,3.97281 3.18344,7.15625 7.1562501,7.15625 l 27.09375,0 c 3.97281,0 7.1875,-3.18344 7.1875,-7.15625 L 48,7.15625 C 48,3.18344 44.78531,0 40.8125,0 L 13.71875,0 Z m 0.875,1.28125 25.375,0 c 3.7235,0 6.71875,2.85464 6.71875,6.40625 l 0,9.031248 c 0,3.55161 -2.99525,6.40625 -6.71875,6.40625 l -25.375,0 c -3.72351,0 -6.7187501,-2.85464 -6.7187501,-6.40625 l 0,-9.031248 c 0,-3.55161 2.9952401,-6.40625 6.7187501,-6.40625 z"
   style="display:inline;fill:#003366;fill-opacity:1;stroke:none" /><g
   transform="matrix(0.99395595,0,0,1.0060808,67.091632,18.508739)"
   style="font-style:normal;font-variant:normal;font-weight:bold;font-stretch:normal;font-size:16.57032776px;line-height:125%;font-family:Sans;-inkscape-font-specification:'Sans Bold';text-align:start;letter-spacing:0px;word-spacing:0px;writing-mode:lr-tb;text-anchor:start;fill:#003366;fill-opacity:1;stroke:none"
   id="text3012"><g
     id="g3032"
     transform="translate(6.1294224,33.316903)" /></g><g
   transform="matrix(3.4406274,0,0,3.4406274,-535.06422,-1203.6404)"
   id="text4658-3"
   style="font-style:normal;font-weight:normal;font-size:3.92595935px;line-height:125%;font-family:Sans;letter-spacing:0px;word-spacing:0px;display:inline;fill:#003366;fill-opacity:1;stroke:none"><g
     transform="scale(0.99556664,1.0044531)"
     style="font-style:normal;font-weight:normal;font-size:3.9343977px;line-height:125%;font-family:sans-serif;letter-spacing:0px;word-spacing:0px;fill:#003366;fill-opacity:1;stroke:none;stroke-width:1px;stroke-linecap:butt;stroke-linejoin:miter;stroke-opacity:1"
     id="text3395"><path
       d="m 158.55615,352.30263 0.55327,-0.0538 q 0.0499,0.27856 0.20172,0.4092 0.15368,0.13063 0.41303,0.13063 0.27472,0 0.41304,-0.11527 0.14024,-0.11718 0.14024,-0.27279 0,-0.0999 -0.0596,-0.16906 -0.0576,-0.0711 -0.20363,-0.12295 -0.0999,-0.0346 -0.4553,-0.12295 -0.45722,-0.11334 -0.64165,-0.27856 -0.25935,-0.23245 -0.25935,-0.56672 0,-0.21516 0.12103,-0.40151 0.12295,-0.18826 0.35156,-0.28624 0.23053,-0.098 0.5552,-0.098 0.53022,0 0.79725,0.23245 0.26896,0.23245 0.2824,0.62051 l -0.56864,0.025 q -0.0365,-0.21708 -0.15753,-0.31121 -0.11911,-0.0961 -0.35924,-0.0961 -0.24782,0 -0.38806,0.10182 -0.0903,0.0653 -0.0903,0.17482 0,0.0999 0.0845,0.17098 0.10758,0.0903 0.52254,0.18826 0.41496,0.098 0.61283,0.20364 0.19979,0.10374 0.31122,0.28624 0.11334,0.18059 0.11334,0.44762 0,0.24206 -0.13448,0.45338 -0.13447,0.21132 -0.38037,0.31505 -0.2459,0.10182 -0.61283,0.10182 -0.53407,0 -0.82031,-0.2459 -0.28624,-0.24782 -0.34195,-0.72041 z"
       style="font-style:normal;font-variant:normal;font-weight:bold;font-stretch:normal;font-family:Arial;-inkscape-font-specification:'Arial Bold';fill:#003366;fill-opacity:1"
       id="path3450" /><path
       d="m 161.32636,350.40267 1.03931,0 q 0.35156,0 0.53599,0.0538 0.24782,0.073 0.42456,0.25935 0.17674,0.18635 0.26895,0.45722 0.0922,0.26895 0.0922,0.6647 0,0.34772 -0.0864,0.59938 -0.10566,0.30737 -0.30162,0.49756 -0.14792,0.14408 -0.39958,0.22477 -0.18827,0.0596 -0.50333,0.0596 l -1.07005,0 0,-2.81632 z m 0.56865,0.47643 0,1.86538 0.42456,0 q 0.23821,0 0.34387,-0.0269 0.13832,-0.0346 0.22861,-0.11719 0.0922,-0.0826 0.14985,-0.27087 0.0576,-0.19019 0.0576,-0.51678 0,-0.32658 -0.0576,-0.5014 -0.0576,-0.17482 -0.16137,-0.2728 -0.10374,-0.098 -0.26319,-0.13255 -0.11911,-0.0269 -0.46683,-0.0269 l -0.2555,0 z"
       style="font-style:normal;font-variant:normal;font-weight:bold;font-stretch:normal;font-family:Arial;-inkscape-font-specification:'Arial Bold';fill:#003366;fill-opacity:1"
       id="path3452" /><path
       d="m 164.16382,353.21899 0,-2.81632 0.85104,0 0.51101,1.92109 0.50525,-1.92109 0.85296,0 0,2.81632 -0.5283,0 0,-2.21694 -0.55904,2.21694 -0.54751,0 -0.55711,-2.21694 0,2.21694 -0.5283,0 z"
       style="font-style:normal;font-variant:normal;font-weight:bold;font-stretch:normal;font-family:Arial;-inkscape-font-specification:'Arial Bold';fill:#003366;fill-opacity:1"
       id="path3454" /><path
       d="m 167.16648,353.21899 0.96247,-1.46963 -0.87217,-1.34669 0.66469,0 0.5648,0.90484 0.55328,-0.90484 0.65893,0 -0.87601,1.36782 0.96246,1.4485 -0.68583,0 -0.62435,-0.97399 -0.62628,0.97399 -0.68199,0 z"
       style="font-style:normal;font-variant:normal;font-weight:bold;font-stretch:normal;font-family:Arial;-inkscape-font-specification:'Arial Bold';fill:#003366;fill-opacity:1"
       id="path3456" /></g></g></svg>