<?xml version="1.0" encoding="UTF-8" standalone="no"?>
<!-- Generator: Adobe Illustrator 15.0.0, SVG Export Plug-In . SVG Version: 6.00 Build 0)  -->

<svg
   xmlns:dc="http://purl.org/dc/elements/1.1/"
   xmlns:cc="http://creativecommons.org/ns#"
   xmlns:rdf="http://www.w3.org/1999/02/22-rdf-syntax-ns#"
   xmlns:svg="http://www.w3.org/2000/svg"
   xmlns="http://www.w3.org/2000/svg"
   xmlns:sodipodi="http://sodipodi.sourceforge.net/DTD/sodipodi-0.dtd"
   xmlns:inkscape="http://www.inkscape.org/namespaces/inkscape"
   version="1.1"
   id="Layer_1"
   x="0px"
   y="0px"
   width="48px"
   height="48px"
   viewBox="0 0 48 48"
   enable-background="new 0 0 48 48"
   xml:space="preserve"
   inkscape:version="0.91 r13725"
   sodipodi:docname="generico_shp.svg"><metadata
   id="metadata3803"><rdf:RDF><cc:Work
       rdf:about=""><dc:format>image/svg+xml</dc:format><dc:type
         rdf:resource="http://purl.org/dc/dcmitype/StillImage" /><dc:title></dc:title></cc:Work></rdf:RDF></metadata><defs
   id="defs3801" /><sodipodi:namedview
   pagecolor="#ffffff"
   bordercolor="#666666"
   borderopacity="1"
   objecttolerance="10"
   gridtolerance="10"
   guidetolerance="10"
   inkscape:pageopacity="0"
   inkscape:pageshadow="2"
   inkscape:window-width="1920"
   inkscape:window-height="1020"
   id="namedview3799"
   showgrid="false"
   inkscape:zoom="11.313709"
   inkscape:cx="16.12741"
   inkscape:cy="9.6765456"
   inkscape:window-x="-4"
   inkscape:window-y="-4"
   inkscape:window-maximized="1"
   inkscape:current-layer="Layer_1" />

<path
   style="color:#000000;display:inline;overflow:visible;visibility:visible;fill:#003366;fill-opacity:1;stroke:none;stroke-width:2.68430781;marker:none;enable-background:accumulate"
   d="M 3.5625 8.46875 C 1.59827 8.46875 0 8.83502 0 9.28125 L 0 44.34375 C 0 44.78998 1.59827 45.125 3.5625 45.125 L 33.34375 45.125 C 35.30798 45.125 36.90625 44.78998 36.90625 44.34375 L 36.90625 24.40625 L 34.275391 24.40625 L 34.275391 40.144531 L 34.275391 42.123047 L 34.275391 42.185547 L 34.09375 42.185547 L 34.09375 42.1875 L 25.125 42.1875 L 25.125 42.185547 L 23.59375 42.185547 L 23.59375 42.1875 L 13.34375 42.1875 L 13.34375 42.185547 L 13.259766 42.185547 L 13.259766 40.144531 L 13.263672 40.144531 L 13.263672 24.390625 L 13.46875 24.390625 C 12.37359 24.350825 11.35241 24.0659 10.4375 23.59375 L 2.84375 23.59375 L 2.84375 17.71875 L 6.59375 17.71875 C 6.58375 17.56596 6.5625 17.40535 6.5625 17.25 L 6.5625 8.46875 L 3.5625 8.46875 z M 2.84375 25.125 L 11.84375 25.125 L 11.84375 29.53125 L 2.84375 29.53125 L 2.84375 25.125 z M 16.082031 29.390625 L 16.082031 31.890625 L 31.457031 31.890625 L 31.457031 29.390625 L 16.082031 29.390625 z M 2.84375 31.0625 L 11.84375 31.0625 L 11.84375 35.46875 L 2.84375 35.46875 L 2.84375 31.0625 z M 16.082031 33.390625 L 16.082031 35.890625 L 31.457031 35.890625 L 31.457031 33.390625 L 16.082031 33.390625 z M 2.84375 37 L 11.84375 37 L 11.84375 42.1875 L 2.84375 42.1875 L 2.84375 37 z M 16.082031 37.390625 L 16.082031 39.890625 L 31.457031 39.890625 L 31.457031 37.390625 L 16.082031 37.390625 z "
   id="path4102" /><path
   inkscape:connector-curvature="0"
   id="path4114"
   d="M 13.71875,0 C 9.7459399,0 6.5624999,3.18344 6.5624999,7.15625 l 0,10.093748 c 0,3.97281 3.18344,7.15625 7.1562501,7.15625 l 27.09375,0 c 3.97281,0 7.1875,-3.18344 7.1875,-7.15625 L 48,7.15625 C 48,3.18344 44.78531,0 40.8125,0 L 13.71875,0 Z m 0.875,1.28125 25.375,0 c 3.7235,0 6.71875,2.85464 6.71875,6.40625 l 0,9.031248 c 0,3.55161 -2.99525,6.40625 -6.71875,6.40625 l -25.375,0 c -3.72351,0 -6.7187501,-2.85464 -6.7187501,-6.40625 l 0,-9.031248 c 0,-3.55161 2.9952401,-6.40625 6.7187501,-6.40625 z"
   style="display:inline;fill:#003366;fill-opacity:1;stroke:none" /><g
   transform="matrix(0.99395595,0,0,1.0060808,67.091632,18.508739)"
   style="font-style:normal;font-variant:normal;font-weight:bold;font-stretch:normal;font-size:16.57032776px;line-height:125%;font-family:Sans;-inkscape-font-specification:'Sans Bold';text-align:start;letter-spacing:0px;word-spacing:0px;writing-mode:lr-tb;text-anchor:start;fill:#003366;fill-opacity:1;stroke:none"
   id="text3012"><g
     id="g3032"
     transform="translate(6.1294224,33.316903)" /></g><g
   transform="scale(0.99683157,1.0031785)"
   style="font-style:normal;font-variant:normal;font-weight:bold;font-stretch:normal;font-size:16.34904099px;line-height:125%;font-family:Arial;-inkscape-font-specification:'Arial Bold';letter-spacing:0px;word-spacing:0px;fill:#003366;fill-opacity:1;stroke:none;stroke-width:1px;stroke-linecap:butt;stroke-linejoin:miter;stroke-opacity:1"
   id="text3369-2"><path
     d="m 11.218495,14.204098 2.299084,-0.223522 q 0.207556,1.157524 0.838207,1.700364 0.638635,0.542839 1.71633,0.542839 1.141559,0 1.71633,-0.478976 0.582754,-0.486959 0.582754,-1.133576 0,-0.415112 -0.247471,-0.702498 -0.239487,-0.295368 -0.84619,-0.510907 -0.415113,-0.143693 -1.891955,-0.510908 -1.899937,-0.470993 -2.666298,-1.157525 -1.077696,-0.965934 -1.077696,-2.3549642 0,-0.8940882 0.502925,-1.6684324 0.510907,-0.7823271 1.460876,-1.1894566 0.957952,-0.4071294 2.307067,-0.4071294 2.203289,0 3.312916,0.9659345 1.11761,0.9659346 1.173491,2.5784865 l -2.362948,0.1037781 q -0.151675,-0.9020711 -0.6546,-1.2932347 -0.494942,-0.3991465 -1.492808,-0.3991465 -1.029798,0 -1.612552,0.4230953 -0.375198,0.2714196 -0.375198,0.7264466 0,0.4151124 0.351249,0.7104808 0.447044,0.375198 2.171357,0.782327 1.724313,0.40713 2.546555,0.846191 0.830225,0.431078 1.293235,1.189456 0.470993,0.750396 0.470993,1.860023 0,1.005849 -0.558805,1.883972 -0.558806,0.878122 -1.580621,1.3092 -1.021815,0.423095 -2.546554,0.423095 -2.219255,0 -3.408712,-1.021815 Q 11.45,16.167898 11.218495,14.204098 Z"
     style="font-style:normal;font-variant:normal;font-weight:bold;font-stretch:normal;font-family:Arial;-inkscape-font-specification:'Arial Bold';fill:#003366;fill-opacity:1;stroke:none;stroke-opacity:1"
     id="path4460" /><path
     d="m 22.745846,18.011955 0,-11.7029754 2.362947,0 0,4.6061504 4.6301,0 0,-4.6061504 2.362947,0 0,11.7029754 -2.362947,0 0,-5.117058 -4.6301,0 0,5.117058 -2.362947,0 z"
     style="font-style:normal;font-variant:normal;font-weight:bold;font-stretch:normal;font-family:Arial;-inkscape-font-specification:'Arial Bold';fill:#003366;fill-opacity:1;stroke:none;stroke-opacity:1"
     id="path4462" /><path
     d="m 34.552601,18.011955 0,-11.7029754 3.791891,0 q 2.155391,0 2.809992,0.1756245 1.005849,0.2634367 1.684398,1.1495419 0.678549,0.8781224 0.678549,2.2751351 0,1.0776959 -0.391163,1.8121249 -0.391164,0.73443 -0.997867,1.157525 -0.59872,0.415113 -1.221388,0.550822 -0.846191,0.167642 -2.45076,0.167642 l -1.540705,0 0,4.41456 -2.362947,0 z m 2.362947,-9.7232087 0,3.3208987 1.293235,0 q 1.397012,0 1.868005,-0.183607 0.470993,-0.183608 0.73443,-0.574771 0.271419,-0.391164 0.271419,-0.9100541 0,-0.6386345 -0.375197,-1.0537468 -0.375198,-0.4151124 -0.949969,-0.5188905 -0.423095,-0.079829 -1.700364,-0.079829 l -1.141559,0 z"
     style="font-style:normal;font-variant:normal;font-weight:bold;font-stretch:normal;font-family:Arial;-inkscape-font-specification:'Arial Bold';fill:#003366;fill-opacity:1;stroke:none;stroke-opacity:1"
     id="path4464" /></g></svg>