<?xml version="1.0" encoding="UTF-8" standalone="no"?>
<!-- Generator: Adobe Illustrator 15.0.0, SVG Export Plug-In . SVG Version: 6.00 Build 0)  -->

<svg
   xmlns:dc="http://purl.org/dc/elements/1.1/"
   xmlns:cc="http://creativecommons.org/ns#"
   xmlns:rdf="http://www.w3.org/1999/02/22-rdf-syntax-ns#"
   xmlns:svg="http://www.w3.org/2000/svg"
   xmlns="http://www.w3.org/2000/svg"
   xmlns:sodipodi="http://sodipodi.sourceforge.net/DTD/sodipodi-0.dtd"
   xmlns:inkscape="http://www.inkscape.org/namespaces/inkscape"
   version="1.1"
   id="Layer_1"
   x="0px"
   y="0px"
   width="48px"
   height="48px"
   viewBox="0 0 48 48"
   enable-background="new 0 0 48 48"
   xml:space="preserve"
   inkscape:version="0.91 r13725"
   sodipodi:docname="generico_spss.svg"><metadata
   id="metadata3803"><rdf:RDF><cc:Work
       rdf:about=""><dc:format>image/svg+xml</dc:format><dc:type
         rdf:resource="http://purl.org/dc/dcmitype/StillImage" /><dc:title></dc:title></cc:Work></rdf:RDF></metadata><defs
   id="defs3801" /><sodipodi:namedview
   pagecolor="#ffffff"
   bordercolor="#666666"
   borderopacity="1"
   objecttolerance="10"
   gridtolerance="10"
   guidetolerance="10"
   inkscape:pageopacity="0"
   inkscape:pageshadow="2"
   inkscape:window-width="1920"
   inkscape:window-height="1020"
   id="namedview3799"
   showgrid="false"
   inkscape:zoom="11.313709"
   inkscape:cx="8.2213116"
   inkscape:cy="33.320182"
   inkscape:window-x="-4"
   inkscape:window-y="-4"
   inkscape:window-maximized="1"
   inkscape:current-layer="Layer_1" />

<path
   style="color:#000000;display:inline;overflow:visible;visibility:visible;fill:#003366;fill-opacity:1;stroke:none;stroke-width:2.68430781;marker:none;enable-background:accumulate"
   d="M 3.5625 8.46875 C 1.59827 8.46875 0 8.83502 0 9.28125 L 0 44.34375 C 0 44.78998 1.59827 45.125 3.5625 45.125 L 33.34375 45.125 C 35.30798 45.125 36.90625 44.78998 36.90625 44.34375 L 36.90625 24.40625 L 34.275391 24.40625 L 34.275391 40.144531 L 34.275391 42.123047 L 34.275391 42.185547 L 34.09375 42.185547 L 34.09375 42.1875 L 25.125 42.1875 L 25.125 42.185547 L 23.59375 42.185547 L 23.59375 42.1875 L 13.34375 42.1875 L 13.34375 42.185547 L 13.259766 42.185547 L 13.259766 40.144531 L 13.263672 40.144531 L 13.263672 24.390625 L 13.46875 24.390625 C 12.37359 24.350825 11.35241 24.0659 10.4375 23.59375 L 2.84375 23.59375 L 2.84375 17.71875 L 6.59375 17.71875 C 6.58375 17.56596 6.5625 17.40535 6.5625 17.25 L 6.5625 8.46875 L 3.5625 8.46875 z M 2.84375 25.125 L 11.84375 25.125 L 11.84375 29.53125 L 2.84375 29.53125 L 2.84375 25.125 z M 16.082031 29.390625 L 16.082031 31.890625 L 31.457031 31.890625 L 31.457031 29.390625 L 16.082031 29.390625 z M 2.84375 31.0625 L 11.84375 31.0625 L 11.84375 35.46875 L 2.84375 35.46875 L 2.84375 31.0625 z M 16.082031 33.390625 L 16.082031 35.890625 L 31.457031 35.890625 L 31.457031 33.390625 L 16.082031 33.390625 z M 2.84375 37 L 11.84375 37 L 11.84375 42.1875 L 2.84375 42.1875 L 2.84375 37 z M 16.082031 37.390625 L 16.082031 39.890625 L 31.457031 39.890625 L 31.457031 37.390625 L 16.082031 37.390625 z "
   id="path4102" /><path
   inkscape:connector-curvature="0"
   id="path4114"
   d="M 13.71875,0 C 9.7459399,0 6.5624999,3.18344 6.5624999,7.15625 l 0,10.093748 c 0,3.97281 3.18344,7.15625 7.1562501,7.15625 l 27.09375,0 c 3.97281,0 7.1875,-3.18344 7.1875,-7.15625 L 48,7.15625 C 48,3.18344 44.78531,0 40.8125,0 L 13.71875,0 Z m 0.875,1.28125 25.375,0 c 3.7235,0 6.71875,2.85464 6.71875,6.40625 l 0,9.031248 c 0,3.55161 -2.99525,6.40625 -6.71875,6.40625 l -25.375,0 c -3.72351,0 -6.7187501,-2.85464 -6.7187501,-6.40625 l 0,-9.031248 c 0,-3.55161 2.9952401,-6.40625 6.7187501,-6.40625 z"
   style="display:inline;fill:#003366;fill-opacity:1;stroke:none" /><g
   transform="matrix(0.99395595,0,0,1.0060808,67.091632,18.508739)"
   style="font-style:normal;font-variant:normal;font-weight:bold;font-stretch:normal;font-size:16.57032776px;line-height:125%;font-family:Sans;-inkscape-font-specification:'Sans Bold';text-align:start;letter-spacing:0px;word-spacing:0px;writing-mode:lr-tb;text-anchor:start;fill:#003366;fill-opacity:1;stroke:none"
   id="text3012"><g
     id="g3032"
     transform="translate(6.1294224,33.316903)" /></g><g
   transform="matrix(3.4406274,0,0,3.4406274,-537.15477,-1204.0828)"
   id="text4658-3"
   style="font-style:normal;font-weight:normal;font-size:3.92595935px;line-height:125%;font-family:Sans;letter-spacing:0px;word-spacing:0px;display:inline;fill:#003366;fill-opacity:1;stroke:none"><g
     transform="scale(0.99556664,1.0044531)"
     style="font-style:normal;font-weight:normal;font-size:3.9343977px;line-height:125%;font-family:sans-serif;letter-spacing:0px;word-spacing:0px;fill:#003366;fill-opacity:1;stroke:none;stroke-width:1px;stroke-linecap:butt;stroke-linejoin:miter;stroke-opacity:1"
     id="text3395"><path
       d="m 159.6938,352.30263 0.55327,-0.0538 q 0.0499,0.27856 0.20172,0.4092 0.15368,0.13063 0.41303,0.13063 0.27472,0 0.41304,-0.11527 0.14024,-0.11718 0.14024,-0.27279 0,-0.0999 -0.0596,-0.16906 -0.0576,-0.0711 -0.20363,-0.12295 -0.0999,-0.0346 -0.4553,-0.12295 -0.45722,-0.11334 -0.64165,-0.27856 -0.25935,-0.23245 -0.25935,-0.56672 0,-0.21516 0.12103,-0.40151 0.12295,-0.18826 0.35156,-0.28624 0.23053,-0.098 0.5552,-0.098 0.53022,0 0.79725,0.23245 0.26896,0.23245 0.2824,0.62051 l -0.56864,0.025 q -0.0365,-0.21708 -0.15753,-0.31121 -0.11911,-0.0961 -0.35924,-0.0961 -0.24783,0 -0.38806,0.10182 -0.0903,0.0653 -0.0903,0.17482 0,0.0999 0.0845,0.17098 0.10758,0.0903 0.52254,0.18826 0.41495,0.098 0.61283,0.20364 0.19979,0.10374 0.31121,0.28624 0.11335,0.18059 0.11335,0.44762 0,0.24206 -0.13448,0.45338 -0.13447,0.21132 -0.38037,0.31505 -0.2459,0.10182 -0.61283,0.10182 -0.53407,0 -0.82031,-0.2459 -0.28624,-0.24782 -0.34195,-0.72041 z"
       style="font-style:normal;font-variant:normal;font-weight:bold;font-stretch:normal;font-family:Arial;-inkscape-font-specification:'Arial Bold';fill:#003366;fill-opacity:1"
       id="path3410" /><path
       d="m 162.46593,353.21899 0,-2.81632 0.91252,0 q 0.5187,0 0.67623,0.0423 0.24205,0.0634 0.40535,0.27663 0.16329,0.21132 0.16329,0.54752 0,0.25934 -0.0941,0.43608 -0.0941,0.17674 -0.24014,0.27856 -0.14408,0.0999 -0.29393,0.13256 -0.20363,0.0403 -0.58977,0.0403 l -0.37077,0 0,1.06236 -0.56865,0 z m 0.56865,-2.33989 0,0.79918 0.31121,0 q 0.33619,0 0.44954,-0.0442 0.11334,-0.0442 0.17674,-0.13832 0.0653,-0.0941 0.0653,-0.219 0,-0.15369 -0.0903,-0.25358 -0.0903,-0.0999 -0.22861,-0.12488 -0.10182,-0.0192 -0.4092,-0.0192 l -0.27471,0 z"
       style="font-style:normal;font-variant:normal;font-weight:bold;font-stretch:normal;font-family:Arial;-inkscape-font-specification:'Arial Bold';fill:#003366;fill-opacity:1"
       id="path3412" /><path
       d="m 164.94991,352.30263 0.55327,-0.0538 q 0.05,0.27856 0.20172,0.4092 0.15368,0.13063 0.41303,0.13063 0.27472,0 0.41304,-0.11527 0.14023,-0.11718 0.14023,-0.27279 0,-0.0999 -0.0596,-0.16906 -0.0576,-0.0711 -0.20363,-0.12295 -0.0999,-0.0346 -0.4553,-0.12295 -0.45722,-0.11334 -0.64165,-0.27856 -0.25935,-0.23245 -0.25935,-0.56672 0,-0.21516 0.12103,-0.40151 0.12295,-0.18826 0.35156,-0.28624 0.23053,-0.098 0.5552,-0.098 0.53022,0 0.79725,0.23245 0.26895,0.23245 0.2824,0.62051 l -0.56864,0.025 q -0.0365,-0.21708 -0.15753,-0.31121 -0.11911,-0.0961 -0.35924,-0.0961 -0.24783,0 -0.38807,0.10182 -0.0903,0.0653 -0.0903,0.17482 0,0.0999 0.0845,0.17098 0.10758,0.0903 0.52254,0.18826 0.41495,0.098 0.61283,0.20364 0.19979,0.10374 0.31121,0.28624 0.11335,0.18059 0.11335,0.44762 0,0.24206 -0.13448,0.45338 -0.13447,0.21132 -0.38037,0.31505 -0.2459,0.10182 -0.61283,0.10182 -0.53407,0 -0.82031,-0.2459 -0.28624,-0.24782 -0.34195,-0.72041 z"
       style="font-style:normal;font-variant:normal;font-weight:bold;font-stretch:normal;font-family:Arial;-inkscape-font-specification:'Arial Bold';fill:#003366;fill-opacity:1"
       id="path3414" /><path
       d="m 167.57796,352.30263 0.55328,-0.0538 q 0.0499,0.27856 0.20171,0.4092 0.15369,0.13063 0.41303,0.13063 0.27472,0 0.41304,-0.11527 0.14024,-0.11718 0.14024,-0.27279 0,-0.0999 -0.0596,-0.16906 -0.0576,-0.0711 -0.20364,-0.12295 -0.0999,-0.0346 -0.4553,-0.12295 -0.45722,-0.11334 -0.64164,-0.27856 -0.25935,-0.23245 -0.25935,-0.56672 0,-0.21516 0.12103,-0.40151 0.12295,-0.18826 0.35156,-0.28624 0.23053,-0.098 0.55519,-0.098 0.53022,0 0.79726,0.23245 0.26895,0.23245 0.2824,0.62051 l -0.56865,0.025 q -0.0365,-0.21708 -0.15753,-0.31121 -0.1191,-0.0961 -0.35924,-0.0961 -0.24782,0 -0.38806,0.10182 -0.0903,0.0653 -0.0903,0.17482 0,0.0999 0.0845,0.17098 0.10758,0.0903 0.52253,0.18826 0.41496,0.098 0.61283,0.20364 0.1998,0.10374 0.31122,0.28624 0.11334,0.18059 0.11334,0.44762 0,0.24206 -0.13447,0.45338 -0.13448,0.21132 -0.38038,0.31505 -0.2459,0.10182 -0.61283,0.10182 -0.53406,0 -0.82031,-0.2459 -0.28624,-0.24782 -0.34195,-0.72041 z"
       style="font-style:normal;font-variant:normal;font-weight:bold;font-stretch:normal;font-family:Arial;-inkscape-font-specification:'Arial Bold';fill:#003366;fill-opacity:1"
       id="path3416" /></g></g></svg>