<?xml version="1.0" encoding="UTF-8" standalone="no"?>
<!-- Generator: Adobe Illustrator 15.0.0, SVG Export Plug-In . SVG Version: 6.00 Build 0)  -->

<svg
   xmlns:dc="http://purl.org/dc/elements/1.1/"
   xmlns:cc="http://creativecommons.org/ns#"
   xmlns:rdf="http://www.w3.org/1999/02/22-rdf-syntax-ns#"
   xmlns:svg="http://www.w3.org/2000/svg"
   xmlns="http://www.w3.org/2000/svg"
   xmlns:sodipodi="http://sodipodi.sourceforge.net/DTD/sodipodi-0.dtd"
   xmlns:inkscape="http://www.inkscape.org/namespaces/inkscape"
   version="1.1"
   id="Layer_1"
   x="0px"
   y="0px"
   width="48px"
   height="48px"
   viewBox="0 0 48 48"
   enable-background="new 0 0 48 48"
   xml:space="preserve"
   inkscape:version="0.48.2 r9819"
   sodipodi:docname="graph_bar_jpg.svg"><metadata
   id="metadata3803"><rdf:RDF><cc:Work
       rdf:about=""><dc:format>image/svg+xml</dc:format><dc:type
         rdf:resource="http://purl.org/dc/dcmitype/StillImage" /><dc:title></dc:title></cc:Work></rdf:RDF></metadata><defs
   id="defs3801" /><sodipodi:namedview
   pagecolor="#ffffff"
   bordercolor="#666666"
   borderopacity="1"
   objecttolerance="10"
   gridtolerance="10"
   guidetolerance="10"
   inkscape:pageopacity="0"
   inkscape:pageshadow="2"
   inkscape:window-width="1021"
   inkscape:window-height="993"
   id="namedview3799"
   showgrid="false"
   inkscape:zoom="4.9166667"
   inkscape:cx="-6.1016949"
   inkscape:cy="24"
   inkscape:window-x="22"
   inkscape:window-y="-1"
   inkscape:window-maximized="0"
   inkscape:current-layer="Layer_1" />

<g
   transform="translate(-253.26511,-565.03715)"
   style="display:inline"
   id="g8786"><path
     id="path4932-5"
     d="m 271.01511,573.84324 0,30.84375 -1.3125,0 0,-15.28125 -6.28125,0 0,15.28125 -1.28125,0 0,-6.59375 -6.28125,0 0,6.59375 -2.59375,0 0,3.15625 2.59375,0 6.28125,0 25.125,0 0,-3.15625 -2.34375,0 0,-17.4375 -6.28125,0 0,17.4375 -1.34375,0 0,-17.46875 c -2.55324,-0.14513 -4.5625,-2.25292 -4.5625,-4.84375 l 0,-6.8125 c 0,-0.61204 0.10731,-1.18049 0.3125,-1.71875 l -2.03125,0 z"
     style="color:#000000;fill:#003366;fill-opacity:1;fill-rule:evenodd;stroke:none;stroke-width:2;marker:none;visibility:visible;display:inline;overflow:visible;enable-background:accumulate"
     inkscape:connector-curvature="0" /><path
     inkscape:connector-curvature="0"
     id="path3838-12"
     d="m 277.15673,570.23106 c -2.79389,0 -5.03265,2.23876 -5.03265,5.03265 l 0,7.09846 c 0,2.79389 2.23876,5.03265 5.03265,5.03265 l 19.05375,0 c 2.79389,0 5.05463,-2.23876 5.05463,-5.03265 l 0,-7.09846 c 0,-2.79389 -2.26074,-5.03265 -5.05463,-5.03265 l -19.05375,0 z m 0.61535,0.90104 17.84503,0 c 2.61857,0 4.72498,2.00754 4.72498,4.50522 l 0,6.35125 c 0,2.49768 -2.10641,4.50521 -4.72498,4.50521 l -17.84503,0 c -2.61857,0 -4.72498,-2.00753 -4.72498,-4.50521 l 0,-6.35125 c 0,-2.49768 2.10641,-4.50522 4.72498,-4.50522 z"
     style="fill:#003366;fill-opacity:1;stroke:none;display:inline" /><g
     id="g8745"><path
       id="path3782"
       style="font-size:11.67281342px;font-style:normal;font-weight:bold;line-height:125%;letter-spacing:0px;word-spacing:0px;fill:#003366;fill-opacity:1;stroke:none;font-family:Sans;-inkscape-font-specification:Sans Bold"
       d="m 274.92204,580.26919 1.64149,-0.15959 c 0.0988,0.55097 0.29922,0.95564 0.60131,1.21402 0.30207,0.25839 0.70959,0.38758 1.22256,0.38758 0.54336,0 0.95278,-0.11494 1.22827,-0.34483 0.27548,-0.22988 0.41322,-0.49871 0.41322,-0.8065 0,-0.19758 -0.058,-0.36572 -0.17384,-0.50441 -0.11589,-0.13869 -0.31823,-0.25933 -0.60701,-0.36193 -0.19759,-0.0684 -0.64786,-0.18998 -1.3508,-0.36477 -0.90435,-0.22418 -1.5389,-0.49966 -1.90368,-0.82645 -0.51296,-0.45976 -0.76944,-1.02022 -0.76944,-1.68138 0,-0.42557 0.12064,-0.82359 0.36192,-1.19407 0.24128,-0.37047 0.58896,-0.6526 1.04303,-0.8464 0.45407,-0.19378 1.00218,-0.29067 1.64434,-0.29068 1.04872,10e-6 1.83812,0.2299 2.36819,0.68966 0.53006,0.45977 0.80839,1.07343 0.83499,1.84097 l -1.68708,0.0741 c -0.0722,-0.42936 -0.22704,-0.73809 -0.46452,-0.92619 -0.23749,-0.18808 -0.59371,-0.28212 -1.06868,-0.28213 -0.49017,10e-6 -0.87394,0.1007 -1.15132,0.30208 -0.17859,0.1292 -0.26789,0.30209 -0.26788,0.51867 -10e-6,0.19759 0.0836,0.36668 0.25078,0.50727 0.21278,0.17859 0.72955,0.36478 1.5503,0.55856 0.82074,0.19379 1.42774,0.39423 1.82102,0.60131 0.39327,0.20709 0.70105,0.49017 0.92334,0.84924 0.22228,0.35908 0.33342,0.8027 0.33343,1.33086 -10e-6,0.47877 -0.133,0.92714 -0.39897,1.34511 -0.26599,0.41797 -0.64217,0.7286 -1.12853,0.93189 -0.48637,0.20328 -1.09243,0.30493 -1.81818,0.30493 -1.05633,0 -1.86757,-0.24414 -2.43373,-0.7324 -0.56616,-0.48827 -0.90434,-1.19977 -1.01453,-2.13451 z"
       inkscape:connector-curvature="0" /><path
       id="path3784"
       style="font-size:11.67281342px;font-style:normal;font-weight:bold;line-height:125%;letter-spacing:0px;word-spacing:0px;fill:#003366;fill-opacity:1;stroke:none;font-family:Sans;-inkscape-font-specification:Sans Bold"
       d="m 285.27824,582.98791 -2.9866,-8.35564 1.82958,0 2.11455,6.18409 2.04617,-6.18409 1.78968,0 -2.9923,8.35564 z"
       inkscape:connector-curvature="0" /><path
       id="path3786"
       style="font-size:11.67281342px;font-style:normal;font-weight:bold;line-height:125%;letter-spacing:0px;word-spacing:0px;fill:#003366;fill-opacity:1;stroke:none;font-family:Sans;-inkscape-font-specification:Sans Bold"
       d="m 294.8308,579.91582 0,-1.40781 3.63635,0 0,3.32858 c -0.35338,0.34198 -0.8654,0.6431 -1.53605,0.90339 -0.67066,0.26028 -1.34986,0.39042 -2.03761,0.39042 -0.87394,0 -1.63579,-0.18334 -2.28555,-0.55001 -0.64975,-0.36668 -1.13802,-0.89104 -1.4648,-1.5731 -0.32678,-0.68205 -0.49016,-1.42395 -0.49016,-2.2257 0,-0.87013 0.18238,-1.64338 0.54716,-2.31974 0.36477,-0.67635 0.89864,-1.19501 1.60159,-1.55599 0.53576,-0.27738 1.20262,-0.41607 2.00057,-0.41608 1.03732,10e-6 1.84762,0.21755 2.43088,0.65261 0.58326,0.43508 0.95848,1.03639 1.12568,1.80393 l -1.67569,0.31348 c -0.1178,-0.41037 -0.33913,-0.7343 -0.66401,-0.97179 -0.32488,-0.23747 -0.7305,-0.35622 -1.21686,-0.35622 -0.73716,0 -1.32327,0.23369 -1.75833,0.70105 -0.43508,0.46737 -0.65261,1.16083 -0.65261,2.08036 0,0.99174 0.22038,1.73553 0.66115,2.2314 0.44077,0.49587 1.01833,0.7438 1.73269,0.7438 0.35337,0 0.7077,-0.0693 1.06298,-0.20804 0.35527,-0.13869 0.6602,-0.30682 0.91478,-0.50441 l 0,-1.06013 z"
       inkscape:connector-curvature="0" /></g></g></svg>