<?xml version="1.0" encoding="UTF-8" standalone="no"?>
<!-- Generator: Adobe Illustrator 15.0.0, SVG Export Plug-In . SVG Version: 6.00 Build 0)  -->

<svg
   xmlns:dc="http://purl.org/dc/elements/1.1/"
   xmlns:cc="http://creativecommons.org/ns#"
   xmlns:rdf="http://www.w3.org/1999/02/22-rdf-syntax-ns#"
   xmlns:svg="http://www.w3.org/2000/svg"
   xmlns="http://www.w3.org/2000/svg"
   xmlns:sodipodi="http://sodipodi.sourceforge.net/DTD/sodipodi-0.dtd"
   xmlns:inkscape="http://www.inkscape.org/namespaces/inkscape"
   version="1.1"
   id="Layer_1"
   x="0px"
   y="0px"
   width="48px"
   height="48px"
   viewBox="0 0 48 48"
   enable-background="new 0 0 48 48"
   xml:space="preserve"
   inkscape:version="0.48.2 r9819"
   sodipodi:docname="graph_bar_2.svg"><metadata
   id="metadata3803"><rdf:RDF><cc:Work
       rdf:about=""><dc:format>image/svg+xml</dc:format><dc:type
         rdf:resource="http://purl.org/dc/dcmitype/StillImage" /><dc:title /></cc:Work></rdf:RDF></metadata><defs
   id="defs3801" /><sodipodi:namedview
   pagecolor="#ffffff"
   bordercolor="#666666"
   borderopacity="1"
   objecttolerance="10"
   gridtolerance="10"
   guidetolerance="10"
   inkscape:pageopacity="0"
   inkscape:pageshadow="2"
   inkscape:window-width="1021"
   inkscape:window-height="993"
   id="namedview3799"
   showgrid="false"
   inkscape:zoom="4.9166667"
   inkscape:cx="-5.1538921"
   inkscape:cy="24"
   inkscape:window-x="890"
   inkscape:window-y="52"
   inkscape:window-maximized="0"
   inkscape:current-layer="Layer_1" />

<rect
   y="28.085667"
   x="9.1773434"
   height="9.5687141"
   width="6.3943014"
   id="rect7364"
   style="fill:#003366;fill-opacity:1;fill-rule:nonzero;stroke:none" /><rect
   style="fill:#003366;fill-opacity:1;fill-rule:nonzero;stroke:none"
   id="rect7366"
   width="6.3943014"
   height="17.28421"
   x="16.927649"
   y="20.370152" /><rect
   y="10.345675"
   x="24.677954"
   height="27.308722"
   width="6.3943014"
   id="rect7368"
   style="fill:#003366;fill-opacity:1;fill-rule:nonzero;stroke:none" /><rect
   style="fill:#003366;fill-opacity:1;fill-rule:nonzero;stroke:none"
   id="rect7370"
   width="6.3943014"
   height="23.310913"
   x="32.428257"
   y="14.343478" /><path
   inkscape:connector-curvature="0"
   style="color:#000000;fill:#003366;fill-opacity:1;stroke:none;stroke-width:4.21161079;marker:none;visibility:visible;display:inline;overflow:visible;enable-background:accumulate"
   d="M 0,37.8125 C 0,43.454366 4.545634,48 10.1875,48 l 27.625,0 C 43.454367,48 48,43.454366 48,37.8125 l 0,-27.625 C 48,4.545634 43.454367,0 37.8125,0 L 10.1875,0 C 4.545634,0 0,4.545634 0,10.1875 l 0,27.625 z m 4.25,-2.4375 0,-22.75 C 4.25,7.980195 7.980195,4.25 12.625,4.25 l 22.75,0 c 4.644805,0 8.375,3.730195 8.375,8.375 l 0,22.75 c 0,4.644805 -3.730195,8.375 -8.375,8.375 l -22.75,0 C 7.980195,43.75 4.25,40.019805 4.25,35.375 z"
   id="path3765" /></svg>