<?xml version="1.0" encoding="UTF-8" standalone="no"?>
<!-- Generator: Adobe Illustrator 15.0.0, SVG Export Plug-In . SVG Version: 6.00 Build 0)  -->

<svg
   xmlns:dc="http://purl.org/dc/elements/1.1/"
   xmlns:cc="http://creativecommons.org/ns#"
   xmlns:rdf="http://www.w3.org/1999/02/22-rdf-syntax-ns#"
   xmlns:svg="http://www.w3.org/2000/svg"
   xmlns="http://www.w3.org/2000/svg"
   xmlns:sodipodi="http://sodipodi.sourceforge.net/DTD/sodipodi-0.dtd"
   xmlns:inkscape="http://www.inkscape.org/namespaces/inkscape"
   version="1.1"
   id="Layer_1"
   x="0px"
   y="0px"
   width="48px"
   height="48px"
   viewBox="0 0 48 48"
   enable-background="new 0 0 48 48"
   xml:space="preserve"
   inkscape:version="0.48.2 r9819"
   sodipodi:docname="graph_svg.svg"><metadata
   id="metadata3803"><rdf:RDF><cc:Work
       rdf:about=""><dc:format>image/svg+xml</dc:format><dc:type
         rdf:resource="http://purl.org/dc/dcmitype/StillImage" /><dc:title></dc:title></cc:Work></rdf:RDF></metadata><defs
   id="defs3801" /><sodipodi:namedview
   pagecolor="#ffffff"
   bordercolor="#666666"
   borderopacity="1"
   objecttolerance="10"
   gridtolerance="10"
   guidetolerance="10"
   inkscape:pageopacity="0"
   inkscape:pageshadow="2"
   inkscape:window-width="1021"
   inkscape:window-height="993"
   id="namedview3799"
   showgrid="false"
   inkscape:zoom="4.9166667"
   inkscape:cx="-6.1016949"
   inkscape:cy="24"
   inkscape:window-x="22"
   inkscape:window-y="-1"
   inkscape:window-maximized="0"
   inkscape:current-layer="Layer_1" />

<g
   style="display:inline"
   id="g8859"
   transform="translate(-779.69772,-604.20312)"><path
     style="fill:#003366;fill-opacity:1;stroke:none;display:inline"
     d="m 803.40625,609.40625 c -1.78682,0 -3.32646,0.92153 -4.21875,2.3125 -0.3707,-0.0281 -0.74851,-0.0625 -1.125,-0.0625 -4.33923,0 -8.4942,1.80798 -11.5625,5.03125 l 11.5625,12.15625 0,17.1875 c 9.03598,0 16.375,-7.6951 16.375,-17.1875 0,-0.73386 -0.0701,-1.44719 -0.15625,-2.15625 0,-0.0327 0.004,-0.0622 0,-0.0937 -10e-4,-0.0105 0.002,-0.0209 0,-0.0312 l 8.1875,0 c 2.79389,0 5.0625,-2.23736 5.0625,-5.03125 l 0,-7.09375 c 0,-2.79389 -2.26861,-5.03125 -5.0625,-5.03125 l -19.0625,0 z m 0.625,0.90625 17.84375,0 c 2.61856,0 4.71875,2.00232 4.71875,4.5 l 0,6.34375 c 0,2.49768 -2.10019,4.53125 -4.71875,4.53125 l -17.84375,0 c -2.61857,0 -4.71875,-2.03357 -4.71875,-4.53125 l 0,-6.34375 c 0,-2.49768 2.10018,-4.5 4.71875,-4.5 z m -19.375,6.25 c -6.38941,6.71213 -6.38941,17.60037 0,24.3125 l 11.5625,-12.15625 -11.5625,-12.15625 z m 12.25,13.25 -11.59375,12.15625 C 788.3808,645.19202 792.56701,647 796.90625,647 l 0,-17.1875 z"
     id="path8849"
     inkscape:connector-curvature="0" /><g
     id="g8851"
     transform="translate(453.11187,39.17519)"><path
       id="path8853"
       style="font-size:11.67281342px;font-style:normal;font-weight:bold;line-height:125%;letter-spacing:0px;word-spacing:0px;fill:#003366;fill-opacity:1;stroke:none;font-family:Sans;-inkscape-font-specification:Sans Bold"
       d="m 348.86287,582.99076 0,-8.35564 2.70732,0 c 1.02593,10e-6 1.69468,0.0418 2.00627,0.12539 0.47876,0.1254 0.87963,0.39804 1.20262,0.8179 0.32297,0.41988 0.48446,0.96229 0.48446,1.62724 0,0.51297 -0.0931,0.94424 -0.27928,1.29381 -0.18619,0.34958 -0.42273,0.62412 -0.7096,0.8236 -0.28689,0.19949 -0.57852,0.33153 -0.87489,0.39612 -0.40278,0.0798 -0.98604,0.1197 -1.74978,0.11969 l -1.10003,0 0,3.15189 z m 1.68709,-6.94213 0,2.37104 0.92334,0 c 0.66495,0 1.10952,-0.0437 1.33371,-0.13109 0.22418,-0.0874 0.39992,-0.22418 0.52721,-0.41038 0.12729,-0.18618 0.19094,-0.40276 0.19094,-0.64975 0,-0.30397 -0.0893,-0.55476 -0.26788,-0.75235 -0.17859,-0.19758 -0.40468,-0.32107 -0.67826,-0.37048 -0.20139,-0.038 -0.60606,-0.057 -1.21401,-0.057 z"
       inkscape:connector-curvature="0" /><path
       id="path8855"
       style="font-size:11.67281342px;font-style:normal;font-weight:bold;line-height:125%;letter-spacing:0px;word-spacing:0px;fill:#003366;fill-opacity:1;stroke:none;font-family:Sans;-inkscape-font-specification:Sans Bold"
       d="m 356.65425,574.63512 3.08349,0 c 0.69535,10e-6 1.22541,0.0532 1.5902,0.15959 0.49016,0.1444 0.91003,0.40088 1.25961,0.76945 0.34957,0.36858 0.61555,0.8198 0.79795,1.35366 0.18238,0.53387 0.27357,1.19217 0.27358,1.97492 -1e-5,0.68775 -0.0855,1.28051 -0.25648,1.77828 -0.209,0.60796 -0.50728,1.10002 -0.89484,1.4762 -0.29259,0.28498 -0.68776,0.50726 -1.18552,0.66685 -0.37238,0.11779 -0.87015,0.17669 -1.4933,0.17669 l -3.17469,0 z m 1.68709,1.41351 0,5.53433 1.25961,0 c 0.47117,0 0.81124,-0.0266 1.02023,-0.0798 0.27358,-0.0684 0.50061,-0.18428 0.68111,-0.34767 0.18048,-0.16339 0.32772,-0.43222 0.44172,-0.8065 0.11398,-0.37427 0.17098,-0.88438 0.17099,-1.53034 -1e-5,-0.64596 -0.057,-1.14182 -0.17099,-1.4876 -0.114,-0.34577 -0.27359,-0.61556 -0.47877,-0.80935 -0.20519,-0.19378 -0.46547,-0.32487 -0.78085,-0.39327 -0.23559,-0.0532 -0.69726,-0.0798 -1.385,-0.0798 z"
       inkscape:connector-curvature="0" /><path
       id="path8857"
       style="font-size:11.67281342px;font-style:normal;font-weight:bold;line-height:125%;letter-spacing:0px;word-spacing:0px;fill:#003366;fill-opacity:1;stroke:none;font-family:Sans;-inkscape-font-specification:Sans Bold"
       d="m 365.10678,582.99076 0,-8.35564 5.72811,0 0,1.41351 -4.04102,0 0,1.97777 3.48816,0 0,1.4135 -3.48816,0 0,3.55086 z"
       inkscape:connector-curvature="0" /></g></g></svg>