<?xml version="1.0" encoding="UTF-8" standalone="no"?>
<!-- Generator: Adobe Illustrator 15.0.0, SVG Export Plug-In . SVG Version: 6.00 Build 0)  -->

<svg
   xmlns:dc="http://purl.org/dc/elements/1.1/"
   xmlns:cc="http://creativecommons.org/ns#"
   xmlns:rdf="http://www.w3.org/1999/02/22-rdf-syntax-ns#"
   xmlns:svg="http://www.w3.org/2000/svg"
   xmlns="http://www.w3.org/2000/svg"
   xmlns:sodipodi="http://sodipodi.sourceforge.net/DTD/sodipodi-0.dtd"
   xmlns:inkscape="http://www.inkscape.org/namespaces/inkscape"
   version="1.1"
   id="Layer_1"
   x="0px"
   y="0px"
   width="48px"
   height="48px"
   viewBox="0 0 48 48"
   enable-background="new 0 0 48 48"
   xml:space="preserve"
   inkscape:version="0.48.2 r9819"
   sodipodi:docname="graph_line.svg"><metadata
   id="metadata3803"><rdf:RDF><cc:Work
       rdf:about=""><dc:format>image/svg+xml</dc:format><dc:type
         rdf:resource="http://purl.org/dc/dcmitype/StillImage" /><dc:title /></cc:Work></rdf:RDF></metadata><defs
   id="defs3801" /><sodipodi:namedview
   pagecolor="#ffffff"
   bordercolor="#666666"
   borderopacity="1"
   objecttolerance="10"
   gridtolerance="10"
   guidetolerance="10"
   inkscape:pageopacity="0"
   inkscape:pageshadow="2"
   inkscape:window-width="1021"
   inkscape:window-height="993"
   id="namedview3799"
   showgrid="false"
   inkscape:zoom="3.4766084"
   inkscape:cx="20.284849"
   inkscape:cy="18.077593"
   inkscape:window-x="22"
   inkscape:window-y="-1"
   inkscape:window-maximized="0"
   inkscape:current-layer="Layer_1" />

<path
   style="fill:#003366;fill-opacity:1;fill-rule:nonzero;stroke:none"
   d="m 0,0 0,44 0,4 4,0 44,0 0,-4 -42.375,0 10.34375,-9.28125 c 0.58168,0.349795 1.241394,0.5625 1.96875,0.5625 2.14159,0 3.875,-1.75603 3.875,-3.90625 0,-0.314798 -0.0235,-0.613095 -0.09375,-0.90625 L 29.4375,27.0625 c 0.709759,0.791049 1.699808,1.3125 2.84375,1.3125 2.14159,0 3.90625,-1.75604 3.90625,-3.90625 0,-1.132369 -0.512594,-2.132346 -1.28125,-2.84375 L 41.625,11.71875 c 0.413147,0.150677 0.847503,0.21875 1.3125,0.21875 2.14159,0 3.875,-1.72479 3.875,-3.8749999 0,-2.15016 -1.73341,-3.90625 -3.875,-3.90625 -2.14158,0 -3.875,1.75609 -3.875,3.90625 0,1.075105 0.423268,2.0454589 1.125,2.7499999 l -6.75,9.9375 c -0.363077,-0.112936 -0.756201,-0.1875 -1.15625,-0.1875 -2.1416,0 -3.875,1.75607 -3.875,3.90625 0,0.374799 0.08905,0.719519 0.1875,1.0625 l -7.6875,3.375 C 20.194951,28.050597 19.134378,27.5 17.9375,27.5 c -2.14158,0 -3.875,1.72489 -3.875,3.875 0,0.806332 0.238141,1.566127 0.65625,2.1875 L 4,43.125 4,0 0,0 z"
   id="rect2994"
   inkscape:connector-curvature="0" /></svg>