<?xml version="1.0" encoding="UTF-8" standalone="no"?>
<!-- Generator: Adobe Illustrator 15.0.0, SVG Export Plug-In . SVG Version: 6.00 Build 0)  -->

<svg
   xmlns:dc="http://purl.org/dc/elements/1.1/"
   xmlns:cc="http://creativecommons.org/ns#"
   xmlns:rdf="http://www.w3.org/1999/02/22-rdf-syntax-ns#"
   xmlns:svg="http://www.w3.org/2000/svg"
   xmlns="http://www.w3.org/2000/svg"
   xmlns:sodipodi="http://sodipodi.sourceforge.net/DTD/sodipodi-0.dtd"
   xmlns:inkscape="http://www.inkscape.org/namespaces/inkscape"
   version="1.1"
   id="Layer_1"
   x="0px"
   y="0px"
   width="48px"
   height="48px"
   viewBox="0 0 48 48"
   enable-background="new 0 0 48 48"
   xml:space="preserve"
   inkscape:version="0.48.2 r9819"
   sodipodi:docname="graph_bar_pdf.svg"><metadata
   id="metadata3803"><rdf:RDF><cc:Work
       rdf:about=""><dc:format>image/svg+xml</dc:format><dc:type
         rdf:resource="http://purl.org/dc/dcmitype/StillImage" /><dc:title></dc:title></cc:Work></rdf:RDF></metadata><defs
   id="defs3801" /><sodipodi:namedview
   pagecolor="#ffffff"
   bordercolor="#666666"
   borderopacity="1"
   objecttolerance="10"
   gridtolerance="10"
   guidetolerance="10"
   inkscape:pageopacity="0"
   inkscape:pageshadow="2"
   inkscape:window-width="1021"
   inkscape:window-height="993"
   id="namedview3799"
   showgrid="false"
   inkscape:zoom="4.9166667"
   inkscape:cx="-6.1016949"
   inkscape:cy="24"
   inkscape:window-x="22"
   inkscape:window-y="-1"
   inkscape:window-maximized="0"
   inkscape:current-layer="Layer_1" />

<g
   transform="translate(-399.57366,-565.03715)"
   style="display:inline"
   id="g8771"><path
     id="path4932-8"
     d="m 417.32366,573.84324 0,30.84375 -1.3125,0 0,-15.28125 -6.28125,0 0,15.28125 -1.28125,0 0,-6.59375 -6.28125,0 0,6.59375 -2.59375,0 0,3.15625 2.59375,0 6.28125,0 25.125,0 0,-3.15625 -2.34375,0 0,-17.4375 -6.28125,0 0,17.4375 -1.34375,0 0,-17.46875 c -2.55324,-0.14513 -4.5625,-2.25292 -4.5625,-4.84375 l 0,-6.8125 c 0,-0.61204 0.10731,-1.18049 0.3125,-1.71875 l -2.03125,0 z"
     style="color:#000000;fill:#003366;fill-opacity:1;fill-rule:evenodd;stroke:none;stroke-width:2;marker:none;visibility:visible;display:inline;overflow:visible;enable-background:accumulate"
     inkscape:connector-curvature="0" /><path
     inkscape:connector-curvature="0"
     id="path3838-3"
     d="m 423.46528,570.23106 c -2.79389,0 -5.03265,2.23876 -5.03265,5.03265 l 0,7.09846 c 0,2.79389 2.23876,5.03265 5.03265,5.03265 l 19.05375,0 c 2.79389,0 5.05463,-2.23876 5.05463,-5.03265 l 0,-7.09846 c 0,-2.79389 -2.26074,-5.03265 -5.05463,-5.03265 l -19.05375,0 z m 0.61535,0.90104 17.84503,0 c 2.61856,0 4.72498,2.00754 4.72498,4.50522 l 0,6.35125 c 0,2.49768 -2.10642,4.50521 -4.72498,4.50521 l -17.84503,0 c -2.61857,0 -4.72498,-2.00753 -4.72498,-4.50521 l 0,-6.35125 c 0,-2.49768 2.10641,-4.50522 4.72498,-4.50522 z"
     style="fill:#003366;fill-opacity:1;stroke:none;display:inline" /><path
     inkscape:connector-curvature="0"
     d="m 421.12515,582.99076 0,-8.35564 2.70731,0 c 1.02593,10e-6 1.69468,0.0418 2.00627,0.12539 0.47876,0.1254 0.87963,0.39804 1.20262,0.8179 0.32297,0.41988 0.48446,0.96229 0.48446,1.62724 0,0.51297 -0.0931,0.94424 -0.27928,1.29381 -0.18619,0.34958 -0.42273,0.62412 -0.7096,0.8236 -0.28689,0.19949 -0.57852,0.33153 -0.87489,0.39612 -0.40278,0.0798 -0.98604,0.1197 -1.74978,0.11969 l -1.10003,0 0,3.15189 z m 1.68708,-6.94213 0,2.37104 0.92334,0 c 0.66495,0 1.10952,-0.0437 1.33371,-0.13109 0.22418,-0.0874 0.39992,-0.22418 0.52721,-0.41038 0.12729,-0.18618 0.19094,-0.40276 0.19094,-0.64975 0,-0.30397 -0.0893,-0.55476 -0.26788,-0.75235 -0.17859,-0.19758 -0.40468,-0.32107 -0.67826,-0.37048 -0.20139,-0.038 -0.60606,-0.057 -1.21401,-0.057 z"
     style="font-size:11.67281342px;font-style:normal;font-weight:bold;line-height:125%;letter-spacing:0px;word-spacing:0px;fill:#003366;fill-opacity:1;stroke:none;font-family:Sans;-inkscape-font-specification:Sans Bold"
     id="path3771" /><path
     inkscape:connector-curvature="0"
     d="m 428.93932,582.99076 0,-8.35564 1.64149,0 3.41977,5.57993 0,-5.57993 1.56739,0 0,8.35564 -1.69278,0 -3.36848,-5.44883 0,5.44883 z"
     style="font-size:11.67281342px;font-style:normal;font-weight:bold;line-height:125%;letter-spacing:0px;word-spacing:0px;fill:#003366;fill-opacity:1;stroke:none;font-family:Sans;-inkscape-font-specification:Sans Bold"
     id="path3773" /><path
     inkscape:connector-curvature="0"
     d="m 441.24479,579.91867 0,-1.40781 3.63635,0 0,3.32858 c -0.35338,0.34198 -0.8654,0.64311 -1.53604,0.90339 -0.67066,0.26028 -1.34987,0.39042 -2.03762,0.39042 -0.87394,0 -1.63579,-0.18334 -2.28554,-0.55001 -0.64976,-0.36668 -1.13803,-0.89104 -1.4648,-1.5731 -0.32678,-0.68205 -0.49017,-1.42395 -0.49017,-2.2257 0,-0.87013 0.18239,-1.64338 0.54716,-2.31974 0.36478,-0.67635 0.89864,-1.19501 1.6016,-1.556 0.53576,-0.27737 1.20261,-0.41606 2.00056,-0.41607 1.03733,1e-5 1.84762,0.21755 2.43089,0.65261 0.58325,0.43508 0.95847,1.03639 1.12567,1.80393 l -1.67569,0.31348 c -0.11779,-0.41037 -0.33913,-0.7343 -0.664,-0.97179 -0.32488,-0.23748 -0.73051,-0.35622 -1.21687,-0.35622 -0.73715,0 -1.32326,0.23369 -1.75833,0.70105 -0.43507,0.46737 -0.65261,1.16082 -0.65261,2.08036 0,0.99174 0.22039,1.73553 0.66116,2.2314 0.44077,0.49587 1.01833,0.7438 1.73268,0.7438 0.35337,0 0.7077,-0.0693 1.06298,-0.20804 0.35527,-0.13869 0.6602,-0.30683 0.91479,-0.50441 l 0,-1.06013 z"
     style="font-size:11.67281342px;font-style:normal;font-weight:bold;line-height:125%;letter-spacing:0px;word-spacing:0px;fill:#003366;fill-opacity:1;stroke:none;font-family:Sans;-inkscape-font-specification:Sans Bold"
     id="path3775" /></g></svg>