<?xml version="1.0" encoding="UTF-8" standalone="no"?>
<!-- Generator: Adobe Illustrator 15.0.0, SVG Export Plug-In . SVG Version: 6.00 Build 0)  -->

<svg
   xmlns:dc="http://purl.org/dc/elements/1.1/"
   xmlns:cc="http://creativecommons.org/ns#"
   xmlns:rdf="http://www.w3.org/1999/02/22-rdf-syntax-ns#"
   xmlns:svg="http://www.w3.org/2000/svg"
   xmlns="http://www.w3.org/2000/svg"
   xmlns:sodipodi="http://sodipodi.sourceforge.net/DTD/sodipodi-0.dtd"
   xmlns:inkscape="http://www.inkscape.org/namespaces/inkscape"
   version="1.1"
   id="Layer_1"
   x="0px"
   y="0px"
   width="48px"
   height="48px"
   viewBox="0 0 48 48"
   enable-background="new 0 0 48 48"
   xml:space="preserve"
   inkscape:version="0.48.2 r9819"
   sodipodi:docname="graph_pie.svg"><metadata
   id="metadata3803"><rdf:RDF><cc:Work
       rdf:about=""><dc:format>image/svg+xml</dc:format><dc:type
         rdf:resource="http://purl.org/dc/dcmitype/StillImage" /><dc:title></dc:title></cc:Work></rdf:RDF></metadata><defs
   id="defs3801" /><sodipodi:namedview
   pagecolor="#ffffff"
   bordercolor="#666666"
   borderopacity="1"
   objecttolerance="10"
   gridtolerance="10"
   guidetolerance="10"
   inkscape:pageopacity="0"
   inkscape:pageshadow="2"
   inkscape:window-width="1021"
   inkscape:window-height="993"
   id="namedview3799"
   showgrid="false"
   inkscape:zoom="4.9166667"
   inkscape:cx="-6.1016949"
   inkscape:cy="24"
   inkscape:window-x="22"
   inkscape:window-y="-1"
   inkscape:window-maximized="0"
   inkscape:current-layer="Layer_1" />

<g
   style="display:inline"
   id="g8842"
   transform="translate(-712.69772,-640.20312)"><path
     style="fill:#003366;fill-opacity:1;stroke:none;display:inline"
     d="m 736.40625,645.40625 c -1.78682,0 -3.32646,0.92153 -4.21875,2.3125 -0.3707,-0.0281 -0.74851,-0.0625 -1.125,-0.0625 -4.33923,0 -8.4942,1.80798 -11.5625,5.03125 l 11.5625,12.15625 0,17.1875 c 9.03598,0 16.375,-7.6951 16.375,-17.1875 0,-0.73386 -0.0701,-1.44719 -0.15625,-2.15625 0,-0.0327 0.004,-0.0622 0,-0.0937 -10e-4,-0.0105 0.002,-0.0209 0,-0.0312 l 8.1875,0 c 2.79389,0 5.0625,-2.23736 5.0625,-5.03125 l 0,-7.09375 c 0,-2.79389 -2.26861,-5.03125 -5.0625,-5.03125 l -19.0625,0 z m 0.625,0.90625 17.84375,0 c 2.61856,0 4.71875,2.00232 4.71875,4.5 l 0,6.34375 c 0,2.49768 -2.10019,4.53125 -4.71875,4.53125 l -17.84375,0 c -2.61857,0 -4.71875,-2.03357 -4.71875,-4.53125 l 0,-6.34375 c 0,-2.49768 2.10018,-4.5 4.71875,-4.5 z m -19.375,6.25 c -6.38941,6.71213 -6.38941,17.60037 0,24.3125 l 11.5625,-12.15625 -11.5625,-12.15625 z m 12.25,13.25 -11.59375,12.15625 C 721.3808,681.19202 725.56701,683 729.90625,683 l 0,-17.1875 z"
     id="path8832"
     inkscape:connector-curvature="0" /><g
     id="g8834"
     transform="translate(532.25534,75.012676)"><path
       inkscape:connector-curvature="0"
       d="m 206.13427,574.79652 1.68184,0 0,5.29065 c 0,0.69175 -0.0608,1.22386 -0.18244,1.59634 -0.16345,0.48651 -0.45989,0.87703 -0.88937,1.17159 -0.4295,0.29457 -0.99581,0.44182 -1.69895,0.44182 -0.82477,0 -1.45949,-0.23096 -1.90418,-0.69268 -0.44469,-0.46178 -0.66894,-1.13926 -0.67274,-2.03246 l 1.59062,-0.18236 c 0.0191,0.47891 0.0893,0.81717 0.21093,1.01481 0.18244,0.30025 0.4599,0.45041 0.83237,0.45038 0.37628,3e-5 0.64233,-0.10742 0.79816,-0.32209 0.15583,-0.21485 0.23374,-0.66038 0.23376,-1.33693 z"
       style="font-size:4.347507px;font-style:normal;font-weight:bold;line-height:125%;letter-spacing:0px;word-spacing:0px;fill:#003366;fill-opacity:1;stroke:none;font-family:Sans;-inkscape-font-specification:Sans Bold"
       id="path8836" /><path
       inkscape:connector-curvature="0"
       d="m 209.61768,583.15439 0,-8.35787 2.70804,0 c 1.0262,0 1.69514,0.0419 2.00681,0.12542 0.47889,0.12542 0.87987,0.39815 1.20294,0.81813 0.32306,0.41999 0.48459,0.96255 0.4846,1.62768 -1e-5,0.51309 -0.0931,0.94449 -0.27936,1.29414 -0.18625,0.34967 -0.42284,0.62428 -0.70979,0.82383 -0.28697,0.19954 -0.57867,0.33163 -0.87513,0.39622 -0.40288,0.0798 -0.9863,0.11978 -1.75025,0.11978 l -1.10032,0 0,3.15273 z m 1.68754,-6.94398 0,2.37166 0.92358,0 c 0.66514,3e-5 1.10982,-0.0438 1.33407,-0.13106 0.22423,-0.0873 0.40003,-0.22425 0.52736,-0.41048 0.12733,-0.18611 0.19098,-0.40287 0.19098,-0.64993 -10e-6,-0.30407 -0.0893,-0.55491 -0.26795,-0.75255 -0.17865,-0.19766 -0.40479,-0.32115 -0.67844,-0.37059 -0.20145,-0.0379 -0.60623,-0.0569 -1.21434,-0.0569 z"
       style="font-size:4.347507px;font-style:normal;font-weight:bold;line-height:125%;letter-spacing:0px;word-spacing:0px;fill:#003366;fill-opacity:1;stroke:none;font-family:Sans;-inkscape-font-specification:Sans Bold"
       id="path8838" /><path
       inkscape:connector-curvature="0"
       d="m 221.30502,580.08148 0,-1.40818 3.63737,0 0,3.32948 c -0.35349,0.34207 -0.86565,0.64327 -1.53647,0.90362 -0.67086,0.26024 -1.35022,0.39052 -2.03816,0.39052 -0.87418,0 -1.63624,-0.18343 -2.28617,-0.55016 -0.64993,-0.36675 -1.13832,-0.89126 -1.4652,-1.5735 -0.32687,-0.68224 -0.49029,-1.42435 -0.49029,-2.22631 0,-0.87037 0.18236,-1.64382 0.54731,-2.32037 0.36488,-0.67652 0.89887,-1.19533 1.60203,-1.55639 0.5359,-0.27746 1.20294,-0.4162 2.00109,-0.4162 1.03761,0 1.84812,0.21754 2.43155,0.65278 0.58341,0.43521 0.95873,1.03666 1.12597,1.80442 l -1.67613,0.31355 c -0.1179,-0.41048 -0.33923,-0.73448 -0.66419,-0.97203 -0.32497,-0.23741 -0.73072,-0.35633 -1.2172,-0.35633 -0.73735,0 -1.32363,0.23365 -1.75879,0.70125 -0.43521,0.4675 -0.65281,1.16113 -0.65281,2.08091 0,0.99201 0.2205,1.73602 0.66135,2.23201 0.44088,0.49599 1.01859,0.74401 1.73314,0.74398 0.35346,3e-5 0.70789,-0.0693 1.06328,-0.20814 0.35535,-0.13858 0.66036,-0.30689 0.91504,-0.50455 l 0,-1.06041 z"
       style="font-size:4.347507px;font-style:normal;font-weight:bold;line-height:125%;letter-spacing:0px;word-spacing:0px;fill:#003366;fill-opacity:1;stroke:none;font-family:Sans;-inkscape-font-specification:Sans Bold"
       id="path8840" /></g></g></svg>