<?xml version="1.0" encoding="UTF-8" standalone="no"?>
<!-- Generator: Adobe Illustrator 15.0.0, SVG Export Plug-In . SVG Version: 6.00 Build 0)  -->

<svg
   xmlns:dc="http://purl.org/dc/elements/1.1/"
   xmlns:cc="http://creativecommons.org/ns#"
   xmlns:rdf="http://www.w3.org/1999/02/22-rdf-syntax-ns#"
   xmlns:svg="http://www.w3.org/2000/svg"
   xmlns="http://www.w3.org/2000/svg"
   xmlns:sodipodi="http://sodipodi.sourceforge.net/DTD/sodipodi-0.dtd"
   xmlns:inkscape="http://www.inkscape.org/namespaces/inkscape"
   version="1.1"
   id="Layer_1"
   x="0px"
   y="0px"
   width="48px"
   height="48px"
   viewBox="0 0 48 48"
   enable-background="new 0 0 48 48"
   xml:space="preserve"
   inkscape:version="0.48.2 r9819"
   sodipodi:docname="help_2.svg"><metadata
   id="metadata3803"><rdf:RDF><cc:Work
       rdf:about=""><dc:format>image/svg+xml</dc:format><dc:type
         rdf:resource="http://purl.org/dc/dcmitype/StillImage" /><dc:title /></cc:Work></rdf:RDF></metadata><defs
   id="defs3801" /><sodipodi:namedview
   pagecolor="#ffffff"
   bordercolor="#666666"
   borderopacity="1"
   objecttolerance="10"
   gridtolerance="10"
   guidetolerance="10"
   inkscape:pageopacity="0"
   inkscape:pageshadow="2"
   inkscape:window-width="905"
   inkscape:window-height="891"
   id="namedview3799"
   showgrid="false"
   inkscape:zoom="3.4766083"
   inkscape:cx="35.089496"
   inkscape:cy="-16.354066"
   inkscape:window-x="66"
   inkscape:window-y="87"
   inkscape:window-maximized="0"
   inkscape:current-layer="Layer_1" />

<path
   style="color:#000000;fill:#003366;fill-opacity:1;stroke:none;stroke-width:2.68430781;marker:none;visibility:visible;display:inline;overflow:visible;enable-background:accumulate"
   d="M 3.5625 8.46875 C 1.5982657 8.46875 1.4456029e-019 8.835016 0 9.28125 L 0 44.34375 C 0 44.789985 1.5982657 45.125 3.5625 45.125 L 33.34375 45.125 C 35.307985 45.125 36.90625 44.789985 36.90625 44.34375 L 36.90625 24.40625 L 13.71875 24.40625 C 12.526907 24.40625 11.422617 24.102129 10.4375 23.59375 L 2.84375 23.59375 L 2.84375 17.71875 L 6.59375 17.71875 C 6.5841578 17.565958 6.5625 17.405349 6.5625 17.25 L 6.5625 8.46875 L 3.5625 8.46875 z M 2.84375 25.125 L 11.84375 25.125 L 11.84375 29.53125 L 2.84375 29.53125 L 2.84375 25.125 z M 13.34375 25.125 L 23.59375 25.125 L 23.59375 29.53125 L 13.34375 29.53125 L 13.34375 25.125 z M 25.125 25.125 L 34.09375 25.125 L 34.09375 29.53125 L 25.125 29.53125 L 25.125 25.125 z M 2.84375 31.0625 L 11.84375 31.0625 L 11.84375 35.46875 L 2.84375 35.46875 L 2.84375 31.0625 z M 13.34375 31.0625 L 23.59375 31.0625 L 23.59375 35.46875 L 13.34375 35.46875 L 13.34375 31.0625 z M 25.125 31.0625 L 34.09375 31.0625 L 34.09375 35.46875 L 25.125 35.46875 L 25.125 31.0625 z M 2.84375 37 L 11.84375 37 L 11.84375 42.1875 L 2.84375 42.1875 L 2.84375 37 z M 13.34375 37 L 23.59375 37 L 23.59375 42.1875 L 13.34375 42.1875 L 13.34375 37 z M 25.125 37 L 34.09375 37 L 34.09375 42.1875 L 25.125 42.1875 L 25.125 37 z "
   id="path3840" /><g
   id="g3006"
   transform="translate(4.6779661,-35.59322)" /><path
   inkscape:connector-curvature="0"
   id="path3009"
   d="M 13.71875,-2e-7 C 9.74594,-2e-7 6.5625,3.1834391 6.5625,7.1562501 l 0,10.0937499 c 0,3.972813 3.18344,7.15625 7.15625,7.15625 l 27.09375,0 C 44.78531,24.40625 48,21.222813 48,17.25 L 48,7.1562501 C 48,3.1834391 44.78531,-2e-7 40.8125,-2e-7 l -27.09375,0 z m 0.875,1.2812503 25.375,0 c 3.7235,0 6.71875,2.854638 6.71875,6.40625 l 0,9.0312499 c 0,3.551612 -2.99525,6.40625 -6.71875,6.40625 l -25.375,0 C 10.87024,23.125 7.875,20.270362 7.875,16.71875 l 0,-9.0312499 c 0,-3.551612 2.99524,-6.40625 6.71875,-6.40625 z"
   style="fill:#003366;fill-opacity:1;stroke:none;display:inline" /><path
   id="path3779"
   d="M -56.444808,8.476 C -58.409043,8.476 -60,8.823636 -60,9.26987 l 0,35.068259 c 0,0.446235 1.590957,0.793871 3.555192,0.793871 l 29.787624,0 c 1.964235,0 3.555184,-0.347636 3.555184,-0.793871 l 0,-35.068259 c 0,-0.446234 -1.590949,-0.79387 -3.555184,-0.79387 l -29.787624,0 z m -0.724846,9.250286 9.008769,0 0,5.867724 -9.008769,0 0,-5.867724 z m 10.527491,0 10.251364,0 0,5.867724 -10.251364,0 0,-5.867724 z m 11.770086,0 8.974254,0 0,5.867724 -8.974254,0 0,-5.867724 z m -22.297577,7.386428 9.008769,0 0,4.418049 -9.008769,0 0,-4.418049 z m 10.527491,0 10.251364,0 0,4.418049 -10.251364,0 0,-4.418049 z m 11.770086,0 8.974254,0 0,4.418049 -8.974254,0 0,-4.418049 z m -22.297577,5.936752 9.008769,0 0,4.418049 -9.008769,0 0,-4.418049 z m 10.527491,0 10.251364,0 0,4.418049 -10.251364,0 0,-4.418049 z m 11.770086,0 8.974254,0 0,4.418049 -8.974254,0 0,-4.418049 z m -22.297577,5.936752 9.008769,0 0,5.211918 -9.008769,0 0,-5.211918 z m 10.527491,0 10.251364,0 0,5.211918 -10.251364,0 0,-5.211918 z m 11.770086,0 8.974254,0 0,5.211918 -8.974254,0 0,-5.211918 z"
   style="color:#000000;fill:#003366;fill-opacity:1;stroke:none;stroke-width:2.68430781;marker:none;visibility:visible;display:inline;overflow:visible;enable-background:accumulate"
   inkscape:connector-curvature="0" /><path
   id="path3790"
   d="M 65.71875,0 C 61.74594,0 58.5625,3.183439 58.5625,7.15625 l 0,10.09375 c 0,3.972813 3.18344,7.15625 7.15625,7.15625 l 27.09375,0 C 96.78531,24.40625 100,21.222813 100,17.25 L 100,7.15625 C 100,3.183439 96.78531,0 92.8125,0 L 65.71875,0 z"
   style="fill:#000000;fill-opacity:1;stroke:none;display:inline"
   inkscape:connector-curvature="0" /><g
   transform="scale(0.99395595,1.0060808)"
   style="font-size:16.57032776px;font-style:normal;font-variant:normal;font-weight:bold;font-stretch:normal;text-align:start;line-height:125%;letter-spacing:0px;word-spacing:0px;writing-mode:lr-tb;text-anchor:start;fill:#003366;fill-opacity:1;stroke:none;font-family:Sans;-inkscape-font-specification:Sans Bold"
   id="text3012"><g
     id="g3032"
     transform="translate(6.1294224,33.316903)"><path
       id="path3026"
       style="line-height:125%;fill:#003366;font-family:Sans;-inkscape-font-specification:Sans Bold"
       d="m 4.128432,-21.118761 c -7e-7,-1.208246 0.1806976,-2.222314 0.5420957,-3.042208 0.2696978,-0.604117 0.637837,-1.146213 1.1044188,-1.626287 0.466577,-0.480054 0.9776568,-0.836057 1.5332408,-1.06801 0.7389715,-0.312839 1.5912206,-0.469265 2.5567498,-0.469277 1.7476439,1.2e-5 3.1460329,0.542108 4.1951729,1.626287 1.049119,1.084201 1.573684,2.591819 1.573696,4.522858 -1.2e-5,1.91487 -0.520531,3.413048 -1.561559,4.49454 -1.041049,1.081495 -2.432696,1.622241 -4.174946,1.622242 -1.7638385,-10e-7 -3.1662737,-0.53805 -4.2073098,-1.614151 -1.0410407,-1.076098 -1.5615599,-2.558094 -1.5615592,-4.445994 z m 2.467749,-0.08091 c -3.2e-6,1.343108 0.3101507,2.361222 0.9304627,3.054346 0.6203038,0.693129 1.4078251,1.039692 2.3625663,1.039691 0.954728,10e-7 1.738204,-0.343865 2.35043,-1.0316 0.612208,-0.68773 0.918316,-1.719329 0.918326,-3.0948 -10e-6,-1.359278 -0.298027,-2.373346 -0.894053,-3.042209 -0.596044,-0.668845 -1.387611,-1.003272 -2.374703,-1.003282 -0.9871051,10e-6 -1.7827174,0.338483 -2.3868392,1.015418 -0.60413,0.676954 -0.906193,1.697765 -0.9061898,3.062436 z"
       inkscape:connector-curvature="0" /><path
       id="path3028"
       style="line-height:125%;fill:#003366;font-family:Sans;-inkscape-font-specification:Sans Bold"
       d="m 17.48664,-27.122268 4.37722,0 c 0.987094,1.2e-5 1.739554,0.07553 2.257384,0.226547 0.695816,0.204983 1.291851,0.569077 1.788107,1.092283 0.496236,0.523226 0.873815,1.163762 1.132737,1.921607 0.2589,0.757863 0.388356,1.692371 0.388367,2.803525 -1.1e-5,0.976317 -0.121376,1.817778 -0.364094,2.524386 -0.29668,0.86304 -0.720107,1.561561 -1.270284,2.095564 -0.415346,0.40455 -0.97632,0.720098 -1.682924,0.946645 -0.528618,0.167213 -1.23523,0.25082 -2.119837,0.25082 l -4.506676,0 z m 2.39493,2.006563 0,7.856342 1.788107,0 c 0.668848,2e-6 1.15161,-0.03776 1.448285,-0.113274 0.38836,-0.09709 0.710651,-0.261606 0.966873,-0.49355 0.256206,-0.231938 0.465223,-0.613562 0.627051,-1.144873 0.161811,-0.531304 0.24272,-1.255446 0.242729,-2.172429 -9e-6,-0.916971 -0.08092,-1.620885 -0.242729,-2.111745 -0.161828,-0.490845 -0.388376,-0.873817 -0.679643,-1.14892 -0.291283,-0.275084 -0.66077,-0.461176 -1.108464,-0.558277 -0.334434,-0.07551 -0.989802,-0.113264 -1.966108,-0.113274 z"
       inkscape:connector-curvature="0" /><path
       id="path3030"
       style="line-height:125%;fill:#003366;font-family:Sans;-inkscape-font-specification:Sans Bold"
       d="m 28.862559,-19.120289 2.330202,-0.226547 c 0.140241,0.782131 0.424773,1.35659 0.853599,1.723379 0.428817,0.366793 1.007322,0.550188 1.735515,0.550186 0.771334,2e-6 1.352535,-0.163166 1.743606,-0.489504 0.391057,-0.326333 0.586588,-0.707958 0.586596,-1.144874 -8e-6,-0.280483 -0.08227,-0.519167 -0.246775,-0.716051 -0.164524,-0.196877 -0.451753,-0.368135 -0.861689,-0.513778 -0.280494,-0.09709 -0.919681,-0.269694 -1.917562,-0.517822 -1.283773,-0.31824 -2.184568,-0.709304 -2.702388,-1.173192 -0.728189,-0.652666 -1.092283,-1.448278 -1.092282,-2.38684 -1e-6,-0.604117 0.171258,-1.169136 0.513777,-1.69506 0.342516,-0.525903 0.836066,-0.926406 1.48065,-1.201511 0.644577,-0.275081 1.422659,-0.412628 2.334247,-0.41264 1.488734,1.2e-5 2.609334,0.326348 3.361803,0.979009 0.752451,0.652683 1.147561,1.523811 1.185328,2.613387 l -2.39493,0.105182 c -0.102493,-0.609511 -0.322298,-1.047772 -0.659415,-1.314784 -0.33713,-0.266992 -0.842816,-0.400493 -1.517059,-0.400503 -0.695829,10e-6 -1.240621,0.14295 -1.634378,0.428821 -0.25352,0.183406 -0.380279,0.428832 -0.380276,0.73628 -3e-6,0.280496 0.118665,0.520528 0.356003,0.720097 0.30206,0.253525 1.035641,0.51783 2.200747,0.792916 1.165094,0.2751 2.026783,0.559633 2.585068,0.853598 0.558269,0.293979 0.995181,0.695831 1.310739,1.205557 0.315538,0.509736 0.473312,1.139483 0.473322,1.889243 -1e-5,0.679646 -0.188799,1.316135 -0.566368,1.909472 -0.377589,0.593339 -0.911593,1.034297 -1.602014,1.322875 -0.690438,0.288578 -1.550778,0.432867 -2.581023,0.432868 -1.499532,-10e-7 -2.651147,-0.346564 -3.454849,-1.039691 -0.803705,-0.693126 -1.283769,-1.703149 -1.440194,-3.030073 z"
       inkscape:connector-curvature="0" /></g></g><text
   transform="scale(0.99395595,1.0060808)"
   sodipodi:linespacing="125%"
   id="text3016"
   y="-16.690382"
   x="58.391621"
   style="font-size:16.57032776px;font-style:normal;font-variant:normal;font-weight:bold;font-stretch:normal;text-align:start;line-height:125%;letter-spacing:0px;word-spacing:0px;writing-mode:lr-tb;text-anchor:start;fill:#003366;fill-opacity:1;stroke:none;font-family:Sans;-inkscape-font-specification:Sans Bold"
   xml:space="preserve"><tspan
     style="font-size:16.57032776px;font-style:normal;font-variant:normal;font-weight:bold;font-stretch:normal;text-align:start;line-height:125%;writing-mode:lr-tb;text-anchor:start;fill:#003366;fill-opacity:1;font-family:Sans;-inkscape-font-specification:Sans Bold"
     y="-16.690382"
     x="58.391621"
     id="tspan3018"
     sodipodi:role="line">CSV</tspan></text>
</svg>