<?xml version="1.0" encoding="UTF-8" standalone="no"?>
<!-- Generator: Adobe Illustrator 15.0.0, SVG Export Plug-In . SVG Version: 6.00 Build 0)  -->

<svg
   xmlns:dc="http://purl.org/dc/elements/1.1/"
   xmlns:cc="http://creativecommons.org/ns#"
   xmlns:rdf="http://www.w3.org/1999/02/22-rdf-syntax-ns#"
   xmlns:svg="http://www.w3.org/2000/svg"
   xmlns="http://www.w3.org/2000/svg"
   xmlns:sodipodi="http://sodipodi.sourceforge.net/DTD/sodipodi-0.dtd"
   xmlns:inkscape="http://www.inkscape.org/namespaces/inkscape"
   version="1.1"
   id="Layer_1"
   x="0px"
   y="0px"
   width="48px"
   height="48px"
   viewBox="0 0 48 48"
   enable-background="new 0 0 48 48"
   xml:space="preserve"
   inkscape:version="0.48.2 r9819"
   sodipodi:docname="info.svg"><metadata
   id="metadata3803"><rdf:RDF><cc:Work
       rdf:about=""><dc:format>image/svg+xml</dc:format><dc:type
         rdf:resource="http://purl.org/dc/dcmitype/StillImage" /><dc:title></dc:title></cc:Work></rdf:RDF></metadata><defs
   id="defs3801" /><sodipodi:namedview
   pagecolor="#ffffff"
   bordercolor="#666666"
   borderopacity="1"
   objecttolerance="10"
   gridtolerance="10"
   guidetolerance="10"
   inkscape:pageopacity="0"
   inkscape:pageshadow="2"
   inkscape:window-width="1021"
   inkscape:window-height="993"
   id="namedview3799"
   showgrid="false"
   inkscape:zoom="4.9166667"
   inkscape:cx="12.326974"
   inkscape:cy="24"
   inkscape:window-x="22"
   inkscape:window-y="-1"
   inkscape:window-maximized="0"
   inkscape:current-layer="Layer_1" />

<path
   id="path5262-6"
   d="M 24,0.12499995 C 10.8107,0.12499995 0.12499995,10.8107 0.12499995,24 0.12499995,37.1893 10.8107,47.875 24,47.875 37.1893,47.875 47.875,37.1893 47.875,24 47.875,10.8107 37.1893,0.12499995 24,0.12499995 z M 23.938,7.7187999 c 3.5495,0 6.3713,0.9258 8.4687,2.7812001 2.0974,1.8555 3.1562,4.0047 3.1563,6.4688 -1e-4,1.364 -0.3863,2.6576 -1.1563,3.875 -0.77,1.2174 -2.4147,2.8713 -4.9375,4.9687 -1.3054,1.0854 -2.1222,1.965 -2.4375,2.625 -0.3154,0.66 -0.4668,1.8298 -0.4375,3.5313 l -5.5937,0 c -0.015,-0.8067 -0.031,-1.2928 -0.031,-1.4688 0,-1.8187 0.3049,-3.2953 0.9063,-4.4687 0.6013,-1.1734 1.7896,-2.502 3.5937,-3.9688 1.8041,-1.4667 2.898,-2.4203 3.25,-2.875 0.5427,-0.7187 0.8125,-1.5096 0.8125,-2.375 0,-1.2027 -0.4768,-2.2357 -1.4375,-3.0937 -0.9607,-0.8581 -2.2469,-1.2813 -3.875,-1.2813 -1.5694,0 -2.8814,0.4491 -3.9375,1.3438 -1.056,0.8947 -1.7915,2.2291 -2.1875,4.0625 L 12.407,17.1563 c 0.1614,-2.6255 1.2996,-4.8541 3.375,-6.6875 2.0754,-1.8334001 4.7827,-2.7500001 8.1563,-2.7500001 z M 21.0005,34.125 l 6.1875,0 0,6.1875 -6.1875,0 0,-6.1875 z"
   style="color:#000000;fill:#003366;fill-opacity:1;fill-rule:evenodd;stroke:none;stroke-width:3;marker:none;visibility:visible;display:inline;overflow:visible;enable-background:accumulate"
   inkscape:connector-curvature="0" /></svg>