<?xml version="1.0" encoding="UTF-8" standalone="no"?>
<!-- Generator: Adobe Illustrator 15.0.0, SVG Export Plug-In . SVG Version: 6.00 Build 0)  -->

<svg
   xmlns:dc="http://purl.org/dc/elements/1.1/"
   xmlns:cc="http://creativecommons.org/ns#"
   xmlns:rdf="http://www.w3.org/1999/02/22-rdf-syntax-ns#"
   xmlns:svg="http://www.w3.org/2000/svg"
   xmlns="http://www.w3.org/2000/svg"
   xmlns:sodipodi="http://sodipodi.sourceforge.net/DTD/sodipodi-0.dtd"
   xmlns:inkscape="http://www.inkscape.org/namespaces/inkscape"
   version="1.1"
   id="Layer_1"
   x="0px"
   y="0px"
   width="48px"
   height="48px"
   viewBox="0 0 48 48"
   enable-background="new 0 0 48 48"
   xml:space="preserve"
   inkscape:version="0.48.2 r9819"
   sodipodi:docname="document.svg"><metadata
   id="metadata3803"><rdf:RDF><cc:Work
       rdf:about=""><dc:format>image/svg+xml</dc:format><dc:type
         rdf:resource="http://purl.org/dc/dcmitype/StillImage" /><dc:title></dc:title></cc:Work></rdf:RDF></metadata><defs
   id="defs3801" /><sodipodi:namedview
   pagecolor="#ffffff"
   bordercolor="#666666"
   borderopacity="1"
   objecttolerance="10"
   gridtolerance="10"
   guidetolerance="10"
   inkscape:pageopacity="0"
   inkscape:pageshadow="2"
   inkscape:window-width="1920"
   inkscape:window-height="1020"
   id="namedview3799"
   showgrid="false"
   inkscape:zoom="3.4766084"
   inkscape:cx="-30.530617"
   inkscape:cy="-1.8835572"
   inkscape:window-x="-4"
   inkscape:window-y="-4"
   inkscape:window-maximized="1"
   inkscape:current-layer="Layer_1" />

<path
   style="fill:#003366;fill-opacity:1;fill-rule:nonzero;stroke:none"
   d="M 7.875 13.59375 L 0 21.5 L 7.875 21.5 L 7.875 13.59375 z M 9.90625 13.59375 L 9.90625 23.53125 L 0 23.53125 L 0 48 L 28.3125 48 L 28.3125 20.375 L 19.375 20.375 C 16.057642 20.375 13.40625 17.723513 13.40625 14.40625 L 13.40625 13.59375 L 9.90625 13.59375 z M 2.65625 25.3125 L 25.65625 25.3125 L 25.65625 27.875 L 2.65625 27.875 L 2.65625 25.3125 z M 2.65625 29.1875 L 25.65625 29.1875 L 25.65625 31.75 L 2.65625 31.75 L 2.65625 29.1875 z M 2.65625 33.0625 L 25.65625 33.0625 L 25.65625 35.625 L 2.65625 35.625 L 2.65625 33.0625 z M 2.65625 36.9375 L 25.65625 36.9375 L 25.65625 39.46875 L 2.65625 39.46875 L 2.65625 36.9375 z M 2.65625 40.78125 L 25.65625 40.78125 L 25.65625 43.3125 L 2.65625 43.3125 L 2.65625 40.78125 z "
   id="path3905" /><path
   style="fill:#003366;fill-opacity:1;fill-rule:nonzero;stroke:none"
   d="m -160.42939,112.90094 -6.6875,6.6875 6.6875,0 0,-6.6875 z m 1.71875,1.46875 0,6.9375 -8.40625,0 0,20.75 24,0 0,-24.03125 -9.375,0 c -2.69061,0 -4.99597,-1.47962 -6.21875,-3.65625 z m -6.15625,8.46875 19.5,0 0,2.15625 -19.5,0 0,-2.15625 z m 0,3.28125 19.5,0 0,2.15625 -19.5,0 0,-2.15625 z m 0,3.28125 19.5,0 0,2.15625 -19.5,0 0,-2.15625 z m 0,3.28125 19.5,0 0,2.15625 -19.5,0 0,-2.15625 z m 0,3.25 19.5,0 0,2.15625 -19.5,0 0,-2.15625 z"
   id="rect3049"
   inkscape:connector-curvature="0" /><path
   inkscape:connector-curvature="0"
   style="fill:#003366;fill-opacity:1;fill-rule:nonzero;stroke:none;display:inline"
   d="m -15.765924,72.897073 c 2.1773,0 3.9375,1.76013 3.9375,3.9375 l 0,39.874997 c 0,2.17736 -1.7602,3.9375 -3.9375,3.9375 l -39.874999,0 c -2.177405,0 -3.937505,-1.76014 -3.937505,-3.9375 l 0,-25.874997 c 0,-8.31095 8.672795,-17.9375 17.937505,-17.9375 z m -5.749999,6.5 -16.8125,0 0,11.78125 -11.9375,0 0,22.624997 c 0,0.17746 0.13504,0.34375 0.3125,0.34375 l 28.4375,0 c 0.17745,0 0.375,-0.16629 0.375,-0.34375 l 0,-34.062497 c 0,-0.17745 -0.19755,-0.34375 -0.375,-0.34375 z m -19.90625,0.40625 -8.3125,7.90625 8.3125,0 z m 17.71875,16.875 0,2.9375 -22.5625,0 0,-2.9375 z m 0,5.749997 0,2.9375 -22.5625,0 0,-2.9375 z m 0,5.75 0,2.9375 -22.5625,0 0,-2.9375 z"
   id="rect5139-1"
   sodipodi:nodetypes="sssssssssscccssssssccccccccccccccccccc" /><path
   inkscape:connector-curvature="0"
   style="fill:#003366;fill-opacity:1;stroke:none;display:inline"
   d="m 104.86122,108.96846 0,47.375 35.21875,0 0,-23.0625 -2.875,0 0,0.46875 -29.53125,0 0,-2.25 6.78125,0 c -0.59294,-0.52601 -1.10158,-1.14466 -1.5,-1.84375 l -5.1875,0 0,-2.28125 4.375,0 c -0.0859,-0.45342 -0.15625,-0.9267 -0.15625,-1.40625 l 0,-0.46875 -4.3125,0 0,-2.28125 4.3125,0 0,-1.875 -4.3125,0 0,-2.25 4.3125,0 0,-1.875 -4.3125,0 0,-2.25 4.34375,0 c 0.2552,-2.69953 1.92147,-4.96799 4.25,-6 l -11.40625,0 z m 2.8125,26.65625 29.53125,0 0,2.28125 -29.53125,0 0,-2.28125 z m 0,4.125 29.53125,0 0,2.28125 -29.53125,0 0,-2.28125 z m 0,4.15625 29.53125,0 0,2.25 -29.53125,0 0,-2.25 z m 0,4.125 29.53125,0 0,2.28125 -29.53125,0 0,-2.28125 z"
   id="rect3347-2-0" /><g
   id="g3010"
   transform="translate(104.86122,107.63635)"><g
     transform="translate(0.03389108,-5.3511986e-5)"
     id="g3067"><path
       id="path6150-6"
       style="font-size:4.8435235px;font-style:normal;font-weight:bold;line-height:125%;letter-spacing:0px;word-spacing:0px;fill:#003366;fill-opacity:1;stroke:none;font-family:Sans;-inkscape-font-specification:Sans Bold"
       d="m 11.93248,18.456653 0,-11.938638 3.829558,0 c 1.451195,3.44e-5 2.397148,0.059915 2.837892,0.1790577 0.677225,0.1790577 1.244237,0.5687148 1.701106,1.168627 0.456869,0.5999122 0.685303,1.3749222 0.685303,2.3250303 0,0.732931 -0.131585,1.349131 -0.395064,1.848598 -0.263513,0.499502 -0.597932,0.891742 -1.003735,1.176788 -0.405802,0.285115 -0.818321,0.473677 -1.237555,0.56596 -0.569739,0.113977 -1.394742,0.171138 -2.475076,0.171138 l -1.55602,0 0,4.503439 z m 2.386409,-9.9190048 0,3.3877718 1.306075,0 c 0.940601,3.5e-5 1.569452,-0.06233 1.886553,-0.187322 0.317034,-0.124996 0.565683,-0.320238 0.745779,-0.586345 0.179993,-0.266176 0.269989,-0.575498 0.269989,-0.92838 0,-0.434318 -0.126131,-0.79264 -0.378906,-1.0749658 -0.252604,-0.2823603 -0.572432,-0.4587666 -0.959418,-0.5293566 -0.284989,-0.054406 -0.857285,-0.081265 -1.71723,-0.081265 z"
       inkscape:connector-curvature="0" /><path
       id="path6152-8"
       style="font-size:4.8435235px;font-style:normal;font-weight:bold;line-height:125%;letter-spacing:0px;word-spacing:0px;fill:#003366;fill-opacity:1;stroke:none;font-family:Sans;-inkscape-font-specification:Sans Bold"
       d="m 22.953515,6.518015 4.361629,0 c 0.983587,3.44e-5 1.733388,0.076099 2.249369,0.2279542 0.693348,0.2062607 1.287258,0.5727781 1.781762,1.0994143 0.494469,0.5266363 0.870682,1.1713474 1.128707,1.9341332 0.258058,0.7627863 0.386951,1.7033893 0.386985,2.8217773 -3.4e-5,0.982683 -0.121018,1.829626 -0.362816,2.540829 -0.295557,0.868671 -0.717552,1.571713 -1.265747,2.109196 -0.413882,0.407185 -0.97285,0.724805 -1.67697,0.952829 -0.526719,0.168383 -1.230806,0.252402 -2.112295,0.252402 l -4.490624,0 z m 2.386409,2.0196332 0,7.9075328 1.781727,0 c 0.666486,0 1.147525,-0.03788 1.44315,-0.113977 0.386985,-0.09779 0.708109,-0.263422 0.96344,-0.496782 0.255332,-0.233464 0.463551,-0.617542 0.624829,-1.152305 0.161244,-0.534763 0.241695,-1.263631 0.242036,-2.186605 -3.4e-5,-0.922939 -0.08079,-1.631422 -0.242036,-2.125484 C 29.991826,9.8759668 29.766051,9.4905107 29.475812,9.2136255 29.185709,8.9367747 28.817405,8.7494528 28.371308,8.6516942 28.037912,8.5755947 27.385028,8.5377171 26.412178,8.5377171 z"
       inkscape:connector-curvature="0" /><path
       id="path6154-1"
       style="font-size:4.8435235px;font-style:normal;font-weight:bold;line-height:125%;letter-spacing:0px;word-spacing:0px;fill:#003366;fill-opacity:1;stroke:none;font-family:Sans;-inkscape-font-specification:Sans Bold"
       d="m 34.909764,18.456653 0,-11.938638 8.102487,0 0,2.0196332 -5.716078,0 0,2.8258748 4.934062,0 0,2.019633 -4.934062,0 0,5.073497 z"
       inkscape:connector-curvature="0" /></g><path
     inkscape:connector-curvature="0"
     id="path3838-989"
     d="m 14.15879,0 c -3.92181,0 -7.0644,3.294889 -7.0644,7.406784 l 0,10.447125 c 0,4.111898 3.14259,7.406784 7.0644,7.406784 l 26.74597,0 C 44.82657,25.260693 48,21.965807 48,17.853909 L 48,7.406784 C 48,3.294889 44.82657,0 40.90476,0 L 14.15879,0 z m 0.86377,1.326106 25.04928,0 c 3.67571,0 6.6325,2.954575 6.6325,6.630527 l 0,9.347427 c 0,3.675952 -2.95679,6.630528 -6.6325,6.630528 l -25.04928,0 c -3.67571,0 -6.6325,-2.954576 -6.6325,-6.630528 l 0,-9.347427 c 0,-3.675952 2.95679,-6.630527 6.6325,-6.630527 z"
     style="fill:#003366;fill-opacity:1;stroke:none;display:inline" /></g><path
   sodipodi:nodetypes="sssssssssscccssssssccccccccccccccccccc"
   id="path3010"
   d="m -124.22345,0.1250002 c -2.1773,0 -3.9375,1.76013 -3.9375,3.9375 l 0,39.8749998 c 0,2.17736 1.7602,3.9375 3.9375,3.9375 l 39.875,0 c 2.177405,0 3.937505,-1.76014 3.937505,-3.9375 l 0,-25.875 c 0,-8.3109502 -8.672795,-17.9374998 -17.937505,-17.9374998 z m 5.75,6.4999996 16.8125,0 0,11.7812502 11.9375,0 0,22.625 c 0,0.17746 -0.13504,0.34375 -0.3125,0.34375 l -28.4375,0 c -0.17745,0 -0.375,-0.16629 -0.375,-0.34375 l 0,-34.0625002 c 0,-0.17745 0.19755,-0.34375 0.375,-0.34375 z m 19.90625,0.40625 8.3125,7.9062502 -8.3125,0 z m -17.71875,16.8750002 0,2.9375 22.5625,0 0,-2.9375 z m 0,5.75 0,2.9375 22.5625,0 0,-2.9375 z m 0,5.75 0,2.9375 22.5625,0 0,-2.9375 z"
   style="fill:#003366;fill-opacity:1;fill-rule:nonzero;stroke:none;display:inline"
   inkscape:connector-curvature="0" /><path
   style="color:#000000;fill:#003366;fill-opacity:1;stroke:none;stroke-width:4.21161079;marker:none;visibility:visible;display:inline;overflow:visible;enable-background:accumulate"
   d="m -76.391132,-60.97897 c -5.641866,0 -10.1875,4.545634 -10.1875,10.1875 l 0,27.625 c 0,5.641866 4.545634,10.1875 10.1875,10.1875 l 27.625,0 c 5.641867,0 10.1875,-4.545634 10.1875,-10.1875 l 0,-27.625 c 0,-5.641866 -4.545633,-10.1875 -10.1875,-10.1875 l -27.625,0 z"
   id="path3765-5"
   inkscape:connector-curvature="0" /><g
   id="g3051"
   transform="translate(-167.11689,94.057185)"><g
     id="g3053"
     transform="translate(0.03389108,-5.3511986e-5)"><path
       inkscape:connector-curvature="0"
       d="m 11.93248,18.456653 0,-11.938638 3.829558,0 c 1.451195,3.44e-5 2.397148,0.059915 2.837892,0.1790577 0.677225,0.1790577 1.244237,0.5687148 1.701106,1.168627 0.456869,0.5999122 0.685303,1.3749222 0.685303,2.3250303 0,0.732931 -0.131585,1.349131 -0.395064,1.848598 -0.263513,0.499502 -0.597932,0.891742 -1.003735,1.176788 -0.405802,0.285115 -0.818321,0.473677 -1.237555,0.56596 -0.569739,0.113977 -1.394742,0.171138 -2.475076,0.171138 l -1.55602,0 0,4.503439 z m 2.386409,-9.9190048 0,3.3877718 1.306075,0 c 0.940601,3.5e-5 1.569452,-0.06233 1.886553,-0.187322 0.317034,-0.124996 0.565683,-0.320238 0.745779,-0.586345 0.179993,-0.266176 0.269989,-0.575498 0.269989,-0.92838 0,-0.434318 -0.126131,-0.79264 -0.378906,-1.0749658 -0.252604,-0.2823603 -0.572432,-0.4587666 -0.959418,-0.5293566 -0.284989,-0.054406 -0.857285,-0.081265 -1.71723,-0.081265 z"
       style="font-size:4.8435235px;font-style:normal;font-weight:bold;line-height:125%;letter-spacing:0px;word-spacing:0px;fill:#003366;fill-opacity:1;stroke:none;font-family:Sans;-inkscape-font-specification:Sans Bold"
       id="path3055" /><path
       inkscape:connector-curvature="0"
       d="m 22.953515,6.518015 4.361629,0 c 0.983587,3.44e-5 1.733388,0.076099 2.249369,0.2279542 0.693348,0.2062607 1.287258,0.5727781 1.781762,1.0994143 0.494469,0.5266363 0.870682,1.1713474 1.128707,1.9341332 0.258058,0.7627863 0.386951,1.7033893 0.386985,2.8217773 -3.4e-5,0.982683 -0.121018,1.829626 -0.362816,2.540829 -0.295557,0.868671 -0.717552,1.571713 -1.265747,2.109196 -0.413882,0.407185 -0.97285,0.724805 -1.67697,0.952829 -0.526719,0.168383 -1.230806,0.252402 -2.112295,0.252402 l -4.490624,0 z m 2.386409,2.0196332 0,7.9075328 1.781727,0 c 0.666486,0 1.147525,-0.03788 1.44315,-0.113977 0.386985,-0.09779 0.708109,-0.263422 0.96344,-0.496782 0.255332,-0.233464 0.463551,-0.617542 0.624829,-1.152305 0.161244,-0.534763 0.241695,-1.263631 0.242036,-2.186605 -3.4e-5,-0.922939 -0.08079,-1.631422 -0.242036,-2.125484 C 29.991826,9.8759668 29.766051,9.4905107 29.475812,9.2136255 29.185709,8.9367747 28.817405,8.7494528 28.371308,8.6516942 28.037912,8.5755947 27.385028,8.5377171 26.412178,8.5377171 z"
       style="font-size:4.8435235px;font-style:normal;font-weight:bold;line-height:125%;letter-spacing:0px;word-spacing:0px;fill:#003366;fill-opacity:1;stroke:none;font-family:Sans;-inkscape-font-specification:Sans Bold"
       id="path3057" /><path
       inkscape:connector-curvature="0"
       d="m 34.909764,18.456653 0,-11.938638 8.102487,0 0,2.0196332 -5.716078,0 0,2.8258748 4.934062,0 0,2.019633 -4.934062,0 0,5.073497 z"
       style="font-size:4.8435235px;font-style:normal;font-weight:bold;line-height:125%;letter-spacing:0px;word-spacing:0px;fill:#003366;fill-opacity:1;stroke:none;font-family:Sans;-inkscape-font-specification:Sans Bold"
       id="path3059" /></g><path
     style="fill:#003366;fill-opacity:1;stroke:none;display:inline"
     d="m 14.15879,0 c -3.92181,0 -7.0644,3.294889 -7.0644,7.406784 l 0,10.447125 c 0,4.111898 3.14259,7.406784 7.0644,7.406784 l 26.74597,0 C 44.82657,25.260693 48,21.965807 48,17.853909 L 48,7.406784 C 48,3.294889 44.82657,0 40.90476,0 L 14.15879,0 z m 0.86377,1.326106 25.04928,0 c 3.67571,0 6.6325,2.954575 6.6325,6.630527 l 0,9.347427 c 0,3.675952 -2.95679,6.630528 -6.6325,6.630528 l -25.04928,0 c -3.67571,0 -6.6325,-2.954576 -6.6325,-6.630528 l 0,-9.347427 c 0,-3.675952 2.95679,-6.630527 6.6325,-6.630527 z"
     id="path3061"
     inkscape:connector-curvature="0" /></g><path
   inkscape:connector-curvature="0"
   id="path3856"
   d="m -32.49749,31.004873 -6.693004,6.693004 6.693004,0 0,-6.693004 z m 1.711569,0 0,8.404574 -8.404573,0 0,20.743202 23.987521,0 0,-29.147776 -15.582948,0 z"
   style="fill:#ffb380;fill-opacity:1;fill-rule:nonzero;stroke:none" /><rect
   y="44.211025"
   x="-36.940426"
   height="2.157275"
   width="19.487383"
   id="rect3858"
   style="fill:#ff2a2a;fill-opacity:1;fill-rule:nonzero;stroke:none" /><rect
   style="fill:#ff2a2a;fill-opacity:1;fill-rule:nonzero;stroke:none"
   id="rect3860"
   width="19.487383"
   height="2.157275"
   x="-36.940426"
   y="47.487476" /><rect
   y="50.763924"
   x="-36.940426"
   height="2.157275"
   width="19.487383"
   id="rect3862"
   style="fill:#ff2a2a;fill-opacity:1;fill-rule:nonzero;stroke:none" /><rect
   style="fill:#ff2a2a;fill-opacity:1;fill-rule:nonzero;stroke:none"
   id="rect3864"
   width="19.487383"
   height="2.157275"
   x="-36.940426"
   y="54.040371" /><rect
   style="fill:#ff2a2a;fill-opacity:1;fill-rule:nonzero;stroke:none"
   id="rect3866"
   width="19.487383"
   height="2.157275"
   x="-36.940426"
   y="40.934578" /><path
   id="path3873"
   d="m 4.8178618,54.366877 -6.6875,6.6875 6.6875,0 0,-6.6875 z m 1.71875,0 0,8.40625 -8.40625,0 0,20.75 24.0000002,0 0,-29.15625 -15.5937502,0 z m -6.15625004,9.9375 19.50000024,0 0,2.15625 -19.50000024,0 0,-2.15625 z m 0,3.28125 19.50000024,0 0,2.15625 -19.50000024,0 0,-2.15625 z m 0,3.28125 19.50000024,0 0,2.15625 -19.50000024,0 0,-2.15625 z m 0,3.28125 19.50000024,0 0,2.15625 -19.50000024,0 0,-2.15625 z m 0,3.25 19.50000024,0 0,2.15625 -19.50000024,0 0,-2.15625 z"
   style="fill:#ffb380;fill-opacity:1;fill-rule:nonzero;stroke:none"
   inkscape:connector-curvature="0" /><path
   inkscape:connector-curvature="0"
   style="fill:#003366;fill-opacity:1;stroke:none"
   d="m 92.205207,-6.633678 0,34.34375 34.343753,0 0,-21.4375 -7.65625,0 0,14.09375 -3.6875,0 0,-14.09375 -0.34375,0 -3.5625,14.09375 -3.84375,0 -3.875,-15.46875 0,15.46875 -3.687503,0 0,-19.65625 5.843753,0 c -0.0228,-0.219348 -0.0312,-0.430584 -0.0312,-0.65625 l 0,-6.6875 -13.500003,0 z m 14.250003,9.65625 2.9375,11.09375 2.0625,-7.875 c -2.1701,-0.123273 -4.02077,-1.377115 -5,-3.21875 z"
   id="path6231-9" /><g
   transform="matrix(2.9873498,0,0,2.9873498,-232.72862,-1281.4025)"
   id="g3037"><path
     inkscape:connector-curvature="0"
     d="m 115.11225,426.23941 0.56551,0 0,1.77895 c -1e-5,0.23259 -0.0205,0.41151 -0.0614,0.53675 -0.055,0.16358 -0.15464,0.29489 -0.29905,0.39394 -0.14441,0.099 -0.33483,0.14856 -0.57125,0.14856 -0.27733,0 -0.49075,-0.0776 -0.64027,-0.23291 -0.14953,-0.15528 -0.22493,-0.38308 -0.2262,-0.6834 l 0.53483,-0.0613 c 0.006,0.16102 0.03,0.27476 0.0709,0.34122 0.0613,0.10096 0.15463,0.15144 0.27988,0.15144 0.12652,0 0.21597,-0.0361 0.26837,-0.10831 0.0524,-0.0722 0.0786,-0.22205 0.0786,-0.44953 z"
     style="font-size:3.92595935px;font-style:normal;font-weight:bold;line-height:125%;letter-spacing:0px;word-spacing:0px;fill:#003366;fill-opacity:1;stroke:none;font-family:Sans;-inkscape-font-specification:Sans Bold"
     id="path3039" /><path
     inkscape:connector-curvature="0"
     d="m 116.13975,428.13529 0.55208,-0.0537 c 0.0332,0.1853 0.10064,0.32141 0.20224,0.40831 0.1016,0.0869 0.23867,0.13036 0.41119,0.13036 0.18275,0 0.32046,-0.0387 0.41311,-0.11598 0.0926,-0.0773 0.13898,-0.16774 0.13898,-0.27125 0,-0.0665 -0.0195,-0.12301 -0.0585,-0.16966 -0.039,-0.0466 -0.10704,-0.0872 -0.20416,-0.12172 -0.0665,-0.023 -0.2179,-0.0639 -0.45432,-0.12269 -0.30417,-0.0754 -0.51759,-0.16805 -0.64027,-0.27796 -0.17253,-0.15463 -0.2588,-0.34314 -0.25879,-0.56551 -1e-5,-0.14313 0.0406,-0.277 0.12172,-0.4016 0.0811,-0.1246 0.19809,-0.21949 0.35081,-0.28467 0.15272,-0.0652 0.33707,-0.0978 0.55305,-0.0978 0.35272,0 0.61822,0.0773 0.7965,0.23195 0.17827,0.15464 0.27189,0.36104 0.28083,0.61919 l -0.56742,0.0249 c -0.0243,-0.14441 -0.0764,-0.24825 -0.15623,-0.31151 -0.0799,-0.0633 -0.19969,-0.0949 -0.35944,-0.0949 -0.16486,0 -0.29393,0.0339 -0.38722,0.1016 -0.0601,0.0435 -0.0901,0.1016 -0.0901,0.17444 0,0.0665 0.0281,0.12333 0.0844,0.17061 0.0716,0.0601 0.24537,0.12269 0.52141,0.18787 0.27604,0.0652 0.4802,0.13259 0.61247,0.20224 0.13227,0.0697 0.23579,0.16486 0.31055,0.28563 0.0748,0.12077 0.11214,0.26997 0.11215,0.44761 -1e-5,0.16103 -0.0447,0.31183 -0.13419,0.45241 -0.0895,0.14057 -0.21598,0.24505 -0.37956,0.31342 -0.16359,0.0684 -0.36742,0.10256 -0.61152,0.10256 -0.35528,0 -0.62812,-0.0821 -0.81854,-0.24633 -0.19042,-0.16422 -0.30416,-0.40352 -0.34122,-0.71791 z"
     style="font-size:3.92595935px;font-style:normal;font-weight:bold;line-height:125%;letter-spacing:0px;word-spacing:0px;fill:#003366;fill-opacity:1;stroke:none;font-family:Sans;-inkscape-font-specification:Sans Bold"
     id="path3041" /><path
     inkscape:connector-curvature="0"
     d="m 118.79092,427.6618 c 0,-0.28627 0.0428,-0.52653 0.12844,-0.72078 0.0639,-0.14313 0.15112,-0.27157 0.26166,-0.38531 0.11055,-0.11374 0.23164,-0.19809 0.36327,-0.25304 0.17508,-0.0741 0.377,-0.11119 0.60576,-0.11119 0.41407,0 0.74538,0.12844 0.99395,0.38531 0.24857,0.25688 0.37285,0.61407 0.37285,1.07159 0,0.45368 -0.12332,0.80864 -0.36997,1.06488 -0.24666,0.25623 -0.57637,0.38435 -0.98916,0.38435 -0.4179,0 -0.75018,-0.12748 -0.99683,-0.38243 -0.24665,-0.25496 -0.36997,-0.60609 -0.36997,-1.05338 z m 0.58468,-0.0192 c -1e-5,0.31822 0.0735,0.55944 0.22045,0.72366 0.14696,0.16422 0.33355,0.24633 0.55975,0.24633 0.2262,0 0.41183,-0.0815 0.55688,-0.24442 0.14505,-0.16294 0.21758,-0.40735 0.21758,-0.73324 0,-0.32205 -0.0706,-0.56231 -0.21183,-0.72078 -0.14121,-0.15847 -0.32876,-0.2377 -0.56263,-0.2377 -0.23387,0 -0.42237,0.0802 -0.5655,0.24058 -0.14314,0.16038 -0.21471,0.40224 -0.2147,0.72557 z"
     style="font-size:3.92595935px;font-style:normal;font-weight:bold;line-height:125%;letter-spacing:0px;word-spacing:0px;fill:#003366;fill-opacity:1;stroke:none;font-family:Sans;-inkscape-font-specification:Sans Bold"
     id="path3043" /><path
     inkscape:connector-curvature="0"
     d="m 121.96351,429.04969 0,-2.81028 0.55209,0 1.15018,1.87671 0,-1.87671 0.52717,0 0,2.81028 -0.56934,0 -1.13293,-1.83263 0,1.83263 z"
     style="font-size:3.92595935px;font-style:normal;font-weight:bold;line-height:125%;letter-spacing:0px;word-spacing:0px;fill:#003366;fill-opacity:1;stroke:none;font-family:Sans;-inkscape-font-specification:Sans Bold"
     id="path3045" /></g><path
   style="fill:#003366;fill-opacity:1;stroke:none;display:inline"
   d="m 111.5802,-13.974154 c -3.31732,0 -5.97551,2.658187 -5.97551,5.9755028 l 0,8.4283302 c 0,3.317318 2.65819,5.975503 5.97551,5.975503 l 22.62341,0 c 3.31731,0 6.0016,-2.658185 6.0016,-5.975503 l 0,-8.4283302 c 0,-3.3173158 -2.68429,-5.9755028 -6.0016,-5.9755028 l -22.62341,0 z m 0.73063,1.069849 21.18824,0 c 3.10914,0 5.61019,2.383637 5.61019,5.3492502 l 0,7.5411368 c 0,2.965614 -2.50105,5.34925 -5.61019,5.34925 l -21.18824,0 c -3.10915,0 -5.61019,-2.383636 -5.61019,-5.34925 l 0,-7.5411368 c 0,-2.9656132 2.50104,-5.3492502 5.61019,-5.3492502 z"
   id="path3838-96"
   inkscape:connector-curvature="0" /><path
   id="path3907"
   d="m 39.242126,59.048837 -7.889731,7.889732 7.889731,0 0,-7.889732 z m 2.027735,0 0,9.917466 -9.917466,0 0,24.480288 28.314551,0 0,-34.397754 -18.397085,0 z m -7.262977,11.723994 23.005573,0 0,2.543885 -23.005573,0 0,-2.543885 z m 0,3.871129 23.005573,0 0,2.543886 -23.005573,0 0,-2.543886 z m 0,3.87113 23.005573,0 0,2.543886 -23.005573,0 0,-2.543886 z m 0,3.87113 23.005573,0 0,2.543885 -23.005573,0 0,-2.543885 z m 0,3.834262 23.005573,0 0,2.543885 -23.005573,0 0,-2.543885 z"
   style="fill:#ffb380;fill-opacity:1;fill-rule:nonzero;stroke:none"
   inkscape:connector-curvature="0" /><g
   transform="matrix(0.8458742,0,0,0.80674746,7.3980384,0)"
   id="g3909"><g
     transform="translate(0.03389108,-5.3511986e-5)"
     id="g3911"><path
       id="path3913"
       style="font-size:4.8435235px;font-style:normal;font-weight:bold;line-height:125%;letter-spacing:0px;word-spacing:0px;fill:#003366;fill-opacity:1;stroke:none;font-family:Sans;-inkscape-font-specification:Sans Bold"
       d="m 11.93248,18.456653 0,-11.938638 3.829558,0 c 1.451195,3.44e-5 2.397148,0.059915 2.837892,0.1790577 0.677225,0.1790577 1.244237,0.5687148 1.701106,1.168627 0.456869,0.5999122 0.685303,1.3749222 0.685303,2.3250303 0,0.732931 -0.131585,1.349131 -0.395064,1.848598 -0.263513,0.499502 -0.597932,0.891742 -1.003735,1.176788 -0.405802,0.285115 -0.818321,0.473677 -1.237555,0.56596 -0.569739,0.113977 -1.394742,0.171138 -2.475076,0.171138 l -1.55602,0 0,4.503439 z m 2.386409,-9.9190048 0,3.3877718 1.306075,0 c 0.940601,3.5e-5 1.569452,-0.06233 1.886553,-0.187322 0.317034,-0.124996 0.565683,-0.320238 0.745779,-0.586345 0.179993,-0.266176 0.269989,-0.575498 0.269989,-0.92838 0,-0.434318 -0.126131,-0.79264 -0.378906,-1.0749658 -0.252604,-0.2823603 -0.572432,-0.4587666 -0.959418,-0.5293566 -0.284989,-0.054406 -0.857285,-0.081265 -1.71723,-0.081265 z"
       inkscape:connector-curvature="0" /><path
       id="path3915"
       style="font-size:4.8435235px;font-style:normal;font-weight:bold;line-height:125%;letter-spacing:0px;word-spacing:0px;fill:#003366;fill-opacity:1;stroke:none;font-family:Sans;-inkscape-font-specification:Sans Bold"
       d="m 22.953515,6.518015 4.361629,0 c 0.983587,3.44e-5 1.733388,0.076099 2.249369,0.2279542 0.693348,0.2062607 1.287258,0.5727781 1.781762,1.0994143 0.494469,0.5266363 0.870682,1.1713474 1.128707,1.9341332 0.258058,0.7627863 0.386951,1.7033893 0.386985,2.8217773 -3.4e-5,0.982683 -0.121018,1.829626 -0.362816,2.540829 -0.295557,0.868671 -0.717552,1.571713 -1.265747,2.109196 -0.413882,0.407185 -0.97285,0.724805 -1.67697,0.952829 -0.526719,0.168383 -1.230806,0.252402 -2.112295,0.252402 l -4.490624,0 z m 2.386409,2.0196332 0,7.9075328 1.781727,0 c 0.666486,0 1.147525,-0.03788 1.44315,-0.113977 0.386985,-0.09779 0.708109,-0.263422 0.96344,-0.496782 0.255332,-0.233464 0.463551,-0.617542 0.624829,-1.152305 0.161244,-0.534763 0.241695,-1.263631 0.242036,-2.186605 -3.4e-5,-0.922939 -0.08079,-1.631422 -0.242036,-2.125484 C 29.991826,9.8759668 29.766051,9.4905107 29.475812,9.2136255 29.185709,8.9367747 28.817405,8.7494528 28.371308,8.6516942 28.037912,8.5755947 27.385028,8.5377171 26.412178,8.5377171 z"
       inkscape:connector-curvature="0" /><path
       id="path3917"
       style="font-size:4.8435235px;font-style:normal;font-weight:bold;line-height:125%;letter-spacing:0px;word-spacing:0px;fill:#003366;fill-opacity:1;stroke:none;font-family:Sans;-inkscape-font-specification:Sans Bold"
       d="m 34.909764,18.456653 0,-11.938638 8.102487,0 0,2.0196332 -5.716078,0 0,2.8258748 4.934062,0 0,2.019633 -4.934062,0 0,5.073497 z"
       inkscape:connector-curvature="0" /></g><path
     inkscape:connector-curvature="0"
     id="path3919"
     d="m 14.15879,0 c -3.92181,0 -7.0644,3.294889 -7.0644,7.406784 l 0,10.447125 c 0,4.111898 3.14259,7.406784 7.0644,7.406784 l 26.74597,0 C 44.82657,25.260693 48,21.965807 48,17.853909 L 48,7.406784 C 48,3.294889 44.82657,0 40.90476,0 L 14.15879,0 z m 0.86377,1.326106 25.04928,0 c 3.67571,0 6.6325,2.954575 6.6325,6.630527 l 0,9.347427 c 0,3.675952 -2.95679,6.630528 -6.6325,6.630528 l -25.04928,0 c -3.67571,0 -6.6325,-2.954576 -6.6325,-6.630528 l 0,-9.347427 c 0,-3.675952 2.95679,-6.630527 6.6325,-6.630527 z"
     style="fill:#003366;fill-opacity:1;stroke:none;display:inline" /></g><path
   id="path3929"
   d="m 34.629237,-27.457627 c -3.317358,0 -5.96875,2.651489 -5.96875,5.96875 l 0,8.4375 c 0,3.3172633 2.651392,5.9687503 5.96875,5.9687503 l 22.625,0 c 3.317357,0 6,-2.651487 6,-5.9687503 l 0,-8.4375 c 0,-3.317261 -2.682643,-5.96875 -6,-5.96875 l -22.625,0 z"
   style="fill:#003366;fill-opacity:1;stroke:none;display:inline"
   inkscape:connector-curvature="0" /></svg>