<?xml version="1.0" encoding="UTF-8" standalone="no"?>
<!-- Generator: Adobe Illustrator 15.0.0, SVG Export Plug-In . SVG Version: 6.00 Build 0)  -->

<svg
   xmlns:dc="http://purl.org/dc/elements/1.1/"
   xmlns:cc="http://creativecommons.org/ns#"
   xmlns:rdf="http://www.w3.org/1999/02/22-rdf-syntax-ns#"
   xmlns:svg="http://www.w3.org/2000/svg"
   xmlns="http://www.w3.org/2000/svg"
   xmlns:sodipodi="http://sodipodi.sourceforge.net/DTD/sodipodi-0.dtd"
   xmlns:inkscape="http://www.inkscape.org/namespaces/inkscape"
   version="1.1"
   id="Layer_1"
   x="0px"
   y="0px"
   width="48px"
   height="48px"
   viewBox="0 0 48 48"
   enable-background="new 0 0 48 48"
   xml:space="preserve"
   inkscape:version="0.91 r13725"
   sodipodi:docname="help_5.svg"><metadata
   id="metadata3803"><rdf:RDF><cc:Work
       rdf:about=""><dc:format>image/svg+xml</dc:format><dc:type
         rdf:resource="http://purl.org/dc/dcmitype/StillImage" /><dc:title /></cc:Work></rdf:RDF></metadata><defs
   id="defs3801" /><sodipodi:namedview
   pagecolor="#ffffff"
   bordercolor="#666666"
   borderopacity="1"
   objecttolerance="10"
   gridtolerance="10"
   guidetolerance="10"
   inkscape:pageopacity="0"
   inkscape:pageshadow="2"
   inkscape:window-width="1920"
   inkscape:window-height="1020"
   id="namedview3799"
   showgrid="false"
   inkscape:zoom="4.9166667"
   inkscape:cx="31.181213"
   inkscape:cy="34.754839"
   inkscape:window-x="-4"
   inkscape:window-y="-4"
   inkscape:window-maximized="1"
   inkscape:current-layer="Layer_1" />

<g
   transform="matrix(3.4406274,0,0,3.4406274,-535.0642,-1203.6404)"
   id="text4658-3"
   style="font-style:normal;font-weight:normal;font-size:3.92595935px;line-height:125%;font-family:Sans;letter-spacing:0px;word-spacing:0px;display:inline;fill:#003366;fill-opacity:1;stroke:none"><text
   transform="scale(0.99556664,1.0044531)"
   sodipodi:linespacing="125%"
   id="text3395"
   y="353.21899"
   x="158.93556"
   style="font-style:normal;font-weight:normal;font-size:3.9343977px;line-height:125%;font-family:sans-serif;letter-spacing:0px;word-spacing:0px;fill:#003366;fill-opacity:1;stroke:none;stroke-width:1px;stroke-linecap:butt;stroke-linejoin:miter;stroke-opacity:1"
   xml:space="preserve"><tspan
     style="font-style:normal;font-variant:normal;font-weight:bold;font-stretch:normal;font-family:Arial;-inkscape-font-specification:'Arial Bold';fill:#003366;fill-opacity:1"
     y="353.21899"
     x="158.93556"
     id="tspan3397"
     sodipodi:role="line">JSON</tspan></text>

</g><path
   inkscape:connector-curvature="0"
   style="color:#000000;display:inline;overflow:visible;visibility:visible;fill:#003366;fill-opacity:1;stroke:none;stroke-width:2.68430781;marker:none;enable-background:accumulate"
   d="m 3.5628999,8.46885 c -1.96423,0 -3.56249999,0.36627 -3.56249999,0.8125 l 0,35.062498 c 0,0.44623 1.59826999,0.78125 3.56249999,0.78125 l 29.7812501,0 c 1.96423,0 3.5625,-0.33502 3.5625,-0.78125 l 0,-19.9375 -2.63086,0 0,17.7168 -0.18164,0 0,0.0644 -8.96875,0 0,-0.0644 -1.53125,0 0,0.0644 -10.25,0 0,-0.0644 -0.0801,0 0,-17.73243 0.20508,0 c -1.09516,-0.0398 -2.11634,-0.32472 -3.03125,-0.79687 l -7.5937501,0 0,-5.875 3.75,0 c -0.01,-0.15279 -0.0312,-0.3134 -0.0312,-0.46875 l 0,-8.781248 -3,0 z m -0.71875,16.656248 9.0000001,0 0,4.40625 -9.0000001,0 0,-4.40625 z m 13.2382801,4.26562 0,2.5 15.375,0 0,-2.5 -15.375,0 z m -13.2382801,1.67188 9.0000001,0 0,4.40625 -9.0000001,0 0,-4.40625 z m 13.2382801,2.32812 0,2.5 15.375,0 0,-2.5 -15.375,0 z m -13.2382801,3.60938 9.0000001,0 0,5.1875 -9.0000001,0 0,-5.1875 z m 13.2382801,0.39062 0,2.5 15.375,0 0,-2.5 -15.375,0 z"
   id="path4102" /><path
   inkscape:connector-curvature="0"
   id="path4114"
   d="M 13.71875,0 C 9.7459399,0 6.5624999,3.18344 6.5624999,7.15625 l 0,10.093748 c 0,3.97281 3.18344,7.15625 7.1562501,7.15625 l 27.09375,0 c 3.97281,0 7.1875,-3.18344 7.1875,-7.15625 L 48,7.15625 C 48,3.18344 44.78531,0 40.8125,0 L 13.71875,0 Z m 0.875,1.28125 25.375,0 c 3.7235,0 6.71875,2.85464 6.71875,6.40625 l 0,9.031248 c 0,3.55161 -2.99525,6.40625 -6.71875,6.40625 l -25.375,0 c -3.72351,0 -6.7187501,-2.85464 -6.7187501,-6.40625 l 0,-9.031248 c 0,-3.55161 2.9952401,-6.40625 6.7187501,-6.40625 z"
   style="display:inline;fill:#003366;fill-opacity:1;stroke:none" />

<g
   transform="matrix(0.99395595,0,0,1.0060808,67.091632,18.508739)"
   style="font-style:normal;font-variant:normal;font-weight:bold;font-stretch:normal;font-size:16.57032776px;line-height:125%;font-family:Sans;-inkscape-font-specification:'Sans Bold';text-align:start;letter-spacing:0px;word-spacing:0px;writing-mode:lr-tb;text-anchor:start;fill:#003366;fill-opacity:1;stroke:none"
   id="text3012"><g
     id="g3032"
     transform="translate(6.1294224,33.316903)" /></g><text
   xml:space="preserve"
   style="font-style:normal;font-variant:normal;font-weight:bold;font-stretch:normal;font-size:16.34904099px;line-height:125%;font-family:Arial;-inkscape-font-specification:'Arial Bold';letter-spacing:0px;word-spacing:0px;fill:#003366;fill-opacity:1;stroke:none;stroke-width:1px;stroke-linecap:butt;stroke-linejoin:miter;stroke-opacity:1"
   x="94.743286"
   y="4.3872004"
   id="text3369-2"
   sodipodi:linespacing="125%"
   transform="scale(0.99683156,1.0031785)"><tspan
     sodipodi:role="line"
     id="tspan3371-0"
     x="94.743286"
     y="4.3872004"
     style="font-style:normal;font-variant:normal;font-weight:bold;font-stretch:normal;font-family:Arial;-inkscape-font-specification:'Arial Bold';fill:#003366;fill-opacity:1;stroke:none;stroke-opacity:1">CSV</tspan></text>

</svg>