<?xml version="1.0" encoding="UTF-8" standalone="no"?>
<!-- Generator: Adobe Illustrator 15.0.0, SVG Export Plug-In . SVG Version: 6.00 Build 0)  -->

<svg
   xmlns:dc="http://purl.org/dc/elements/1.1/"
   xmlns:cc="http://creativecommons.org/ns#"
   xmlns:rdf="http://www.w3.org/1999/02/22-rdf-syntax-ns#"
   xmlns:svg="http://www.w3.org/2000/svg"
   xmlns="http://www.w3.org/2000/svg"
   xmlns:sodipodi="http://sodipodi.sourceforge.net/DTD/sodipodi-0.dtd"
   xmlns:inkscape="http://www.inkscape.org/namespaces/inkscape"
   version="1.1"
   id="Layer_1"
   x="0px"
   y="0px"
   width="48px"
   height="48px"
   viewBox="0 0 48 48"
   enable-background="new 0 0 48 48"
   xml:space="preserve"
   inkscape:version="0.48.2 r9819"
   sodipodi:docname="refresh.svg"><metadata
   id="metadata3803"><rdf:RDF><cc:Work
       rdf:about=""><dc:format>image/svg+xml</dc:format><dc:type
         rdf:resource="http://purl.org/dc/dcmitype/StillImage" /><dc:title></dc:title></cc:Work></rdf:RDF></metadata><defs
   id="defs3801" /><sodipodi:namedview
   pagecolor="#ffffff"
   bordercolor="#666666"
   borderopacity="1"
   objecttolerance="10"
   gridtolerance="10"
   guidetolerance="10"
   inkscape:pageopacity="0"
   inkscape:pageshadow="2"
   inkscape:window-width="1021"
   inkscape:window-height="993"
   id="namedview3799"
   showgrid="false"
   inkscape:zoom="4.9166667"
   inkscape:cx="12.326974"
   inkscape:cy="24"
   inkscape:window-x="22"
   inkscape:window-y="-1"
   inkscape:window-maximized="0"
   inkscape:current-layer="Layer_1" />

<path
   inkscape:connector-curvature="0"
   id="path6882-0"
   d="m 24.01565,-0.0781 c -13.3016,0 -24.0937999,10.7921 -24.0937999,24.0937 0,13.3017 10.7921999,24.0625 24.0937999,24.0625 13.3016,0 24.0625,-10.7608 24.0625,-24.0625 0,-13.3016 -10.7609,-24.0937 -24.0625,-24.0937 z m -0.1563,8.25 c 1.076,0.024 1.9212,0.3761 2.5625,1.0625 0.6414,0.6864 0.9849,1.5623 1,2.625 -0.024,1.1202 -0.366,2.0126 -1.0312,2.6875 -0.6652,0.6749 -1.5109,1.0136 -2.5313,1.0312 -1,-0.018 -1.8392,-0.3563 -2.5,-1.0312 -0.6608,-0.6749 -1.0065,-1.5673 -1.0312,-2.6875 0.025,-1.0998 0.3704,-1.9857 1.0312,-2.6563 0.6608,-0.6704 1.5,-1.0127 2.5,-1.0312 z m 2.6563,9.5312 0.75,0.375 0,16.5 c -0.036,1.4992 0.098,2.4725 0.4062,2.9063 0.3083,0.4338 1.0063,0.6423 2.0938,0.5937 l 0,1.7813 -11.5,0 0,-1.7813 c 1.2076,0.05 1.9588,-0.1555 2.2812,-0.5937 0.3225,-0.4382 0.4809,-1.418 0.4375,-2.9375 l 0,-9.7188 c 0.046,-1.5123 -0.092,-2.455 -0.4062,-2.8437 -0.3145,-0.3887 -1.0864,-0.5565 -2.3125,-0.5 l 0,-1.6875 c 2.5866,-0.1625 5.3241,-0.8711 8.25,-2.0938 z"
   style="color:#000000;fill:#003366;fill-opacity:1;fill-rule:evenodd;stroke:none;stroke-width:3;marker:none;visibility:visible;display:inline;overflow:visible;enable-background:accumulate" /></svg>