<?xml version="1.0" encoding="UTF-8" standalone="no"?>
<!-- Generator: Adobe Illustrator 15.0.0, SVG Export Plug-In . SVG Version: 6.00 Build 0)  -->

<svg
   xmlns:dc="http://purl.org/dc/elements/1.1/"
   xmlns:cc="http://creativecommons.org/ns#"
   xmlns:rdf="http://www.w3.org/1999/02/22-rdf-syntax-ns#"
   xmlns:svg="http://www.w3.org/2000/svg"
   xmlns="http://www.w3.org/2000/svg"
   xmlns:sodipodi="http://sodipodi.sourceforge.net/DTD/sodipodi-0.dtd"
   xmlns:inkscape="http://www.inkscape.org/namespaces/inkscape"
   version="1.1"
   id="Layer_1"
   x="0px"
   y="0px"
   width="48px"
   height="48px"
   viewBox="0 0 48 48"
   enable-background="new 0 0 48 48"
   xml:space="preserve"
   inkscape:version="0.48.2 r9819"
   sodipodi:docname="cubo_xml.svg"><metadata
   id="metadata3803"><rdf:RDF><cc:Work
       rdf:about=""><dc:format>image/svg+xml</dc:format><dc:type
         rdf:resource="http://purl.org/dc/dcmitype/StillImage" /><dc:title></dc:title></cc:Work></rdf:RDF></metadata><defs
   id="defs3801" /><sodipodi:namedview
   pagecolor="#ffffff"
   bordercolor="#666666"
   borderopacity="1"
   objecttolerance="10"
   gridtolerance="10"
   guidetolerance="10"
   inkscape:pageopacity="0"
   inkscape:pageshadow="2"
   inkscape:window-width="1021"
   inkscape:window-height="993"
   id="namedview3799"
   showgrid="false"
   inkscape:zoom="4.9166667"
   inkscape:cx="14.91927"
   inkscape:cy="24"
   inkscape:window-x="22"
   inkscape:window-y="-1"
   inkscape:window-maximized="0"
   inkscape:current-layer="Layer_1" />

<path
   sodipodi:nodetypes="ssssscccccccssssccscccccsscccscssccsccccccccccccc"
   inkscape:connector-curvature="0"
   id="path4542"
   d="M 24,-2.5e-7 C 10.74514,-2.5e-7 -1.5e-7,10.74518 -1.5e-7,24 -1.5e-7,37.25486 10.74514,48 24,48 37.25451,48 48,37.25486 48,24 48,10.74518 37.25451,-2.5e-7 24,-2.5e-7 z M 20.23269,9.6426903 c 1.02788,0.0754 0.96445,-1.84146 3.96342,-2.29132 -0.48617,-0.99552 6.8688,2.10494 6.94355,1.76853 0.18171,-0.81676 -0.81977,-2.18925 0.36,-2.28 1.03234,-0.0796 3.6672,-1.40729 5.22,-1.44 l 3.4e-4,1e-4 c 0.22286,-0.003 0.36994,0.003 0.54,0.06 1.36046,0.44253 3.18377,2.23251 5.46,5.2199997 2.27589,2.98752 4.58571,7.2047 3.24,12.42 -1.34606,5.2153 -7.8528,3.51981 -8.76,2.34 -0.90754,-1.17977 -0.46526,-4.62 -2.28,-4.62 -1.81509,0 -1.34023,4.35075 -2.52,4.26 -1.17977,-0.0905 -3.65246,-2.82151 -4.56,-2.64 -0.90754,0.18137 -1.50926,1.55253 -0.42,2.46 1.08891,0.90754 1.42937,0.41853 2.7,0.6 1.27029,0.18171 2.11029,2.93551 0.84,3.48 -1.32034,2.31717 -1.50926,5.36181 -3,7.38 -0.49474,0.92859 -1.70846,2.74656 -2.1,3.06 -0.90754,0.726 -2.76,1.62 -2.76,1.62 0,0 -1.58194,0.73358 -2.58,-0.9 C 19.5216,38.50649 21.58114,32.6243 20.21829,30.9 18.8568,29.17574 17.17646,27.56911 13.224,26.92286 13.33029,25.61033 12.23383,24.86537 12.35829,23.7 c 0.20228,-0.90857 1.19794,-3.32362 1.68,-3.42 1.81474,-0.36298 6.38297,-2.17203 7.2,-0.72 0.81668,1.45203 4.13691,3.49053 4.5,2.22 0.36274,-1.27049 1.84114,-4.13698 0.48,-4.5 -1.36149,-0.36298 -5.06332,-2.73672 -5.88,-1.92 -0.81703,0.81679 -1.25349,2.69609 -3.72,2.7 -1.9488,0.003 -2.58309,-0.58807 -2.22,-2.04 0.36274,-1.45203 -0.59452,-2.49429 1.31142,-2.49429 1.9056,0 3.30858,-0.0459 3.30858,-1.22571 m 0.20228,-3.1689597 c 0.0823,0.27737 -0.18857,0.30446 -0.80674,0.24617 -0.67509,-1.38919 -0.0651,-1.9418 0.54,-2.19857 0.40868,-0.17349 0.44606,0.46094 0.24343,0.92143 M 9.9702902,22.43376 C 10.36286,22.24382 11.18194,22.23045 11.52617,22.60313 11.44047,23.06146 11.11097,22.84519 10.7184,23.20958 9.5626302,22.55777 9.7827402,22.75149 9.9702902,22.43386 z M 29.8776,36.24017 c -0.39189,-0.54483 0.45703,-1.17497 0.51909,-1.01791 0.19885,0.024 -0.192,1.21677 -0.51909,1.01791 z"
   style="color:#000000;fill:#003366;fill-opacity:1;stroke:none;stroke-width:1.70000005;marker:none;visibility:visible;display:inline;overflow:visible;enable-background:accumulate"
   inkscape:export-filename="C:\Documents and Settings\jhernandez\Mis documentos\imagenCorp\iconos\iconos_jorge\ico_web\todos.png"
   inkscape:export-xdpi="300"
   inkscape:export-ydpi="300" /></svg>