<?xml version="1.0" encoding="UTF-8" standalone="no"?>
<!-- Generator: Adobe Illustrator 15.0.0, SVG Export Plug-In . SVG Version: 6.00 Build 0)  -->

<svg
   xmlns:dc="http://purl.org/dc/elements/1.1/"
   xmlns:cc="http://creativecommons.org/ns#"
   xmlns:rdf="http://www.w3.org/1999/02/22-rdf-syntax-ns#"
   xmlns:svg="http://www.w3.org/2000/svg"
   xmlns="http://www.w3.org/2000/svg"
   xmlns:sodipodi="http://sodipodi.sourceforge.net/DTD/sodipodi-0.dtd"
   xmlns:inkscape="http://www.inkscape.org/namespaces/inkscape"
   version="1.1"
   id="Layer_1"
   x="0px"
   y="0px"
   width="48px"
   height="48px"
   viewBox="0 0 48 48"
   enable-background="new 0 0 48 48"
   xml:space="preserve"
   inkscape:version="0.48.2 r9819"
   sodipodi:docname="map_pdf.svg"><metadata
   id="metadata3803"><rdf:RDF><cc:Work
       rdf:about=""><dc:format>image/svg+xml</dc:format><dc:type
         rdf:resource="http://purl.org/dc/dcmitype/StillImage" /><dc:title></dc:title></cc:Work></rdf:RDF></metadata><defs
   id="defs3801" /><sodipodi:namedview
   pagecolor="#ffffff"
   bordercolor="#666666"
   borderopacity="1"
   objecttolerance="10"
   gridtolerance="10"
   guidetolerance="10"
   inkscape:pageopacity="0"
   inkscape:pageshadow="2"
   inkscape:window-width="1021"
   inkscape:window-height="993"
   id="namedview3799"
   showgrid="false"
   inkscape:zoom="4.9166667"
   inkscape:cx="14.91927"
   inkscape:cy="24"
   inkscape:window-x="22"
   inkscape:window-y="-1"
   inkscape:window-maximized="0"
   inkscape:current-layer="Layer_1" />

<g
   transform="translate(-329.92552,-442.91939)"
   style="display:inline"
   id="g9472"><path
     inkscape:connector-curvature="0"
     id="path3838-7"
     d="m 352.46415,447.94194 c -2.95069,0 -5.31509,2.36441 -5.31509,5.31509 l 0,7.49684 c 0,2.95068 2.3644,5.31508 5.31509,5.31508 l 20.12307,0 c 2.95069,0 5.3383,-2.3644 5.3383,-5.31508 l 0,-7.49684 c 0,-2.95068 -2.38761,-5.31509 -5.3383,-5.31509 l -20.12307,0 z m 0.64988,0.95161 18.84652,0 c 2.76552,0 4.99015,2.1202 4.99015,4.75805 l 0,6.70769 c 0,2.63786 -2.22463,4.75805 -4.99015,4.75805 l -18.84652,0 c -2.76553,0 -4.99015,-2.12019 -4.99015,-4.75805 l 0,-6.70769 c 0,-2.63785 2.22462,-4.75805 4.99015,-4.75805 z"
     style="fill:#003366;fill-opacity:1;stroke:none;display:inline" /><path
     inkscape:connector-curvature="0"
     id="path3001-1"
     d="m 347.89427,449.99058 c -9.91927,0 -17.96875,8.01825 -17.96875,17.9375 0,9.91928 8.04948,17.96875 17.96875,17.96875 9.91901,0 17.96875,-8.04947 17.96875,-17.96875 0,-0.6853 -0.0503,-1.36591 -0.125,-2.03125 l -1.15625,0 c -0.0469,0.44531 -0.12949,0.90801 -0.25,1.375 -1.00732,3.9028 -5.8836,2.63286 -6.5625,1.75 -0.528,-0.68639 -0.456,-2.39836 -1.03125,-3.125 l -1.3125,0 c -0.63398,0.83035 -0.54327,2.89818 -1.25,2.84375 -0.88288,-0.0667 -2.72709,-2.10447 -3.40625,-1.96875 -0.67916,0.13609 -1.12765,1.16457 -0.3125,1.84375 0.81489,0.67915 1.04913,0.30176 2,0.4375 0.95062,0.13609 1.60687,2.21755 0.65625,2.625 -0.98808,1.73394 -1.1344,3.98977 -2.25,5.5 -0.37024,0.69482 -1.30074,2.07796 -1.59375,2.3125 -0.67916,0.54341 -2.0625,1.1875 -2.0625,1.1875 0,0 -1.15935,0.56633 -1.90625,-0.65625 -0.74715,-1.22234 0.76988,-5.61595 -0.25,-6.90625 -1.01887,-1.29033 -2.26093,-2.51637 -5.21875,-3 0.0795,-0.98219 -0.74939,-1.53416 -0.65625,-2.40625 0.15139,-0.67994 0.88925,-2.49041 1.25,-2.5625 1.35806,-0.27173 4.79483,-1.61785 5.40625,-0.53125 0.61117,1.08659 3.10329,2.60713 3.375,1.65625 0.12372,-0.43337 0.40339,-1.11095 0.59375,-1.75 -0.60766,-0.56279 -1.06599,-1.26202 -1.34375,-2.0625 -1.2311,-0.58519 -2.86147,-1.45103 -3.3125,-1 -0.61142,0.61118 -0.93544,2.02843 -2.78125,2.03125 -1.45838,0.002 -1.92796,-0.44466 -1.65625,-1.53125 0.27146,-1.08662 -0.45756,-1.875 0.96875,-1.875 1.42605,0 2.5,-0.0223 2.5,-0.90625 l 0.90625,-2 c 0.76922,0.0564 0.72447,-1.35062 2.96875,-1.6875 -0.0481,-0.0985 -0.006,-0.15192 0.125,-0.15625 l 0,-1.75 c 0,-1.37714 0.52802,-2.6126 1.40625,-3.53125 -0.55402,-0.0515 -1.12004,-0.0625 -1.6875,-0.0625 z m -3.78125,5.34375 c 0.30584,-0.13095 0.33912,0.37417 0.1875,0.71875 l 0,0.75 c 0.0616,0.20794 -0.13114,0.23115 -0.59375,0.1875 -0.5052,-1.03964 -0.0466,-1.46406 0.40625,-1.65625 z m -6.4375,11.34375 c 0.30841,-0.0494 0.6818,0.0109 0.875,0.21875 -0.0641,0.34306 -0.29997,0.1658 -0.59375,0.4375 -0.86492,-0.48775 -0.70285,-0.3249 -0.5625,-0.5625 0.0734,-0.0353 0.17845,-0.0773 0.28125,-0.0937 z m 14.875,9.65625 c 0.0615,-0.034 0.11339,-0.0294 0.125,0 0.14881,0.0244 -0.13023,0.89881 -0.375,0.75 -0.21995,-0.30597 0.0655,-0.64789 0.25,-0.75 z"
     style="color:#000000;fill:#003366;fill-opacity:1;stroke:none;stroke-width:1.70000005;marker:none;visibility:visible;display:inline;overflow:visible;enable-background:accumulate" /><g
     transform="translate(329.92552,442.75973)"
     id="text2994-0"
     style="font-size:7.29550838px;font-style:normal;font-weight:normal;line-height:125%;letter-spacing:0px;word-spacing:0px;fill:#003366;fill-opacity:1;stroke:none;font-family:Sans"><path
       id="path3030"
       style="font-size:11.67281342px;font-weight:bold;fill:#003366;-inkscape-font-specification:Sans Bold"
       d="m 20.733768,18.423538 0,-8.355637 2.707318,0 c 1.025926,9e-6 1.69468,0.04181 2.006264,0.125392 0.478762,0.125399 0.879635,0.398031 1.202619,0.817895 0.322972,0.419878 0.484461,0.962291 0.484468,1.62724 -7e-6,0.512971 -0.0931,0.944241 -0.279281,1.293813 -0.186195,0.34958 -0.422728,0.624112 -0.709603,0.823594 -0.286886,0.19949 -0.578516,0.331531 -0.874891,0.396124 -0.402777,0.0798 -0.986038,0.119695 -1.749782,0.119692 l -1.100026,0 0,3.151887 z m 1.687086,-6.942132 0,2.37104 0.923338,0 c 0.664951,5e-6 1.109521,-0.04369 1.33371,-0.131091 0.22418,-0.08739 0.399918,-0.22418 0.527215,-0.410372 0.127286,-0.186182 0.190931,-0.402768 0.190937,-0.649756 -6e-6,-0.303974 -0.0893,-0.554757 -0.267882,-0.75235 -0.178593,-0.19758 -0.404678,-0.321071 -0.678254,-0.370475 -0.201391,-0.03799 -0.606063,-0.05699 -1.214019,-0.057 z"
       inkscape:connector-curvature="0" /><path
       id="path3032"
       style="font-size:11.67281342px;font-weight:bold;fill:#003366;-inkscape-font-specification:Sans Bold"
       d="m 28.547942,18.423538 0,-8.355637 1.641489,0 3.41977,5.579924 0,-5.579924 1.567394,0 0,8.355637 -1.692786,0 -3.368473,-5.448833 0,5.448833 z"
       inkscape:connector-curvature="0" /><path
       id="path3034"
       style="font-size:11.67281342px;font-weight:bold;fill:#003366;-inkscape-font-specification:Sans Bold"
       d="m 40.853412,15.351445 0,-1.407805 3.636355,0 0,3.328576 c -0.353384,0.341978 -0.865399,0.643107 -1.536047,0.903389 -0.670661,0.260282 -1.349864,0.390423 -2.037612,0.390424 -0.873945,-1e-6 -1.635793,-0.183338 -2.285546,-0.550013 -0.649758,-0.366675 -1.138025,-0.891039 -1.464802,-1.573094 -0.326778,-0.682052 -0.490167,-1.423951 -0.490167,-2.2257 0,-0.870137 0.182387,-1.643384 0.547164,-2.319744 0.364774,-0.676347 0.898637,-1.195012 1.601592,-1.555995 0.53576,-0.277373 1.202615,-0.4160636 2.000565,-0.4160721 1.037324,8.5e-6 1.847619,0.2175431 2.430886,0.6526061 0.583253,0.435078 0.958477,1.036387 1.125674,1.803928 l -1.675687,0.313479 c -0.117798,-0.410366 -0.339133,-0.734294 -0.664005,-0.971784 -0.324884,-0.237477 -0.730506,-0.356219 -1.216868,-0.356226 -0.737154,7e-6 -1.323264,0.233691 -1.758332,0.701052 -0.435073,0.467375 -0.652608,1.160827 -0.652606,2.08036 -2e-6,0.991737 0.220383,1.735536 0.661156,2.2314 0.440767,0.495868 1.018327,0.743801 1.732683,0.7438 0.353371,1e-6 0.707697,-0.06934 1.062978,-0.208036 0.35527,-0.138689 0.660199,-0.306828 0.914789,-0.504416 l 0,-1.060129 z"
       inkscape:connector-curvature="0" /></g></g></svg>