<?xml version="1.0" encoding="UTF-8" standalone="no"?>
<!-- Generator: Adobe Illustrator 15.0.0, SVG Export Plug-In . SVG Version: 6.00 Build 0)  -->

<svg
   xmlns:dc="http://purl.org/dc/elements/1.1/"
   xmlns:cc="http://creativecommons.org/ns#"
   xmlns:rdf="http://www.w3.org/1999/02/22-rdf-syntax-ns#"
   xmlns:svg="http://www.w3.org/2000/svg"
   xmlns="http://www.w3.org/2000/svg"
   xmlns:sodipodi="http://sodipodi.sourceforge.net/DTD/sodipodi-0.dtd"
   xmlns:inkscape="http://www.inkscape.org/namespaces/inkscape"
   version="1.1"
   id="Layer_1"
   x="0px"
   y="0px"
   width="48px"
   height="48px"
   viewBox="0 0 48 48"
   enable-background="new 0 0 48 48"
   xml:space="preserve"
   inkscape:version="0.48.2 r9819"
   sodipodi:docname="orden_Z-A.svg"><metadata
   id="metadata3803"><rdf:RDF><cc:Work
       rdf:about=""><dc:format>image/svg+xml</dc:format><dc:type
         rdf:resource="http://purl.org/dc/dcmitype/StillImage" /><dc:title /></cc:Work></rdf:RDF></metadata><defs
   id="defs3801" /><sodipodi:namedview
   pagecolor="#ffffff"
   bordercolor="#666666"
   borderopacity="1"
   objecttolerance="10"
   gridtolerance="10"
   guidetolerance="10"
   inkscape:pageopacity="0"
   inkscape:pageshadow="2"
   inkscape:window-width="1920"
   inkscape:window-height="1020"
   id="namedview3799"
   showgrid="false"
   inkscape:zoom="4.9166667"
   inkscape:cx="24.476708"
   inkscape:cy="25.154303"
   inkscape:window-x="-4"
   inkscape:window-y="-4"
   inkscape:window-maximized="1"
   inkscape:current-layer="Layer_1" />

<path
   style="fill:#808080;fill-opacity:1;fill-rule:nonzero;stroke:none"
   d="M 3.9375 0 C 1.7481 0 0 1.7480104 0 3.9375 L 0 44.0625 C 0 46.25199 1.7481 48 3.9375 48 L 44.0625 48 C 46.252 48 48 46.25199 48 44.0625 L 48 3.9375 C 48 1.7480104 46.252 0 44.0625 0 L 3.9375 0 z M 32.53125 1.71875 L 35.5 1.71875 C 35.801324 1.71875 36.0625 1.824822 36.0625 1.9375 L 36.0625 32.53125 L 41.9375 32.53125 L 34.03125 46.28125 L 26.09375 32.53125 L 32 32.53125 L 32 1.9375 C 32 1.824822 32.229926 1.71875 32.53125 1.71875 z M 7.3125 3.75 L 19.71875 3.75 L 19.71875 6.40625 L 10.4375 17.84375 L 20.0625 17.84375 L 20.0625 20.6875 L 6.3125 20.6875 L 6.3125 17.59375 L 15.1875 6.625 L 7.3125 6.625 L 7.3125 3.75 z M 12.65625 27.3125 L 16.25 27.3125 L 23.03125 44.25 L 19.3125 44.25 L 17.84375 40.40625 L 11.0625 40.40625 L 9.6875 44.25 L 6.0625 44.25 L 12.65625 27.3125 z M 14.40625 31.28125 L 12.125 37.5625 L 16.75 37.5625 L 14.40625 31.28125 z "
   id="rect2992" /></svg>