<?xml version="1.0" encoding="UTF-8" standalone="no"?>
<!-- Generator: Adobe Illustrator 15.0.0, SVG Export Plug-In . SVG Version: 6.00 Build 0)  -->

<svg
   xmlns:dc="http://purl.org/dc/elements/1.1/"
   xmlns:cc="http://creativecommons.org/ns#"
   xmlns:rdf="http://www.w3.org/1999/02/22-rdf-syntax-ns#"
   xmlns:svg="http://www.w3.org/2000/svg"
   xmlns="http://www.w3.org/2000/svg"
   xmlns:sodipodi="http://sodipodi.sourceforge.net/DTD/sodipodi-0.dtd"
   xmlns:inkscape="http://www.inkscape.org/namespaces/inkscape"
   version="1.1"
   id="Layer_1"
   x="0px"
   y="0px"
   width="48px"
   height="48px"
   viewBox="0 0 48 48"
   enable-background="new 0 0 48 48"
   xml:space="preserve"
   inkscape:version="0.48.2 r9819"
   sodipodi:docname="arrow_L.svg"><metadata
   id="metadata3803"><rdf:RDF><cc:Work
       rdf:about=""><dc:format>image/svg+xml</dc:format><dc:type
         rdf:resource="http://purl.org/dc/dcmitype/StillImage" /><dc:title></dc:title></cc:Work></rdf:RDF></metadata><defs
   id="defs3801" /><sodipodi:namedview
   pagecolor="#ffffff"
   bordercolor="#666666"
   borderopacity="1"
   objecttolerance="10"
   gridtolerance="10"
   guidetolerance="10"
   inkscape:pageopacity="0"
   inkscape:pageshadow="2"
   inkscape:window-width="1021"
   inkscape:window-height="993"
   id="namedview3799"
   showgrid="false"
   inkscape:zoom="4.9166667"
   inkscape:cx="12.326974"
   inkscape:cy="24"
   inkscape:window-x="22"
   inkscape:window-y="-1"
   inkscape:window-maximized="0"
   inkscape:current-layer="Layer_1" />

<path
   style="color:#000000;fill:#003366;fill-opacity:1;fill-rule:nonzero;stroke:none;stroke-width:3;marker:none;visibility:visible;display:inline;overflow:visible;enable-background:accumulate"
   d="M 24.000015,2.5e-7 C 10.745185,2.5e-7 -1.48e-5,10.74517 -1.48e-5,24 c 0,13.25483 10.7451998,24 24.0000298,24 13.25483,0 24,-10.74517 24,-24 0,-13.25483 -10.74517,-23.99999975 -24,-23.99999975 z M 20.406265,11.6875 l 7.1875,0 0,8.6875 8.6875,0 0,7.1875 -8.6875,0 0,8.71875 -7.1875,0 0,-8.71875 -8.71878,0 0,-7.1875 8.71878,0 0,-8.6875 z"
   id="path13755"
   inkscape:connector-curvature="0" /></svg>