<?xml version="1.0" encoding="UTF-8" standalone="no"?>
<!-- Generator: Adobe Illustrator 15.0.0, SVG Export Plug-In . SVG Version: 6.00 Build 0)  -->

<svg
   xmlns:dc="http://purl.org/dc/elements/1.1/"
   xmlns:cc="http://creativecommons.org/ns#"
   xmlns:rdf="http://www.w3.org/1999/02/22-rdf-syntax-ns#"
   xmlns:svg="http://www.w3.org/2000/svg"
   xmlns="http://www.w3.org/2000/svg"
   xmlns:sodipodi="http://sodipodi.sourceforge.net/DTD/sodipodi-0.dtd"
   xmlns:inkscape="http://www.inkscape.org/namespaces/inkscape"
   version="1.1"
   id="Layer_1"
   x="0px"
   y="0px"
   width="48px"
   height="48px"
   viewBox="0 0 48 48"
   enable-background="new 0 0 48 48"
   xml:space="preserve"
   inkscape:version="0.48.2 r9819"
   sodipodi:docname="pm_sqr_minus.svg"><metadata
   id="metadata3803"><rdf:RDF><cc:Work
       rdf:about=""><dc:format>image/svg+xml</dc:format><dc:type
         rdf:resource="http://purl.org/dc/dcmitype/StillImage" /><dc:title></dc:title></cc:Work></rdf:RDF></metadata><defs
   id="defs3801" /><sodipodi:namedview
   pagecolor="#ffffff"
   bordercolor="#666666"
   borderopacity="1"
   objecttolerance="10"
   gridtolerance="10"
   guidetolerance="10"
   inkscape:pageopacity="0"
   inkscape:pageshadow="2"
   inkscape:window-width="1021"
   inkscape:window-height="993"
   id="namedview3799"
   showgrid="false"
   inkscape:zoom="4.9166667"
   inkscape:cx="12.326974"
   inkscape:cy="24"
   inkscape:window-x="22"
   inkscape:window-y="-1"
   inkscape:window-maximized="0"
   inkscape:current-layer="Layer_1" />

<g
   style="display:inline"
   id="g6832"
   transform="translate(878.89208,-58.211678)"><path
     id="rect3030-0"
     d="m -858.71875,69.59375 0,8.78125 -8.78125,0 0,7.625 8.78125,0 0,8.8125 7.65625,0 0,-8.8125 8.78125,0 0,-7.625 -8.78125,0 0,-8.78125 -7.65625,0 z"
     style="fill:#003366;fill-opacity:1;fill-rule:nonzero;stroke:none"
     inkscape:connector-curvature="0" /><path
     inkscape:connector-curvature="0"
     id="rect3753-1"
     d="m -868.70458,58.211675 c -5.64187,0 -10.1875,4.545633 -10.1875,10.1875 l 0,27.625 c 0,5.641865 4.54563,10.187505 10.1875,10.187505 l 27.625,0 c 5.64187,0 10.1875,-4.54564 10.1875,-10.187505 l 0,-27.625 c 0,-5.641867 -4.54563,-10.1875 -10.1875,-10.1875 l -27.625,0 z m 2.15625,3.75 23.3125,0 c 4.75804,0 8.59375,3.835709 8.59375,8.59375 l 0,23.3125 c 0,4.758041 -3.83571,8.593755 -8.59375,8.593755 l -23.3125,0 c -4.75804,0 -8.5625,-3.835714 -8.5625,-8.593755 l 0,-23.3125 c 0,-4.758041 3.80446,-8.59375 8.5625,-8.59375 z"
     style="color:#000000;fill:#003366;fill-opacity:1;stroke:none;stroke-width:4.2116127;marker:none;visibility:visible;display:inline;overflow:visible;enable-background:accumulate" /></g></svg>