<?xml version="1.0" encoding="UTF-8" standalone="no"?>
<!-- Generator: Adobe Illustrator 15.0.0, SVG Export Plug-In . SVG Version: 6.00 Build 0)  -->

<svg
   xmlns:dc="http://purl.org/dc/elements/1.1/"
   xmlns:cc="http://creativecommons.org/ns#"
   xmlns:rdf="http://www.w3.org/1999/02/22-rdf-syntax-ns#"
   xmlns:svg="http://www.w3.org/2000/svg"
   xmlns="http://www.w3.org/2000/svg"
   xmlns:sodipodi="http://sodipodi.sourceforge.net/DTD/sodipodi-0.dtd"
   xmlns:inkscape="http://www.inkscape.org/namespaces/inkscape"
   version="1.1"
   id="Layer_1"
   x="0px"
   y="0px"
   width="48px"
   height="48px"
   viewBox="0 0 48 48"
   enable-background="new 0 0 48 48"
   xml:space="preserve"
   inkscape:version="0.48.2 r9819"
   sodipodi:docname="social_share.svg"><metadata
   id="metadata3803"><rdf:RDF><cc:Work
       rdf:about=""><dc:format>image/svg+xml</dc:format><dc:type
         rdf:resource="http://purl.org/dc/dcmitype/StillImage" /><dc:title /></cc:Work></rdf:RDF></metadata><defs
   id="defs3801" /><sodipodi:namedview
   pagecolor="#ffffff"
   bordercolor="#666666"
   borderopacity="1"
   objecttolerance="10"
   gridtolerance="10"
   guidetolerance="10"
   inkscape:pageopacity="0"
   inkscape:pageshadow="2"
   inkscape:window-width="1021"
   inkscape:window-height="993"
   id="namedview3799"
   showgrid="false"
   inkscape:zoom="2.4583333"
   inkscape:cx="12.980282"
   inkscape:cy="-18.720082"
   inkscape:window-x="22"
   inkscape:window-y="-1"
   inkscape:window-maximized="0"
   inkscape:current-layer="Layer_1" />

<path
   style="fill:#003366;fill-opacity:1;fill-rule:evenodd;stroke:none;display:inline"
   d="M 39.882822,0 C 35.425664,0 31.785276,3.5620654 31.73364,7.9893664 L 18.663088,15.531288 C 16.67955,13.80634 14.120961,12.751023 11.280982,12.751023 5.0487729,12.751023 -1.25e-7,17.792536 -1.25e-7,24 c 0,6.207464 5.048773025,11.248978 11.280982125,11.248978 2.834355,0 5.400102,-1.06135 7.382106,-2.780266 L 31.73364,40.010634 C 31.78783,44.436094 35.426891,48 39.882822,48 44.372086,48 48,44.386196 48,39.914724 c 0,-4.471472 -3.627914,-8.117178 -8.117178,-8.117178 -2.153783,0 -4.106135,0.843354 -5.560634,2.205113 L 22.146421,26.940082 C 22.403885,25.997648 22.561861,25.02362 22.561861,24 c 0,-1.027505 -0.156135,-2.026483 -0.41544,-2.972086 l 12.207771,-7.030572 c 1.451636,1.346728 3.388344,2.173108 5.52863,2.173108 C 44.372086,16.17045 48,12.556749 48,8.0851742 48,3.6137014 44.372086,0 39.882822,0 z"
   id="path5456"
   inkscape:connector-curvature="0" /></svg>