<?xml version="1.0" encoding="UTF-8" standalone="no"?>
<!-- Generator: Adobe Illustrator 15.0.0, SVG Export Plug-In . SVG Version: 6.00 Build 0)  -->

<svg
   xmlns:dc="http://purl.org/dc/elements/1.1/"
   xmlns:cc="http://creativecommons.org/ns#"
   xmlns:rdf="http://www.w3.org/1999/02/22-rdf-syntax-ns#"
   xmlns:svg="http://www.w3.org/2000/svg"
   xmlns="http://www.w3.org/2000/svg"
   xmlns:sodipodi="http://sodipodi.sourceforge.net/DTD/sodipodi-0.dtd"
   xmlns:inkscape="http://www.inkscape.org/namespaces/inkscape"
   version="1.1"
   id="Layer_1"
   x="0px"
   y="0px"
   width="48px"
   height="48px"
   viewBox="0 0 48 48"
   enable-background="new 0 0 48 48"
   xml:space="preserve"
   inkscape:version="0.48.2 r9819"
   sodipodi:docname="social_google_plus.svg"><metadata
   id="metadata3803"><rdf:RDF><cc:Work
       rdf:about=""><dc:format>image/svg+xml</dc:format><dc:type
         rdf:resource="http://purl.org/dc/dcmitype/StillImage" /><dc:title></dc:title></cc:Work></rdf:RDF></metadata><defs
   id="defs3801" /><sodipodi:namedview
   pagecolor="#ffffff"
   bordercolor="#666666"
   borderopacity="1"
   objecttolerance="10"
   gridtolerance="10"
   guidetolerance="10"
   inkscape:pageopacity="0"
   inkscape:pageshadow="2"
   inkscape:window-width="1021"
   inkscape:window-height="993"
   id="namedview3799"
   showgrid="false"
   inkscape:zoom="4.9166667"
   inkscape:cx="14.91927"
   inkscape:cy="24"
   inkscape:window-x="22"
   inkscape:window-y="-1"
   inkscape:window-maximized="0"
   inkscape:current-layer="Layer_1" />

<path
   style="fill:#003366;fill-opacity:1;fill-rule:nonzero;stroke:none;display:inline"
   d="m 3.9547199,0 c -2.19117,0 -3.98491,1.73336 -3.98491,3.92453 l 0,40.15094 c 0,2.19117 1.79374,3.92453 3.98491,3.92453 L 44.04528,48 c 2.19117,0 3.98491,-1.73336 3.98491,-3.92453 l 0,-40.15094 C 48.03019,1.73336 46.23645,0 44.04528,0 L 3.9547199,0 z M 24.84528,3.38113 c 1.47779,0 2.83708,0.13022 4.04528,0.36227 1.20817,0.23414 2.91541,0.71363 5.13208,1.50943 1.11817,0.40738 1.85446,0.60377 2.23396,0.60377 0.37931,0 0.75682,-0.14477 1.02642,-0.48302 0.26927,-0.3395 0.42316,-1.0027 0.48302,-1.99245 l 1.08679,0 1.02641,12.43774 -1.02641,0 C 37.79432,12.71396 36.42448,10.38692 34.74717,8.81509 32.33084,6.54442 29.24334,5.43396 25.44906,5.43396 c -5.17204,0 -9.13814,1.9388 -11.83397,5.91698 -2.25662,3.35708 -3.38113,7.37709 -3.38113,12.0151 0,3.76503 0.79667,7.21962 2.29434,10.32453 1.49784,3.10492 3.4304,5.37688 5.8566,6.82264 2.42642,1.44573 4.93064,2.17358 7.4868,2.17358 1.49768,0 2.94935,-0.17359 4.34717,-0.54339 1.39783,-0.36893 2.74729,-0.91212 4.04528,-1.63019 l 0,-11.41132 c 0,-1.97918 -0.1731,-3.31332 -0.48302,-3.92453 -0.30956,-0.61119 -0.80015,-1.06838 -1.44906,-1.38868 -0.64908,-0.32001 -1.80417,-0.48302 -3.44151,-0.48302 l 0,-1.08679 15.7585,0 0,1.08679 -0.78491,0 c -1.55756,0 -2.62102,0.50018 -3.2,1.50943 -0.39938,0.71806 -0.60377,2.17164 -0.60377,4.2868 l 0,12.07547 c -2.29643,1.20289 -4.52574,2.09373 -6.76227,2.6566 -2.23676,0.56256 -4.75101,0.84529 -7.48679,0.84529 -7.84813,0 -13.79795,-2.47586 -17.8716901,-7.36604 -3.05536,-3.66778 -4.58868,-7.88604 -4.58868,-12.67925 0,-3.47354 0.87876,-6.83997 2.59622,-10.02264 C 7.9840299,10.82737 10.78498,7.9547 14.33962,5.91698 17.31506,4.22868 20.79163,3.38113 24.84528,3.38113 z"
   id="rect8488"
   inkscape:connector-curvature="0" /></svg>