<?xml version="1.0" encoding="UTF-8" standalone="no"?>
<!-- Generator: Adobe Illustrator 15.0.0, SVG Export Plug-In . SVG Version: 6.00 Build 0)  -->

<svg
   xmlns:dc="http://purl.org/dc/elements/1.1/"
   xmlns:cc="http://creativecommons.org/ns#"
   xmlns:rdf="http://www.w3.org/1999/02/22-rdf-syntax-ns#"
   xmlns:svg="http://www.w3.org/2000/svg"
   xmlns="http://www.w3.org/2000/svg"
   xmlns:sodipodi="http://sodipodi.sourceforge.net/DTD/sodipodi-0.dtd"
   xmlns:inkscape="http://www.inkscape.org/namespaces/inkscape"
   version="1.1"
   id="Layer_1"
   x="0px"
   y="0px"
   width="48px"
   height="48px"
   viewBox="0 0 48 48"
   enable-background="new 0 0 48 48"
   xml:space="preserve"
   inkscape:version="0.48.2 r9819"
   sodipodi:docname="social_twitter.svg"><metadata
   id="metadata3803"><rdf:RDF><cc:Work
       rdf:about=""><dc:format>image/svg+xml</dc:format><dc:type
         rdf:resource="http://purl.org/dc/dcmitype/StillImage" /><dc:title></dc:title></cc:Work></rdf:RDF></metadata><defs
   id="defs3801" /><sodipodi:namedview
   pagecolor="#ffffff"
   bordercolor="#666666"
   borderopacity="1"
   objecttolerance="10"
   gridtolerance="10"
   guidetolerance="10"
   inkscape:pageopacity="0"
   inkscape:pageshadow="2"
   inkscape:window-width="1021"
   inkscape:window-height="993"
   id="namedview3799"
   showgrid="false"
   inkscape:zoom="4.9166667"
   inkscape:cx="14.91927"
   inkscape:cy="24"
   inkscape:window-x="22"
   inkscape:window-y="-1"
   inkscape:window-maximized="0"
   inkscape:current-layer="Layer_1" />

<path
   style="fill:#003366;fill-opacity:1;fill-rule:nonzero;stroke:none;display:inline"
   d="m 3.92464,1.299e-4 c -2.19116,0 -3.92451,1.73335 -3.92451,3.9245 l 0,40.1507401 c 0,2.19115 1.73335,3.9245 3.92451,3.9245 l 40.15072,0 c 2.19115,0 3.92451,-1.73335 3.92451,-3.9245 l 0,-40.1507401 c 0,-2.19115 -1.73335,-3.9245 -3.92451,-3.9245 l -40.15072,0 z m -1.44905,9.53957 21.13195,0 0,3.8037501 -5.85657,0 8.03015,10.2641 6.39996,-5.85657 -4.76978,-1.69056 0,-2.71697 18.23386,0 0,2.65659 -6.15846,1.3283 -10.38485,10.5056 0,7.366 5.97733,0 0,3.26036 -22.03761,0 0,-4.04526 6.46033,0 0,-6.76223 -12.01502,-14.1886 -5.19242,0 0.18103,-3.9245101 z"
   id="rect8494"
   inkscape:connector-curvature="0" /></svg>