<?xml version="1.0" encoding="UTF-8" standalone="no"?>
<!-- Generator: Adobe Illustrator 15.0.0, SVG Export Plug-In . SVG Version: 6.00 Build 0)  -->

<svg
   xmlns:dc="http://purl.org/dc/elements/1.1/"
   xmlns:cc="http://creativecommons.org/ns#"
   xmlns:rdf="http://www.w3.org/1999/02/22-rdf-syntax-ns#"
   xmlns:svg="http://www.w3.org/2000/svg"
   xmlns="http://www.w3.org/2000/svg"
   xmlns:sodipodi="http://sodipodi.sourceforge.net/DTD/sodipodi-0.dtd"
   xmlns:inkscape="http://www.inkscape.org/namespaces/inkscape"
   version="1.1"
   id="Layer_1"
   x="0px"
   y="0px"
   width="48px"
   height="48px"
   viewBox="0 0 48 48"
   enable-background="new 0 0 48 48"
   xml:space="preserve"
   inkscape:version="0.48.2 r9819"
   sodipodi:docname="tabla_delicious.svg"><metadata
   id="metadata3803"><rdf:RDF><cc:Work
       rdf:about=""><dc:format>image/svg+xml</dc:format><dc:type
         rdf:resource="http://purl.org/dc/dcmitype/StillImage" /><dc:title></dc:title></cc:Work></rdf:RDF></metadata><defs
   id="defs3801" /><sodipodi:namedview
   pagecolor="#ffffff"
   bordercolor="#666666"
   borderopacity="1"
   objecttolerance="10"
   gridtolerance="10"
   guidetolerance="10"
   inkscape:pageopacity="0"
   inkscape:pageshadow="2"
   inkscape:window-width="954"
   inkscape:window-height="954"
   id="namedview3799"
   showgrid="false"
   inkscape:zoom="4.9166667"
   inkscape:cx="-2.7443503"
   inkscape:cy="24"
   inkscape:window-x="22"
   inkscape:window-y="29"
   inkscape:window-maximized="0"
   inkscape:current-layer="Layer_1" />

<path
   style="fill:#003366;fill-opacity:1;fill-rule:nonzero;stroke:none;display:inline"
   d="m 3.9548275,1.299e-4 c -2.19115,0 -3.984885,1.73335 -3.984885,3.9245 l 0,40.1507401 c 0,2.19115 1.793725,3.9245 3.984885,3.9245 l 40.0903395,0 c 2.19115,0 3.98489,-1.73335 3.98489,-3.9245 l 0,-40.1507401 c 0,-2.19115 -1.79374,-3.9245 -3.98489,-3.9245 l -40.0903395,0 z m 28.0149195,3.07923 c 1.87612,0 3.381131,1.505 3.381131,3.3811102 0,1.87611 -1.505001,3.38111 -3.381131,3.38111 -1.876089,0 -3.441479,-1.505 -3.441479,-3.38111 0,-1.8761102 1.5654,-3.3811102 3.441479,-3.3811102 z m -15.939519,0.12075 c 1.87613,0 3.3811,1.505 3.3811,3.3811102 0,1.87612 -1.50497,3.38112 -3.3811,3.38112 -1.8761,0 -3.38111,-1.505 -3.38111,-3.38112 0,-1.8761102 1.505,-3.3811102 3.38111,-3.3811102 z M 12.588748,13.64534 c 5.11257,2.9515 7.30057,5.01189 11.41123,5.01129 4.11072,0 6.05125,-1.91661 11.411259,-5.01129 l 0,31.33568 -5.796189,0 c 0,-1.07079 0.18103,-20.83781 0.18103,-22.58101 -1.32684,0.76608 -3.16644,1.12465 -5.67544,1.14716 -2.50902,0.0299 -4.94031,-0.8616 -5.55469,-1.02641 0,2.41626 -0.0603,19.07768 -0.0603,22.46026 l -5.91694,0 0,-31.33568 z"
   id="rect8430"
   inkscape:connector-curvature="0" /></svg>