<?xml version="1.0" encoding="UTF-8" standalone="no"?>
<!-- Generator: Adobe Illustrator 15.0.0, SVG Export Plug-In . SVG Version: 6.00 Build 0)  -->

<svg
   xmlns:dc="http://purl.org/dc/elements/1.1/"
   xmlns:cc="http://creativecommons.org/ns#"
   xmlns:rdf="http://www.w3.org/1999/02/22-rdf-syntax-ns#"
   xmlns:svg="http://www.w3.org/2000/svg"
   xmlns="http://www.w3.org/2000/svg"
   xmlns:sodipodi="http://sodipodi.sourceforge.net/DTD/sodipodi-0.dtd"
   xmlns:inkscape="http://www.inkscape.org/namespaces/inkscape"
   version="1.1"
   id="Layer_1"
   x="0px"
   y="0px"
   width="48px"
   height="48px"
   viewBox="0 0 48 48"
   enable-background="new 0 0 48 48"
   xml:space="preserve"
   inkscape:version="0.48.2 r9819"
   sodipodi:docname="social_yahoo.svg"><metadata
   id="metadata3803"><rdf:RDF><cc:Work
       rdf:about=""><dc:format>image/svg+xml</dc:format><dc:type
         rdf:resource="http://purl.org/dc/dcmitype/StillImage" /><dc:title></dc:title></cc:Work></rdf:RDF></metadata><defs
   id="defs3801" /><sodipodi:namedview
   pagecolor="#ffffff"
   bordercolor="#666666"
   borderopacity="1"
   objecttolerance="10"
   gridtolerance="10"
   guidetolerance="10"
   inkscape:pageopacity="0"
   inkscape:pageshadow="2"
   inkscape:window-width="1021"
   inkscape:window-height="993"
   id="namedview3799"
   showgrid="false"
   inkscape:zoom="4.9166667"
   inkscape:cx="14.91927"
   inkscape:cy="24"
   inkscape:window-x="22"
   inkscape:window-y="-1"
   inkscape:window-maximized="0"
   inkscape:current-layer="Layer_1" />

<path
   style="fill:#003366;fill-opacity:1;fill-rule:nonzero;stroke:none;display:inline"
   d="m 3.9375002,2e-7 c -2.1894,0 -3.9375,1.74801 -3.9375,3.9375 l 0,40.1249998 c 0,2.18949 1.7481,3.9375 3.9375,3.9375 L 44.0625,48 C 46.252,48 48,46.25199 48,44.0625 L 48,3.9375002 C 48,1.7480102 46.252,2e-7 44.0625,2e-7 l -40.1249998,0 z m 6.2499998,7.09375 c 17.2589,0 31.25,13.9910998 31.25,31.2499998 0,0.63476 -0.0252,1.24961 -0.0625,1.875 l -7.53125,0 c 0.0483,-0.6181 0.0937,-1.24442 0.0937,-1.875 0,-13.10958 -10.64042,-23.75 -23.75,-23.75 -0.8089098,0 -1.6180698,0.0459 -2.4062498,0.125 l 0,-7.5312498 c 0.79859,-0.0611 1.59198,-0.0937 2.4062498,-0.0937 z M 9.1875002,18.9375 c 0.33076,-0.0168 0.66507,0 0.9999998,0 10.71762,0 19.40625,8.68863 19.40625,19.40625 0,0.63757 -0.0336,1.25319 -0.0937,1.875 l -6.25,0 c 0.0883,-0.61686 0.15625,-1.23374 0.15625,-1.875 0,-7.30053 -5.91822,-13.21875 -13.21875,-13.21875 -0.8262398,0 -1.6219898,0.10497 -2.4062498,0.25 l 0,-6.3125 c 0.46281,-0.0572 0.93393,-0.1011 1.40625,-0.125 z m 3.0624998,12 c 2.79594,0 5.0625,2.26656 5.0625,5.0625 0,2.79594 -2.26656,5.0625 -5.0625,5.0625 -2.7959398,0 -5.0624998,-2.26656 -5.0624998,-5.0625 0,-2.79594 2.26656,-5.0625 5.0624998,-5.0625 z"
   id="rect4378-1"
   inkscape:connector-curvature="0" /></svg>