<?xml version="1.0" encoding="UTF-8" standalone="no"?>
<!-- Generator: Adobe Illustrator 15.0.0, SVG Export Plug-In . SVG Version: 6.00 Build 0)  -->

<svg
   xmlns:dc="http://purl.org/dc/elements/1.1/"
   xmlns:cc="http://creativecommons.org/ns#"
   xmlns:rdf="http://www.w3.org/1999/02/22-rdf-syntax-ns#"
   xmlns:svg="http://www.w3.org/2000/svg"
   xmlns="http://www.w3.org/2000/svg"
   xmlns:sodipodi="http://sodipodi.sourceforge.net/DTD/sodipodi-0.dtd"
   xmlns:inkscape="http://www.inkscape.org/namespaces/inkscape"
   version="1.1"
   id="Layer_1"
   x="0px"
   y="0px"
   width="48px"
   height="48px"
   viewBox="0 0 48 48"
   enable-background="new 0 0 48 48"
   xml:space="preserve"
   inkscape:version="0.48.2 r9819"
   sodipodi:docname="social_digg.svg"><metadata
   id="metadata3803"><rdf:RDF><cc:Work
       rdf:about=""><dc:format>image/svg+xml</dc:format><dc:type
         rdf:resource="http://purl.org/dc/dcmitype/StillImage" /><dc:title></dc:title></cc:Work></rdf:RDF></metadata><defs
   id="defs3801" /><sodipodi:namedview
   pagecolor="#ffffff"
   bordercolor="#666666"
   borderopacity="1"
   objecttolerance="10"
   gridtolerance="10"
   guidetolerance="10"
   inkscape:pageopacity="0"
   inkscape:pageshadow="2"
   inkscape:window-width="1021"
   inkscape:window-height="993"
   id="namedview3799"
   showgrid="false"
   inkscape:zoom="4.9166667"
   inkscape:cx="14.91927"
   inkscape:cy="24"
   inkscape:window-x="22"
   inkscape:window-y="-1"
   inkscape:window-maximized="0"
   inkscape:current-layer="Layer_1" />

<path
   style="fill:#003366;fill-opacity:1;fill-rule:nonzero;stroke:none;display:inline"
   d="M 3.9548198,1.3025e-4 C 1.76367,1.3025e-4 -0.03006,1.7334802 -0.03006,3.9246302 l 0,40.1507398 c 0,2.19115 1.79373,3.9245 3.9848798,3.9245 l 20.5281802,0 0,-23.1244 -4.4679,0 0,-6.03771 4.4679,0 0,-2.23395 c 0,-2.45677 0.29545,-4.28424 0.84528,-5.49431 0.54988,-1.2100698 1.54285,-2.1974898 3.01885,-2.9584698 1.476,-0.7607 3.35762,-1.14717 5.61507,-1.14717 2.31529,0 4.60378,0.36659 6.8226,1.02641 L 39.69803,13.40383 c -1.29273,-0.2942 -2.54717,-0.42264 -3.74338,-0.42264 -1.17699,0 -2.02454,0.26226 -2.53584,0.7849 -0.51131,0.52264 -0.78492,1.53381 -0.7849,3.01885 l 0,2.05282 6.09807,0 0,6.03771 -6.09807,0 0,23.1244 11.41126,0 c 2.19116,0 3.98489,-1.73335 3.98489,-3.9245 l 0,-40.1507397 c 0,-2.1911501 -1.79373,-3.92450005 -3.98489,-3.92450005 l -40.0903402,0 z"
   id="rect8406"
   inkscape:connector-curvature="0" /></svg>