<?xml version="1.0" encoding="UTF-8" standalone="no"?>
<!-- Generator: Adobe Illustrator 15.0.0, SVG Export Plug-In . SVG Version: 6.00 Build 0)  -->

<svg
   xmlns:dc="http://purl.org/dc/elements/1.1/"
   xmlns:cc="http://creativecommons.org/ns#"
   xmlns:rdf="http://www.w3.org/1999/02/22-rdf-syntax-ns#"
   xmlns:svg="http://www.w3.org/2000/svg"
   xmlns="http://www.w3.org/2000/svg"
   xmlns:sodipodi="http://sodipodi.sourceforge.net/DTD/sodipodi-0.dtd"
   xmlns:inkscape="http://www.inkscape.org/namespaces/inkscape"
   version="1.1"
   id="Layer_1"
   x="0px"
   y="0px"
   width="48px"
   height="48px"
   viewBox="0 0 48 48"
   enable-background="new 0 0 48 48"
   xml:space="preserve"
   inkscape:version="0.91 r13725"
   sodipodi:docname="social_twitter_circle.svg"
   inkscape:export-filename="C:\Users\jhernandez\Documents\imagenCorp\iconos\iconos_jorge\ico_web\DEFINITIVOS\social_twitter_circle.png"
   inkscape:export-xdpi="200"
   inkscape:export-ydpi="200"><metadata
   id="metadata3803"><rdf:RDF><cc:Work
       rdf:about=""><dc:format>image/svg+xml</dc:format><dc:type
         rdf:resource="http://purl.org/dc/dcmitype/StillImage" /><dc:title /></cc:Work></rdf:RDF></metadata><defs
   id="defs3801" /><sodipodi:namedview
   pagecolor="#ffffff"
   bordercolor="#666666"
   borderopacity="1"
   objecttolerance="10"
   gridtolerance="10"
   guidetolerance="10"
   inkscape:pageopacity="0"
   inkscape:pageshadow="2"
   inkscape:window-width="1021"
   inkscape:window-height="993"
   id="namedview3799"
   showgrid="false"
   inkscape:zoom="4.9166667"
   inkscape:cx="54.404833"
   inkscape:cy="19.647172"
   inkscape:window-x="703"
   inkscape:window-y="0"
   inkscape:window-maximized="0"
   inkscape:current-layer="Layer_1" />

<circle
   style="opacity:1;fill:#003366;fill-opacity:1;stroke:none;stroke-width:1.02699995;stroke-linecap:round;stroke-linejoin:round;stroke-miterlimit:4;stroke-dasharray:1.027, 2.054;stroke-dashoffset:0;stroke-opacity:0.47462685"
   id="path4139"
   cx="24"
   cy="24"
   r="24"
   inkscape:export-xdpi="200"
   inkscape:export-ydpi="200" /><path
   style="display:inline;fill:#ffffff;fill-opacity:1;fill-rule:nonzero;stroke:none"
   d="m 29.797811,11.708783 c 2.600746,0.0966 4.086551,1.736963 4.086551,1.736963 l 4.188694,-1.021756 -2.554077,3.320259 3.524639,-0.868359 -3.371403,3.065014 c 0,0 0.500929,5.601731 -2.298672,10.267563 -2.799575,4.666094 -7.205492,7.920818 -12.208576,8.070924 -8.48361,0.254483 -12.208585,-2.656356 -12.208585,-2.656356 0,0 3.018254,0.254238 5.00602,-0.40865 3.054109,-1.017949 3.371402,-2.400858 3.371402,-2.400858 0,0 -2.081525,0.284459 -3.269225,-1.072798 C 12.876862,28.38321 11.76589,26.778061 11.76589,26.778061 l 3.218166,0.05085 C 14.15679,26.750141 12.433913,26.390791 11.306139,24.887743 9.7791137,22.851853 9.8758594,20.59704 9.8758594,20.59704 l 3.5757316,1.430144 c 0,0 -3.06581,-1.728317 -3.32031,-4.188601 -0.2545248,-2.460284 0.408625,-5.670057 0.408625,-5.670057 0,0 1.309726,4.007013 5.721193,5.619007 4.411467,1.611756 6.947143,1.328051 6.947143,1.328051 0,0 -0.12832,-5.400837 3.6268,-6.844958 1.102875,-0.42414 2.095831,-0.593799 2.962769,-0.562055 z"
   id="rect8390"
   inkscape:connector-curvature="0"
   inkscape:export-xdpi="200"
   inkscape:export-ydpi="200" /></svg>