<?xml version="1.0" encoding="UTF-8" standalone="no"?>
<!-- Generator: Adobe Illustrator 15.0.0, SVG Export Plug-In . SVG Version: 6.00 Build 0)  -->

<svg
   xmlns:dc="http://purl.org/dc/elements/1.1/"
   xmlns:cc="http://creativecommons.org/ns#"
   xmlns:rdf="http://www.w3.org/1999/02/22-rdf-syntax-ns#"
   xmlns:svg="http://www.w3.org/2000/svg"
   xmlns="http://www.w3.org/2000/svg"
   xmlns:sodipodi="http://sodipodi.sourceforge.net/DTD/sodipodi-0.dtd"
   xmlns:inkscape="http://www.inkscape.org/namespaces/inkscape"
   version="1.1"
   id="Layer_1"
   x="0px"
   y="0px"
   width="48px"
   height="48px"
   viewBox="0 0 48 48"
   enable-background="new 0 0 48 48"
   xml:space="preserve"
   inkscape:version="0.48.2 r9819"
   sodipodi:docname="social_delicious.svg"><metadata
   id="metadata3803"><rdf:RDF><cc:Work
       rdf:about=""><dc:format>image/svg+xml</dc:format><dc:type
         rdf:resource="http://purl.org/dc/dcmitype/StillImage" /><dc:title></dc:title></cc:Work></rdf:RDF></metadata><defs
   id="defs3801" /><sodipodi:namedview
   pagecolor="#ffffff"
   bordercolor="#666666"
   borderopacity="1"
   objecttolerance="10"
   gridtolerance="10"
   guidetolerance="10"
   inkscape:pageopacity="0"
   inkscape:pageshadow="2"
   inkscape:window-width="1021"
   inkscape:window-height="993"
   id="namedview3799"
   showgrid="false"
   inkscape:zoom="4.9166667"
   inkscape:cx="14.91927"
   inkscape:cy="24"
   inkscape:window-x="22"
   inkscape:window-y="-1"
   inkscape:window-maximized="0"
   inkscape:current-layer="Layer_1" />

<path
   id="rect5139"
   d="M 4.0625,0.125 C 1.8852,0.125 0.125,1.8851298 0.125,4.0624998 l 0,39.8750002 c 0,2.17736 1.7602,3.9375 3.9375,3.9375 l 39.875,0 c 2.1774,0 3.9375,-1.76014 3.9375,-3.9375 l 0,-39.8750002 C 47.875,1.8851298 46.1149,0.125 43.9375,0.125 l -39.875,0 z M 24,6.3437498 l 12.46879,0 c 0.6843,0 1.25,0.98838 1.25,2.21875 l 0,10.3437502 c 0,1.23036 -0.5657,2.21875 -1.25,2.21875 L 24,21.125 c -0.68431,0 -1.25,-0.98839 -1.25,-2.21875 l 0,-10.3437502 c 0,-1.23037 0.56569,-2.21875 1.25,-2.21875 z M 12.34379,11.96875 c 5.0125,0 6.64511,1.89911 7.15621,5.15625 0.01,-1.24961 0.55979,-2.25 1.25,-2.25 l 1.59379,0 0,4.21875 c 0,1.2963 0.5918,2.34375 1.3125,2.34375 l 13.125,0 c 0.7206,0 1.3125,-1.04745 1.3125,-2.34375 l 0,-4.21875 4.09371,0 c 0.696,0 1.25,1.01703 1.25,2.28125 l 0,5.875 c 0,1.26422 -0.554,2.28125 -1.25,2.28125 l -3.34371,0 c 1e-4,0 0,0.0312 0,0.0312 l 0,16.0625 c 0,0.84897 -0.3057,1.53125 -0.6875,1.53125 l -5.90629,0 c -0.3819,0 -0.6875,-0.68228 -0.6875,-1.53125 l 0,-10.65625 -0.8125,0 0,10.65625 c 0,0.84897 -0.40001,1.53125 -0.875,1.53125 l -7.34371,0 c -0.475,0 -0.84379,-0.68228 -0.84379,-1.53125 l 0,-16.0625 c 0,0 -10e-5,-0.0312 0,-0.0312 l -0.9375,0 c -0.4491,0 -0.8423,-0.42241 -1.0625,-1.0625 0,0.35736 0,0.69311 0,1.0625 0.014,1.12252 -0.54131,2.0625 -1.1875,2.0625 l -4.59371,0 0,8.65625 c 2.1782,0.3875 3.84371,1.54777 3.84371,2.90625 0,1.67708 -2.4381,2.96875 -5.40621,2.96875 -2.9682,0 -5.3125,-1.29167 -5.3125,-2.96875 0,-1.36981 1.60651,-2.52949 3.8125,-2.90625 l 0,-8.65625 -4.5625,0 c -0.6462,0 -1.21879,-0.93938 -1.21879,-2.0625 0,-8.0426 -1.07821,-13.34375 7.28129,-13.34375 z m 0,24.8125 c -2.0785,0 -3.75,0.98183 -3.75,2.15625 0,1.17413 1.6715,2.125 3.75,2.125 2.0784,0 3.8125,-0.95057 3.8125,-2.125 0,-1.17412 -1.7341,-2.15625 -3.8125,-2.15625 z"
   style="fill:#003366;fill-opacity:1;fill-rule:nonzero;stroke:none;display:inline"
   inkscape:connector-curvature="0" /></svg>