<?xml version="1.0" encoding="UTF-8" standalone="no"?>
<!-- Generator: Adobe Illustrator 15.0.0, SVG Export Plug-In . SVG Version: 6.00 Build 0)  -->

<svg
   xmlns:dc="http://purl.org/dc/elements/1.1/"
   xmlns:cc="http://creativecommons.org/ns#"
   xmlns:rdf="http://www.w3.org/1999/02/22-rdf-syntax-ns#"
   xmlns:svg="http://www.w3.org/2000/svg"
   xmlns="http://www.w3.org/2000/svg"
   xmlns:sodipodi="http://sodipodi.sourceforge.net/DTD/sodipodi-0.dtd"
   xmlns:inkscape="http://www.inkscape.org/namespaces/inkscape"
   version="1.1"
   id="Layer_1"
   x="0px"
   y="0px"
   width="48px"
   height="48px"
   viewBox="0 0 48 48"
   enable-background="new 0 0 48 48"
   xml:space="preserve"
   inkscape:version="0.48.2 r9819"
   sodipodi:docname="social_google.svg"><metadata
   id="metadata3803"><rdf:RDF><cc:Work
       rdf:about=""><dc:format>image/svg+xml</dc:format><dc:type
         rdf:resource="http://purl.org/dc/dcmitype/StillImage" /><dc:title></dc:title></cc:Work></rdf:RDF></metadata><defs
   id="defs3801" /><sodipodi:namedview
   pagecolor="#ffffff"
   bordercolor="#666666"
   borderopacity="1"
   objecttolerance="10"
   gridtolerance="10"
   guidetolerance="10"
   inkscape:pageopacity="0"
   inkscape:pageshadow="2"
   inkscape:window-width="1021"
   inkscape:window-height="993"
   id="namedview3799"
   showgrid="false"
   inkscape:zoom="4.9166667"
   inkscape:cx="14.91927"
   inkscape:cy="24"
   inkscape:window-x="22"
   inkscape:window-y="-1"
   inkscape:window-maximized="0"
   inkscape:current-layer="Layer_1" />

<path
   style="fill:#003366;fill-opacity:1;fill-rule:nonzero;stroke:none;display:inline"
   d="m 3.9246351,1.3e-4 c -2.19116,0 -3.92451005,1.7333498 -3.92451005,3.9244998 l 0,40.1507402 c 0,2.19115 1.73335005,3.9245 3.92451005,3.9245 l 40.1507299,0 c 2.19117,0 3.92451,-1.73335 3.92451,-3.9245 l 0,-40.1507402 c 0,-2.19115 -1.73334,-3.9244998 -3.92451,-3.9244998 l -40.15073,0 z m 8.2112799,9.3584398 c 0.95433,0.0154 1.73219,0.24755 2.29433,0.7849002 0.56214,0.53735 0.83368,1.24052 0.84528,2.1132 -0.0174,0.90538 -0.3288,1.65004 -0.90567,2.17357 -0.57682,0.52204 -1.31393,0.7849 -2.23394,0.7849 -0.93555,-0.0174 -1.67591,-0.30102 -2.2339499,-0.84528 -0.55805,-0.54424 -0.82982,-1.25675 -0.84528,-2.11319 0.0154,-0.87268 0.27985,-1.57585 0.84528,-2.1132 C 10.467385,9.6055198 11.217505,9.3885098 12.135915,9.3585698 z m 19.74329,8.1509002 c 2.04594,-0.0116 3.6909,0.67524 5.01129,2.05282 1.32038,1.37729 2.00684,3.5037 2.05283,6.39996 l 0,12.73956 -5.7962,0 0,-12.13579 c 0.0155,-1.29803 -0.21553,-2.34894 -0.72453,-3.19998 -0.50906,-0.85105 -1.37633,-1.29835 -2.59621,-1.32829 -0.84161,-0.0174 -1.68291,0.299 -2.47546,0.96603 -0.79257,0.66703 -1.21092,1.815 -1.26792,3.38111 l 0,12.31692 -5.79619,0 0,-14.49049 c -0.001,-1.20497 -0.0292,-2.30188 -0.0603,-3.32074 -0.0309,-1.01854 -0.0197,-1.9912 -0.0603,-2.8981 l 5.0113,0 0.24151,2.77735 0.12075,0 c 0.49349,-0.80362 1.29249,-1.51435 2.35471,-2.17357 1.06217,-0.65923 2.39322,-1.04776 3.98488,-1.08679 z m -22.6413899,0.42264 5.8565699,0 0,20.7697 -5.8565699,0 0,-20.7697 z"
   id="rect8412"
   inkscape:connector-curvature="0" /></svg>