<?xml version="1.0" encoding="UTF-8" standalone="no"?>
<!-- Generator: Adobe Illustrator 15.0.0, SVG Export Plug-In . SVG Version: 6.00 Build 0)  -->

<svg
   xmlns:dc="http://purl.org/dc/elements/1.1/"
   xmlns:cc="http://creativecommons.org/ns#"
   xmlns:rdf="http://www.w3.org/1999/02/22-rdf-syntax-ns#"
   xmlns:svg="http://www.w3.org/2000/svg"
   xmlns="http://www.w3.org/2000/svg"
   xmlns:sodipodi="http://sodipodi.sourceforge.net/DTD/sodipodi-0.dtd"
   xmlns:inkscape="http://www.inkscape.org/namespaces/inkscape"
   version="1.1"
   id="Layer_1"
   x="0px"
   y="0px"
   width="48px"
   height="48px"
   viewBox="0 0 48 48"
   enable-background="new 0 0 48 48"
   xml:space="preserve"
   inkscape:version="0.48.2 r9819"
   sodipodi:docname="social_linkedin.svg"><metadata
   id="metadata3803"><rdf:RDF><cc:Work
       rdf:about=""><dc:format>image/svg+xml</dc:format><dc:type
         rdf:resource="http://purl.org/dc/dcmitype/StillImage" /><dc:title></dc:title></cc:Work></rdf:RDF></metadata><defs
   id="defs3801" /><sodipodi:namedview
   pagecolor="#ffffff"
   bordercolor="#666666"
   borderopacity="1"
   objecttolerance="10"
   gridtolerance="10"
   guidetolerance="10"
   inkscape:pageopacity="0"
   inkscape:pageshadow="2"
   inkscape:window-width="1021"
   inkscape:window-height="993"
   id="namedview3799"
   showgrid="false"
   inkscape:zoom="4.9166667"
   inkscape:cx="14.91927"
   inkscape:cy="24"
   inkscape:window-x="22"
   inkscape:window-y="-1"
   inkscape:window-maximized="0"
   inkscape:current-layer="Layer_1" />

<path
   style="fill:#003366;fill-opacity:1;fill-rule:nonzero;stroke:none;display:inline"
   d="m 3.9548199,1.298e-4 c -2.19115,0 -3.98487,1.73335 -3.98487,3.9245 l 0,40.1507402 c 0,2.19115 1.79372,3.9245 3.98487,3.9245 l 40.0903501,0 c 2.19117,0 3.98488,-1.73335 3.98488,-3.9245 l 0,-40.1507402 c 0,-2.19115 -1.79371,-3.9245 -3.98488,-3.9245 l -40.0903501,0 z M 21.58491,5.3736802 c 4.02927,-0.0377 7.94914,2.01331 10.80748,2.59622 2.35927,0.48091 5.44383,2.2670998 7.18488,-1.81132 1.23447,5.5853898 -5.87747,5.2423498 -9.2377,3.4415 -6.27662,-3.36365 -13.57278,-1.45792 -16.06027,3.9848798 -1.60897,3.52067 2.86125,8.65179 7.48673,8.87543 2.3676,-0.12597 2.48141,0.35986 0.72454,0.84527 C 11.67295,25.05158 9.5545301,15.36374 12.468,10.92837 15.24289,6.7038702 18.45106,5.4030102 21.58491,5.3736802 z m 21.19234,0.72453 c 4.21267,7.0182198 -0.5741,9.5253298 -3.86413,11.2301298 -9.00139,3.24237 -4.24729,11.16206 -2.53584,15.15463 0.97985,2.29648 2.13235,5.17392 0.66414,7.24525 -1.10177,1.50817 -4.59932,2.28621 -7.6075,2.29433 -1.11875,0.004 -1.2798,-0.0616 -1.02641,-0.30189 8.64464,-3.4303 7.78539,-3.42271 5.79619,-8.39241 -4.05144,-10.06186 -3.88233,-13.78768 0.78491,-16.3018 9.4235,-3.74581 8.26781,-4.32639 7.78864,-10.9282398 z M 10.77743,18.4755 c -2.0235899,5.1222 -6.3459501,11.12039 -4.0452599,16.18105 1.9351,4.25643 8.3956699,5.89979 12.4980299,6.33959 6.39745,0.65651 6.64147,0.69222 6.64147,0.90565 C 17.67415,43.33823 8.4163001,42.6136 4.8000999,36.28673 1.9014799,31.21558 5.5707701,22.7232 9.4491401,19.38116 10.12212,18.8213 10.72371,18.42177 10.77743,18.4755 z"
   id="rect8450"
   inkscape:connector-curvature="0" /></svg>