<?xml version="1.0" encoding="UTF-8" standalone="no"?>
<!-- Generator: Adobe Illustrator 15.0.0, SVG Export Plug-In . SVG Version: 6.00 Build 0)  -->

<svg
   xmlns:dc="http://purl.org/dc/elements/1.1/"
   xmlns:cc="http://creativecommons.org/ns#"
   xmlns:rdf="http://www.w3.org/1999/02/22-rdf-syntax-ns#"
   xmlns:svg="http://www.w3.org/2000/svg"
   xmlns="http://www.w3.org/2000/svg"
   xmlns:sodipodi="http://sodipodi.sourceforge.net/DTD/sodipodi-0.dtd"
   xmlns:inkscape="http://www.inkscape.org/namespaces/inkscape"
   version="1.1"
   id="Layer_1"
   x="0px"
   y="0px"
   width="48px"
   height="48px"
   viewBox="0 0 48 48"
   enable-background="new 0 0 48 48"
   xml:space="preserve"
   inkscape:version="0.91 r13725"
   sodipodi:docname="social_slideshare.svg"><metadata
   id="metadata3803"><rdf:RDF><cc:Work
       rdf:about=""><dc:format>image/svg+xml</dc:format><dc:type
         rdf:resource="http://purl.org/dc/dcmitype/StillImage" /><dc:title /></cc:Work></rdf:RDF></metadata><defs
   id="defs3801" /><sodipodi:namedview
   pagecolor="#ffffff"
   bordercolor="#666666"
   borderopacity="1"
   objecttolerance="10"
   gridtolerance="10"
   guidetolerance="10"
   inkscape:pageopacity="0"
   inkscape:pageshadow="2"
   inkscape:window-width="1021"
   inkscape:window-height="993"
   id="namedview3799"
   showgrid="false"
   inkscape:zoom="0.61458333"
   inkscape:cx="-231.67749"
   inkscape:cy="-69.556269"
   inkscape:window-x="569"
   inkscape:window-y="103"
   inkscape:window-maximized="0"
   inkscape:current-layer="Layer_1" />

<path
   inkscape:connector-curvature="0"
   style="display:inline;fill:#003366;fill-opacity:1;fill-rule:nonzero;stroke:none"
   d="M 3.9375,0 C 1.7481,0 0,1.74801 0,3.9375 l 0,40.125 C 0,46.25198 1.7481,48 3.9375,48 l 40.125,0 C 46.252,48 48,46.25198 48,44.0625 L 48,3.9375 C 48,1.74801 46.252,0 44.0625,0 L 3.9375,0 Z m 7.34179,4.13867 25.48828,0 c 2.58997,0 4.67579,2.08581 4.67579,4.67578 l 0,14.38867 c 0.7184,-0.36656 1.29386,-0.55274 1.52929,-0.33203 0.58305,0.54661 -0.0357,2.58663 -2.51367,4.11719 -2.47799,1.5305 -5.50391,2.76901 -5.50391,3.06054 0,0.29152 1.0585,2.65957 0.83985,5.50196 -0.21864,2.8424 -2.22295,8.09056 -6.92383,8.23632 -4.70088,0.14577 -4.33789,-4.8457 -4.33789,-4.8457 l 0,-6.41406 -1.01953,-0.4375 0,8.67187 c 0,0 -0.91034,3.09961 -4.00781,3.09961 -3.0975,0 -6.59721,-3.20777 -6.99805,-6.12304 C 12.10695,34.823 13.16398,30.37623 13.05468,30.23046 12.94535,30.08471 9.55591,28.19032 8.02539,27.27929 6.49487,26.36828 4.23602,24.10891 4.96484,23.125 c 0.25525,-0.34459 0.8511,-0.18269 1.64063,0.20312 l 0,-14.51367 c 0,-2.58997 2.08386,-4.67578 4.67382,-4.67578 z m 0.93555,2.33398 c -1.83583,0 -3.31445,1.47667 -3.31445,3.3125 l 0,14.81836 c 1.05229,0.59558 2.19294,1.19565 3.27929,1.50977 3.02461,0.87457 8.12941,0.57184 10.27735,0.61914 1.16402,0.99467 1.85742,1.75 1.85742,1.75 0,0 0.11036,-0.69364 0.80273,-1.24024 0.69238,-0.54663 2.33231,-0.2912 5.64844,-0.40039 3.31612,-0.10935 5.39214,-0.4725 7.17774,-1.52929 0.37083,-0.2195 0.78331,-0.47928 1.20312,-0.74415 l 0,-14.7832 c 0,-1.83583 -1.47861,-3.3125 -3.31445,-3.3125 l -23.61719,0 z m 17.39258,9.56641 a 4.5866383,4.5866383 0 0 1 4.58594,4.58789 4.5866383,4.5866383 0 0 1 -4.58594,4.58594 4.5866383,4.5866383 0 0 1 -4.58789,-4.58594 4.5866383,4.5866383 0 0 1 4.58789,-4.58789 z m -10.92578,0.10351 a 4.5866383,4.5866383 0 0 1 4.58593,4.58594 4.5866383,4.5866383 0 0 1 -4.58593,4.58789 4.5866383,4.5866383 0 0 1 -4.58789,-4.58789 4.5866383,4.5866383 0 0 1 4.58789,-4.58594 z"
   id="path5180" /></svg>