<?xml version="1.0" encoding="UTF-8" standalone="no"?>
<!-- Generator: Adobe Illustrator 15.0.0, SVG Export Plug-In . SVG Version: 6.00 Build 0)  -->

<svg
   xmlns:dc="http://purl.org/dc/elements/1.1/"
   xmlns:cc="http://creativecommons.org/ns#"
   xmlns:rdf="http://www.w3.org/1999/02/22-rdf-syntax-ns#"
   xmlns:svg="http://www.w3.org/2000/svg"
   xmlns="http://www.w3.org/2000/svg"
   xmlns:sodipodi="http://sodipodi.sourceforge.net/DTD/sodipodi-0.dtd"
   xmlns:inkscape="http://www.inkscape.org/namespaces/inkscape"
   version="1.1"
   id="Layer_1"
   x="0px"
   y="0px"
   width="48px"
   height="48px"
   viewBox="0 0 48 48"
   enable-background="new 0 0 48 48"
   xml:space="preserve"
   inkscape:version="0.48.2 r9819"
   sodipodi:docname="social_twenti.svg"><metadata
   id="metadata3803"><rdf:RDF><cc:Work
       rdf:about=""><dc:format>image/svg+xml</dc:format><dc:type
         rdf:resource="http://purl.org/dc/dcmitype/StillImage" /><dc:title></dc:title></cc:Work></rdf:RDF></metadata><defs
   id="defs3801" /><sodipodi:namedview
   pagecolor="#ffffff"
   bordercolor="#666666"
   borderopacity="1"
   objecttolerance="10"
   gridtolerance="10"
   guidetolerance="10"
   inkscape:pageopacity="0"
   inkscape:pageshadow="2"
   inkscape:window-width="1021"
   inkscape:window-height="993"
   id="namedview3799"
   showgrid="false"
   inkscape:zoom="4.9166667"
   inkscape:cx="14.91927"
   inkscape:cy="24"
   inkscape:window-x="22"
   inkscape:window-y="-1"
   inkscape:window-maximized="0"
   inkscape:current-layer="Layer_1" />

<path
   inkscape:connector-curvature="0"
   id="rect8390"
   d="M 3.9246151,4.9999997e-8 C 1.7334751,4.9999997e-8 1.2515e-4,1.73362 1.2515e-4,3.92472 l 0,40.15056 C 1.2515e-4,46.26638 1.7334751,48 3.9246151,48 l 40.1507399,0 c 2.19115,0 3.92452,-1.73362 3.92452,-3.92472 l 0,-40.15056 C 47.999875,1.7336201 46.266505,5.0000001e-8 44.075355,5.0000001e-8 l -40.1507399,0 z M 30.852795,9.4792 c 3.07399,0.11418 4.83016,2.05303 4.83016,2.05303 l 4.95089,-1.20768 -3.01883,3.92443 4.166,-1.02637 -3.98488,3.62274 c 0,0 0.59208,6.62105 -2.71695,12.1359 -3.309,5.51516 -8.51664,9.36213 -14.43011,9.53955 -10.02733,0.30079 -14.4301199,-3.13972 -14.4301199,-3.13972 0,0 3.56747,0.3005 5.9169399,-0.48301 3.60985,-1.20318 3.98488,-2.83773 3.98488,-2.83773 0,0 -2.46029,0.33622 -3.86411,-1.26801 -1.40384,-1.60454 -2.7169699,-3.50177 -2.7169699,-3.50177 l 3.8037599,0.0601 c -0.9778,-0.0931 -3.01418,-0.51784 -4.3471699,-2.29439 -1.80489,-2.40635 -1.69054,-5.07146 -1.69054,-5.07146 l 4.2263899,1.69038 c 0,0 -3.6236799,-2.04281 -3.9244899,-4.95078 -0.30084,-2.90797 0.48298,-6.70181 0.48298,-6.70181 0,0 1.54805,4.73615 6.7622499,6.64147 5.2142,1.90504 8.21128,1.56971 8.21128,1.56971 0,0 -0.15167,-6.3836 4.28675,-8.0905 1.30356,-0.50132 2.4772,-0.70185 3.50189,-0.66433 z"
   style="fill:#003366;fill-opacity:1;fill-rule:nonzero;stroke:none;display:inline" /></svg>