<?xml version="1.0" encoding="UTF-8" standalone="no"?>
<!-- Generator: Adobe Illustrator 15.0.0, SVG Export Plug-In . SVG Version: 6.00 Build 0)  -->

<svg
   xmlns:dc="http://purl.org/dc/elements/1.1/"
   xmlns:cc="http://creativecommons.org/ns#"
   xmlns:rdf="http://www.w3.org/1999/02/22-rdf-syntax-ns#"
   xmlns:svg="http://www.w3.org/2000/svg"
   xmlns="http://www.w3.org/2000/svg"
   xmlns:sodipodi="http://sodipodi.sourceforge.net/DTD/sodipodi-0.dtd"
   xmlns:inkscape="http://www.inkscape.org/namespaces/inkscape"
   version="1.1"
   id="Layer_1"
   x="0px"
   y="0px"
   width="48px"
   height="48px"
   viewBox="0 0 48 48"
   enable-background="new 0 0 48 48"
   xml:space="preserve"
   inkscape:version="0.48.2 r9819"
   sodipodi:docname="tabla_csv.svg"><metadata
   id="metadata3803"><rdf:RDF><cc:Work
       rdf:about=""><dc:format>image/svg+xml</dc:format><dc:type
         rdf:resource="http://purl.org/dc/dcmitype/StillImage" /><dc:title></dc:title></cc:Work></rdf:RDF></metadata><defs
   id="defs3801" /><sodipodi:namedview
   pagecolor="#ffffff"
   bordercolor="#666666"
   borderopacity="1"
   objecttolerance="10"
   gridtolerance="10"
   guidetolerance="10"
   inkscape:pageopacity="0"
   inkscape:pageshadow="2"
   inkscape:window-width="954"
   inkscape:window-height="954"
   id="namedview3799"
   showgrid="false"
   inkscape:zoom="4.9166667"
   inkscape:cx="-2.7443503"
   inkscape:cy="24"
   inkscape:window-x="22"
   inkscape:window-y="29"
   inkscape:window-maximized="0"
   inkscape:current-layer="Layer_1" />

<path
   id="rect4378"
   d="m 3.968735,0.0312502 c -2.1867,0 -3.9375,1.75086 -3.9375,3.9375 l 0,40.0624998 c 0,2.18664 1.7508,3.9375 3.9375,3.9375 l 40.06253,0 c 2.1866,0 3.9375,-1.75086 3.9375,-3.9375 l 0,-40.0624998 c 0,-2.18664 -1.7509,-3.9375 -3.9375,-3.9375 l -40.06253,0 z m 4.4999997,4.21875 11.3437003,0 c 4.1417,0 4.2188,0.0112 4.2188,4.1875 0,-3.63995 0.013,-4.12382 2.8125,-4.1875 0.3999,-0.009 0.8533,0 1.375,0 l 11.34373,0 c 2.3223,0 4.1875,1.86308 4.1875,4.1875 l 0,11.3749998 c 0,3.62398 -0.013,4.12211 -2.8125,4.1875 2.759,0.0638 2.8125,0.55118 2.8125,4.1875 l 0,11.375 c 0,2.32227 -1.8943,4.1875 -4.2187,4.1875 l -11.34383,0 c -4.1417,0 -4.2187,-0.0111 -4.2187,-4.1875 0,3.63995 -0.013,4.12382 -2.8125,4.1875 -0.3999,0.009 -0.8534,0 -1.375,0 l -11.3438003,0 c -2.3223,0 -4.1874997,-1.86308 -4.1874997,-4.1875 l 0,-11.375 c 0,-3.62398 0.013,-4.12211 2.8124997,-4.1875 C 4.300035,23.9369 4.249935,23.44836 4.249935,19.8125 l 0,-11.3749998 c 0,-2.32228 1.8943997,-4.1875 4.2187997,-4.1875 z m 18.7812003,0.5625 c -2.6311,0.06 -2.625,0.50614 -2.625,3.9375 l 0,10.7187498 c 0,3.95568 0,3.96875 3.9375,3.96875 l 10.6563,0 c 3.92543,0 3.93753,-0.0644 3.93753,-3.96875 l 0,-10.7187498 c 0,-2.19122 -1.7548,-3.9375 -3.93753,-3.9375 l -10.6563,0 c -0.4903,0 -0.9366,-0.009 -1.3125,0 z M 24.031235,21.1875 c -0.062,2.80412 -0.5471,2.8125 -4.2188,2.8125 3.6293,-10e-6 4.0988,0.0122 4.1563,2.8125 0.062,-2.80412 0.5471,-2.8125 4.2187,-2.8125 -3.6261,-6e-5 -4.0987,-0.0131 -4.1562,-2.8125 z M 7.4999347,24.5625 C 4.867935,24.6282 4.843735,25.11495 4.843735,28.53125 l 0,10.71875 c 0,2.19121 1.7546997,3.9375 3.9374997,3.9375 l 10.6562003,0 c 0.4903,0 0.9367,0.009 1.3125,0 2.6311,-0.06 2.625,-0.50614 2.625,-3.9375 l 0,-10.71875 c 0,-3.95568 0,-3.96875 -3.9375,-3.96875 l -10.6562003,0 c -0.4907,0 -0.9053,-0.009 -1.2813,0 z"
   style="fill:#003366;fill-opacity:1;fill-rule:nonzero;stroke:none;display:inline"
   inkscape:connector-curvature="0" /></svg>