<?xml version="1.0" encoding="UTF-8" standalone="no"?>
<!-- Generator: Adobe Illustrator 15.0.0, SVG Export Plug-In . SVG Version: 6.00 Build 0)  -->

<svg
   xmlns:dc="http://purl.org/dc/elements/1.1/"
   xmlns:cc="http://creativecommons.org/ns#"
   xmlns:rdf="http://www.w3.org/1999/02/22-rdf-syntax-ns#"
   xmlns:svg="http://www.w3.org/2000/svg"
   xmlns="http://www.w3.org/2000/svg"
   xmlns:sodipodi="http://sodipodi.sourceforge.net/DTD/sodipodi-0.dtd"
   xmlns:inkscape="http://www.inkscape.org/namespaces/inkscape"
   version="1.1"
   id="Layer_1"
   x="0px"
   y="0px"
   width="48px"
   height="48px"
   viewBox="0 0 48 48"
   enable-background="new 0 0 48 48"
   xml:space="preserve"
   inkscape:version="0.48.2 r9819"
   sodipodi:docname="social_facebook.svg"><metadata
   id="metadata3803"><rdf:RDF><cc:Work
       rdf:about=""><dc:format>image/svg+xml</dc:format><dc:type
         rdf:resource="http://purl.org/dc/dcmitype/StillImage" /><dc:title></dc:title></cc:Work></rdf:RDF></metadata><defs
   id="defs3801" /><sodipodi:namedview
   pagecolor="#ffffff"
   bordercolor="#666666"
   borderopacity="1"
   objecttolerance="10"
   gridtolerance="10"
   guidetolerance="10"
   inkscape:pageopacity="0"
   inkscape:pageshadow="2"
   inkscape:window-width="1021"
   inkscape:window-height="993"
   id="namedview3799"
   showgrid="false"
   inkscape:zoom="4.9166667"
   inkscape:cx="14.91927"
   inkscape:cy="24"
   inkscape:window-x="22"
   inkscape:window-y="-1"
   inkscape:window-maximized="0"
   inkscape:current-layer="Layer_1" />

<path
   inkscape:connector-curvature="0"
   id="rect8396-2"
   d="m 3.9998502,0.07815 c -2.1837004,0 -3.9375004,1.75377 -3.9375004,3.9374995 l 0,14.8125005 c 0.2921,-3.6347 2.15769,-6.00947 4.0625004,-7.46875 2.07799,-1.5916505 4.1563,-2.1250005 4.1563,-2.1250005 l 0.094,0.0312 15.8124998,0.1875 c -1.2809,1.5784605 -3.80811,1.5980905 -5.4375,1.8437505 0,0 3.87079,2.04329 3.78129,8.124999 -0.099,6.725191 -5.5889,8.041031 -5.875,10.187501 -0.2862,2.14646 7.58551,3.55555 7.15621,13 -0.1584,3.48463 -0.88011,4.80316 -1.40621,5.3125 l 21.59371,0 c 2.18369,0 3.9375,-1.75378 3.9375,-3.9375 l 0,-39.9687505 C 47.93765,1.83187 46.18384,0.0781 44.00015,0.0781 l -39.9999998,0 z m 30.6874998,9.0937495 2.6875,0 0,7.9375005 7.9375,0 0,2.6875 -7.9375,0 0,7.9375 -2.6875,0 0,-7.9375 -7.9375,0 0,-2.6875 7.9375,0 0,-7.9375005 z M 10.09365,11.95315 c -0.1537098,0 -0.3145098,10e-4 -0.4687998,0.0312 -2.4676,0.33013 -4.01531,3.91527 -3.4687,7.999999 0.54649,4.084421 2.9699,7.142631 5.4374998,6.812501 2.4676,-0.33044 4.04649,-3.91528 3.5,-8.000001 -0.51241,-3.829489 -2.69561,-6.765859 -5,-6.843749 z m -10.0313002,9.375 0,16.125 c 0,0 1.7022,-1.86501 3.5625004,-2.4375 1.8603,-0.5722 8.3124998,-1 8.3124998,-1 0,0 -1.6331,-0.49188 -1.8437,-2.28125 -0.2105998,-1.78908 0,-2.1875 0,-2.1875 -1.4309998,0.46254 -4.2252998,-0.0994 -5.6562998,-0.375 0,0 -3.8715104,-0.78579 -4.3750004,-7.84375 z m 9.9375004,15.8125 c -4.1372,0.2388 -7.40661,2.67759 -7.4375,5.6875 -0.025,2.50042 1.046,4.38203 4.5313,5.09375 l 7.4374998,0 c 3.326,-0.68157 4.41239,-2.40215 4.4375,-4.84375 0.033,-3.21057 -3.5992,-5.87459 -8.125,-5.9375 -0.2829,-0.004 -0.568,-0.0159 -0.8437998,0 z m -9.9375004,6.4375 0,0.40625 c 0,0.14251 0.048,0.26777 0.062,0.40625 -0.036,-0.32557 -0.06,-0.60634 -0.062,-0.8125 z m 0.062,0.8125 c 0.025,0.23753 0.06,0.46476 0.125,0.6875 -0.048,-0.23096 -0.1018,-0.47665 -0.125,-0.6875 z"
   style="fill:#003366;fill-opacity:1;fill-rule:nonzero;stroke:none;display:inline" /></svg>