<?xml version="1.0" encoding="UTF-8" standalone="no"?>
<!-- Generator: Adobe Illustrator 15.0.0, SVG Export Plug-In . SVG Version: 6.00 Build 0)  -->

<svg
   xmlns:dc="http://purl.org/dc/elements/1.1/"
   xmlns:cc="http://creativecommons.org/ns#"
   xmlns:rdf="http://www.w3.org/1999/02/22-rdf-syntax-ns#"
   xmlns:svg="http://www.w3.org/2000/svg"
   xmlns="http://www.w3.org/2000/svg"
   xmlns:sodipodi="http://sodipodi.sourceforge.net/DTD/sodipodi-0.dtd"
   xmlns:inkscape="http://www.inkscape.org/namespaces/inkscape"
   version="1.1"
   id="Layer_1"
   x="0px"
   y="0px"
   width="48px"
   height="48px"
   viewBox="0 0 48 48"
   enable-background="new 0 0 48 48"
   xml:space="preserve"
   inkscape:version="0.91 r13725"
   sodipodi:docname="social_youtube.svg"><metadata
   id="metadata3803"><rdf:RDF><cc:Work
       rdf:about=""><dc:format>image/svg+xml</dc:format><dc:type
         rdf:resource="http://purl.org/dc/dcmitype/StillImage" /><dc:title></dc:title></cc:Work></rdf:RDF></metadata><defs
   id="defs3801" /><sodipodi:namedview
   pagecolor="#ffffff"
   bordercolor="#666666"
   borderopacity="1"
   objecttolerance="10"
   gridtolerance="10"
   guidetolerance="10"
   inkscape:pageopacity="0"
   inkscape:pageshadow="2"
   inkscape:window-width="1021"
   inkscape:window-height="993"
   id="namedview3799"
   showgrid="false"
   inkscape:zoom="2.4583333"
   inkscape:cx="-22.775019"
   inkscape:cy="-24.250011"
   inkscape:window-x="2021"
   inkscape:window-y="54"
   inkscape:window-maximized="0"
   inkscape:current-layer="Layer_1" />

<path
   inkscape:connector-curvature="0"
   style="display:inline;fill:#003366;fill-opacity:1;fill-rule:nonzero;stroke:none"
   d="M 3.9375002,0 C 1.7481,0 0,1.74801 0,3.9375 l 0,40.125 C 0,46.25198 1.7481,48 3.9375002,48 L 44.0625,48 C 46.252,48 48,46.25198 48,44.0625 L 48,3.9375 C 48,1.74801 46.252,0 44.0625,0 L 3.9375002,0 Z M 24,10.74023 c 5.71267,0.33726 19.38397,-0.0432 19.60156,7.00781 l 0,12.50586 C 42.46744,37.5714 30.31517,37.19685 24,37.26171 18.28735,36.92444 4.6140702,37.30501 4.3964802,30.2539 l 0,-12.50586 C 5.5306102,10.43054 17.68484,10.80508 24,10.74023 Z M 18.48828,18.69921 18.45508,24 18.48828,29.30078 24.0332,26.67382 29.54297,24 24.0332,21.32617 18.48828,18.69921 Z"
   id="path5131" /></svg>