<?xml version="1.0" encoding="UTF-8" standalone="no"?>
<!-- Generator: Adobe Illustrator 15.0.0, SVG Export Plug-In . SVG Version: 6.00 Build 0)  -->

<svg
   xmlns:dc="http://purl.org/dc/elements/1.1/"
   xmlns:cc="http://creativecommons.org/ns#"
   xmlns:rdf="http://www.w3.org/1999/02/22-rdf-syntax-ns#"
   xmlns:svg="http://www.w3.org/2000/svg"
   xmlns="http://www.w3.org/2000/svg"
   xmlns:sodipodi="http://sodipodi.sourceforge.net/DTD/sodipodi-0.dtd"
   xmlns:inkscape="http://www.inkscape.org/namespaces/inkscape"
   version="1.1"
   id="Layer_1"
   x="0px"
   y="0px"
   width="48px"
   height="48px"
   viewBox="0 0 48 48"
   enable-background="new 0 0 48 48"
   xml:space="preserve"
   inkscape:version="0.48.2 r9819"
   sodipodi:docname="social_meneame.svg"><metadata
   id="metadata3803"><rdf:RDF><cc:Work
       rdf:about=""><dc:format>image/svg+xml</dc:format><dc:type
         rdf:resource="http://purl.org/dc/dcmitype/StillImage" /><dc:title></dc:title></cc:Work></rdf:RDF></metadata><defs
   id="defs3801" /><sodipodi:namedview
   pagecolor="#ffffff"
   bordercolor="#666666"
   borderopacity="1"
   objecttolerance="10"
   gridtolerance="10"
   guidetolerance="10"
   inkscape:pageopacity="0"
   inkscape:pageshadow="2"
   inkscape:window-width="1021"
   inkscape:window-height="993"
   id="namedview3799"
   showgrid="false"
   inkscape:zoom="4.9166667"
   inkscape:cx="14.91927"
   inkscape:cy="24"
   inkscape:window-x="22"
   inkscape:window-y="-1"
   inkscape:window-maximized="0"
   inkscape:current-layer="Layer_1" />

<path
   style="fill:#003366;fill-opacity:1;fill-rule:nonzero;stroke:none;display:inline"
   d="m 3.9548153,1.302e-4 c -2.19115,0 -3.98487005,1.73335 -3.98487005,3.9245 l 0,40.1507398 c 0,2.19115 1.79372005,3.9245 3.98487005,3.9245 l 40.0903497,0 c 2.19117,0 3.98489,-1.73335 3.98489,-3.9245 l 0,-40.1507398 c 0,-2.19115 -1.79371,-3.9245 -3.98489,-3.9245 l -40.0903397,0 z m 13.7055897,4.95091 0,10.1433498 -10.1433398,0 c 0,0 1.9378395,-3.08924 4.5282798,-5.6150698 2.59038,-2.52612 5.61506,-4.52828 5.61506,-4.52828 z m 1.14715,1.63018 5.07167,0.0603 c 0,0 0.53661,0.82569 1.14716,1.69056 0.6104,0.86516 0.84528,2.2943298 0.84528,2.2943298 4.57392,-0.0502 12.59239,-0.18915 12.92069,1.02641 4.06112,15.03458 0.88156,29.70985 -8.81505,31.33568 -5.35553,0.89818 -9.16666,-4.42599 -4.16602,-8.9358 1.26808,-1.03837 5.60189,-0.45444 4.46791,1.50943 -1.13395,1.96417 -2.07981,-0.43402 -3.01886,1.02641 -0.939,1.46045 0.0413,2.8981 1.81132,2.8981 4.52928,0.0135 5.09725,-5.59405 1.38867,-7.96977 -1.42465,0 -1.78687,1.09061 -3.44149,0 -1.62626,-1.07199 -4.2264,-3.86414 -4.2264,-3.86414 -0.23478,2.20072 0.54119,5.32284 -0.60377,5.43394 -2.67937,0.25696 -5.57532,0.9953 -9.90181,-1.63018 C 7.9603352,28.83129 8.3352947,25.17511 8.3623447,16.54336 l 0.72452,-0.0603 9.7206903,0.0603 0,-9.9622098 z M 30.460325,18.77739 c -0.9415,0 -1.27372,0.57981 -1.26792,2.59621 -1.0659,1.62765 -1.32789,2.04843 -0.66415,2.71697 0.73629,0.74148 0.7526,-0.80548 3.01885,-0.72453 2.26628,0.0809 2.22814,1.64774 2.95848,0.90566 0.51395,-0.52203 -0.25275,-2.3161 -1.20754,-3.50187 -0.95481,-1.18577 -1.89619,-1.99244 -2.83772,-1.99244 z"
   id="rect8440"
   inkscape:connector-curvature="0" /></svg>