<?xml version="1.0" encoding="UTF-8" standalone="no"?>
<!-- Generator: Adobe Illustrator 15.0.0, SVG Export Plug-In . SVG Version: 6.00 Build 0)  -->

<svg
   xmlns:dc="http://purl.org/dc/elements/1.1/"
   xmlns:cc="http://creativecommons.org/ns#"
   xmlns:rdf="http://www.w3.org/1999/02/22-rdf-syntax-ns#"
   xmlns:svg="http://www.w3.org/2000/svg"
   xmlns="http://www.w3.org/2000/svg"
   xmlns:sodipodi="http://sodipodi.sourceforge.net/DTD/sodipodi-0.dtd"
   xmlns:inkscape="http://www.inkscape.org/namespaces/inkscape"
   version="1.1"
   id="Layer_1"
   x="0px"
   y="0px"
   width="48px"
   height="48px"
   viewBox="0 0 48 48"
   enable-background="new 0 0 48 48"
   xml:space="preserve"
   inkscape:version="0.48.2 r9819"
   sodipodi:docname="social_evernote.svg"><metadata
   id="metadata3803"><rdf:RDF><cc:Work
       rdf:about=""><dc:format>image/svg+xml</dc:format><dc:type
         rdf:resource="http://purl.org/dc/dcmitype/StillImage" /><dc:title></dc:title></cc:Work></rdf:RDF></metadata><defs
   id="defs3801" /><sodipodi:namedview
   pagecolor="#ffffff"
   bordercolor="#666666"
   borderopacity="1"
   objecttolerance="10"
   gridtolerance="10"
   guidetolerance="10"
   inkscape:pageopacity="0"
   inkscape:pageshadow="2"
   inkscape:window-width="1021"
   inkscape:window-height="993"
   id="namedview3799"
   showgrid="false"
   inkscape:zoom="4.9166667"
   inkscape:cx="14.91927"
   inkscape:cy="24"
   inkscape:window-x="22"
   inkscape:window-y="-1"
   inkscape:window-maximized="0"
   inkscape:current-layer="Layer_1" />

<path
   style="fill:#003366;fill-opacity:1;fill-rule:nonzero;stroke:none;display:inline"
   d="m 3.924625,1.3017e-4 c -2.1911601,0 -3.92450005,1.73334993 -3.92450005,3.92449993 l 0,40.1507399 c 0,2.19115 1.73333995,3.9245 3.92450005,3.9245 l 40.15073,0 c 2.19115,0 3.92452,-1.73335 3.92452,-3.9245 l 0,-40.1507399 c 0,-2.19115 -1.73336,-3.92449993 -3.92452,-3.92449993 l -40.15073,0 z m 12.79994,4.70940993 14.55086,0 c 6.58818,0 11.91796,5.10907 11.89427,11.5320099 l 0,26.98854 -26.44513,0.12075 c -6.58815,0.0299 -11.89428,-5.13761 -11.89428,-11.53201 l 0,-15.57728 c 0,-6.3944199 5.30609,-11.5320099 11.89428,-11.5320099 z m 9.35843,9.4791899 c 0.73712,1.12723 1.32814,2.49449 1.81132,4.10564 0.48319,1.61144 0.70689,3.46149 0.72452,5.61506 -0.0174,2.1668 -0.24138,4.10578 -0.72452,5.73582 -0.48317,1.62976 -1.0742,2.98622 -1.81132,4.10564 l 2.23396,0 c 0.70932,-0.95581 1.30256,-2.25238 1.87168,-3.86413 0.56916,-1.61173 0.92327,-3.56433 0.96604,-5.91695 -0.0239,-2.36581 -0.32858,-4.3599 -0.90566,-5.97733 -0.57709,-1.61744 -1.2201,-2.88727 -1.93206,-3.80375 l -2.23396,0 z m -4.7094,2.41508 c -0.54973,0 -0.98752,0.23844 -1.32829,0.60377 -0.3408,0.36354 -0.47288,0.81589 -0.48302,1.38868 0.006,0.55415 0.15804,1.01703 0.48302,1.38867 0.32491,0.37163 0.74154,0.52898 1.32829,0.54339 0.56741,0 1.06202,-0.18142 1.38867,-0.54339 0.32668,-0.36383 0.47643,-0.8162 0.48302,-1.38867 -0.01,-0.59139 -0.15225,-1.09334 -0.48302,-1.44905 -0.33063,-0.35574 -0.83053,-0.53408 -1.38867,-0.5434 z m 1.81131,7.96977 -3.19998,0.30189 c -0.16384,1.02817 -0.3732,2.11571 -0.66415,3.26036 -0.29089,1.14432 -0.61159,2.21414 -0.96603,3.19998 l 2.05282,-0.24151 c 0.51621,-0.86154 1.02227,-1.8559 1.50943,-3.01885 0.48713,-1.16295 0.91038,-2.34402 1.26791,-3.50187 z"
   id="rect8420"
   inkscape:connector-curvature="0" /></svg>