<?xml version="1.0" encoding="UTF-8" standalone="no"?>
<!-- Generator: Adobe Illustrator 15.0.0, SVG Export Plug-In . SVG Version: 6.00 Build 0)  -->

<svg
   xmlns:dc="http://purl.org/dc/elements/1.1/"
   xmlns:cc="http://creativecommons.org/ns#"
   xmlns:rdf="http://www.w3.org/1999/02/22-rdf-syntax-ns#"
   xmlns:svg="http://www.w3.org/2000/svg"
   xmlns="http://www.w3.org/2000/svg"
   xmlns:sodipodi="http://sodipodi.sourceforge.net/DTD/sodipodi-0.dtd"
   xmlns:inkscape="http://www.inkscape.org/namespaces/inkscape"
   version="1.1"
   id="Layer_1"
   x="0px"
   y="0px"
   width="48px"
   height="48px"
   viewBox="0 0 48 48"
   enable-background="new 0 0 48 48"
   xml:space="preserve"
   inkscape:version="0.91 r13725"
   sodipodi:docname="social_slideshare_circle.svg"><metadata
   id="metadata3803"><rdf:RDF><cc:Work
       rdf:about=""><dc:format>image/svg+xml</dc:format><dc:type
         rdf:resource="http://purl.org/dc/dcmitype/StillImage" /><dc:title></dc:title></cc:Work></rdf:RDF></metadata><defs
   id="defs3801" /><sodipodi:namedview
   pagecolor="#ffffff"
   bordercolor="#666666"
   borderopacity="1"
   objecttolerance="10"
   gridtolerance="10"
   guidetolerance="10"
   inkscape:pageopacity="0"
   inkscape:pageshadow="2"
   inkscape:window-width="1920"
   inkscape:window-height="1058"
   id="namedview3799"
   showgrid="false"
   inkscape:zoom="6.9532166"
   inkscape:cx="27.893999"
   inkscape:cy="8.0018197"
   inkscape:window-x="-8"
   inkscape:window-y="-8"
   inkscape:window-maximized="1"
   inkscape:current-layer="Layer_1" />

<circle
   style="opacity:1;fill:#003366;fill-opacity:1;stroke:none;stroke-width:1.02699995;stroke-linecap:round;stroke-linejoin:round;stroke-miterlimit:4;stroke-dasharray:1.027, 2.054;stroke-dashoffset:0;stroke-opacity:0.47462685"
   id="path4139"
   cx="24"
   cy="24"
   r="24" /><g
   id="g4164"
   transform="matrix(0.80543056,0,0,0.80543056,81.990966,-25.144911)"><path
     id="path4160"
     d="m -84.720711,41.155619 25.48828,0 c 2.58997,0 4.67579,2.08581 4.67579,4.67578 l 0,14.38867 c 0.7184,-0.36656 1.29386,-0.55274 1.52929,-0.33203 0.58305,0.54661 -0.0357,2.58663 -2.51367,4.11719 -2.47799,1.5305 -5.50391,2.76901 -5.50391,3.06054 0,0.29152 1.0585,2.65957 0.83985,5.50196 -0.21864,2.8424 -2.22295,8.09056 -6.92383,8.23632 -4.70088,0.14577 -4.33789,-4.8457 -4.33789,-4.8457 l 0,-6.41406 -1.01953,-0.4375 0,8.67187 c 0,0 -0.91034,3.09961 -4.00781,3.09961 -3.0975,0 -6.59721,-3.20777 -6.99805,-6.12304 -0.40086,-2.91528 0.65617,-7.36205 0.54687,-7.50782 -0.10933,-0.14575 -3.49877,-2.04014 -5.02929,-2.95117 -1.53052,-0.91101 -3.78937,-3.17038 -3.06055,-4.15429 0.25525,-0.34459 0.8511,-0.18269 1.64063,0.20312 l 0,-14.51367 c 0,-2.58997 2.08386,-4.67578 4.67382,-4.67578 z"
     style="display:inline;fill:#ffffff;fill-opacity:1;fill-rule:nonzero;stroke:none"
     inkscape:connector-curvature="0" /><path
     id="path4158"
     d="m -83.785161,43.489599 c -1.83583,0 -3.31445,1.47667 -3.31445,3.3125 l 0,14.81836 c 1.05229,0.59558 2.19294,1.19565 3.27929,1.50977 3.02461,0.87457 8.12941,0.57184 10.27735,0.61914 1.16402,0.99467 1.85742,1.75 1.85742,1.75 0,0 0.11036,-0.69364 0.80273,-1.24024 0.69238,-0.54663 2.33231,-0.2912 5.64844,-0.40039 3.31612,-0.10935 5.39214,-0.4725 7.17774,-1.52929 0.37083,-0.2195 0.78331,-0.47928 1.20312,-0.74415 l 0,-14.7832 c 0,-1.83583 -1.47861,-3.3125 -3.31445,-3.3125 l -23.61719,0 z"
     style="display:inline;fill:#003366;fill-opacity:1;fill-rule:nonzero;stroke:none"
     inkscape:connector-curvature="0" /><path
     id="path4156"
     d="m -66.392581,53.056009 a 4.5866383,4.5866383 0 0 1 4.58594,4.58789 4.5866383,4.5866383 0 0 1 -4.58594,4.58594 4.5866383,4.5866383 0 0 1 -4.58789,-4.58594 4.5866383,4.5866383 0 0 1 4.58789,-4.58789 z"
     style="display:inline;fill:#ffffff;fill-opacity:1;fill-rule:nonzero;stroke:none"
     inkscape:connector-curvature="0" /><path
     id="path4152"
     d="m -77.318361,53.159519 a 4.5866383,4.5866383 0 0 1 4.58593,4.58594 4.5866383,4.5866383 0 0 1 -4.58593,4.58789 4.5866383,4.5866383 0 0 1 -4.58789,-4.58789 4.5866383,4.5866383 0 0 1 4.58789,-4.58594 z"
     style="display:inline;fill:#ffffff;fill-opacity:1;fill-rule:nonzero;stroke:none"
     inkscape:connector-curvature="0" /></g></svg>