<?xml version="1.0" encoding="UTF-8" standalone="no"?>
<!-- Generator: Adobe Illustrator 15.0.0, SVG Export Plug-In . SVG Version: 6.00 Build 0)  -->

<svg
   xmlns:dc="http://purl.org/dc/elements/1.1/"
   xmlns:cc="http://creativecommons.org/ns#"
   xmlns:rdf="http://www.w3.org/1999/02/22-rdf-syntax-ns#"
   xmlns:svg="http://www.w3.org/2000/svg"
   xmlns="http://www.w3.org/2000/svg"
   xmlns:sodipodi="http://sodipodi.sourceforge.net/DTD/sodipodi-0.dtd"
   xmlns:inkscape="http://www.inkscape.org/namespaces/inkscape"
   version="1.1"
   id="Layer_1"
   x="0px"
   y="0px"
   width="48px"
   height="48px"
   viewBox="0 0 48 48"
   enable-background="new 0 0 48 48"
   xml:space="preserve"
   inkscape:version="0.48.2 r9819"
   sodipodi:docname="tabla_rdf.svg"><metadata
   id="metadata3803"><rdf:RDF><cc:Work
       rdf:about=""><dc:format>image/svg+xml</dc:format><dc:type
         rdf:resource="http://purl.org/dc/dcmitype/StillImage" /><dc:title></dc:title></cc:Work></rdf:RDF></metadata><defs
   id="defs3801" /><sodipodi:namedview
   pagecolor="#ffffff"
   bordercolor="#666666"
   borderopacity="1"
   objecttolerance="10"
   gridtolerance="10"
   guidetolerance="10"
   inkscape:pageopacity="0"
   inkscape:pageshadow="2"
   inkscape:window-width="954"
   inkscape:window-height="954"
   id="namedview3799"
   showgrid="false"
   inkscape:zoom="3.4766083"
   inkscape:cx="51.606406"
   inkscape:cy="-16.354066"
   inkscape:window-x="804"
   inkscape:window-y="49"
   inkscape:window-maximized="0"
   inkscape:current-layer="Layer_1" />

<path
   inkscape:connector-curvature="0"
   style="color:#000000;fill:#003366;fill-opacity:1;stroke:none;stroke-width:2.68430781;marker:none;visibility:visible;display:inline;overflow:visible;enable-background:accumulate"
   d="M 3.5625,8.46875 C 1.5982657,8.46875 0,8.835016 0,9.28125 l 0,35.0625 C 0,44.789985 1.5982657,45.125 3.5625,45.125 l 29.78125,0 c 1.964235,0 3.5625,-0.335015 3.5625,-0.78125 l 0,-19.9375 -23.1875,0 c -1.191843,0 -2.296133,-0.304121 -3.28125,-0.8125 l -7.59375,0 0,-5.875 3.75,0 C 6.5841578,17.565958 6.5625,17.405349 6.5625,17.25 l 0,-8.78125 -3,0 z M 2.84375,25.125 l 9,0 0,4.40625 -9,0 0,-4.40625 z m 10.5,0 10.25,0 0,4.40625 -10.25,0 0,-4.40625 z m 11.78125,0 8.96875,0 0,4.40625 -8.96875,0 0,-4.40625 z m -22.28125,5.9375 9,0 0,4.40625 -9,0 0,-4.40625 z m 10.5,0 10.25,0 0,4.40625 -10.25,0 0,-4.40625 z m 11.78125,0 8.96875,0 0,4.40625 -8.96875,0 0,-4.40625 z M 2.84375,37 l 9,0 0,5.1875 -9,0 0,-5.1875 z m 10.5,0 10.25,0 0,5.1875 -10.25,0 0,-5.1875 z m 11.78125,0 8.96875,0 0,5.1875 -8.96875,0 0,-5.1875 z"
   id="path3840" /><path
   style="fill:#003366;fill-opacity:1;stroke:none;display:inline"
   d="m 13.718754,0 c -3.97281,0 -7.15625,3.183439 -7.15625,7.15625 l 0,10.09375 c 0,3.972813 3.18344,7.15625 7.15625,7.15625 l 27.09375,0 C 44.78531,24.40625 48,21.222813 48,17.25 L 48,7.15625 C 48,3.183439 44.78531,0 40.812504,0 l -27.09375,0 z m 0.875,1.28125 25.375,0 c 3.723496,0 6.718746,2.854638 6.718746,6.40625 l 0,9.03125 c 0,3.551612 -2.99525,6.40625 -6.718746,6.40625 l -25.375,0 c -3.72351,0 -6.71875,-2.854638 -6.71875,-6.40625 l 0,-9.03125 c 0,-3.551612 2.99524,-6.40625 6.71875,-6.40625 z"
   id="path3838-13"
   inkscape:connector-curvature="0" /><g
   style="font-size:4.76152277px;font-style:normal;font-weight:normal;line-height:125%;letter-spacing:0px;word-spacing:0px;fill:#003366;fill-opacity:1;stroke:none;display:inline;font-family:Sans"
   id="text3241-1-5"
   transform="matrix(3.42611,0,0,3.42611,-225.40047,-1238.3092)"><g
     style="font-size:2.91876221px;fill:#003366;font-family:Sans"
     id="text2995"><path
       inkscape:connector-curvature="0"
       d="m 70.25155,366.66504 0,-2.77739 -0.991923,0 0,-0.56551 2.656529,0 0,0.56551 -0.989643,0 0,2.77739 z"
       style="font-size:4.67001915px;font-weight:bold;fill:#003366;-inkscape-font-specification:Sans Bold"
       id="path3004" /><path
       inkscape:connector-curvature="0"
       d="m 72.182949,365.57734 0.656721,-0.0638 c 0.03952,0.22042 0.119714,0.38232 0.24057,0.4857 0.120854,0.10337 0.283894,0.15506 0.489121,0.15506 0.217385,0 0.381185,-0.046 0.491401,-0.13796 0.110211,-0.092 0.165318,-0.19953 0.16532,-0.32266 -2e-6,-0.079 -0.02319,-0.14632 -0.06955,-0.20181 -0.04637,-0.0555 -0.127318,-0.10375 -0.24285,-0.14479 -0.07905,-0.0274 -0.259194,-0.076 -0.540427,-0.14594 -0.361806,-0.0897 -0.615677,-0.19991 -0.761615,-0.33064 -0.205226,-0.18394 -0.307838,-0.40817 -0.307838,-0.67269 0,-0.17026 0.04827,-0.32949 0.144798,-0.47772 0.09653,-0.14821 0.235629,-0.26109 0.417292,-0.33862 0.181661,-0.0775 0.400948,-0.11629 0.657861,-0.11629 0.41957,0 0.735389,0.092 0.947458,0.27591 0.212063,0.18395 0.323417,0.42946 0.334061,0.73653 l -0.674963,0.0297 c -0.02889,-0.17178 -0.09083,-0.2953 -0.185844,-0.37055 -0.09501,-0.0753 -0.237531,-0.11287 -0.427553,-0.11287 -0.196105,0 -0.349644,0.0403 -0.460617,0.12085 -0.07145,0.0517 -0.107174,0.12086 -0.107173,0.20751 -10e-7,0.079 0.03344,0.1467 0.100332,0.20294 0.08513,0.0714 0.291875,0.14594 0.620237,0.22347 0.328359,0.0775 0.571209,0.15772 0.728551,0.24057 0.157337,0.0829 0.280472,0.19611 0.369406,0.33976 0.08893,0.14366 0.133393,0.32114 0.133396,0.53245 -3e-6,0.19154 -0.05321,0.37092 -0.15962,0.53815 -0.106416,0.16722 -0.256914,0.29149 -0.451496,0.37282 -0.194586,0.0813 -0.437056,0.122 -0.72741,0.122 -0.422613,0 -0.747173,-0.0977 -0.973681,-0.29302 -0.226508,-0.19534 -0.361805,-0.48 -0.40589,-0.85397 z"
       style="font-size:4.67001915px;font-weight:bold;fill:#003366;-inkscape-font-specification:Sans Bold"
       id="path3006" /><path
       inkscape:connector-curvature="0"
       d="m 76.326223,366.66504 -1.194868,-3.3429 0.731971,0 0.845984,2.47411 0.818622,-2.47411 0.716009,0 -1.197149,3.3429 z"
       style="font-size:4.67001915px;font-weight:bold;fill:#003366;-inkscape-font-specification:Sans Bold"
       id="path3008" /></g></g></svg>