<?xml version="1.0" encoding="UTF-8" standalone="no"?>
<!-- Generator: Adobe Illustrator 15.0.0, SVG Export Plug-In . SVG Version: 6.00 Build 0)  -->

<svg
   xmlns:dc="http://purl.org/dc/elements/1.1/"
   xmlns:cc="http://creativecommons.org/ns#"
   xmlns:rdf="http://www.w3.org/1999/02/22-rdf-syntax-ns#"
   xmlns:svg="http://www.w3.org/2000/svg"
   xmlns="http://www.w3.org/2000/svg"
   xmlns:sodipodi="http://sodipodi.sourceforge.net/DTD/sodipodi-0.dtd"
   xmlns:inkscape="http://www.inkscape.org/namespaces/inkscape"
   version="1.1"
   id="Layer_1"
   x="0px"
   y="0px"
   width="48px"
   height="48px"
   viewBox="0 0 48 48"
   enable-background="new 0 0 48 48"
   xml:space="preserve"
   inkscape:version="0.48.2 r9819"
   sodipodi:docname="tabla_sdmx.svg"><metadata
   id="metadata3803"><rdf:RDF><cc:Work
       rdf:about=""><dc:format>image/svg+xml</dc:format><dc:type
         rdf:resource="http://purl.org/dc/dcmitype/StillImage" /><dc:title></dc:title></cc:Work></rdf:RDF></metadata><defs
   id="defs3801" /><sodipodi:namedview
   pagecolor="#ffffff"
   bordercolor="#666666"
   borderopacity="1"
   objecttolerance="10"
   gridtolerance="10"
   guidetolerance="10"
   inkscape:pageopacity="0"
   inkscape:pageshadow="2"
   inkscape:window-width="1920"
   inkscape:window-height="1020"
   id="namedview3799"
   showgrid="false"
   inkscape:zoom="4.9166667"
   inkscape:cx="-16.590351"
   inkscape:cy="18.172184"
   inkscape:window-x="-4"
   inkscape:window-y="-4"
   inkscape:window-maximized="1"
   inkscape:current-layer="Layer_1" />

<g
   id="g3088"><path
     id="path3840"
     d="m 3.15572,10.10964 c -1.964234,0 -3.5625,0.366266 -3.5625,0.8125 l 0,35.0625 c 0,0.446235 1.598266,0.78125 3.5625,0.78125 l 29.78125,0 c 1.964235,0 3.5625,-0.335015 3.5625,-0.78125 l 0,-19.9375 -23.1875,0 c -1.191843,0 -2.296133,-0.304121 -3.28125,-0.8125 l -7.59375,0 0,-5.875 3.75,0 C 6.17737,19.206848 6.15572,19.046239 6.15572,18.89089 l 0,-8.78125 -3,0 z m -0.71875,16.65625 9,0 0,4.40625 -9,0 0,-4.40625 z m 10.5,0 10.25,0 0,4.40625 -10.25,0 0,-4.40625 z m 11.78125,0 8.96875,0 0,4.40625 -8.96875,0 0,-4.40625 z m -22.28125,5.9375 9,0 0,4.40625 -9,0 0,-4.40625 z m 10.5,0 10.25,0 0,4.40625 -10.25,0 0,-4.40625 z m 11.78125,0 8.96875,0 0,4.40625 -8.96875,0 0,-4.40625 z m -22.28125,5.9375 9,0 0,5.1875 -9,0 0,-5.1875 z m 10.5,0 10.25,0 0,5.1875 -10.25,0 0,-5.1875 z m 11.78125,0 8.96875,0 0,5.1875 -8.96875,0 0,-5.1875 z"
     style="color:#000000;fill:#003366;fill-opacity:1;stroke:none;stroke-width:2.68430781;marker:none;visibility:visible;display:inline;overflow:visible;enable-background:accumulate"
     inkscape:connector-curvature="0" /><path
     style="fill:#003366;fill-opacity:1;stroke:none;display:inline"
     d="m 13.31197,1.6408896 c -3.9728099,0 -7.15625,3.1834393 -7.15625,7.1562503 l 0,10.0937501 c 0,3.972813 3.1834401,7.15625 7.15625,7.15625 l 27.09375,0 c 3.97281,0 7.1875,-3.183437 7.1875,-7.15625 l 0,-10.0937501 c 0,-3.972811 -3.21469,-7.1562503 -7.1875,-7.1562503 l -27.09375,0 z m 0.875,1.2812503 25.375,0 c 3.7235,0 6.71875,2.854638 6.71875,6.40625 l 0,9.0312501 c 0,3.551612 -2.99525,6.40625 -6.71875,6.40625 l -25.375,0 c -3.72351,0 -6.71875,-2.854638 -6.71875,-6.40625 l 0,-9.0312501 c 0,-3.551612 2.99524,-6.40625 6.71875,-6.40625 z"
     id="path3009"
     inkscape:connector-curvature="0" /><g
     id="text3075"
     style="font-size:13.05712223px;font-style:normal;font-variant:normal;font-weight:bold;font-stretch:normal;text-align:start;line-height:125%;letter-spacing:0px;word-spacing:0px;writing-mode:lr-tb;text-anchor:start;fill:#003366;fill-opacity:1;stroke:none;font-family:Sans;-inkscape-font-specification:Sans Bold"
     transform="matrix(0.99395595,0,0,1.0060808,-0.13424836,-1.4989493)"><path
       inkscape:connector-curvature="0"
       id="path3080"
       style="fill:#003366;font-family:Sans;-inkscape-font-specification:Sans Bold"
       d="m 8.5404141,16.879184 1.8361579,-0.178515 c 0.110507,0.616305 0.334714,1.068969 0.67262,1.357992 0.337901,0.289026 0.793752,0.433538 1.367555,0.433537 0.607798,1e-6 1.065774,-0.128572 1.373931,-0.385721 0.308145,-0.257145 0.462221,-0.557858 0.462227,-0.90214 -6e-6,-0.221016 -0.06482,-0.409094 -0.194454,-0.564236 -0.129642,-0.155135 -0.355974,-0.290084 -0.678996,-0.404847 -0.221024,-0.0765 -0.724692,-0.212515 -1.511005,-0.408035 -1.01159,-0.250767 -1.7214,-0.558919 -2.1294329,-0.924455 -0.5738004,-0.514288 -0.8606998,-1.141217 -0.860699,-1.880786 -8e-7,-0.476034 0.1349482,-0.921259 0.4048473,-1.335678 0.2698967,-0.414402 0.6588048,-0.729991 1.1667256,-0.946769 0.507915,-0.216759 1.12103,-0.325143 1.839345,-0.325153 1.173096,1e-5 2.056108,0.257157 2.64904,0.771442 0.592919,0.514302 0.904258,1.200736 0.934018,2.059302 l -1.887162,0.08288 c -0.08076,-0.480284 -0.253965,-0.825626 -0.519607,-1.036027 -0.265653,-0.210385 -0.664124,-0.315581 -1.195415,-0.315589 -0.548301,8e-6 -0.977588,0.112642 -1.287861,0.337904 -0.19977,0.14452 -0.299653,0.337911 -0.299651,0.580175 -2e-6,0.221025 0.09351,0.410167 0.280524,0.567423 0.238018,0.199774 0.816067,0.408042 1.734149,0.624804 0.918074,0.216774 1.597069,0.440981 2.036988,0.67262 0.439906,0.23165 0.784185,0.548302 1.032839,0.949957 0.248638,0.401663 0.372961,0.897893 0.372969,1.488691 -8e-6,0.535548 -0.14877,1.03709 -0.446288,1.504629 -0.297533,0.467541 -0.718319,0.815008 -1.262359,1.042402 -0.544052,0.227394 -1.221985,0.341092 -2.033799,0.341092 -1.181605,0 -2.089057,-0.273086 -2.7223594,-0.819258 C 9.0419562,18.720656 8.6636741,17.924776 8.5404141,16.879184 z" /><path
       inkscape:connector-curvature="0"
       id="path3082"
       style="fill:#003366;font-family:Sans;-inkscape-font-specification:Sans Bold"
       d="m 17.733954,10.573767 3.449171,0 c 0.777812,10e-6 1.370737,0.05951 1.778778,0.178516 0.548291,0.161522 1.017956,0.448422 1.408996,0.860699 0.391026,0.412293 0.688551,0.917023 0.892577,1.514192 0.204009,0.597183 0.306018,1.333558 0.306026,2.209128 -8e-6,0.769319 -0.09564,1.432376 -0.286899,1.98917 -0.233779,0.680061 -0.567432,1.230483 -1.000961,1.651267 -0.327286,0.318778 -0.769323,0.567425 -1.326114,0.74594 -0.416542,0.131761 -0.973339,0.197642 -1.670394,0.197642 l -3.55118,0 z m 1.887162,1.581136 0,6.190657 1.408996,0 c 0.527041,2e-6 0.907448,-0.02975 1.141223,-0.08926 0.306021,-0.0765 0.55998,-0.20614 0.761878,-0.388908 0.201886,-0.182763 0.366588,-0.483476 0.494105,-0.90214 0.127504,-0.418658 0.19126,-0.989269 0.191267,-1.711835 -7e-6,-0.722556 -0.06376,-1.277228 -0.191267,-1.664018 -0.127517,-0.386776 -0.306032,-0.688552 -0.535546,-0.905327 -0.229525,-0.216762 -0.520675,-0.363399 -0.87345,-0.439913 -0.263527,-0.0595 -0.779946,-0.08925 -1.549258,-0.08926 z" /><path
       inkscape:connector-curvature="0"
       id="path3084"
       style="fill:#003366;font-family:Sans;-inkscape-font-specification:Sans Bold"
       d="m 27.150638,19.920321 0,-9.346554 2.824368,0 1.695896,6.375548 1.676769,-6.375548 2.830743,0 0,9.346554 -1.753275,0 0,-7.357383 -1.855285,7.357383 -1.817031,0 -1.848909,-7.357383 0,7.357383 z" /><path
       inkscape:connector-curvature="0"
       id="path3086"
       style="fill:#003366;font-family:Sans;-inkscape-font-specification:Sans Bold"
       d="m 37.115621,19.920321 3.194149,-4.877295 -2.894499,-4.469259 2.20594,0 1.874411,3.002883 1.836158,-3.002883 2.186813,0 -2.90725,4.53939 3.194149,4.807164 -2.27607,0 -2.072053,-3.232403 -2.078429,3.232403 z" /></g></g></svg>