<?xml version="1.0" encoding="UTF-8" standalone="no"?>
<!-- Generator: Adobe Illustrator 15.0.0, SVG Export Plug-In . SVG Version: 6.00 Build 0)  -->

<svg
   xmlns:dc="http://purl.org/dc/elements/1.1/"
   xmlns:cc="http://creativecommons.org/ns#"
   xmlns:rdf="http://www.w3.org/1999/02/22-rdf-syntax-ns#"
   xmlns:svg="http://www.w3.org/2000/svg"
   xmlns="http://www.w3.org/2000/svg"
   xmlns:sodipodi="http://sodipodi.sourceforge.net/DTD/sodipodi-0.dtd"
   xmlns:inkscape="http://www.inkscape.org/namespaces/inkscape"
   version="1.1"
   id="Layer_1"
   x="0px"
   y="0px"
   width="48px"
   height="48px"
   viewBox="0 0 48 48"
   enable-background="new 0 0 48 48"
   xml:space="preserve"
   inkscape:version="0.48.2 r9819"
   sodipodi:docname="tabla_json.svg"><metadata
   id="metadata3803"><rdf:RDF><cc:Work
       rdf:about=""><dc:format>image/svg+xml</dc:format><dc:type
         rdf:resource="http://purl.org/dc/dcmitype/StillImage" /><dc:title></dc:title></cc:Work></rdf:RDF></metadata><defs
   id="defs3801" /><sodipodi:namedview
   pagecolor="#ffffff"
   bordercolor="#666666"
   borderopacity="1"
   objecttolerance="10"
   gridtolerance="10"
   guidetolerance="10"
   inkscape:pageopacity="0"
   inkscape:pageshadow="2"
   inkscape:window-width="954"
   inkscape:window-height="954"
   id="namedview3799"
   showgrid="false"
   inkscape:zoom="3.4766083"
   inkscape:cx="51.606406"
   inkscape:cy="-16.354066"
   inkscape:window-x="804"
   inkscape:window-y="49"
   inkscape:window-maximized="0"
   inkscape:current-layer="Layer_1" />

<path
   inkscape:connector-curvature="0"
   style="color:#000000;fill:#003366;fill-opacity:1;stroke:none;stroke-width:2.68430781;marker:none;visibility:visible;display:inline;overflow:visible;enable-background:accumulate"
   d="M 3.5625,8.46875 C 1.5982657,8.46875 0,8.835016 0,9.28125 l 0,35.0625 C 0,44.789985 1.5982657,45.125 3.5625,45.125 l 29.78125,0 c 1.964235,0 3.5625,-0.335015 3.5625,-0.78125 l 0,-19.9375 -23.1875,0 c -1.191843,0 -2.296133,-0.304121 -3.28125,-0.8125 l -7.59375,0 0,-5.875 3.75,0 C 6.5841578,17.565958 6.5625,17.405349 6.5625,17.25 l 0,-8.78125 -3,0 z M 2.84375,25.125 l 9,0 0,4.40625 -9,0 0,-4.40625 z m 10.5,0 10.25,0 0,4.40625 -10.25,0 0,-4.40625 z m 11.78125,0 8.96875,0 0,4.40625 -8.96875,0 0,-4.40625 z m -22.28125,5.9375 9,0 0,4.40625 -9,0 0,-4.40625 z m 10.5,0 10.25,0 0,4.40625 -10.25,0 0,-4.40625 z m 11.78125,0 8.96875,0 0,4.40625 -8.96875,0 0,-4.40625 z M 2.84375,37 l 9,0 0,5.1875 -9,0 0,-5.1875 z m 10.5,0 10.25,0 0,5.1875 -10.25,0 0,-5.1875 z m 11.78125,0 8.96875,0 0,5.1875 -8.96875,0 0,-5.1875 z"
   id="path3840" /><path
   style="fill:#003366;fill-opacity:1;stroke:none;display:inline"
   d="m 13.718754,0 c -3.97281,0 -7.15625,3.183439 -7.15625,7.15625 l 0,10.09375 c 0,3.972813 3.18344,7.15625 7.15625,7.15625 l 27.09375,0 C 44.78531,24.40625 48,21.222813 48,17.25 L 48,7.15625 C 48,3.183439 44.78531,0 40.812504,0 l -27.09375,0 z m 0.875,1.28125 25.375,0 c 3.723496,0 6.718746,2.854638 6.718746,6.40625 l 0,9.03125 c 0,3.551612 -2.99525,6.40625 -6.718746,6.40625 l -25.375,0 c -3.72351,0 -6.71875,-2.854638 -6.71875,-6.40625 l 0,-9.03125 c 0,-3.551612 2.99524,-6.40625 6.71875,-6.40625 z"
   id="path3838-13"
   inkscape:connector-curvature="0" /><g
   style="font-size:4.76152277px;font-style:normal;font-weight:normal;line-height:125%;letter-spacing:0px;word-spacing:0px;fill:#003366;fill-opacity:1;stroke:none;display:inline;font-family:Sans"
   id="text4680-4"
   transform="matrix(3.4261011,0,0,3.4261011,-606.04856,-1238.3201)"><path
     inkscape:connector-curvature="0"
     d="m 181.85286,366.70312 0,-3.40839 1.10436,0 c 0.41849,0 0.69128,0.017 0.81838,0.0512 0.1953,0.0511 0.35882,0.16236 0.49057,0.33363 0.13174,0.17128 0.19762,0.39254 0.19762,0.66378 0,0.20925 -0.038,0.38517 -0.11392,0.52776 -0.076,0.1426 -0.17244,0.25459 -0.28946,0.33596 -0.11703,0.0814 -0.23599,0.13524 -0.35688,0.16159 -0.1643,0.0325 -0.40222,0.0488 -0.71376,0.0488 l -0.44872,0 0,1.2857 z m 0.68819,-2.8318 0,0.96719 0.37664,0 c 0.27125,0 0.45259,-0.0178 0.54404,-0.0535 0.0915,-0.0357 0.16314,-0.0915 0.21506,-0.1674 0.0519,-0.0759 0.0779,-0.16429 0.0779,-0.26504 0,-0.124 -0.0364,-0.2263 -0.10928,-0.3069 -0.0728,-0.0806 -0.16507,-0.13097 -0.27667,-0.15112 -0.0822,-0.0155 -0.24722,-0.0232 -0.49521,-0.0232 z"
     style="font-weight:bold;fill:#003366;-inkscape-font-specification:Sans Bold"
     id="path6134-2" /><path
     inkscape:connector-curvature="0"
     d="m 184.68699,366.70312 1.1648,-1.77859 -1.05553,-1.6298 0.80444,0 0.68354,1.09506 0.66959,-1.09506 0.79746,0 -1.06018,1.65537 1.1648,1.75302 -0.83001,0 -0.75561,-1.17875 -0.75794,1.17875 z"
     style="font-weight:bold;fill:#003366;-inkscape-font-specification:Sans Bold"
     id="path6136-0" /></g></svg>