<?xml version="1.0" encoding="UTF-8" standalone="no"?>
<!-- Generator: Adobe Illustrator 15.0.0, SVG Export Plug-In . SVG Version: 6.00 Build 0)  -->

<svg
   xmlns:dc="http://purl.org/dc/elements/1.1/"
   xmlns:cc="http://creativecommons.org/ns#"
   xmlns:rdf="http://www.w3.org/1999/02/22-rdf-syntax-ns#"
   xmlns:svg="http://www.w3.org/2000/svg"
   xmlns="http://www.w3.org/2000/svg"
   xmlns:sodipodi="http://sodipodi.sourceforge.net/DTD/sodipodi-0.dtd"
   xmlns:inkscape="http://www.inkscape.org/namespaces/inkscape"
   version="1.1"
   id="Layer_1"
   x="0px"
   y="0px"
   width="48px"
   height="48px"
   viewBox="0 0 48 48"
   enable-background="new 0 0 48 48"
   xml:space="preserve"
   inkscape:version="0.48.2 r9819"
   sodipodi:docname="tabla_dat.svg"><metadata
   id="metadata3803"><rdf:RDF><cc:Work
       rdf:about=""><dc:format>image/svg+xml</dc:format><dc:type
         rdf:resource="http://purl.org/dc/dcmitype/StillImage" /><dc:title></dc:title></cc:Work></rdf:RDF></metadata><defs
   id="defs3801" /><sodipodi:namedview
   pagecolor="#ffffff"
   bordercolor="#666666"
   borderopacity="1"
   objecttolerance="10"
   gridtolerance="10"
   guidetolerance="10"
   inkscape:pageopacity="0"
   inkscape:pageshadow="2"
   inkscape:window-width="954"
   inkscape:window-height="954"
   id="namedview3799"
   showgrid="false"
   inkscape:zoom="3.4766083"
   inkscape:cx="51.606406"
   inkscape:cy="-16.354066"
   inkscape:window-x="804"
   inkscape:window-y="49"
   inkscape:window-maximized="0"
   inkscape:current-layer="Layer_1" />

<g
   id="g3953"><path
     id="path3840"
     d="M 3.5625 8.46875 C 1.5982657 8.46875 1.4456029e-019 8.835016 0 9.28125 L 0 44.34375 C 0 44.789985 1.5982657 45.125 3.5625 45.125 L 33.34375 45.125 C 35.307985 45.125 36.90625 44.789985 36.90625 44.34375 L 36.90625 24.40625 L 13.71875 24.40625 C 12.526907 24.40625 11.422617 24.102129 10.4375 23.59375 L 2.84375 23.59375 L 2.84375 17.71875 L 6.59375 17.71875 C 6.5841578 17.565958 6.5625 17.405349 6.5625 17.25 L 6.5625 8.46875 L 3.5625 8.46875 z M 2.84375 25.125 L 11.84375 25.125 L 11.84375 29.53125 L 2.84375 29.53125 L 2.84375 25.125 z M 13.34375 25.125 L 23.59375 25.125 L 23.59375 29.53125 L 13.34375 29.53125 L 13.34375 25.125 z M 25.125 25.125 L 34.09375 25.125 L 34.09375 29.53125 L 25.125 29.53125 L 25.125 25.125 z M 2.84375 31.0625 L 11.84375 31.0625 L 11.84375 35.46875 L 2.84375 35.46875 L 2.84375 31.0625 z M 13.34375 31.0625 L 23.59375 31.0625 L 23.59375 35.46875 L 13.34375 35.46875 L 13.34375 31.0625 z M 25.125 31.0625 L 34.09375 31.0625 L 34.09375 35.46875 L 25.125 35.46875 L 25.125 31.0625 z M 2.84375 37 L 11.84375 37 L 11.84375 42.1875 L 2.84375 42.1875 L 2.84375 37 z M 13.34375 37 L 23.59375 37 L 23.59375 42.1875 L 13.34375 42.1875 L 13.34375 37 z M 25.125 37 L 34.09375 37 L 34.09375 42.1875 L 25.125 42.1875 L 25.125 37 z "
     style="color:#000000;fill:#003366;fill-opacity:1;stroke:none;stroke-width:2.68430781;marker:none;visibility:visible;display:inline;overflow:visible;enable-background:accumulate" /><path
     inkscape:connector-curvature="0"
     id="path3838-13"
     d="m 13.718754,0 c -3.97281,0 -7.15625,3.183439 -7.15625,7.15625 l 0,10.09375 c 0,3.972813 3.18344,7.15625 7.15625,7.15625 l 27.09375,0 C 44.78531,24.40625 48,21.222813 48,17.25 L 48,7.15625 C 48,3.183439 44.78531,0 40.812504,0 l -27.09375,0 z m 0.875,1.28125 25.375,0 c 3.723496,0 6.718746,2.854638 6.718746,6.40625 l 0,9.03125 c 0,3.551612 -2.99525,6.40625 -6.718746,6.40625 l -25.375,0 c -3.72351,0 -6.71875,-2.854638 -6.71875,-6.40625 l 0,-9.03125 c 0,-3.551612 2.99524,-6.40625 6.71875,-6.40625 z"
     style="fill:#003366;fill-opacity:1;stroke:none;display:inline" /><g
     style="font-size:3.92595935px;font-style:normal;font-weight:normal;line-height:125%;letter-spacing:0px;word-spacing:0px;fill:#003366;fill-opacity:1;stroke:none;display:inline;font-family:Sans"
     id="text5039-2"
     transform="matrix(3.4551573,0,0,3.4551573,-688.00025,-1248.9255)"><path
       inkscape:connector-curvature="0"
       d="m 203.94614,365.37413 0,-0.47773 1.23398,0 0,1.12953 c -0.11992,0.11605 -0.29367,0.21824 -0.52125,0.30656 -0.22759,0.0883 -0.45807,0.13249 -0.69145,0.13249 -0.29657,0 -0.5551,-0.0622 -0.77559,-0.18664 -0.22049,-0.12443 -0.38618,-0.30237 -0.49707,-0.53382 -0.11089,-0.23145 -0.16633,-0.48321 -0.16633,-0.75528 0,-0.29527 0.0619,-0.55767 0.18567,-0.78719 0.12379,-0.22951 0.30495,-0.40552 0.54349,-0.52802 0.18181,-0.0941 0.4081,-0.14118 0.67888,-0.14119 0.35201,10e-6 0.62698,0.0738 0.82491,0.22146 0.19792,0.14764 0.32525,0.35169 0.38199,0.61215 l -0.56864,0.10638 c -0.04,-0.13926 -0.11508,-0.24918 -0.22532,-0.32977 -0.11025,-0.0806 -0.24789,-0.12088 -0.41294,-0.12088 -0.25015,0 -0.44904,0.0793 -0.59668,0.23789 -0.14764,0.1586 -0.22146,0.39392 -0.22145,0.70596 -1e-5,0.33654 0.0748,0.58894 0.22435,0.75721 0.14958,0.16827 0.34557,0.25241 0.58798,0.2524 0.11991,10e-6 0.24015,-0.0235 0.36071,-0.0706 0.12056,-0.0471 0.22404,-0.10412 0.31043,-0.17117 l 0,-0.35975 z"
       style="font-size:3.96109247px;font-weight:bold;fill:#003366;-inkscape-font-specification:Sans Bold"
       id="path6139-8" /><path
       inkscape:connector-curvature="0"
       d="m 206.42956,366.41663 -1.01348,-2.83543 0.62085,0 0.71756,2.09852 0.69436,-2.09852 0.60731,0 -1.01541,2.83543 z"
       style="font-size:3.96109247px;font-weight:bold;fill:#003366;-inkscape-font-specification:Sans Bold"
       id="path6141-6" /><path
       inkscape:connector-curvature="0"
       d="m 208.33468,366.41663 0,-2.83543 0.5725,0 0,2.83543 z"
       style="font-size:3.96109247px;font-weight:bold;fill:#003366;-inkscape-font-specification:Sans Bold"
       id="path6144-0" /><path
       inkscape:connector-curvature="0"
       d="m 209.20503,366.41663 0,-0.51642 1.48928,-1.83935 -1.32101,0 0,-0.47966 2.07532,0 0,0.44484 -1.5531,1.91286 1.61306,0 0,0.47773 z"
       style="font-size:3.96109247px;font-weight:bold;fill:#003366;-inkscape-font-specification:Sans Bold"
       id="path6146-2" /></g></g></svg>