<?xml version="1.0" encoding="UTF-8" standalone="no"?>
<!-- Generator: Adobe Illustrator 15.0.0, SVG Export Plug-In . SVG Version: 6.00 Build 0)  -->

<svg
   xmlns:dc="http://purl.org/dc/elements/1.1/"
   xmlns:cc="http://creativecommons.org/ns#"
   xmlns:rdf="http://www.w3.org/1999/02/22-rdf-syntax-ns#"
   xmlns:svg="http://www.w3.org/2000/svg"
   xmlns="http://www.w3.org/2000/svg"
   xmlns:sodipodi="http://sodipodi.sourceforge.net/DTD/sodipodi-0.dtd"
   xmlns:inkscape="http://www.inkscape.org/namespaces/inkscape"
   version="1.1"
   id="Layer_1"
   x="0px"
   y="0px"
   width="48px"
   height="48px"
   viewBox="0 0 48 48"
   enable-background="new 0 0 48 48"
   xml:space="preserve"
   inkscape:version="0.48.2 r9819"
   sodipodi:docname="tabla_tsv.svg"><metadata
   id="metadata3803"><rdf:RDF><cc:Work
       rdf:about=""><dc:format>image/svg+xml</dc:format><dc:type
         rdf:resource="http://purl.org/dc/dcmitype/StillImage" /><dc:title></dc:title></cc:Work></rdf:RDF></metadata><defs
   id="defs3801" /><sodipodi:namedview
   pagecolor="#ffffff"
   bordercolor="#666666"
   borderopacity="1"
   objecttolerance="10"
   gridtolerance="10"
   guidetolerance="10"
   inkscape:pageopacity="0"
   inkscape:pageshadow="2"
   inkscape:window-width="954"
   inkscape:window-height="954"
   id="namedview3799"
   showgrid="false"
   inkscape:zoom="3.4766083"
   inkscape:cx="51.606406"
   inkscape:cy="-16.354066"
   inkscape:window-x="804"
   inkscape:window-y="49"
   inkscape:window-maximized="0"
   inkscape:current-layer="Layer_1" />

<path
   inkscape:connector-curvature="0"
   style="color:#000000;fill:#003366;fill-opacity:1;stroke:none;stroke-width:2.68430781;marker:none;visibility:visible;display:inline;overflow:visible;enable-background:accumulate"
   d="M 3.5625,8.46875 C 1.5982657,8.46875 0,8.835016 0,9.28125 l 0,35.0625 C 0,44.789985 1.5982657,45.125 3.5625,45.125 l 29.78125,0 c 1.964235,0 3.5625,-0.335015 3.5625,-0.78125 l 0,-19.9375 -23.1875,0 c -1.191843,0 -2.296133,-0.304121 -3.28125,-0.8125 l -7.59375,0 0,-5.875 3.75,0 C 6.5841578,17.565958 6.5625,17.405349 6.5625,17.25 l 0,-8.78125 -3,0 z M 2.84375,25.125 l 9,0 0,4.40625 -9,0 0,-4.40625 z m 10.5,0 10.25,0 0,4.40625 -10.25,0 0,-4.40625 z m 11.78125,0 8.96875,0 0,4.40625 -8.96875,0 0,-4.40625 z m -22.28125,5.9375 9,0 0,4.40625 -9,0 0,-4.40625 z m 10.5,0 10.25,0 0,4.40625 -10.25,0 0,-4.40625 z m 11.78125,0 8.96875,0 0,4.40625 -8.96875,0 0,-4.40625 z M 2.84375,37 l 9,0 0,5.1875 -9,0 0,-5.1875 z m 10.5,0 10.25,0 0,5.1875 -10.25,0 0,-5.1875 z m 11.78125,0 8.96875,0 0,5.1875 -8.96875,0 0,-5.1875 z"
   id="path3840" /><path
   style="fill:#003366;fill-opacity:1;stroke:none;display:inline"
   d="m 13.718754,0 c -3.97281,0 -7.15625,3.183439 -7.15625,7.15625 l 0,10.09375 c 0,3.972813 3.18344,7.15625 7.15625,7.15625 l 27.09375,0 C 44.78531,24.40625 48,21.222813 48,17.25 L 48,7.15625 C 48,3.183439 44.78531,0 40.812504,0 l -27.09375,0 z m 0.875,1.28125 25.375,0 c 3.723496,0 6.718746,2.854638 6.718746,6.40625 l 0,9.03125 c 0,3.551612 -2.99525,6.40625 -6.718746,6.40625 l -25.375,0 c -3.72351,0 -6.71875,-2.854638 -6.71875,-6.40625 l 0,-9.03125 c 0,-3.551612 2.99524,-6.40625 6.71875,-6.40625 z"
   id="path3838-13"
   inkscape:connector-curvature="0" /><g
   style="font-size:4.76152277px;font-style:normal;font-weight:normal;line-height:125%;letter-spacing:0px;word-spacing:0px;fill:#003366;fill-opacity:1;stroke:none;display:inline;font-family:Sans"
   id="text3263-5-9"
   transform="matrix(3.4261146,0,0,3.4261146,-302.79357,-1238.3251)"><path
     inkscape:connector-curvature="0"
     d="m 92.520945,366.70316 0,-2.83181 -1.011359,0 0,-0.57659 2.708581,0 0,0.57659 -1.009034,0 0,2.83181 z"
     style="font-weight:bold;fill:#003366;-inkscape-font-specification:Sans Bold"
     id="path6111-8" /><path
     inkscape:connector-curvature="0"
     d="m 97.73816,366.70316 -0.748638,0 -0.297595,-0.77422 -1.362428,0 -0.281321,0.77422 -0.730038,0 1.327554,-3.4084 0.727713,0 z m -1.267105,-1.34848 -0.469642,-1.26478 -0.460343,1.26478 z"
     style="font-weight:bold;fill:#003366;-inkscape-font-specification:Sans Bold"
     id="path6113-1" /><path
     inkscape:connector-curvature="0"
     d="m 98.107829,366.70316 0,-3.4084 1.448452,0 c 0.364241,0 0.628899,0.0306 0.793979,0.0918 0.16506,0.0612 0.2972,0.17011 0.3964,0.32665 0.0992,0.15655 0.1488,0.33558 0.1488,0.53707 0,0.25575 -0.0752,0.46693 -0.22552,0.63355 -0.15035,0.16663 -0.3751,0.27164 -0.674242,0.31503 0.148792,0.0868 0.271632,0.18213 0.368502,0.28598 0.0969,0.10384 0.22746,0.28829 0.39176,0.55334 l 0.41617,0.66494 -0.82304,0 -0.497539,-0.74167 c -0.176699,-0.26504 -0.297597,-0.43205 -0.362694,-0.50103 -0.0651,-0.069 -0.134075,-0.11624 -0.206922,-0.14182 -0.07285,-0.0256 -0.188323,-0.0384 -0.346419,-0.0384 l -0.139498,0 0,1.42288 z m 0.688189,-1.96692 0.509167,0 c 0.330142,0 0.536289,-0.014 0.61844,-0.0419 0.08213,-0.0279 0.146465,-0.0759 0.192975,-0.14415 0.0465,-0.0682 0.0697,-0.15344 0.0697,-0.25575 -1e-5,-0.11469 -0.0306,-0.2073 -0.0918,-0.27783 -0.0612,-0.0705 -0.147638,-0.11508 -0.259234,-0.13368 -0.0558,-0.008 -0.223198,-0.0116 -0.502192,-0.0116 l -0.537066,0 z"
     style="font-weight:bold;fill:#003366;-inkscape-font-specification:Sans Bold"
     id="path6115-8" /></g></svg>