<?xml version="1.0" encoding="UTF-8" standalone="no"?>
<!-- Generator: Adobe Illustrator 15.0.0, SVG Export Plug-In . SVG Version: 6.00 Build 0)  -->

<svg
   xmlns:dc="http://purl.org/dc/elements/1.1/"
   xmlns:cc="http://creativecommons.org/ns#"
   xmlns:rdf="http://www.w3.org/1999/02/22-rdf-syntax-ns#"
   xmlns:svg="http://www.w3.org/2000/svg"
   xmlns="http://www.w3.org/2000/svg"
   xmlns:sodipodi="http://sodipodi.sourceforge.net/DTD/sodipodi-0.dtd"
   xmlns:inkscape="http://www.inkscape.org/namespaces/inkscape"
   version="1.1"
   id="Layer_1"
   x="0px"
   y="0px"
   width="48px"
   height="48px"
   viewBox="0 0 48 48"
   enable-background="new 0 0 48 48"
   xml:space="preserve"
   inkscape:version="0.48.2 r9819"
   sodipodi:docname="tabla_csv_2.svg"><metadata
   id="metadata3803"><rdf:RDF><cc:Work
       rdf:about=""><dc:format>image/svg+xml</dc:format><dc:type
         rdf:resource="http://purl.org/dc/dcmitype/StillImage" /><dc:title></dc:title></cc:Work></rdf:RDF></metadata><defs
   id="defs3801" /><sodipodi:namedview
   pagecolor="#ffffff"
   bordercolor="#666666"
   borderopacity="1"
   objecttolerance="10"
   gridtolerance="10"
   guidetolerance="10"
   inkscape:pageopacity="0"
   inkscape:pageshadow="2"
   inkscape:window-width="954"
   inkscape:window-height="954"
   id="namedview3799"
   showgrid="false"
   inkscape:zoom="3.4766083"
   inkscape:cx="71.187897"
   inkscape:cy="-16.354066"
   inkscape:window-x="804"
   inkscape:window-y="49"
   inkscape:window-maximized="0"
   inkscape:current-layer="Layer_1" />

<path
   style="color:#000000;fill:#003366;fill-opacity:1;stroke:none;stroke-width:2.68430781;marker:none;visibility:visible;display:inline;overflow:visible;enable-background:accumulate"
   d="M 3.5625 8.46875 C 1.5982657 8.46875 1.4456029e-019 8.835016 0 9.28125 L 0 44.34375 C 0 44.789985 1.5982657 45.125 3.5625 45.125 L 33.34375 45.125 C 35.307985 45.125 36.90625 44.789985 36.90625 44.34375 L 36.90625 24.40625 L 13.71875 24.40625 C 12.526907 24.40625 11.422617 24.102129 10.4375 23.59375 L 2.84375 23.59375 L 2.84375 17.71875 L 6.59375 17.71875 C 6.5841578 17.565958 6.5625 17.405349 6.5625 17.25 L 6.5625 8.46875 L 3.5625 8.46875 z M 2.84375 25.125 L 11.84375 25.125 L 11.84375 29.53125 L 2.84375 29.53125 L 2.84375 25.125 z M 13.34375 25.125 L 23.59375 25.125 L 23.59375 29.53125 L 13.34375 29.53125 L 13.34375 25.125 z M 25.125 25.125 L 34.09375 25.125 L 34.09375 29.53125 L 25.125 29.53125 L 25.125 25.125 z M 2.84375 31.0625 L 11.84375 31.0625 L 11.84375 35.46875 L 2.84375 35.46875 L 2.84375 31.0625 z M 13.34375 31.0625 L 23.59375 31.0625 L 23.59375 35.46875 L 13.34375 35.46875 L 13.34375 31.0625 z M 25.125 31.0625 L 34.09375 31.0625 L 34.09375 35.46875 L 25.125 35.46875 L 25.125 31.0625 z M 2.84375 37 L 11.84375 37 L 11.84375 42.1875 L 2.84375 42.1875 L 2.84375 37 z M 13.34375 37 L 23.59375 37 L 23.59375 42.1875 L 13.34375 42.1875 L 13.34375 37 z M 25.125 37 L 34.09375 37 L 34.09375 42.1875 L 25.125 42.1875 L 25.125 37 z "
   id="path3840" /><g
   id="g3886"
   transform="translate(-59.12699,-24.287637)"><g
     transform="matrix(3.42611,0,0,3.42611,-166.27349,-1214.0214)"
     id="text3241-1-3"
     style="font-size:4.76152277px;font-style:normal;font-weight:normal;line-height:125%;letter-spacing:0px;word-spacing:0px;fill:#003366;fill-opacity:1;stroke:none;display:inline;font-family:Sans"><path
       id="path6104-3"
       style="font-weight:bold;fill:#003366;-inkscape-font-specification:Sans Bold"
       d="m 69.323373,363.29476 1.257805,0 c 0.283643,0 0.499864,0.0217 0.648664,0.0651 0.199944,0.0589 0.371216,0.16353 0.513817,0.31387 0.142595,0.15035 0.251093,0.33441 0.325494,0.55218 0.0744,0.21777 0.111595,0.4863 0.111599,0.8056 -4e-6,0.28054 -0.03488,0.52234 -0.104624,0.72539 -0.08525,0.24799 -0.206924,0.44871 -0.365019,0.60216 -0.11935,0.11625 -0.280548,0.20692 -0.483592,0.27202 -0.1519,0.048 -0.354946,0.0721 -0.60914,0.0721 l -1.295004,0 z m 0.688189,0.57659 0,2.25754 0.513816,0 c 0.192196,0 0.330918,-0.0109 0.416169,-0.0326 0.111596,-0.0279 0.204207,-0.0752 0.277833,-0.14182 0.07362,-0.0666 0.133683,-0.17631 0.180184,-0.32898 0.0465,-0.15268 0.06975,-0.36076 0.06975,-0.62426 -2e-6,-0.26349 -0.02325,-0.46576 -0.06975,-0.60681 -0.0465,-0.14105 -0.1116,-0.2511 -0.195297,-0.33015 -0.0837,-0.079 -0.189873,-0.13252 -0.318519,-0.16042 -0.0961,-0.0217 -0.284422,-0.0326 -0.564966,-0.0326 z"
       inkscape:connector-curvature="0" /><path
       id="path6106-4"
       style="font-weight:bold;fill:#003366;-inkscape-font-specification:Sans Bold"
       d="m 75.840242,366.70316 -0.748638,0 -0.297595,-0.77422 -1.362428,0 -0.28132,0.77422 -0.730038,0 1.327553,-3.4084 0.727713,0 z m -1.267104,-1.34848 -0.469643,-1.26478 -0.460342,1.26478 z"
       inkscape:connector-curvature="0" /><path
       id="path6108-1"
       style="font-weight:bold;fill:#003366;-inkscape-font-specification:Sans Bold"
       d="m 76.974824,366.70316 0,-2.83181 -1.011359,0 0,-0.57659 2.708581,0 0,0.57659 -1.009033,0 0,2.83181 z"
       inkscape:connector-curvature="0" /></g><path
     inkscape:connector-curvature="0"
     id="path3838-13"
     d="m 72.845744,24.287637 c -3.97281,0 -7.15625,3.183439 -7.15625,7.15625 l 0,10.09375 c 0,3.972813 3.18344,7.15625 7.15625,7.15625 l 27.09375,0 c 3.972806,0 7.187496,-3.183437 7.187496,-7.15625 l 0,-10.09375 c 0,-3.972811 -3.21469,-7.15625 -7.187496,-7.15625 l -27.09375,0 z m 0.875,1.28125 25.375,0 c 3.723496,0 6.718746,2.854638 6.718746,6.40625 l 0,9.03125 c 0,3.551612 -2.99525,6.40625 -6.718746,6.40625 l -25.375,0 c -3.72351,0 -6.71875,-2.854638 -6.71875,-6.40625 l 0,-9.03125 c 0,-3.551612 2.99524,-6.40625 6.71875,-6.40625 z"
     style="fill:#003366;fill-opacity:1;stroke:none;display:inline" /></g></svg>