<?xml version="1.0" encoding="UTF-8" standalone="no"?>
<!-- Generator: Adobe Illustrator 15.0.0, SVG Export Plug-In . SVG Version: 6.00 Build 0)  -->

<svg
   xmlns:dc="http://purl.org/dc/elements/1.1/"
   xmlns:cc="http://creativecommons.org/ns#"
   xmlns:rdf="http://www.w3.org/1999/02/22-rdf-syntax-ns#"
   xmlns:svg="http://www.w3.org/2000/svg"
   xmlns="http://www.w3.org/2000/svg"
   xmlns:sodipodi="http://sodipodi.sourceforge.net/DTD/sodipodi-0.dtd"
   xmlns:inkscape="http://www.inkscape.org/namespaces/inkscape"
   version="1.1"
   id="Layer_1"
   x="0px"
   y="0px"
   width="48px"
   height="48px"
   viewBox="0 0 48 48"
   enable-background="new 0 0 48 48"
   xml:space="preserve"
   inkscape:version="0.48.2 r9819"
   sodipodi:docname="tabla_px.svg"><metadata
   id="metadata3803"><rdf:RDF><cc:Work
       rdf:about=""><dc:format>image/svg+xml</dc:format><dc:type
         rdf:resource="http://purl.org/dc/dcmitype/StillImage" /><dc:title></dc:title></cc:Work></rdf:RDF></metadata><defs
   id="defs3801" /><sodipodi:namedview
   pagecolor="#ffffff"
   bordercolor="#666666"
   borderopacity="1"
   objecttolerance="10"
   gridtolerance="10"
   guidetolerance="10"
   inkscape:pageopacity="0"
   inkscape:pageshadow="2"
   inkscape:window-width="954"
   inkscape:window-height="954"
   id="namedview3799"
   showgrid="false"
   inkscape:zoom="3.4766083"
   inkscape:cx="51.606406"
   inkscape:cy="-16.354066"
   inkscape:window-x="804"
   inkscape:window-y="49"
   inkscape:window-maximized="0"
   inkscape:current-layer="Layer_1" />

<path
   inkscape:connector-curvature="0"
   style="color:#000000;fill:#003366;fill-opacity:1;stroke:none;stroke-width:2.68430781;marker:none;visibility:visible;display:inline;overflow:visible;enable-background:accumulate"
   d="M 3.5625,8.46875 C 1.5982657,8.46875 0,8.835016 0,9.28125 l 0,35.0625 C 0,44.789985 1.5982657,45.125 3.5625,45.125 l 29.78125,0 c 1.964235,0 3.5625,-0.335015 3.5625,-0.78125 l 0,-19.9375 -23.1875,0 c -1.191843,0 -2.296133,-0.304121 -3.28125,-0.8125 l -7.59375,0 0,-5.875 3.75,0 C 6.5841578,17.565958 6.5625,17.405349 6.5625,17.25 l 0,-8.78125 -3,0 z M 2.84375,25.125 l 9,0 0,4.40625 -9,0 0,-4.40625 z m 10.5,0 10.25,0 0,4.40625 -10.25,0 0,-4.40625 z m 11.78125,0 8.96875,0 0,4.40625 -8.96875,0 0,-4.40625 z m -22.28125,5.9375 9,0 0,4.40625 -9,0 0,-4.40625 z m 10.5,0 10.25,0 0,4.40625 -10.25,0 0,-4.40625 z m 11.78125,0 8.96875,0 0,4.40625 -8.96875,0 0,-4.40625 z M 2.84375,37 l 9,0 0,5.1875 -9,0 0,-5.1875 z m 10.5,0 10.25,0 0,5.1875 -10.25,0 0,-5.1875 z m 11.78125,0 8.96875,0 0,5.1875 -8.96875,0 0,-5.1875 z"
   id="path3840" /><path
   style="fill:#003366;fill-opacity:1;stroke:none;display:inline"
   d="m 13.718754,0 c -3.97281,0 -7.15625,3.183439 -7.15625,7.15625 l 0,10.09375 c 0,3.972813 3.18344,7.15625 7.15625,7.15625 l 27.09375,0 C 44.78531,24.40625 48,21.222813 48,17.25 L 48,7.15625 C 48,3.183439 44.78531,0 40.812504,0 l -27.09375,0 z m 0.875,1.28125 25.375,0 c 3.723496,0 6.718746,2.854638 6.718746,6.40625 l 0,9.03125 c 0,3.551612 -2.99525,6.40625 -6.718746,6.40625 l -25.375,0 c -3.72351,0 -6.71875,-2.854638 -6.71875,-6.40625 l 0,-9.03125 c 0,-3.551612 2.99524,-6.40625 6.71875,-6.40625 z"
   id="path3838-13"
   inkscape:connector-curvature="0" /><g
   id="g4110"
   transform="translate(-70.449827,-65.721831)"><path
     inkscape:connector-curvature="0"
     id="path3050"
     style="font-size:16.31348419px;font-style:normal;font-weight:bold;line-height:125%;letter-spacing:0px;word-spacing:0px;fill:#003366;fill-opacity:1;stroke:none;font-family:Sans;-inkscape-font-specification:Sans Bold"
     d="m 81.935358,83.763717 0,-11.677523 4.962549,0 c 1.247931,1.1e-5 2.154678,0.104891 2.720241,0.31464 0.565546,0.209771 1.018256,0.582825 1.35813,1.119162 0.339853,0.536358 0.509785,1.149706 0.509796,1.840046 -1.1e-5,0.876221 -0.257564,1.599759 -0.77266,2.170618 -0.515116,0.570871 -1.28512,0.930649 -2.310015,1.079334 0.509788,0.297386 0.930635,0.623974 1.262543,0.979765 0.331889,0.3558 0.779288,0.987734 1.342198,1.895806 l 1.425837,2.278152 -2.819811,0 -1.704632,-2.541016 c -0.60539,-0.908071 -1.019599,-1.480264 -1.242629,-1.71658 -0.223041,-0.236308 -0.459353,-0.398274 -0.708935,-0.4859 -0.249593,-0.08762 -0.645216,-0.131427 -1.18687,-0.131432 l -0.477934,0 0,4.874928 z m 2.357808,-6.738871 1.744459,0 c 1.131105,7e-6 1.837384,-0.04779 2.118842,-0.14338 0.281442,-0.09558 0.501822,-0.260201 0.661142,-0.493865 0.159303,-0.233649 0.238958,-0.52572 0.238967,-0.876213 -9e-6,-0.392959 -0.104888,-0.710254 -0.31464,-0.951885 -0.209768,-0.241613 -0.505821,-0.394286 -0.888161,-0.45802 -0.191181,-0.02654 -0.764701,-0.03982 -1.720563,-0.03983 l -1.840046,0 z" /><path
     inkscape:connector-curvature="0"
     id="path3052"
     style="font-size:16.31348419px;font-style:normal;font-weight:bold;line-height:125%;letter-spacing:0px;word-spacing:0px;fill:#003366;fill-opacity:1;stroke:none;font-family:Sans;-inkscape-font-specification:Sans Bold"
     d="m 93.708468,72.086194 4.309372,0 c 0.971793,1.1e-5 1.712591,0.07436 2.22239,0.223036 0.68503,0.201805 1.27183,0.560256 1.7604,1.075351 0.48854,0.515117 0.86027,1.145724 1.11517,1.891823 0.25489,0.746116 0.38234,1.666138 0.38235,2.760069 -10e-6,0.961184 -0.11949,1.789602 -0.35845,2.485258 -0.29208,0.849663 -0.70894,1.537356 -1.25059,2.063082 -0.40891,0.398279 -0.96119,0.708936 -1.65684,0.931972 -0.520426,0.164621 -1.216085,0.246932 -2.08698,0.246932 l -4.436822,0 z m 2.357808,1.975461 0,7.734567 1.760391,0 c 0.658481,2e-6 1.133759,-0.03717 1.425837,-0.111518 0.38234,-0.09558 0.699635,-0.257551 0.951886,-0.4859 0.25223,-0.228343 0.45801,-0.604052 0.61733,-1.127128 0.1593,-0.523068 0.23896,-1.235986 0.23897,-2.138755 -10e-6,-0.902758 -0.0797,-1.595761 -0.23897,-2.079013 -0.15932,-0.483236 -0.38236,-0.860273 -0.66911,-1.131111 -0.286765,-0.27082 -0.650526,-0.454028 -1.09128,-0.549624 -0.32925,-0.07434 -0.97446,-0.111509 -1.935633,-0.111518 z" /><path
     inkscape:connector-curvature="0"
     id="path3054"
     style="font-size:16.31348419px;font-style:normal;font-weight:bold;line-height:125%;letter-spacing:0px;word-spacing:0px;fill:#003366;fill-opacity:1;stroke:none;font-family:Sans;-inkscape-font-specification:Sans Bold"
     d="m 105.52141,83.763717 0,-11.677523 8.00539,0 0,1.975461 -5.64759,0 0,2.764052 4.87493,0 0,1.975461 -4.87493,0 0,4.962549 z" /></g></svg>