<?xml version="1.0" encoding="UTF-8" standalone="no"?>
<!-- Generator: Adobe Illustrator 15.0.0, SVG Export Plug-In . SVG Version: 6.00 Build 0)  -->

<svg
   xmlns:dc="http://purl.org/dc/elements/1.1/"
   xmlns:cc="http://creativecommons.org/ns#"
   xmlns:rdf="http://www.w3.org/1999/02/22-rdf-syntax-ns#"
   xmlns:svg="http://www.w3.org/2000/svg"
   xmlns="http://www.w3.org/2000/svg"
   xmlns:sodipodi="http://sodipodi.sourceforge.net/DTD/sodipodi-0.dtd"
   xmlns:inkscape="http://www.inkscape.org/namespaces/inkscape"
   version="1.1"
   id="Layer_1"
   x="0px"
   y="0px"
   width="48px"
   height="48px"
   viewBox="0 0 48 48"
   enable-background="new 0 0 48 48"
   xml:space="preserve"
   inkscape:version="0.48.2 r9819"
   sodipodi:docname="tabla_ods.svg"><metadata
   id="metadata3803"><rdf:RDF><cc:Work
       rdf:about=""><dc:format>image/svg+xml</dc:format><dc:type
         rdf:resource="http://purl.org/dc/dcmitype/StillImage" /><dc:title></dc:title></cc:Work></rdf:RDF></metadata><defs
   id="defs3801" /><sodipodi:namedview
   pagecolor="#ffffff"
   bordercolor="#666666"
   borderopacity="1"
   objecttolerance="10"
   gridtolerance="10"
   guidetolerance="10"
   inkscape:pageopacity="0"
   inkscape:pageshadow="2"
   inkscape:window-width="1920"
   inkscape:window-height="1020"
   id="namedview3799"
   showgrid="false"
   inkscape:zoom="4.9166667"
   inkscape:cx="-16.590351"
   inkscape:cy="18.172184"
   inkscape:window-x="-4"
   inkscape:window-y="-4"
   inkscape:window-maximized="1"
   inkscape:current-layer="Layer_1" />

<g
   id="g3045"><path
     id="path3840"
     d="m 3.15572,10.10964 c -1.964234,0 -3.5625,0.366266 -3.5625,0.8125 l 0,35.0625 c 0,0.446235 1.598266,0.78125 3.5625,0.78125 l 29.78125,0 c 1.964235,0 3.5625,-0.335015 3.5625,-0.78125 l 0,-19.9375 -23.1875,0 c -1.191843,0 -2.296133,-0.304121 -3.28125,-0.8125 l -7.59375,0 0,-5.875 3.75,0 C 6.17737,19.206848 6.15572,19.046239 6.15572,18.89089 l 0,-8.78125 -3,0 z m -0.71875,16.65625 9,0 0,4.40625 -9,0 0,-4.40625 z m 10.5,0 10.25,0 0,4.40625 -10.25,0 0,-4.40625 z m 11.78125,0 8.96875,0 0,4.40625 -8.96875,0 0,-4.40625 z m -22.28125,5.9375 9,0 0,4.40625 -9,0 0,-4.40625 z m 10.5,0 10.25,0 0,4.40625 -10.25,0 0,-4.40625 z m 11.78125,0 8.96875,0 0,4.40625 -8.96875,0 0,-4.40625 z m -22.28125,5.9375 9,0 0,5.1875 -9,0 0,-5.1875 z m 10.5,0 10.25,0 0,5.1875 -10.25,0 0,-5.1875 z m 11.78125,0 8.96875,0 0,5.1875 -8.96875,0 0,-5.1875 z"
     style="color:#000000;fill:#003366;fill-opacity:1;stroke:none;stroke-width:2.68430781;marker:none;visibility:visible;display:inline;overflow:visible;enable-background:accumulate"
     inkscape:connector-curvature="0" /><path
     style="fill:#003366;fill-opacity:1;stroke:none;display:inline"
     d="m 13.31197,1.6408896 c -3.9728099,0 -7.15625,3.1834393 -7.15625,7.1562503 l 0,10.0937501 c 0,3.972813 3.1834401,7.15625 7.15625,7.15625 l 27.09375,0 c 3.97281,0 7.1875,-3.183437 7.1875,-7.15625 l 0,-10.0937501 c 0,-3.972811 -3.21469,-7.1562503 -7.1875,-7.1562503 l -27.09375,0 z m 0.875,1.2812503 25.375,0 c 3.7235,0 6.71875,2.854638 6.71875,6.40625 l 0,9.0312501 c 0,3.551612 -2.99525,6.40625 -6.71875,6.40625 l -25.375,0 c -3.72351,0 -6.71875,-2.854638 -6.71875,-6.40625 l 0,-9.0312501 c 0,-3.551612 2.99524,-6.40625 6.71875,-6.40625 z"
     id="path3009"
     inkscape:connector-curvature="0" /><g
     id="text3016"
     style="font-size:16.57032776px;font-style:normal;font-variant:normal;font-weight:bold;font-stretch:normal;text-align:start;line-height:125%;letter-spacing:0px;word-spacing:0px;writing-mode:lr-tb;text-anchor:start;fill:#003366;fill-opacity:1;stroke:none;font-family:Sans;-inkscape-font-specification:Sans Bold"
     transform="matrix(0.99395595,0,0,1.0060808,42.72747,43.339611)"><path
       inkscape:connector-curvature="0"
       id="path3036"
       style="line-height:125%;fill:#003366;font-family:Sans;-inkscape-font-specification:Sans Bold"
       d="m -27.078542,-27.747673 0,-1.998472 5.162045,0 0,4.725132 c -0.501652,0.48546 -1.228491,0.912933 -2.180519,1.282421 -0.952047,0.369488 -1.916222,0.554231 -2.892525,0.554232 -1.240623,-10e-7 -2.322116,-0.26026 -3.244484,-0.78078 -0.922374,-0.520519 -1.615501,-1.264888 -2.079382,-2.23311 -0.463883,-0.968217 -0.695825,-2.021392 -0.695824,-3.159528 -10e-7,-1.235216 0.25891,-2.332891 0.776734,-3.293029 0.517821,-0.96012 1.275675,-1.696398 2.273566,-2.208838 0.760547,-0.393749 1.707191,-0.590629 2.839934,-0.590642 1.47255,1.3e-5 2.622817,0.308818 3.450803,0.926418 0.827966,0.617622 1.360622,1.471219 1.597969,2.560795 l -2.378749,0.445004 c -0.167222,-0.582542 -0.481422,-1.042379 -0.942599,-1.379512 -0.461194,-0.337115 -1.037001,-0.505676 -1.727424,-0.505687 -1.046439,1.1e-5 -1.878461,0.33174 -2.496068,0.995191 -0.617615,0.663469 -0.92642,1.64787 -0.926417,2.953208 -3e-6,1.407835 0.312848,2.463707 0.938554,3.167619 0.625698,0.703917 1.445583,1.055874 2.459658,1.055873 0.501634,1e-6 1.004622,-0.09844 1.508968,-0.295321 0.504329,-0.196878 0.937196,-0.435562 1.298602,-0.716052 l 0,-1.504922 z" /><path
       inkscape:connector-curvature="0"
       id="path3038"
       style="line-height:125%;fill:#003366;font-family:Sans;-inkscape-font-specification:Sans Bold"
       d="m -17.045727,-23.386635 0,-9.854814 -3.519576,0 0,-2.006563 9.425992,0 0,2.006563 -3.511486,0 0,9.854814 z" /><path
       inkscape:connector-curvature="0"
       id="path3040"
       style="line-height:125%;fill:#003366;font-family:Sans;-inkscape-font-specification:Sans Bold"
       d="m 1.1104331,-23.386635 -2.6052957,0 -1.0356455,-2.694296 -4.7413144,0 -0.9790087,2.694296 -2.5405678,0 4.6199498,-11.861377 2.5324768,0 z m -4.4095843,-4.692768 -1.634378,-4.401494 -1.6020141,4.401494 z" /></g></g></svg>