<?xml version="1.0" encoding="UTF-8" standalone="no"?>
<!-- Generator: Adobe Illustrator 15.0.0, SVG Export Plug-In . SVG Version: 6.00 Build 0)  -->

<svg
   xmlns:dc="http://purl.org/dc/elements/1.1/"
   xmlns:cc="http://creativecommons.org/ns#"
   xmlns:rdf="http://www.w3.org/1999/02/22-rdf-syntax-ns#"
   xmlns:svg="http://www.w3.org/2000/svg"
   xmlns="http://www.w3.org/2000/svg"
   xmlns:sodipodi="http://sodipodi.sourceforge.net/DTD/sodipodi-0.dtd"
   xmlns:inkscape="http://www.inkscape.org/namespaces/inkscape"
   version="1.1"
   id="Layer_1"
   x="0px"
   y="0px"
   width="48px"
   height="48px"
   viewBox="0 0 48 48"
   enable-background="new 0 0 48 48"
   xml:space="preserve"
   inkscape:version="0.48.2 r9819"
   sodipodi:docname="tabla_xls.svg"><metadata
   id="metadata3803"><rdf:RDF><cc:Work
       rdf:about=""><dc:format>image/svg+xml</dc:format><dc:type
         rdf:resource="http://purl.org/dc/dcmitype/StillImage" /><dc:title></dc:title></cc:Work></rdf:RDF></metadata><defs
   id="defs3801" /><sodipodi:namedview
   pagecolor="#ffffff"
   bordercolor="#666666"
   borderopacity="1"
   objecttolerance="10"
   gridtolerance="10"
   guidetolerance="10"
   inkscape:pageopacity="0"
   inkscape:pageshadow="2"
   inkscape:window-width="954"
   inkscape:window-height="954"
   id="namedview3799"
   showgrid="false"
   inkscape:zoom="4.9166667"
   inkscape:cx="-2.7443503"
   inkscape:cy="24"
   inkscape:window-x="22"
   inkscape:window-y="29"
   inkscape:window-maximized="0"
   inkscape:current-layer="Layer_1" />

<g
   style="display:inline"
   id="g5391"
   transform="matrix(1.0116984,0,0,1.0116984,1.1427775e-6,-0.22506845)"><path
     id="rect12796-8"
     d="M 3.28125,11.71875 C 1.4705832,11.71875 0,12.054883 0,12.46875 L 0,16.40625 0,44.4375 0,45 c 0,0.413867 1.4705832,0.75 3.28125,0.75 l 27.46875,0 c 0.946554,0 1.775831,-0.103196 2.375,-0.25 0.412775,-0.05735 0.727605,-0.171951 0.84375,-0.34375 0.04375,-0.0488 0.0625,-0.104517 0.0625,-0.15625 l 0,-12.34375 c -0.913945,0.171831 -1.80293,0.277384 -2.65625,0.3125 l 0,3.5 -7.9375,0 0,-4.46875 0.75,0 c 0.258945,0 0.46875,-0.307212 0.46875,-0.6875 0,-0.380288 -0.209805,-0.6875 -0.46875,-0.6875 l -0.75,0 0,-4.53125 c 0.161278,-0.103931 0.28125,-0.371034 0.28125,-0.65625 0,-0.285216 -0.119972,-0.521069 -0.28125,-0.625 l 0,-4.96875 6.21875,0 c 0.65772,0 1.22614,0.03147 1.71875,0.09375 l 0,3.71875 c 0.972859,0.006 1.848846,-0.139984 2.65625,-0.4375 l 0,-4.4375 c -2.630428,-1.037406 -4.310806,-2.654997 -5,-4.84375 -0.228338,-0.725131 -0.345835,-1.470848 -0.40625,-2.21875 l -25.34375,0 z m 1.09375,8.125 6.75,0 0,4.90625 -8.46875,0 0,-4.8125 C 3.1488603,19.875215 3.7172799,19.84375 4.375,19.84375 z m 8.125,0 9.5625,0 0,4.90625 -9.5625,0 0,-4.90625 z m -9.84375,6.28125 8.46875,0 0,4.5 -8.46875,0 0,-4.5 z m 9.84375,0 9.5625,0 0,4.5 -9.5625,0 0,-4.5 z M 2.65625,32 l 8.46875,0 0,4.46875 -8.46875,0 0,-4.46875 z m 9.84375,0 9.5625,0 0,4.46875 -9.5625,0 L 12.5,32 z m -9.84375,5.84375 8.46875,0 0,5.0625 -8.46875,0 0,-5.0625 z m 9.84375,0 9.5625,0 0,5.0625 -9.5625,0 0,-5.0625 z m 10.9375,0 7.9375,0 0,5.0625 -7.9375,0 0,-5.0625 z"
     style="color:#000000;fill:#003366;fill-opacity:1;stroke:none;stroke-width:2.72154117;marker:none;visibility:visible;display:inline;overflow:visible;enable-background:accumulate"
     inkscape:connector-curvature="0" /><path
     sodipodi:nodetypes="scccss"
     inkscape:connector-curvature="0"
     id="path3829"
     style="font-size:40px;font-style:normal;font-variant:normal;font-weight:900;font-stretch:normal;line-height:125%;letter-spacing:0px;word-spacing:0px;fill:#003366;fill-opacity:1;stroke:none;display:inline;font-family:HelveticaRounded LT Std Blk;-inkscape-font-specification:HelveticaRounded LT Std Blk Heavy"
     d="m 29.981024,7.5190694 c -2.048514,4.4132216 1.542933,11.2602046 7.517846,11.2505256 -3.338844,8.476622 -5.538212,5.575078 -11.073857,5.856287 -2.831226,1.325524 -3.320401,5.600964 1.281925,6.791131 C 42.611794,33.715561 50.881148,15.534403 46.078915,6.3573629 42.900279,0.28300837 33.073403,0.85699378 29.981024,7.5190694 z" /></g></svg>