<?xml version="1.0" encoding="UTF-8" standalone="no"?>
<!-- Generator: Adobe Illustrator 15.0.0, SVG Export Plug-In . SVG Version: 6.00 Build 0)  -->

<svg
   xmlns:dc="http://purl.org/dc/elements/1.1/"
   xmlns:cc="http://creativecommons.org/ns#"
   xmlns:rdf="http://www.w3.org/1999/02/22-rdf-syntax-ns#"
   xmlns:svg="http://www.w3.org/2000/svg"
   xmlns="http://www.w3.org/2000/svg"
   xmlns:sodipodi="http://sodipodi.sourceforge.net/DTD/sodipodi-0.dtd"
   xmlns:inkscape="http://www.inkscape.org/namespaces/inkscape"
   version="1.1"
   id="Layer_1"
   x="0px"
   y="0px"
   width="48px"
   height="48px"
   viewBox="0 0 48 48"
   enable-background="new 0 0 48 48"
   xml:space="preserve"
   inkscape:version="0.48.2 r9819"
   sodipodi:docname="tabla.svg"><metadata
   id="metadata3803"><rdf:RDF><cc:Work
       rdf:about=""><dc:format>image/svg+xml</dc:format><dc:type
         rdf:resource="http://purl.org/dc/dcmitype/StillImage" /><dc:title></dc:title></cc:Work></rdf:RDF></metadata><defs
   id="defs3801" /><sodipodi:namedview
   pagecolor="#ffffff"
   bordercolor="#666666"
   borderopacity="1"
   objecttolerance="10"
   gridtolerance="10"
   guidetolerance="10"
   inkscape:pageopacity="0"
   inkscape:pageshadow="2"
   inkscape:window-width="954"
   inkscape:window-height="954"
   id="namedview3799"
   showgrid="false"
   inkscape:zoom="4.9166667"
   inkscape:cx="-2.7443503"
   inkscape:cy="24"
   inkscape:window-x="22"
   inkscape:window-y="29"
   inkscape:window-maximized="0"
   inkscape:current-layer="Layer_1" />

<g
   style="display:inline"
   id="g5407"
   transform="matrix(1.1045173,0,0,1.1045173,-6.3357635e-7,-4.6062617)"><path
     id="rect2988"
     d="M 3.21875,11.84375 C 1.4403958,11.84375 0,12.158493 0,12.5625 l 0,31.75 c 0,0.404007 1.4403958,0.71875 3.21875,0.71875 l 26.96875,0 c 1.778354,0 3.21875,-0.314743 3.21875,-0.71875 l 0,-11.625 -2.53125,0 0,3.59375 -8.125,0 0,-4 6.84375,0 -1.125,-1.375 -5.71875,0 0,-1.5 -1.375,0 0,1.5 -9.28125,0 0,-1.5 -1.375,0 0,1.5 -8.15625,0 0,-4 5.75,0 1.09375,-1.375 -6.84375,0 0,-5.3125 8.15625,0 0,3.65625 1.375,-1.71875 0,-1.9375 1.53125,0 2.21875,-2.78125 -4.625,-5.59375 -8,0 z m -0.65625,20.4375 8.15625,0 0,4 -8.15625,0 0,-4 z m 9.53125,0 9.28125,0 0,4 -9.28125,0 0,-4 z m -9.53125,5.375 8.15625,0 0,4.71875 -8.15625,0 0,-4.71875 z m 9.53125,0 9.28125,0 0,4.71875 -9.28125,0 0,-4.71875 z m 10.65625,0 8.125,0 0,4.71875 -8.125,0 0,-4.71875 z"
     style="color:#000000;fill:#003366;fill-opacity:1;stroke:none;stroke-width:2.68430781;marker:none;visibility:visible;display:inline;overflow:visible;enable-background:accumulate"
     inkscape:connector-curvature="0" /><path
     sodipodi:nodetypes="ccccccccccccc"
     inkscape:connector-curvature="0"
     id="path3836-8"
     d="m 14.324873,6.7674167 8.02536,0 5.58153,5.7818393 5.24088,-5.6858193 8.448286,0 -8.337616,10.6141123 10.174586,11.898031 -8.93709,0 -6.439326,-7.181499 -3.48124,3.91412 -8.85478,0.02542 7.72643,-8.284326 z"
     style="font-size:40px;font-style:normal;font-weight:normal;line-height:125%;letter-spacing:0px;word-spacing:0px;fill:#003366;fill-opacity:1;stroke:none;display:inline;font-family:Sans" /></g></svg>