<?xml version="1.0" encoding="UTF-8" standalone="no"?>
<!-- Generator: Adobe Illustrator 15.0.0, SVG Export Plug-In . SVG Version: 6.00 Build 0)  -->

<svg
   xmlns:dc="http://purl.org/dc/elements/1.1/"
   xmlns:cc="http://creativecommons.org/ns#"
   xmlns:rdf="http://www.w3.org/1999/02/22-rdf-syntax-ns#"
   xmlns:svg="http://www.w3.org/2000/svg"
   xmlns="http://www.w3.org/2000/svg"
   xmlns:sodipodi="http://sodipodi.sourceforge.net/DTD/sodipodi-0.dtd"
   xmlns:inkscape="http://www.inkscape.org/namespaces/inkscape"
   version="1.1"
   id="Layer_1"
   x="0px"
   y="0px"
   width="48px"
   height="48px"
   viewBox="0 0 48 48"
   enable-background="new 0 0 48 48"
   xml:space="preserve"
   inkscape:version="0.48.2 r9819"
   sodipodi:docname="tabla.svg"><metadata
   id="metadata3803"><rdf:RDF><cc:Work
       rdf:about=""><dc:format>image/svg+xml</dc:format><dc:type
         rdf:resource="http://purl.org/dc/dcmitype/StillImage" /><dc:title></dc:title></cc:Work></rdf:RDF></metadata><defs
   id="defs3801" /><sodipodi:namedview
   pagecolor="#ffffff"
   bordercolor="#666666"
   borderopacity="1"
   objecttolerance="10"
   gridtolerance="10"
   guidetolerance="10"
   inkscape:pageopacity="0"
   inkscape:pageshadow="2"
   inkscape:window-width="954"
   inkscape:window-height="954"
   id="namedview3799"
   showgrid="false"
   inkscape:zoom="4.9166667"
   inkscape:cx="-2.7443503"
   inkscape:cy="24"
   inkscape:window-x="22"
   inkscape:window-y="29"
   inkscape:window-maximized="0"
   inkscape:current-layer="Layer_1" />

<path
   inkscape:connector-curvature="0"
   style="color:#000000;fill:#003366;fill-opacity:1;stroke:none;stroke-width:2.68430781;marker:none;visibility:visible;display:inline;overflow:visible;enable-background:accumulate"
   d="M 4.6248902,-8.5e-7 C 2.0696502,-8.5e-7 2.5e-7,0.45521915 2.5e-7,1.0395492 l 0,45.9208998 c 0,0.584332 2.06964995,1.039552 4.62488995,1.039552 l 38.7502298,0 C 45.93036,48.000001 48,47.544781 48,46.960449 L 48,1.0395492 C 48,0.45521915 45.93036,-8.5e-7 43.37512,-8.5e-7 l -38.7502298,0 z m -0.94294,12.11298985 11.7193598,0 0,7.68362 -11.7193597,0 0,-7.68362 z m 13.6950398,0 13.33583,0 0,7.68362 -13.33583,0 0,-7.68362 z m 15.31151,0 11.67446,0 0,7.68362 -11.67446,0 0,-7.68362 z m -29.0065497,9.67232 11.7193597,0 0,5.78531 -11.7193597,0 0,-5.78531 z m 13.6950397,0 13.33583,0 0,5.78531 -13.33583,0 0,-5.78531 z m 15.31151,0 11.67446,0 0,5.78531 -11.67446,0 0,-5.78531 z m -29.0065497,7.77401 11.7193597,0 0,5.78531 -11.7193597,0 0,-5.78531 z m 13.6950397,0 13.33583,0 0,5.78531 -13.33583,0 0,-5.78531 z m 15.31151,0 11.67446,0 0,5.78531 -11.67446,0 0,-5.78531 z m -29.0065497,7.77401 11.7193597,0 0,6.82486 -11.7193597,0 0,-6.82486 z m 13.6950397,0 13.33583,0 0,6.82486 -13.33583,0 0,-6.82486 z m 15.31151,0 11.67446,0 0,6.82486 -11.67446,0 0,-6.82486 z"
   id="path3840" /></svg>