<?xml version="1.0" encoding="UTF-8" standalone="no"?>
<!-- Generator: Adobe Illustrator 15.0.0, SVG Export Plug-In . SVG Version: 6.00 Build 0)  -->

<svg
   xmlns:dc="http://purl.org/dc/elements/1.1/"
   xmlns:cc="http://creativecommons.org/ns#"
   xmlns:rdf="http://www.w3.org/1999/02/22-rdf-syntax-ns#"
   xmlns:svg="http://www.w3.org/2000/svg"
   xmlns="http://www.w3.org/2000/svg"
   xmlns:sodipodi="http://sodipodi.sourceforge.net/DTD/sodipodi-0.dtd"
   xmlns:inkscape="http://www.inkscape.org/namespaces/inkscape"
   version="1.1"
   id="Layer_1"
   x="0px"
   y="0px"
   width="48px"
   height="48px"
   viewBox="0 0 48 48"
   enable-background="new 0 0 48 48"
   xml:space="preserve"
   inkscape:version="0.48.2 r9819"
   sodipodi:docname="tabla_gtable.svg"><metadata
   id="metadata3803"><rdf:RDF><cc:Work
       rdf:about=""><dc:format>image/svg+xml</dc:format><dc:type
         rdf:resource="http://purl.org/dc/dcmitype/StillImage" /><dc:title></dc:title></cc:Work></rdf:RDF></metadata><defs
   id="defs3801" /><sodipodi:namedview
   pagecolor="#ffffff"
   bordercolor="#666666"
   borderopacity="1"
   objecttolerance="10"
   gridtolerance="10"
   guidetolerance="10"
   inkscape:pageopacity="0"
   inkscape:pageshadow="2"
   inkscape:window-width="1920"
   inkscape:window-height="1020"
   id="namedview3799"
   showgrid="false"
   inkscape:zoom="4.9166667"
   inkscape:cx="-16.590351"
   inkscape:cy="18.172184"
   inkscape:window-x="-4"
   inkscape:window-y="-4"
   inkscape:window-maximized="1"
   inkscape:current-layer="Layer_1" />

<path
   inkscape:connector-curvature="0"
   style="color:#000000;fill:#003366;fill-opacity:1;stroke:none;stroke-width:2.68430781;marker:none;visibility:visible;display:inline;overflow:visible;enable-background:accumulate"
   d="m 3.15572,10.10964 c -1.964234,0 -3.5625,0.366266 -3.5625,0.8125 l 0,35.0625 c 0,0.446235 1.598266,0.78125 3.5625,0.78125 l 29.78125,0 c 1.964235,0 3.5625,-0.335015 3.5625,-0.78125 l 0,-19.9375 -23.1875,0 c -1.191843,0 -2.296133,-0.304121 -3.28125,-0.8125 l -7.59375,0 0,-5.875 3.75,0 C 6.17737,19.206848 6.15572,19.046239 6.15572,18.89089 l 0,-8.78125 -3,0 z m -0.71875,16.65625 9,0 0,4.40625 -9,0 0,-4.40625 z m 10.5,0 10.25,0 0,4.40625 -10.25,0 0,-4.40625 z m 11.78125,0 8.96875,0 0,4.40625 -8.96875,0 0,-4.40625 z m -22.28125,5.9375 9,0 0,4.40625 -9,0 0,-4.40625 z m 10.5,0 10.25,0 0,4.40625 -10.25,0 0,-4.40625 z m 11.78125,0 8.96875,0 0,4.40625 -8.96875,0 0,-4.40625 z m -22.28125,5.9375 9,0 0,5.1875 -9,0 0,-5.1875 z m 10.5,0 10.25,0 0,5.1875 -10.25,0 0,-5.1875 z m 11.78125,0 8.96875,0 0,5.1875 -8.96875,0 0,-5.1875 z"
   id="path3840" /><path
   inkscape:connector-curvature="0"
   id="path3009"
   d="m 13.31197,1.6408896 c -3.9728099,0 -7.15625,3.1834393 -7.15625,7.1562503 l 0,10.0937501 c 0,3.972813 3.1834401,7.15625 7.15625,7.15625 l 27.09375,0 c 3.97281,0 7.1875,-3.183437 7.1875,-7.15625 l 0,-10.0937501 c 0,-3.972811 -3.21469,-7.1562503 -7.1875,-7.1562503 l -27.09375,0 z m 0.875,1.2812503 25.375,0 c 3.7235,0 6.71875,2.854638 6.71875,6.40625 l 0,9.0312501 c 0,3.551612 -2.99525,6.40625 -6.71875,6.40625 l -25.375,0 c -3.72351,0 -6.71875,-2.854638 -6.71875,-6.40625 l 0,-9.0312501 c 0,-3.551612 2.99524,-6.40625 6.71875,-6.40625 z"
   style="fill:#003366;fill-opacity:1;stroke:none;display:inline" /><g
   transform="scale(0.99395595,1.0060808)"
   style="font-size:16.57032776px;font-style:normal;font-variant:normal;font-weight:bold;font-stretch:normal;text-align:start;line-height:125%;letter-spacing:0px;word-spacing:0px;writing-mode:lr-tb;text-anchor:start;fill:#003366;fill-opacity:1;stroke:none;font-family:Sans;-inkscape-font-specification:Sans Bold"
   id="text3059"><g
     id="g3070"
     transform="translate(34.321841,46.106026)"><path
       id="path3064"
       style="line-height:125%;fill:#003366;font-family:Sans;-inkscape-font-specification:Sans Bold"
       d="m -18.279596,-30.780081 0,-1.998472 5.162046,0 0,4.725132 c -0.501653,0.48546 -1.228492,0.912933 -2.18052,1.282421 -0.952047,0.369488 -1.916221,0.554232 -2.892525,0.554232 -1.240623,0 -2.322116,-0.26026 -3.244483,-0.78078 -0.922375,-0.520518 -1.615501,-1.264888 -2.079382,-2.23311 -0.463884,-0.968217 -0.695825,-2.021392 -0.695824,-3.159528 -10e-7,-1.235216 0.25891,-2.332891 0.776734,-3.293029 0.51782,-0.96012 1.275675,-1.696398 2.273565,-2.208838 0.760548,-0.393749 1.707191,-0.590629 2.839934,-0.590641 1.472551,1.2e-5 2.622817,0.308817 3.450803,0.926417 0.827966,0.617622 1.360622,1.47122 1.597969,2.560795 l -2.378748,0.445004 c -0.167223,-0.582542 -0.481422,-1.042379 -0.942599,-1.379512 -0.461194,-0.337114 -1.037002,-0.505676 -1.727425,-0.505686 -1.046439,1e-5 -1.878461,0.33174 -2.496067,0.99519 -0.617615,0.663469 -0.926421,1.647871 -0.926417,2.953208 -4e-6,1.407835 0.312847,2.463707 0.938553,3.167619 0.625698,0.703917 1.445583,1.055875 2.459658,1.055873 0.501634,2e-6 1.004623,-0.09844 1.508968,-0.295321 0.504329,-0.196878 0.937196,-0.435562 1.298602,-0.716052 l 0,-1.504922 z"
       inkscape:connector-curvature="0" /><path
       id="path3066"
       style="line-height:125%;fill:#003366;font-family:Sans;-inkscape-font-specification:Sans Bold"
       d="m -11.523628,-30.27844 2.3302027,-0.226548 c 0.1402405,0.782132 0.4247731,1.356591 0.8535984,1.723379 0.4288177,0.366793 1.0073222,0.550189 1.7355153,0.550187 0.7713338,2e-6 1.3525353,-0.163166 1.7436062,-0.489504 0.3910564,-0.326334 0.5865883,-0.707958 0.5865961,-1.144874 -7.8e-6,-0.280484 -0.082266,-0.519167 -0.2467749,-0.716052 -0.164524,-0.196876 -0.4517535,-0.368135 -0.8616894,-0.513777 -0.2804938,-0.09709 -0.9196806,-0.269695 -1.9175623,-0.517823 -1.2837725,-0.31824 -2.1845674,-0.709303 -2.7023871,-1.173192 -0.72819,-0.652666 -1.092284,-1.448278 -1.092283,-2.386839 -10e-7,-0.604118 0.171258,-1.169137 0.513778,-1.695061 0.342516,-0.525902 0.8360651,-0.926406 1.4806489,-1.20151 0.6445778,-0.275082 1.4226596,-0.412628 2.3342479,-0.41264 1.4887335,1.2e-5 2.6093332,0.326348 3.3618023,0.979008 0.7524517,0.652683 1.1475608,1.523811 1.1853286,2.613387 l -2.3949302,0.105183 c -0.1024931,-0.609512 -0.3222979,-1.047773 -0.6594149,-1.314785 -0.3371307,-0.266992 -0.8428164,-0.400493 -1.5170588,-0.400503 -0.6958289,1e-5 -1.2406211,0.14295 -1.634378,0.428822 -0.2535208,0.183405 -0.3802794,0.428831 -0.3802761,0.736279 -3.3e-6,0.280496 0.1186643,0.520528 0.3560031,0.720097 0.3020593,0.253526 1.0356408,0.517831 2.2007467,0.792916 1.1650941,0.275101 2.0267827,0.559633 2.5850682,0.853599 0.5582687,0.293978 0.9951812,0.69583 1.3107388,1.205556 0.3155382,0.509736 0.4733122,1.139484 0.4733224,1.889244 -1.02e-5,0.679645 -0.1887996,1.316135 -0.5663686,1.909471 -0.3775884,0.59334 -0.9115926,1.034298 -1.6020141,1.322875 -0.6904377,0.288579 -1.5507778,0.432868 -2.5810228,0.432868 -1.4995323,0 -2.6511474,-0.346564 -3.4548484,-1.039691 -0.803705,-0.693126 -1.28377,-1.703149 -1.440195,-3.030072 z"
       inkscape:connector-curvature="0" /><path
       id="path3068"
       style="line-height:125%;fill:#003366;font-family:Sans;-inkscape-font-specification:Sans Bold"
       d="m 0.15974919,-26.419043 0,-11.861377 2.39493021,0 0,4.668496 4.6927686,0 0,-4.668496 2.3949302,0 0,11.861377 -2.3949302,0 0,-5.186318 -4.6927686,0 0,5.186318 z"
       inkscape:connector-curvature="0" /></g></g></svg>