<?xml version="1.0" encoding="UTF-8" standalone="no"?>
<!-- Generator: Adobe Illustrator 15.0.0, SVG Export Plug-In . SVG Version: 6.00 Build 0)  -->

<svg
   xmlns:dc="http://purl.org/dc/elements/1.1/"
   xmlns:cc="http://creativecommons.org/ns#"
   xmlns:rdf="http://www.w3.org/1999/02/22-rdf-syntax-ns#"
   xmlns:svg="http://www.w3.org/2000/svg"
   xmlns="http://www.w3.org/2000/svg"
   xmlns:sodipodi="http://sodipodi.sourceforge.net/DTD/sodipodi-0.dtd"
   xmlns:inkscape="http://www.inkscape.org/namespaces/inkscape"
   version="1.1"
   id="Layer_1"
   x="0px"
   y="0px"
   width="48px"
   height="48px"
   viewBox="0 0 48 48"
   enable-background="new 0 0 48 48"
   xml:space="preserve"
   inkscape:version="0.48.2 r9819"
   sodipodi:docname="thumb_up.svg"><metadata
   id="metadata3803"><rdf:RDF><cc:Work
       rdf:about=""><dc:format>image/svg+xml</dc:format><dc:type
         rdf:resource="http://purl.org/dc/dcmitype/StillImage" /><dc:title></dc:title></cc:Work></rdf:RDF></metadata><defs
   id="defs3801" /><sodipodi:namedview
   pagecolor="#ffffff"
   bordercolor="#666666"
   borderopacity="1"
   objecttolerance="10"
   gridtolerance="10"
   guidetolerance="10"
   inkscape:pageopacity="0"
   inkscape:pageshadow="2"
   inkscape:window-width="1021"
   inkscape:window-height="993"
   id="namedview3799"
   showgrid="false"
   inkscape:zoom="4.9166667"
   inkscape:cx="12.326974"
   inkscape:cy="24"
   inkscape:window-x="22"
   inkscape:window-y="-1"
   inkscape:window-maximized="0"
   inkscape:current-layer="Layer_1" />

<g
   style="display:inline"
   transform="matrix(0.80653711,0,0,-0.80653711,41.174402,-49.713597)"
   id="g3771"><path
     inkscape:connector-curvature="0"
     style="fill:#003366;fill-opacity:1;fill-rule:nonzero;stroke:none"
     d="m -44.542372,-98.033897 c 3.605695,0 6.508475,1.014752 6.508475,2.275229 l 0,28.805471 c 0,1.260477 -2.90278,2.27523 -6.508475,2.27523 -3.605695,0 -6.508474,-1.014753 -6.508474,-2.27523 l 0,-28.805471 c 0,-1.260477 2.902779,-2.275229 6.508474,-2.275229 z"
     id="rect2996-3" /><path
     style="fill:#003366;fill-opacity:1;stroke:none"
     d="m -35.954581,-72.663574 0,-22.291841 c 0,0 5.163005,-1.750495 9.90901,-9.085225 4.746005,-7.33474 3.466094,-14.21334 8.06828,-14.06952 4.602187,0.14381 5.598694,2.6483 5.742513,4.80557 0.143818,2.15728 0.585494,10.15153 -2.57851,15.472809 4.170732,3.451639 20.8024963,-5.215309 22.8671142,2.157274 1.4612955,5.218169 -1.156741,5.488533 -5.2493689,14.381833 -2.15727479,5.968461 -5.1773184,13.259064 -7.4066437,14.094196 -10.5224496,2.649906 -15.6989476,0.847998 -22.4356586,-1.438183 -5.687316,0.262269 -6.530641,-1.172856 -8.916736,-4.026913 z"
     id="path3769-8"
     inkscape:connector-curvature="0"
     sodipodi:nodetypes="ccssscscccc" /></g></svg>