<svg id="svg5237" xmlns="http://www.w3.org/2000/svg" viewBox="0 0 91.71 109.3"><defs><style>.cls-1{fill:#2bc1dc;}.cls-2{fill:#fff;}.cls-3{isolation:isolate;}</style></defs><title>A1</title><path class="cls-1" d="M10.3,0C3.7,0,0,3.4,0,10.4V82.1C0,88.6,3.3,92,9.9,92H25.6l8.7,7.5,11.6,9.8,11.6-9.8L66.2,92H81.8c6.6,0,9.9-3.2,9.9-9.9V10.4C91.7,3.6,88.4,0,81.6,0Z"/><polygon class="cls-2" points="45.75 73.4 48.35 78.4 53.95 79.1 50.05 83.2 51.15 88.7 46.05 86.2 41.15 89 41.85 83.4 37.75 79.5 43.35 78.5 45.75 73.4"/><g class="cls-3"><path class="cls-2" d="M69.2,60.11H59l-4.1-10.6H36.3l-3.8,10.6h-10l18.1-46.5h9.9ZM51.9,41.71l-6.4-17.3-6.3,17.3Z"/></g></svg>