<svg id="svg5237" xmlns="http://www.w3.org/2000/svg" viewBox="0 0 91.71 109.3"><defs><style>.cls-1{fill:#2bc1dc;}.cls-2{fill:#fff;}.cls-3{isolation:isolate;}</style></defs><title>A2</title><path class="cls-1" d="M10.3,0C3.7,0,0,3.4,0,10.4V82.1C0,88.6,3.3,92,9.9,92H25.6l8.7,7.5,11.6,9.8,11.6-9.8L66.2,92H81.8c6.6,0,9.9-3.2,9.9-9.9V10.4C91.7,3.6,88.4,0,81.6,0Z"/><polygon class="cls-2" points="37.85 74.4 40.45 79.4 46.15 80.1 42.15 84.2 43.25 89.7 38.15 87.3 33.25 90 34.05 84.4 29.85 80.5 35.45 79.5 37.85 74.4"/><polygon class="cls-2" points="54.05 74.4 56.65 79.4 62.25 80.1 58.35 84.2 59.45 89.7 54.35 87.3 49.45 90 50.15 84.4 46.05 80.5 51.65 79.5 54.05 74.4"/><g class="cls-3"><path class="cls-2" d="M69.2,60.11H59l-4.1-10.6H36.3l-3.8,10.6h-10l18.1-46.5h9.9ZM51.9,41.71l-6.4-17.3-6.3,17.3Z"/></g></svg>