<svg id="svg5237" xmlns="http://www.w3.org/2000/svg" viewBox="0 0 91.71 109.3"><defs><style>.cls-1{fill:#2bc1dc;}.cls-2{fill:#fff;}.cls-3{isolation:isolate;}</style></defs><title>A4</title><path class="cls-1" d="M10.3,0C3.7,0,0,3.4,0,10.4V82.1C0,88.6,3.3,92,9.9,92H25.6l8.7,7.5,11.6,9.8,11.6-9.8L66.2,92H81.8c6.6,0,9.9-3.2,9.9-9.9V10.4C91.7,3.6,88.4,0,81.6,0Z"/><polygon class="cls-2" points="21.76 71.4 24.36 76.4 29.96 77.1 26.06 81.1 27.16 86.7 22.06 84.2 17.16 87 17.86 81.4 13.76 77.5 19.36 76.5 21.76 71.4"/><polygon class="cls-2" points="37.86 71.4 40.56 76.4 46.16 77.1 42.26 81.1 43.36 86.7 38.26 84.2 33.26 87 34.06 81.4 29.96 77.5 35.46 76.5 37.86 71.4"/><polygon class="cls-2" points="53.96 71.4 56.66 76.4 62.26 77.1 58.36 81.1 59.46 86.7 54.36 84.2 49.36 87 50.16 81.4 46.06 77.5 51.56 76.5 53.96 71.4"/><polygon class="cls-2" points="70.06 71.4 72.76 76.4 78.36 77.1 74.46 81.1 75.56 86.7 70.46 84.2 65.46 87 66.26 81.4 62.16 77.5 67.66 76.5 70.06 71.4"/><g class="cls-3"><path class="cls-2" d="M69.2,60.11H59l-4.1-10.6H36.3l-3.8,10.6h-10l18.1-46.5h9.9ZM51.9,41.71l-6.4-17.3-6.3,17.3Z"/></g></svg>