<svg id="svg5237" xmlns="http://www.w3.org/2000/svg" viewBox="0 0 91.71 109.3"><defs><style>.cls-1{fill:#2bc1dc;}.cls-2{fill:#fff;}.cls-3{isolation:isolate;}</style></defs><title>A5</title><path class="cls-1" d="M10.3,0C3.7,0,0,3.4,0,10.4V82.1C0,88.6,3.3,92,9.9,92H25.6l8.7,7.5,11.6,9.8,11.6-9.8L66.2,92H81.8c6.6,0,9.9-3.2,9.9-9.9V10.4C91.7,3.6,88.4,0,81.6,0Z"/><polygon class="cls-2" points="13.62 70.9 16.32 75.9 21.92 76.6 18.02 80.6 19.02 86.2 14.02 83.7 9.02 86.5 9.82 80.9 5.72 77 11.22 76 13.62 70.9"/><polygon class="cls-2" points="29.82 70.9 32.52 75.9 38.12 76.6 34.22 80.6 35.22 86.2 30.12 83.7 25.22 86.5 26.02 80.9 21.82 77 27.42 76 29.82 70.9"/><polygon class="cls-2" points="45.92 70.9 48.62 75.9 54.22 76.6 50.32 80.6 51.32 86.2 46.22 83.7 41.32 86.5 42.12 80.9 37.92 77 43.52 76 45.92 70.9"/><polygon class="cls-2" points="62.02 70.9 64.62 75.9 70.32 76.6 66.32 80.6 67.42 86.2 62.32 83.7 57.42 86.5 58.22 80.9 54.02 77 59.62 76 62.02 70.9"/><polygon class="cls-2" points="77.82 70.9 80.52 75.9 86.12 76.6 82.22 80.6 83.22 86.2 78.22 83.7 73.22 86.5 74.02 80.9 69.92 77 75.42 76 77.82 70.9"/><g class="cls-3"><path class="cls-2" d="M69.2,60.11H59l-4.1-10.6H36.3l-3.8,10.6h-10l18.1-46.5h9.9ZM51.9,41.71l-6.4-17.3-6.3,17.3Z"/></g></svg>