<svg id="svg5237" xmlns="http://www.w3.org/2000/svg" viewBox="0 0 91.9 109.3"><defs><style>.cls-1{fill:#622046;}.cls-2{isolation:isolate;}.cls-3{fill:#fff;}</style></defs><title>CE</title><path class="cls-1" d="M10.4.2C3.8.2.1,3.6.1,10.6V82.3c0,6.5,3.3,9.9,9.9,9.9H25.7l8.7,7.5L46,109.5l11.6-9.8,8.7-7.5H81.9c6.6,0,9.9-3.2,9.9-9.9V10.6C92,3.8,88.6.2,81.8.2Z"/><g class="cls-2"><path class="cls-3" d="M43.1,51.8l9.1,2.9c-1.4,5.1-3.7,8.8-7,11.3s-7.4,3.7-12.4,3.7a20,20,0,0,1-15.2-6.3c-4-4.2-6-10-6-17.3q0-11.55,6-18c4-4.3,9.3-6.4,15.8-6.4,5.7,0,10.3,1.7,13.9,5a18.68,18.68,0,0,1,4.8,8.6l-9.3,2.2A9.54,9.54,0,0,0,33,29.7a10.65,10.65,0,0,0-8.4,3.7c-2.1,2.5-3.2,6.5-3.2,12,0,5.9,1.1,10.1,3.2,12.6a10.25,10.25,0,0,0,8.2,3.7,9.26,9.26,0,0,0,6.4-2.4Q41.9,56.9,43.1,51.8Z"/></g><g class="cls-2"><path class="cls-3" d="M58.7,68.9V38.1H81.5v5.2H64.9v6.8H80.4v5.2H64.9v8.4H82.1v5.2Z"/></g></svg>