<svg id="svg5237" xmlns="http://www.w3.org/2000/svg" viewBox="0 0 91.71 109.3"><defs><style>.cls-1{fill:#7db902;}.cls-2{isolation:isolate;}.cls-3{fill:#fff;}</style></defs><title>CR</title><path class="cls-1" d="M10.3.2C3.7.2,0,3.6,0,10.6V82.3c0,6.5,3.3,9.9,9.9,9.9H25.6l8.7,7.5,11.6,9.8,11.6-9.8,8.7-7.5H81.8c6.6,0,9.9-3.2,9.9-9.9V10.6C91.9,3.8,88.5.2,81.7.2Z"/><g class="cls-2"><path class="cls-3" d="M38.9,51.8,48,54.7c-1.4,5.1-3.7,8.8-7,11.3s-7.4,3.7-12.4,3.7a20,20,0,0,1-15.2-6.3c-4-4.2-6-10-6-17.3q0-11.55,6-18c4-4.3,9.3-6.4,15.8-6.4,5.7,0,10.3,1.7,13.9,5a18.68,18.68,0,0,1,4.8,8.6l-9.3,2.2a9.54,9.54,0,0,0-9.8-7.8,10.65,10.65,0,0,0-8.4,3.7c-2.1,2.5-3.2,6.5-3.2,12,0,5.9,1.1,10.1,3.2,12.6a10.25,10.25,0,0,0,8.2,3.7A9.26,9.26,0,0,0,35,59.3Q37.7,56.9,38.9,51.8Z"/></g><g class="cls-2"><path class="cls-3" d="M54.5,68.9V38.1H67.6a24.47,24.47,0,0,1,7.2.8,7,7,0,0,1,3.6,3,8.76,8.76,0,0,1,1.3,4.9,8.42,8.42,0,0,1-2,5.7,9.45,9.45,0,0,1-6.1,2.8,12.67,12.67,0,0,1,3.3,2.6,26.69,26.69,0,0,1,3.5,5l3.8,6H74.8l-4.5-6.7A37.25,37.25,0,0,0,67,57.7a5.86,5.86,0,0,0-1.9-1.3,11.86,11.86,0,0,0-3.1-.3H60.7V68.9Zm6.2-17.8h4.6a21.2,21.2,0,0,0,5.6-.4,3.71,3.71,0,0,0,1.7-1.3,4.14,4.14,0,0,0,.6-2.3,3.94,3.94,0,0,0-.8-2.5,4.25,4.25,0,0,0-2.3-1.2,41.62,41.62,0,0,0-4.5-.1H60.7Z"/></g></svg>