<svg id="svg5237" xmlns="http://www.w3.org/2000/svg" viewBox="0 0 91.71 109.3"><defs><style>.cls-1{fill:#1a75ce;}.cls-2{fill:#fff;}.cls-3{isolation:isolate;}</style></defs><title>H1</title><path class="cls-1" d="M10.3,0C3.7,0,0,3.4,0,10.4V82.1C0,88.6,3.3,92,9.9,92H25.6l8.7,7.5,11.6,9.8,11.6-9.8L66.2,92H81.8c6.6,0,9.9-3.2,9.9-9.9V10.4C91.7,3.6,88.4,0,81.6,0Z"/><polygon class="cls-2" points="45.75 73.4 48.35 78.4 53.95 79.1 50.05 83.2 51.15 88.7 46.05 86.3 41.15 89 41.85 83.4 37.75 79.5 43.35 78.5 45.75 73.4"/><g class="cls-3"><path class="cls-2" d="M27.25,59.07V12.57h9.4v18.3h18.4V12.57h9.4v46.5h-9.4V38.77H36.65v20.3Z"/></g></svg>