<svg id="svg5237" xmlns="http://www.w3.org/2000/svg" viewBox="0 0 91.71 109.3"><defs><style>.cls-1{fill:#1a75ce;}.cls-2{fill:#fff;}.cls-3{isolation:isolate;}</style></defs><title>H2</title><path class="cls-1" d="M10.3,0C3.7,0,0,3.4,0,10.4V82.1C0,88.6,3.3,92,9.9,92H25.6l8.7,7.5,11.6,9.8,11.6-9.8L66.2,92H81.8c6.6,0,9.9-3.2,9.9-9.9V10.4C91.7,3.6,88.4,0,81.6,0Z"/><polygon class="cls-2" points="37.7 74.4 40.3 79.4 46 80.1 42 84.2 43.1 89.7 38 87.3 33.1 90 33.9 84.4 29.7 80.5 35.3 79.6 37.7 74.4"/><polygon class="cls-2" points="53.9 74.4 56.5 79.4 62.1 80.1 58.2 84.2 59.3 89.7 54.2 87.3 49.3 90 50 84.4 45.9 80.5 51.5 79.6 53.9 74.4"/><g class="cls-3"><path class="cls-2" d="M27.25,59.07V12.57h9.4v18.3h18.4V12.57h9.4v46.5h-9.4V38.77H36.65v20.3Z"/></g></svg>