<svg id="svg5237" xmlns="http://www.w3.org/2000/svg" viewBox="0 0 91.71 109.3"><defs><style>.cls-1{fill:#1a75ce;}.cls-2{fill:#fff;}.cls-3{isolation:isolate;}</style></defs><title>H3</title><path class="cls-1" d="M10.3,0C3.7,0,0,3.4,0,10.4V82.1C0,88.6,3.3,92,9.9,92H25.6l8.7,7.5,11.6,9.8,11.6-9.8L66.2,92H81.8c6.6,0,9.9-3.2,9.9-9.9V10.4C91.7,3.6,88.4,0,81.6,0Z"/><polygon class="cls-2" points="29.82 72.4 32.52 77.4 38.12 78.1 34.22 82.2 35.32 87.7 30.22 85.2 25.22 88 26.02 82.4 21.92 78.5 27.42 77.5 29.82 72.4"/><polygon class="cls-2" points="46.02 72.4 48.72 77.4 54.32 78.1 50.42 82.2 51.52 87.7 46.42 85.2 41.42 88 42.22 82.4 38.12 78.5 43.62 77.5 46.02 72.4"/><polygon class="cls-2" points="62.12 72.4 64.82 77.4 70.42 78.1 66.52 82.2 67.52 87.7 62.52 85.2 57.52 88 58.32 82.4 54.22 78.5 59.72 77.5 62.12 72.4"/><g class="cls-3"><path class="cls-2" d="M27.25,59.07V12.57h9.4v18.3h18.4V12.57h9.4v46.5h-9.4V38.77H36.65v20.3Z"/></g></svg>