<svg id="svg5237" xmlns="http://www.w3.org/2000/svg" viewBox="0 0 91.71 109.3"><defs><style>.cls-1{fill:#1a75ce;}.cls-2{fill:#fff;}.cls-3{isolation:isolate;}</style></defs><title>H4</title><path class="cls-1" d="M10.3,0C3.7,0,0,3.4,0,10.4V82.1C0,88.6,3.3,92,9.9,92H25.6l8.7,7.5,11.6,9.8,11.6-9.8L66.2,92H81.8c6.6,0,9.9-3.2,9.9-9.9V10.4C91.7,3.6,88.4,0,81.6,0Z"/><polygon class="cls-2" points="21.6 71.4 24.2 76.4 29.8 77.1 25.9 81.1 27 86.7 21.9 84.2 17 87 17.7 81.4 13.6 77.5 19.2 76.5 21.6 71.4"/><polygon class="cls-2" points="37.7 71.4 40.4 76.4 46 77.1 42.1 81.1 43.2 86.7 38.1 84.2 33.1 87 33.9 81.4 29.8 77.5 35.3 76.5 37.7 71.4"/><polygon class="cls-2" points="53.8 71.4 56.5 76.4 62.1 77.1 58.2 81.1 59.3 86.7 54.2 84.2 49.2 87 50 81.4 45.9 77.5 51.4 76.5 53.8 71.4"/><polygon class="cls-2" points="69.9 71.4 72.6 76.4 78.2 77.1 74.3 81.1 75.4 86.7 70.3 84.2 65.3 87 66.1 81.4 62 77.5 67.5 76.5 69.9 71.4"/><g class="cls-3"><path class="cls-2" d="M27.25,59.07V12.57h9.4v18.3h18.4V12.57h9.4v46.5h-9.4V38.77H36.65v20.3Z"/></g></svg>