<svg id="svg5237" xmlns="http://www.w3.org/2000/svg" viewBox="0 0 91.71 109.3"><defs><style>.cls-1{fill:#1a75ce;}.cls-2{isolation:isolate;}.cls-3{fill:#fff;}</style></defs><title>H4GL</title><path class="cls-1" d="M10.3,0C3.7,0,0,3.4,0,10.4V82.1C0,88.6,3.3,92,9.9,92H25.6l8.7,7.5,11.6,9.8,11.6-9.8L66.2,92H81.8c6.6,0,9.9-3.2,9.9-9.9V10.4C91.7,3.6,88.4,0,81.6,0Z"/><g class="cls-2"><path class="cls-3" d="M27.25,59.07V12.57h9.4v18.3h18.4V12.57h9.4v46.5h-9.4V38.77H36.65v20.3Z"/></g><polygon class="cls-3" points="39.74 70.58 42.41 75.56 48.01 76.25 44.1 80.33 45.17 85.87 40.09 83.41 35.15 86.15 35.92 80.55 31.79 76.7 37.35 75.7 39.74 70.58 39.74 70.58"/><path class="cls-3" d="M55.74,72a11.93,11.93,0,0,1,2.35.23,9.75,9.75,0,0,1,2.12.69v2.54a9.2,9.2,0,0,0-2.05-.87,7.07,7.07,0,0,0-2-.29,3.86,3.86,0,0,0-2.92,1.06,4.17,4.17,0,0,0-1,3,4.29,4.29,0,0,0,1,3A3.65,3.65,0,0,0,56,82.44a6.42,6.42,0,0,0,.91-.06,3.94,3.94,0,0,0,.77-.19V79.8H55.72V77.68h4.94v5.91a11.4,11.4,0,0,1-2.46.86,12,12,0,0,1-2.63.29A6.77,6.77,0,0,1,50.7,83a6.18,6.18,0,0,1-1.79-4.66,6.09,6.09,0,0,1,1.83-4.68A7.06,7.06,0,0,1,55.74,72Z"/><polygon class="cls-3" points="63.44 72.21 66.61 72.21 66.61 82.1 72.17 82.1 72.17 84.5 63.44 84.5 63.44 72.21"/><path class="cls-3" d="M24.45,72.21H28V80h1.75v2.29H28V84.5H25V82.26H19.53V79.55ZM25,74.82,21.51,80H25Z"/></svg>