<svg id="svg5237" xmlns="http://www.w3.org/2000/svg" viewBox="0 0 91.71 109.3"><defs><style>.cls-1{fill:#1a75ce;}.cls-2{fill:#fff;}.cls-3{isolation:isolate;}</style></defs><title>H5</title><path class="cls-1" d="M10.3,0C3.7,0,0,3.4,0,10.4V82.1C0,88.6,3.3,92,9.9,92H25.6l8.7,7.5,11.6,9.8,11.6-9.8L66.2,92H81.8c6.6,0,9.9-3.2,9.9-9.9V10.4C91.7,3.6,88.4,0,81.6,0Z"/><polygon class="cls-2" points="13.94 70.9 16.64 75.9 22.24 76.6 18.34 80.6 19.34 86.2 14.34 83.7 9.34 86.5 10.14 80.9 6.04 77 11.54 76 13.94 70.9"/><polygon class="cls-2" points="30.14 70.9 32.84 75.9 38.44 76.6 34.54 80.6 35.54 86.2 30.44 83.7 25.54 86.5 26.34 80.9 22.14 77 27.74 76 30.14 70.9"/><polygon class="cls-2" points="46.24 70.9 48.94 75.9 54.54 76.6 50.64 80.6 51.64 86.2 46.54 83.7 41.64 86.5 42.44 80.9 38.24 77 43.84 76 46.24 70.9"/><polygon class="cls-2" points="62.34 70.9 64.94 75.9 70.64 76.6 66.64 80.6 67.74 86.2 62.64 83.7 57.74 86.5 58.54 80.9 54.34 77 59.94 76 62.34 70.9"/><polygon class="cls-2" points="78.14 70.9 80.84 75.9 86.44 76.6 82.54 80.6 83.54 86.2 78.54 83.7 73.54 86.5 74.34 80.9 70.24 77 75.74 76 78.14 70.9"/><g class="cls-3"><path class="cls-2" d="M27.25,59.07V12.57h9.4v18.3h18.4V12.57h9.4v46.5h-9.4V38.77H36.65v20.3Z"/></g></svg>