<svg id="svg5237" xmlns="http://www.w3.org/2000/svg" viewBox="0 0 91.71 109.3"><defs><style>.cls-1{fill:#1a75ce;}.cls-2{isolation:isolate;}.cls-3{fill:#fff;}</style></defs><title>H5GL</title><path class="cls-1" d="M10.3,0C3.7,0,0,3.4,0,10.4V82.1C0,88.6,3.3,92,9.9,92H25.6l8.7,7.5,11.6,9.8,11.6-9.8L66.2,92H81.8c6.6,0,9.9-3.2,9.9-9.9V10.4C91.7,3.6,88.4,0,81.6,0Z"/><g class="cls-2"><path class="cls-3" d="M27.25,64.34V17.84h9.4v18.3h18.4V17.84h9.4v46.5h-9.4V44H36.65v20.3Z"/></g><polygon class="cls-3" points="39.47 70.92 42.14 75.9 47.74 76.59 43.83 80.66 44.9 86.21 39.82 83.75 34.88 86.48 35.65 80.89 31.52 77.03 37.08 76.03 39.47 70.92 39.47 70.92"/><path class="cls-3" d="M55.47,72.33a11.22,11.22,0,0,1,2.35.23,9.73,9.73,0,0,1,2.12.68v2.54a9.2,9.2,0,0,0-2-.87,7.49,7.49,0,0,0-2-.29,3.9,3.9,0,0,0-2.92,1.06,4.14,4.14,0,0,0-1,3,4.26,4.26,0,0,0,1,3,3.69,3.69,0,0,0,2.81,1.06,6.42,6.42,0,0,0,.91-.06,3.92,3.92,0,0,0,.77-.2V80.14H55.45V78h4.94v5.91a10.89,10.89,0,0,1-2.46.86,11.46,11.46,0,0,1-2.63.29,6.77,6.77,0,0,1-4.87-1.71,6.18,6.18,0,0,1-1.79-4.66A6.06,6.06,0,0,1,50.47,74,7,7,0,0,1,55.47,72.33Z"/><path class="cls-3" d="M20.29,72.55h7.88v2.33H22.82v1.9a4.61,4.61,0,0,1,.72-.15,4.81,4.81,0,0,1,.77-.06A5,5,0,0,1,27.8,77.7a4,4,0,0,1,1.25,3.13A3.84,3.84,0,0,1,27.69,84a5.78,5.78,0,0,1-3.78,1.12,11,11,0,0,1-2.07-.2,11.29,11.29,0,0,1-2-.61V81.77a10.34,10.34,0,0,0,1.9.86,5.78,5.78,0,0,0,1.71.29,2.72,2.72,0,0,0,1.81-.56,1.93,1.93,0,0,0,.67-1.53,1.9,1.9,0,0,0-.67-1.53,2.67,2.67,0,0,0-1.81-.56,6.47,6.47,0,0,0-1.46.18,9.37,9.37,0,0,0-1.66.54V72.55Z"/><polygon class="cls-3" points="63.17 72.55 66.34 72.55 66.34 82.44 71.9 82.44 71.9 84.84 63.17 84.84 63.17 72.55"/></svg>