<svg id="svg5237" xmlns="http://www.w3.org/2000/svg" viewBox="0 0 91.71 109.3"><defs><style>.cls-1{fill:#a3a598;}.cls-2{isolation:isolate;}.cls-3{fill:#fff;}</style></defs><title>H_urbano</title><path class="cls-1" d="M10.3,0C3.7,0,0,3.4,0,10.4V82.1C0,88.6,3.3,92,9.9,92H25.6l8.7,7.5,11.6,9.8,11.6-9.8L66.2,92H81.8c6.6,0,9.9-3.2,9.9-9.9V10.4C91.9,3.6,88.5,0,81.7,0Z"/><g class="cls-2"><path class="cls-3" d="M27.2,69.3V22.8h9.4V41.1H55V22.8h9.4V69.3H55V49H36.6V69.3Z"/></g><g class="cls-2"><path class="cls-3" d="M28.38,69.3V22.8h9.4V41.1h18.4V22.8h9.4V69.3h-9.4V49H37.78V69.3Z"/></g></svg>