<svg id="svg5237" xmlns="http://www.w3.org/2000/svg" viewBox="0 0 91.71 109.3"><defs><style>.cls-1{fill:#612146;}.cls-2{isolation:isolate;}.cls-3{fill:#fff;}</style></defs><title>HE</title><path class="cls-1" d="M10.3,0C3.7,0,0,3.4,0,10.4V82.1C0,88.6,3.3,92,9.9,92H25.6l8.7,7.5,11.6,9.8,11.6-9.8L66.2,92H81.8c6.6,0,9.9-3.2,9.9-9.9V10.4C91.9,3.6,88.5,0,81.7,0Z"/><g class="cls-2"><path class="cls-3" d="M13.24,68.71V22.22h9.39v18.3H41V22.22h9.39V68.71H41V48.38H22.63V68.71Z"/></g><g class="cls-2"><path class="cls-3" d="M58.54,68.71V37.93H81.37v5.21H64.76V50H80.21v5.19H64.76v8.37H82v5.19Z"/></g></svg>