<svg id="svg5237" xmlns="http://www.w3.org/2000/svg" viewBox="0 0 91.71 109.3"><defs><style>.cls-1{fill:#7db901;}.cls-2{isolation:isolate;}.cls-3{fill:#fff;}</style></defs><title>HR</title><path class="cls-1" d="M10.3,0C3.7,0,0,3.4,0,10.4V82.1C0,88.6,3.3,92,9.9,92H25.6l8.7,7.5,11.6,9.8,11.6-9.8L66.2,92H81.8c6.6,0,9.9-3.2,9.9-9.9V10.4C91.9,3.6,88.5,0,81.7,0Z"/><g class="cls-2"><path class="cls-3" d="M10.69,68.7V22.2h9.4V40.5h18.4V22.2h9.4V68.7h-9.4V48.4H20.09V68.7Z"/></g><g class="cls-2"><path class="cls-3" d="M56.09,68.7V37.9h13.1a24.47,24.47,0,0,1,7.2.8,7,7,0,0,1,3.6,3,8.76,8.76,0,0,1,1.3,4.9,8.42,8.42,0,0,1-2,5.7,9.45,9.45,0,0,1-6.1,2.8,12.67,12.67,0,0,1,3.3,2.6,26.69,26.69,0,0,1,3.5,5l3.8,6h-7.4L71.89,62a37.25,37.25,0,0,0-3.3-4.5,5.86,5.86,0,0,0-1.9-1.3,11.86,11.86,0,0,0-3.1-.3h-1.3V68.7ZM62.29,51h4.6a21.2,21.2,0,0,0,5.6-.4,3.71,3.71,0,0,0,1.7-1.3,4.14,4.14,0,0,0,.6-2.3,3.94,3.94,0,0,0-.8-2.5,4.25,4.25,0,0,0-2.3-1.2,41.62,41.62,0,0,0-4.5-.1h-4.9Z"/></g></svg>