<svg id="svg5237" xmlns="http://www.w3.org/2000/svg" viewBox="0 0 91.71 109.3"><defs><style>.cls-1{fill:#ec5354;}.cls-2{isolation:isolate;}.cls-3{fill:#fff;}</style></defs><title>VV</title><path class="cls-1" d="M10.3,0C3.7,0,0,3.4,0,10.4V82.1C0,88.6,3.3,92,9.9,92H25.6l8.7,7.5,11.6,9.8,11.6-9.8L66.2,92H81.8c6.6,0,9.9-3.2,9.9-9.9V10.4C91.9,3.6,88.5,0,81.7,0Z"/><g class="cls-2"><path class="cls-3" d="M25,68.7,8.4,22.2H18.6L30.4,56.6,41.8,22.2h10L35.1,68.7Z"/></g><g class="cls-2"><path class="cls-3" d="M66.4,68.7l-11-30.8h6.7l7.8,22.8,7.5-22.8H84L73,68.7Z"/></g></svg>