<?xml version="1.0" encoding="UTF-8" standalone="no"?>
<!-- Created with Inkscape (http://www.inkscape.org/) -->

<svg
   xmlns:dc="http://purl.org/dc/elements/1.1/"
   xmlns:cc="http://creativecommons.org/ns#"
   xmlns:rdf="http://www.w3.org/1999/02/22-rdf-syntax-ns#"
   xmlns:svg="http://www.w3.org/2000/svg"
   xmlns="http://www.w3.org/2000/svg"
   xmlns:sodipodi="http://sodipodi.sourceforge.net/DTD/sodipodi-0.dtd"
   xmlns:inkscape="http://www.inkscape.org/namespaces/inkscape"
   width="32"
   height="39"
   viewBox="0 0 32 39.000001"
   id="svg8605"
   version="1.1"
   inkscape:version="0.91 r13725"
   sodipodi:docname="CaptacionesAgua.svg"
   inkscape:export-filename="C:\Users\jhernandez\Documents\imagenCorp\iconos\cartografia\varios\CaptacionesAgua.png"
   inkscape:export-xdpi="286.42999"
   inkscape:export-ydpi="286.42999">
  <defs
     id="defs8607" />
  <sodipodi:namedview
     id="base"
     pagecolor="#ffffff"
     bordercolor="#666666"
     borderopacity="1.0"
     inkscape:pageopacity="0.0"
     inkscape:pageshadow="2"
     inkscape:zoom="15.839192"
     inkscape:cx="-9.6168567"
     inkscape:cy="25.840686"
     inkscape:document-units="px"
     inkscape:current-layer="layer1"
     showgrid="false"
     units="px"
     inkscape:window-width="1920"
     inkscape:window-height="1018"
     inkscape:window-x="1912"
     inkscape:window-y="-8"
     inkscape:window-maximized="1" />
  <metadata
     id="metadata8610">
    <rdf:RDF>
      <cc:Work
         rdf:about="">
        <dc:format>image/svg+xml</dc:format>
        <dc:type
           rdf:resource="http://purl.org/dc/dcmitype/StillImage" />
        <dc:title />
      </cc:Work>
    </rdf:RDF>
  </metadata>
  <g
     inkscape:label="Capa 1"
     inkscape:groupmode="layer"
     id="layer1"
     transform="translate(0,-1013.3622)">
    <g
       id="g9395"
       transform="translate(-3.8242439,5.0593722)">
      <path
         inkscape:export-ydpi="89.889763"
         inkscape:export-xdpi="89.889763"
         inkscape:export-filename="C:\Documents and Settings\jhernandez\Mis documentos\imagenCorp\iconos\cartografia\ICONOS_GRAFCAN.png"
         style="display:inline;fill:#00338c;fill-opacity:1;stroke:none;stroke-width:3.40799999"
         d="m 7.4093937,1008.7636 c -2.2946,0 -3.5849,1.1861 -3.5849,3.61 l 0,24.9873 c 0,2.2673 1.1599,3.4545 3.4523,3.4545 l 5.4462003,0 3.0606,2.6344 4.0406,3.3967 4.0413,-3.3967 3.0598,-2.6344 5.4442,0 c 2.293,0 3.4545,-1.1277 3.4545,-3.4545 l 0,-24.9873 c 0,-2.3649 -1.1612,-3.61 -3.5258,-3.61 -2e-4,0 -24.8967003,-0.01 -24.8888003,0 z"
         id="path7761"
         inkscape:connector-curvature="0" />
      <path
         inkscape:export-ydpi="89.889763"
         inkscape:export-xdpi="89.889763"
         inkscape:export-filename="C:\Documents and Settings\jhernandez\Mis documentos\imagenCorp\iconos\cartografia\ICONOS_GRAFCAN.png"
         inkscape:connector-curvature="0"
         id="path7007"
         d="m 16.279494,1014.6333 c 0,0 -3.9654,3.3019 -4.5116,4.2481 -0.5463,0.9461 -0.298,2.1131 0.5546,2.6053 0.8526,0.4923 1.9869,0.124 2.5332,-0.8222 0.5463,-0.9462 1.4238,-6.0312 1.4238,-6.0312 z m 10.2557,0.9219 c 0,0 -2.4822,2.0678 -2.8242,2.6602 -0.3421,0.5924 -0.1862,1.3225 0.3476,1.6307 0.5339,0.3082 1.244,0.079 1.586,-0.5136 0.342,-0.5923 0.8906,-3.7773 0.8906,-3.7773 z m -5.3417,3.3203 c 0,0 -2.7929,2.3276 -3.1777,2.9941 -0.3847,0.6664 -0.2099,1.4872 0.3906,1.8339 0.6006,0.3467 1.4003,0.087 1.7851,-0.58 0.3848,-0.6664 1.002,-4.248 1.002,-4.248 z m -14.4978003,1.6171 0,13.324 0,1.0547 1.0546,0 24.1481003,0 1.0547,0 0,-1.0547 0,-13.324 -1.0469,0 0,6.9355 -0.012,0 0,0.6406 c -0.3817,-0.094 -0.7334,-0.4997 -1.3692,-0.4707 -0.6625,0.023 -1.5998,0.6172 -2.5038,0.6172 -0.9169,-0.019 -1.9452,-0.6426 -2.8808,-0.6426 -0.9325,0.01 -1.781,0.6523 -2.6757,0.6719 -0.9104,0 -1.8174,-0.604 -2.709,-0.6172 -0.9042,-0.023 -1.7609,0.5378 -2.6054,0.5312 -0.8319,-0.016 -1.5708,-0.6122 -2.3965,-0.5859 -0.8477,0.033 -1.7766,0.6871 -2.6053,0.7265 -0.8351,0.013 -1.5924,-0.6086 -2.3301003,-0.6152 -0.7391,-0.013 -1.5669,0.4496 -2.0703,0.5586 l 0,-0.8144 0,-6.9355 -1.0527,0 z m 21.8141003,0.2891 c 0,0 -2.7929,2.3258 -3.1777,2.9922 -0.3847,0.6664 -0.2099,1.4891 0.3906,1.8358 0.6006,0.3467 1.4004,0.086 1.7852,-0.5801 0.3848,-0.6664 1.0019,-4.2479 1.0019,-4.2479 z m -13.7537,8.5272 c 0.8257,-0.026 1.5645,0.5716 2.3965,0.5879 0.8445,0.01 1.7012,-0.5542 2.6054,-0.5312 0.8916,0.013 1.7984,0.6205 2.7089,0.6171 0.8946,-0.019 1.7432,-0.6674 2.6757,-0.6738 0.9356,0 1.964,0.6231 2.8809,0.6426 0.9039,0 1.8414,-0.5921 2.5038,-0.6152 0.6358,-0.023 0.9874,0.3749 1.3691,0.4726 l 0,1.2616 c -0.3817,-0.094 -0.7333,-0.4997 -1.3691,-0.4707 -0.6626,0.023 -1.5999,0.6172 -2.5038,0.6172 -0.9169,-0.02 -1.9453,-0.6426 -2.8809,-0.6426 -0.9325,0.01 -1.781,0.6524 -2.6757,0.6719 -0.9105,0 -1.8173,-0.6039 -2.7089,-0.6172 -0.9042,-0.023 -1.761,0.5379 -2.6054,0.5313 -0.832,-0.016 -1.5708,-0.6123 -2.3965,-0.586 -0.8478,0.033 -1.7767,0.6891 -2.6054,0.7286 -0.8351,0.013 -1.5922,-0.6107 -2.3300003,-0.6172 -0.739,-0.013 -1.567,0.4495 -2.0704,0.5586 l 0,-1.2656 c 0.5033,-0.1092 1.3313,-0.5715 2.0704,-0.5586 0.7378003,0.01 1.4949003,0.6303 2.3300003,0.6172 0.8288,-0.039 1.7577,-0.6958 2.6054,-0.7285 z m 0,3.0019 c 0.8257,-0.026 1.5645,0.5715 2.3965,0.5879 0.8445,0.01 1.7012,-0.5543 2.6054,-0.5313 0.8916,0.013 1.7984,0.6185 2.7089,0.6152 0.8946,-0.019 1.7432,-0.6654 2.6757,-0.6718 0.9356,0 1.964,0.623 2.8809,0.6425 0.9039,0 1.8414,-0.5922 2.5038,-0.6152 0.6358,-0.023 0.9874,0.3751 1.3691,0.4727 l 0,1.0058 -24.1461003,0 0,-0.8359 c 0.5033,-0.1092 1.3313,-0.5715 2.0704,-0.5586 0.7378003,0.01 1.4949003,0.6302 2.3300003,0.6172 0.8288,-0.04 1.7577,-0.6957 2.6054,-0.7285 z"
         style="display:inline;fill:#ffffff;stroke:none" />
    </g>
  </g>
</svg>
