<?xml version="1.0" encoding="UTF-8" standalone="no"?>
<!-- Created with Inkscape (http://www.inkscape.org/) -->

<svg
   xmlns:dc="http://purl.org/dc/elements/1.1/"
   xmlns:cc="http://creativecommons.org/ns#"
   xmlns:rdf="http://www.w3.org/1999/02/22-rdf-syntax-ns#"
   xmlns:svg="http://www.w3.org/2000/svg"
   xmlns="http://www.w3.org/2000/svg"
   xmlns:sodipodi="http://sodipodi.sourceforge.net/DTD/sodipodi-0.dtd"
   xmlns:inkscape="http://www.inkscape.org/namespaces/inkscape"
   width="32"
   height="39"
   viewBox="0 0 32 39.000001"
   id="svg8605"
   version="1.1"
   inkscape:version="0.91 r13725"
   sodipodi:docname="CasaConsistorial.svg"
   inkscape:export-filename="C:\Users\jhernandez\Documents\imagenCorp\iconos\cartografia\varios\CasaConsistorial.png"
   inkscape:export-xdpi="286.42999"
   inkscape:export-ydpi="286.42999">
  <defs
     id="defs8607" />
  <sodipodi:namedview
     id="base"
     pagecolor="#ffffff"
     bordercolor="#666666"
     borderopacity="1.0"
     inkscape:pageopacity="0.0"
     inkscape:pageshadow="2"
     inkscape:zoom="15.839192"
     inkscape:cx="-9.6168567"
     inkscape:cy="25.840686"
     inkscape:document-units="px"
     inkscape:current-layer="layer1"
     showgrid="false"
     units="px"
     inkscape:window-width="1920"
     inkscape:window-height="1018"
     inkscape:window-x="1912"
     inkscape:window-y="-8"
     inkscape:window-maximized="1" />
  <metadata
     id="metadata8610">
    <rdf:RDF>
      <cc:Work
         rdf:about="">
        <dc:format>image/svg+xml</dc:format>
        <dc:type
           rdf:resource="http://purl.org/dc/dcmitype/StillImage" />
        <dc:title />
      </cc:Work>
    </rdf:RDF>
  </metadata>
  <g
     inkscape:label="Capa 1"
     inkscape:groupmode="layer"
     id="layer1"
     transform="translate(0,-1013.3622)">
    <g
       id="g9193"
       transform="translate(-25.731927,12.256672)">
      <path
         inkscape:export-ydpi="89.889763"
         inkscape:export-xdpi="89.889763"
         inkscape:export-filename="C:\Documents and Settings\jhernandez\Mis documentos\imagenCorp\iconos\cartografia\ICONOS_GRAFCAN.png"
         style="display:inline;fill:#e4a51c;fill-opacity:1;stroke:none;stroke-width:3.40799999"
         d="m 29.336777,1001.6002 c -2.2908,0 -3.5787,1.1846 -3.5787,3.6047 l 0,24.9465 c 0,2.2637 1.1582,3.449 3.4469,3.449 l 5.4449,0 3.0414,2.6181 4.0407,3.3968 4.0413,-3.3968 3.0407,-2.6181 5.4429,0 c 2.2893,0 3.4489,-1.126 3.4489,-3.449 l 0,-24.9465 c 0,-2.3611 -1.1595,-3.6047 -3.5202,-3.6047 -3e-4,0 -24.8567,-0.01 -24.8488,0 z"
         id="path7635"
         inkscape:connector-curvature="0" />
      <path
         inkscape:export-ydpi="89.889763"
         inkscape:export-xdpi="89.889763"
         inkscape:export-filename="C:\Documents and Settings\jhernandez\Mis documentos\imagenCorp\iconos\cartografia\ICONOS_GRAFCAN.png"
         inkscape:connector-curvature="0"
         id="path6881"
         d="m 46.603977,1004.1863 c -0.5479,-0.015 -1.4918,0.7656 -2.291,0.7656 -0.7339,0 -1.0006,-0.2643 -1.9043,-0.6211 -0.01,-0.074 -0.081,-0.1328 -0.1718,-0.1328 l -0.6133,0 c -0.097,0 -0.1778,0.067 -0.1778,0.1484 l 0,4.2793 -9.5818,6.1971 2.3691,0 0,10.0097 2.8632,0 0,-9.0507 c 0,-0.036 0.03,-0.066 0.064,-0.066 l 3.164,0 c 0.036,0 0.064,0.03 0.064,0.066 l 0,9.0507 2.6797,0 0,-9.0507 c 0,-0.036 0.029,-0.066 0.064,-0.066 l 3.1639,0 c 0.036,0 0.064,0.03 0.064,0.066 l 0,9.0507 2.8711,0 0,-10.0097 2.367,0 -9.1892,-6.4354 0,-1.8046 c 0.4426,0.1493 1.3334,0.416 2.0664,0.416 1.0122,0 1.6579,-0.2011 2.0976,-0.291 -0.1038,-0.392 -0.2803,-0.4668 -0.2715,-1.1329 0.01,-0.6661 0.2587,-0.796 0.3008,-1.3886 z m -13.7322,21.2809 c -0.03,0 -0.055,0.024 -0.055,0.055 l 0,0.6796 c 0,0.03 0.024,0.055 0.055,0.055 l 17.7204,0 c 0.03,0 0.057,-0.024 0.057,-0.055 l 0,-0.6796 c 0,-0.03 -0.026,-0.055 -0.057,-0.055 l -17.7204,0 z m -1.1425,1.2734 c -0.03,0 -0.055,0.024 -0.055,0.055 l 0,0.6797 c 0,0.03 0.024,0.057 0.055,0.057 l 20.0054,0 c 0.03,0 0.055,-0.026 0.055,-0.057 l 0,-0.6797 c 0,-0.03 -0.024,-0.055 -0.055,-0.055 l -20.0054,0 z m -0.7247,1.2734 c -0.03,0 -0.055,0.024 -0.055,0.055 l 0,0.6816 c 0,0.03 0.024,0.055 0.055,0.055 l 21.4547,0 c 0.03,0 0.055,-0.024 0.055,-0.055 l 0,-0.6816 c 0,-0.03 -0.024,-0.055 -0.055,-0.055 l -21.4547,0 z"
         style="display:inline;fill:#ffffff;fill-opacity:1;stroke:none;stroke-opacity:1" />
    </g>
  </g>
</svg>
