<?xml version="1.0" encoding="UTF-8" standalone="no"?>
<!-- Created with Inkscape (http://www.inkscape.org/) -->

<svg
   xmlns:dc="http://purl.org/dc/elements/1.1/"
   xmlns:cc="http://creativecommons.org/ns#"
   xmlns:rdf="http://www.w3.org/1999/02/22-rdf-syntax-ns#"
   xmlns:svg="http://www.w3.org/2000/svg"
   xmlns="http://www.w3.org/2000/svg"
   xmlns:sodipodi="http://sodipodi.sourceforge.net/DTD/sodipodi-0.dtd"
   xmlns:inkscape="http://www.inkscape.org/namespaces/inkscape"
   width="32"
   height="39"
   viewBox="0 0 32 39.000001"
   id="svg8605"
   version="1.1"
   inkscape:version="0.91 r13725"
   sodipodi:docname="Cementerio.svg"
   inkscape:export-filename="C:\Users\jhernandez\Documents\imagenCorp\iconos\cartografia\varios\cementerio.png"
   inkscape:export-xdpi="286.42999"
   inkscape:export-ydpi="286.42999">
  <defs
     id="defs8607" />
  <sodipodi:namedview
     id="base"
     pagecolor="#ffffff"
     bordercolor="#666666"
     borderopacity="1.0"
     inkscape:pageopacity="0.0"
     inkscape:pageshadow="2"
     inkscape:zoom="15.839192"
     inkscape:cx="-9.6168567"
     inkscape:cy="25.840686"
     inkscape:document-units="px"
     inkscape:current-layer="layer1"
     showgrid="false"
     units="px"
     inkscape:window-width="1920"
     inkscape:window-height="1018"
     inkscape:window-x="1912"
     inkscape:window-y="-8"
     inkscape:window-maximized="1" />
  <metadata
     id="metadata8610">
    <rdf:RDF>
      <cc:Work
         rdf:about="">
        <dc:format>image/svg+xml</dc:format>
        <dc:type
           rdf:resource="http://purl.org/dc/dcmitype/StillImage" />
        <dc:title />
      </cc:Work>
    </rdf:RDF>
  </metadata>
  <g
     inkscape:label="Capa 1"
     inkscape:groupmode="layer"
     id="layer1"
     transform="translate(0,-1013.3622)">
    <g
       id="g9307"
       transform="translate(-12.536809,-1.8223778)">
      <path
         inkscape:export-ydpi="89.889763"
         inkscape:export-xdpi="89.889763"
         inkscape:export-filename="C:\Documents and Settings\jhernandez\Mis documentos\imagenCorp\iconos\cartografia\ICONOS_GRAFCAN.png"
         style="display:inline;fill:#1a1a1a;fill-opacity:1;stroke:none;stroke-width:3.40799999"
         d="m 16.141659,1015.6793 c -2.2908,0 -3.5787,1.1845 -3.5787,3.6046 l 0,24.9465 c 0,2.2637 1.1582,3.449 3.4469,3.449 l 5.4449,0 3.0414,2.6181 4.0407,3.3968 4.0413,-3.3968 3.0407,-2.6181 5.4429,0 c 2.2893,0 3.4489,-1.126 3.4489,-3.449 l 0,-24.9465 c 0,-2.3611 -1.1595,-3.6046 -3.5202,-3.6046 -3e-4,0 -24.8567,-0.01 -24.8488,0 z"
         id="path7713"
         inkscape:connector-curvature="0" />
      <path
         inkscape:export-ydpi="89.889763"
         inkscape:export-xdpi="89.889763"
         inkscape:export-filename="C:\Documents and Settings\jhernandez\Mis documentos\imagenCorp\iconos\cartografia\ICONOS_GRAFCAN.png"
         inkscape:connector-curvature="0"
         id="rect6959"
         d="m 27.434259,1018.8724 c -0.2064,0 -0.373,0.1647 -0.373,0.3711 l 0,3.502 -3.3261,0 c -0.1333,0 -0.2402,0.1068 -0.2402,0.2401 l 0,2.4707 c 0,0.1333 0.1069,0.2402 0.2402,0.2402 l 3.3261,0 0,8.4198 c 0,0.2064 0.1666,0.373 0.373,0.373 l 2.2051,0 c 0.2065,0 0.3731,-0.1666 0.3731,-0.373 l 0,-8.4198 3.326,0 c 0.1333,0 0.2403,-0.1069 0.2403,-0.2402 l 0,-2.4707 c 0,-0.1333 -0.107,-0.2401 -0.2403,-0.2401 l -3.326,0 0,-3.502 c 0,-0.2064 -0.1666,-0.3711 -0.3731,-0.3711 l -2.2051,0 z m -9.0388,9.2226 c -0.2065,0 -0.3731,0.1646 -0.3731,0.371 l 0,3.5019 -3.3241,0 c -0.1333,0 -0.2422,0.107 -0.2422,0.2403 l 0,2.4706 c 0,0.1333 0.1089,0.2402 0.2422,0.2402 l 3.3241,0 0,8.4198 c 0,0.2065 0.1666,0.3731 0.3731,0.3731 l 2.207,0 c 0.2065,0 0.371,-0.1666 0.371,-0.3731 l 0,-8.4198 3.3262,0 c 0.1333,0 0.2402,-0.1069 0.2402,-0.2402 l 0,-2.4706 c 0,-0.1333 -0.1069,-0.2403 -0.2402,-0.2403 l -3.3262,0 0,-3.5019 c 0,-0.2064 -0.1645,-0.371 -0.371,-0.371 l -2.207,0 z m 18.0778,0 c -0.2065,0 -0.373,0.1646 -0.373,0.371 l 0,3.5019 -3.3262,0 c -0.1333,0 -0.2402,0.107 -0.2402,0.2403 l 0,2.4706 c 0,0.1333 0.1069,0.2402 0.2402,0.2402 l 3.3262,0 0,8.4198 c 0,0.2065 0.1665,0.3731 0.373,0.3731 l 2.205,0 c 0.2064,0 0.373,-0.1666 0.373,-0.3731 l 0,-8.4198 3.3262,0 c 0.1333,0 0.2402,-0.1069 0.2402,-0.2402 l 0,-2.4706 c 0,-0.1333 -0.1069,-0.2403 -0.2402,-0.2403 l -3.3262,0 0,-3.5019 c 0,-0.2064 -0.1666,-0.371 -0.373,-0.371 l -2.205,0 z"
         style="display:inline;fill:#ffffff;fill-opacity:1;stroke:none" />
    </g>
  </g>
</svg>
