<?xml version="1.0" encoding="UTF-8" standalone="no"?>
<!-- Created with Inkscape (http://www.inkscape.org/) -->

<svg
   xmlns:dc="http://purl.org/dc/elements/1.1/"
   xmlns:cc="http://creativecommons.org/ns#"
   xmlns:rdf="http://www.w3.org/1999/02/22-rdf-syntax-ns#"
   xmlns:svg="http://www.w3.org/2000/svg"
   xmlns="http://www.w3.org/2000/svg"
   xmlns:sodipodi="http://sodipodi.sourceforge.net/DTD/sodipodi-0.dtd"
   xmlns:inkscape="http://www.inkscape.org/namespaces/inkscape"
   width="32"
   height="39"
   viewBox="0 0 32 39.000001"
   id="svg8605"
   version="1.1"
   inkscape:version="0.91 r13725"
   sodipodi:docname="C.CulturalesEsparcimiento.svg"
   inkscape:export-filename="C:\Users\jhernandez\Documents\imagenCorp\iconos\cartografia\varios\C.CulturalesEsparcimiento.png"
   inkscape:export-xdpi="286.42999"
   inkscape:export-ydpi="286.42999">
  <defs
     id="defs8607" />
  <sodipodi:namedview
     id="base"
     pagecolor="#ffffff"
     bordercolor="#666666"
     borderopacity="1.0"
     inkscape:pageopacity="0.0"
     inkscape:pageshadow="2"
     inkscape:zoom="5.6"
     inkscape:cx="-60.358124"
     inkscape:cy="16.937904"
     inkscape:document-units="px"
     inkscape:current-layer="layer1"
     showgrid="false"
     units="px"
     inkscape:window-width="1920"
     inkscape:window-height="1018"
     inkscape:window-x="1912"
     inkscape:window-y="-8"
     inkscape:window-maximized="1" />
  <metadata
     id="metadata8610">
    <rdf:RDF>
      <cc:Work
         rdf:about="">
        <dc:format>image/svg+xml</dc:format>
        <dc:type
           rdf:resource="http://purl.org/dc/dcmitype/StillImage" />
        <dc:title />
      </cc:Work>
    </rdf:RDF>
  </metadata>
  <g
     inkscape:label="Capa 1"
     inkscape:groupmode="layer"
     id="layer1"
     transform="translate(0,-1013.3622)">
    <g
       id="g4144"
       transform="translate(17.428571,-39.857178)">
      <path
         inkscape:export-ydpi="89.889763"
         inkscape:export-xdpi="89.889763"
         inkscape:export-filename="C:\Documents and Settings\jhernandez\Mis documentos\imagenCorp\iconos\cartografia\ICONOS_GRAFCAN.png"
         inkscape:connector-curvature="0"
         id="path7817"
         d="m -13.845071,1053.6489 c -2.2946,0 -3.5835,1.1871 -3.5835,3.611 l 0,24.9863 c 0,2.2672 1.1593,3.4538 3.4518,3.4538 l 5.3732996,0 3.1101,2.6778 4.0647,3.4165 4.0648,-3.4165 3.1082,-2.6778 5.3713004,0 c 2.293,0 3.4558,-1.1271 3.4558,-3.4538 l 0,-24.9863 c 0,-2.3649 -1.1618,-3.611 -3.5265,-3.611 -2e-4,0 -24.898,-0.01 -24.89,0 z"
         style="display:inline;fill:#960055;fill-opacity:1;stroke:none;stroke-width:0.18807188" />
      <path
         inkscape:connector-curvature="0"
         d="m -0.20097142,1057.9492 c 0,0 0.024,0 0.033,0 0,0 0,0 0.024,0 l -0.047,0 z m 0.033,0 c -0.5011,0 -0.92619998,0.2389 -1.22709998,0.6807 l -0.053,0.076 -0.024,0.089 c -0.1352,0.4721 -0.2811,0.9503 -0.421,1.4148 -0.037,0.1216 -0.075,0.2407 -0.1115,0.3629 -0.2761,-0.2638 -0.6198,-0.3986 -1.0121,-0.3986 -0.7886,0 -1.5371,0.5827 -1.9254,0.9447 -1.5938,1.2239 -2.7519,2.1086 -5.4630996,2.839 l -0.022,0 c -0.2178,0.067 -0.539,0.098 -0.9494,0.098 -0.6676,0 -1.5007,-0.083 -2.3866,-0.1742 -0.5798,-0.06 -1.1807,-0.1192 -1.7819,-0.1605 -0.075,0 -0.1463,-0.027 -0.2156,-0.027 -0.3528,0 -0.653,0.1468 -0.8419,0.4031 -0.449,0.6109 -0.1261,1.6479 0.188,2.6507 0.1005,0.3219 0.1972,0.6234 0.2329,0.824 l 0,0.037 0,0.037 c 1.1296,3.5385 2.5514,7.5944 5.1271,10.9215 l 0.027,0.032 c 1.7789996,1.9797 3.8571996,3.0671 5.8522996,3.0673 0.024,0 0.042,3e-4 0.062,0 l 0.042,0 c 1.9038,-0.1581 3.5751,-1.5938 4.13289998,-3.524 0.7614,0.7345 1.7439,1.211 2.79440002,1.2985 l 0.042,0 c 0.024,5e-4 0.044,0 0.066,0 1.9942,0 4.0684,-1.0915 5.8477,-3.0719 l 0.033,-0.032 c 2.5782004,-3.331 3.9983004,-7.3812 5.1270004,-10.9171 l 0,-0.037 0,-0.037 c 0.037,-0.2018 0.1335,-0.5067 0.2329,-0.8284 0.3136,-1.003 0.6375,-2.04 0.1881,-2.651 -0.1881,-0.257 -0.4888,-0.3984 -0.8416,-0.3984 -0.07,0 -0.1426,-7e-4 -0.2156,0.023 -0.6029,0.043 -1.2014,0.1054 -1.7821,0.165 -0.8850004,0.092 -1.7247004,0.1788 -2.3912004,0.1788 -0.4095,0 -0.7241,-0.037 -0.9406,-0.1031 l -0.024,0 c -2.7107,-0.7302 -3.8729,-1.6147 -5.4674,-2.839 -0.3843,-0.3581 -1.12230002,-0.9294 -1.89860002,-0.9448 z m -2.82559998,3.354 -0.024,0.023 c 0.073,0 0.1609,-5e-4 0.2554,0.1215 0.09,0.3109 0.1792,0.6149 0.2552,0.8687 -0.024,0.048 -0.029,0.092 -0.042,0.1399 0,0.043 -0.022,0.089 -0.033,0.1307 -0.1335,0.5037 -0.2386,0.9503 -0.3269,1.379 l 0,0.048 c -0.2583,2.2725 -0.3477,4.3134 -0.2644,6.1884 0.082,1.8735 0.3357,3.5785 0.7659,5.1852 0.024,0.067 0.035,0.1353 0.053,0.2018 0.024,0.053 0.033,0.1055 0.047,0.1605 0.029,0.1216 0.064,0.24 0.1024,0.3583 0,0.023 0.027,0.043 0.027,0.066 0,0.027 0.024,0.057 0.033,0.085 0.022,0.046 0.035,0.099 0.053,0.1423 0.088,0.2178 0.1903,0.4257 0.3046,0.6268 -0.024,0.092 -0.051,0.1903 -0.08,0.3001 -0.027,0.1077 -0.06,0.2132 -0.093,0.3179 l 0,0.037 c -0.374,1.5288 -1.6969,2.7256 -3.1525,2.8569 l -0.033,0 c -2.2378,-2e-4 -4.0844,-1.6663 -4.9926996,-2.6732 -2.4459,-3.1673 -3.8201,-7.0868 -4.9168,-10.5184 -0.053,-0.2621 -0.1536,-0.5874 -0.2598,-0.927 -0.128,-0.4113 -0.3815,-1.2201 -0.3623,-1.5583 l 0.042,0 c 0.5909,0.041 1.1861,0.1055 1.7642,0.1651 0.9154,0.094 1.7823,0.1788 2.5077,0.1788 0.525,0 0.94,-0.048 1.2671,-0.1422 2.9366996,-0.7926 4.2357996,-1.7917 5.8794996,-3.0538 l 0.024,-0.023 0.024,-0.023 c 0.4212,-0.3976 0.8811,-0.6578 1.1689,-0.6583 z m 6.3539,3.4614 c 0.1836,0.032 0.2797,0.2155 0.3137,0.2999 0.075,0.1903 0.088,0.4697 -0.071,0.6224 l -0.022,0.023 c -0.6484,0.6988 -1.5212,1.1149 -2.3329,1.1149 -0.181,0 -0.35760002,-0.023 -0.52830002,-0.062 -0.218,-0.087 -0.4083,-0.3221 -0.4746,-0.5866 -0.029,-0.117 -0.053,-0.3357 0.084,-0.5104 0.468,-0.3879 1.10760002,-0.4996 1.78660002,-0.6181 0.4104,-0.071 0.8338,-0.1422 1.2446,-0.282 z m 3.6898,0.8194 c 0,-2e-4 0.024,0 0.027,0 0.6306,0 1.1161,0.674 1.2046,1.2985 l 0,0.071 0.027,0.067 c 0.048,0.117 0.1024,0.2362 0.1554,0.3494 0.245,0.5326 0.3826,0.8742 0.2419,1.1732 -0.073,0.1605 -0.3108,0.1742 -0.3806,0.1742 -0.093,0 -0.1904,-0.023 -0.2734,-0.05 l -0.036,-0.028 -0.042,0 c -0.8325,-0.1926 -1.4769,-1.0537 -1.4956,-2.0061 l 0,-0.041 0,-0.041 c -0.042,-0.2705 0.024,-0.5809 0.1646,-0.7747 0.08,-0.11 0.1773,-0.1696 0.2956,-0.1879 l 0.027,0 0.071,0 0,0 z m -12.0633,0.8105 c -0.3724,2e-4 -0.7578,0.1627 -1.0611,0.3626 -0.7387,0.4285 -0.7352,1.5162 -0.2597,2.1405 0.106,0.1902 0.3042,0.337 0.5283,0.3313 0.5569,-0.048 0.8772,-0.5916 1.0073,-1.0792 0.2156,-0.4826 0.6914,-0.9959 0.4209,-1.5537 -0.1925,-0.1421 -0.4121,-0.2018 -0.6357,-0.2018 z m -6.6674996,1.5537 c -0.5321,0.05 -1.0479,0.4709 -0.9672,1.039 0.4817,0.666 1.2994,0.9106 1.9793,1.3119 0.1737,0.067 0.3437,0.1535 0.5238,0.2063 0.6788996,0.2944 1.2235996,-0.6064 0.9090996,-1.1777 -0.4737,-0.6351 -1.1816996,-1.0643 -1.9299996,-1.2986 -0.159,-0.073 -0.3375,-0.096 -0.515,-0.08 z m 14.9159996,3.6494 0,0.023 c 0.9155,0.023 1.8621,0.5503 2.5386,1.4329 0.1535,0.2834 0.1791,0.6814 0.062,0.9987 -0.057,0.1581 -0.1791,0.3616 -0.412,0.4567 l -0.031,0 c -0.1499,0 -0.3465,-0.1514 -0.5552,-0.3136 -0.1573,-0.1216 -0.3203,-0.2477 -0.5105,-0.3492 -0.5139,-0.3228 -1.1331,-0.4925 -1.791,-0.4925 -0.4488,0 -0.917,0.076 -1.3569,0.2293 -0.06,0.023 -0.1243,0.032 -0.18810002,0.032 -0.024,0 -0.2331,0 -0.2684,-0.1077 l -0.024,-0.037 c -0.1554,-0.3671 0.117,-0.8389 0.46580002,-1.0521 l 0.024,-0.023 0.027,-0.023 c 0.6325,-0.4877 1.3457,-0.7621 2.0108,-0.7658 z m -7.1648,1.1374 c -0.4901,0.1055 -0.5753,0.9615 -0.9314,1.3031 -0.6282,1.0764 -1.8318,1.9229 -3.1209,1.7599 -0.5528,-0.05 -1.2279,-0.5844 -1.7016,-0.057 0.4278,0.801 1.2781,1.3315 2.1673,1.4553 0.7314,0.149 1.4307,-0.188 2.1358,-0.318 0.5514,-0.142 0.8677,-0.63 1.1865,-1.0569 0.4046,-0.4803 0.7119,-1.0445 0.7925,-1.6745 0.1243,-0.4723 0.2179,-1.1234 -0.2909,-1.4061 -0.09,-0.023 -0.1682,-0.023 -0.2373,0 l 0,0 z"
         style="display:inline;fill:#ffffff"
         id="path5074" />
    </g>
  </g>
</svg>
