<?xml version="1.0" encoding="UTF-8" standalone="no"?>
<!-- Created with Inkscape (http://www.inkscape.org/) -->

<svg
   xmlns:dc="http://purl.org/dc/elements/1.1/"
   xmlns:cc="http://creativecommons.org/ns#"
   xmlns:rdf="http://www.w3.org/1999/02/22-rdf-syntax-ns#"
   xmlns:svg="http://www.w3.org/2000/svg"
   xmlns="http://www.w3.org/2000/svg"
   xmlns:sodipodi="http://sodipodi.sourceforge.net/DTD/sodipodi-0.dtd"
   xmlns:inkscape="http://www.inkscape.org/namespaces/inkscape"
   width="32"
   height="39"
   viewBox="0 0 32 39.000001"
   id="svg8605"
   version="1.1"
   inkscape:version="0.91 r13725"
   sodipodi:docname="C.Enseñanza.svg"
   inkscape:export-filename="C:\Users\jhernandez\Documents\imagenCorp\iconos\cartografia\varios\C.Enseñanza.png"
   inkscape:export-xdpi="286.42999"
   inkscape:export-ydpi="286.42999">
  <defs
     id="defs8607" />
  <sodipodi:namedview
     id="base"
     pagecolor="#ffffff"
     bordercolor="#666666"
     borderopacity="1.0"
     inkscape:pageopacity="0.0"
     inkscape:pageshadow="2"
     inkscape:zoom="15.839192"
     inkscape:cx="-9.6168567"
     inkscape:cy="25.840686"
     inkscape:document-units="px"
     inkscape:current-layer="layer1"
     showgrid="false"
     units="px"
     inkscape:window-width="1920"
     inkscape:window-height="1018"
     inkscape:window-x="1912"
     inkscape:window-y="-8"
     inkscape:window-maximized="1" />
  <metadata
     id="metadata8610">
    <rdf:RDF>
      <cc:Work
         rdf:about="">
        <dc:format>image/svg+xml</dc:format>
        <dc:type
           rdf:resource="http://purl.org/dc/dcmitype/StillImage" />
        <dc:title />
      </cc:Work>
    </rdf:RDF>
  </metadata>
  <g
     inkscape:label="Capa 1"
     inkscape:groupmode="layer"
     id="layer1"
     transform="translate(0,-1013.3622)">
    <g
       id="g9476"
       transform="translate(-5.150069,1.5869222)">
      <path
         inkscape:export-ydpi="89.889763"
         inkscape:export-xdpi="89.889763"
         inkscape:export-filename="C:\Documents and Settings\jhernandez\Mis documentos\imagenCorp\iconos\cartografia\ICONOS_GRAFCAN.png"
         style="display:inline;fill:#960055;fill-opacity:1;stroke:none;stroke-width:3.40799999"
         d="m 8.754919,1012.27 c -2.2908,0 -3.5787,1.1845 -3.5787,3.6046 l 0,24.9465 c 0,2.2637 1.1582,3.4491 3.4469,3.4491 l 5.4455,0 3.0408,2.6181 4.0407,3.3967 4.0413,-3.3967 3.0401,-2.6181 5.4435,0 c 2.2893,0 3.4489,-1.1261 3.4489,-3.4491 l 0,-24.9465 c 0,-2.3611 -1.1595,-3.6046 -3.5202,-3.6046 -3e-4,0 -24.8567,-0.01 -24.8488,0 z"
         id="path7661"
         inkscape:connector-curvature="0" />
      <path
         inkscape:export-ydpi="89.889763"
         inkscape:export-xdpi="89.889763"
         inkscape:export-filename="C:\Documents and Settings\jhernandez\Mis documentos\imagenCorp\iconos\cartografia\ICONOS_GRAFCAN.png"
         inkscape:connector-curvature="0"
         id="path6907"
         d="m 13.626719,1018.3938 c -1.086,10e-5 -1.9667,0.8807 -1.9667,1.9668 10e-5,1.0861 0.8808,1.9668 1.9667,1.9668 1.0862,10e-5 1.9667,-0.8806 1.9668,-1.9668 10e-5,-1.0862 -0.8805,-1.9669 -1.9668,-1.9668 z m 15.2127,1.9121 c -0.9654,0 -1.748,0.7826 -1.748,1.748 0,0.9654 0.7826,1.748 1.748,1.748 0.5106,-7e-4 0.9967,-0.2249 1.3281,-0.6132 0.1622,0.1442 0.3654,0.2551 0.5527,0.3768 l -0.5488,0.4317 1.2167,0.7422 0.051,-0.7071 0.6309,0.4102 c 0.1716,0.1115 0.4182,0.082 0.5117,-0.1094 0.093,-0.1922 0.046,-0.4229 -0.1,-0.5234 l -0.627,-0.4063 0.5,-0.3143 -1.3535,-0.9375 -0.01,0.6894 c -0.1543,-0.1007 -0.3159,-0.2231 -0.4825,-0.2754 0.051,-0.1656 0.078,-0.3383 0.078,-0.5117 0,-0.9654 -0.7826,-1.748 -1.748,-1.748 z m -12.6736,1.748 c -0.4006,0.037 -0.7602,0.2382 -1.1328,0.6055 l 0,0 c -1.3308,1.7212 -2.1822,3.3068 -3.5214,5.1562 -0.2056,0.2839 -0.1863,0.6464 0.043,0.8125 l 0.5,0.3612 c 0.2295,0.1661 0.5795,0.073 0.7852,-0.2108 l 1.8221,-2.5176 1.8946,2.4492 -1.502,2.6445 0.6836,0.3886 c 0.109,2.0942 0.2238,4.0472 0.3613,6.1523 0.026,0.4032 0.3693,0.8663 0.8164,0.8711 0.4471,0 0.8983,-0.4334 0.8731,-1.0059 l -0.3574,-5.0565 0.1328,0.076 1.084,-1.9101 0.8006,1.1308 0.6387,-0.4531 c 0.3413,0.3811 0.6881,0.8218 0.9395,1.2168 0.153,0.2384 0.4693,0.3055 0.7109,0.1504 l 3.5116,-2.2383 c 0.4631,-0.4323 0.3927,-0.8471 0.1817,-1.1758 -0.2109,-0.3286 -0.8955,-0.3892 -1.1347,-0.2304 l -2.5586,1.6992 -0.3105,-0.3711 0.375,-0.2676 -1.7676,-2.496 -1.2792,-3.2129 2.8925,1.0606 c 0.3291,0.1206 0.672,5e-4 0.7695,-0.2617 l 0.2109,-0.5782 c 0.097,-0.266 -0.089,-0.5785 -0.4178,-0.6992 l -4.6621,-1.7089 c -0.537,-0.2924 -0.9801,-0.4198 -1.3807,-0.3828 z m 12.783,2.4277 0,0 c -0.8635,-0.01 -1.5615,0.3584 -2.334,0.916 l -1.2383,0.914 -1.201,-1.0566 c -0.1537,-0.1352 -0.3882,-0.1201 -0.5235,0.033 l -0.3398,0.3887 c -0.1352,0.1537 -0.1221,0.3863 0.031,0.5215 l 1.6405,1.4414 c 0.1849,0.1115 0.4164,0.1875 0.6329,0.057 l 1.2949,-0.9551 0.5566,2.5274 -0.8398,2.205 0.416,-0.01 c -0.062,0.791 -0.4376,1.6721 -0.5,2.4141 -0.016,1.3052 0.1339,2.6776 0.2187,4.0018 0.1521,0.5306 0.4564,0.621 0.8516,0.5957 0.3952,-0.025 0.6711,-0.3363 0.6484,-0.6914 -0.093,-1.2752 -0.1477,-2.5607 -0.248,-3.8319 l 0.5781,-2.5235 0.793,-0.02 c 0.4107,0.6068 0.6744,1.363 1.1171,1.9336 0.1492,0.233 0.4366,0.3502 0.7168,0.2695 l 3.6484,-1.0508 c 0.4857,-0.2626 0.4885,-0.6233 0.3789,-1.0039 -0.1096,-0.3806 -0.4529,-0.5379 -0.7949,-0.4394 l -3.0117,0.8672 -0.3496,-0.6153 0.3437,-0.01 c -0.4872,-0.63 -0.5886,-1.7471 -1.1582,-2.2656 l 0.6895,-2.5039 0.5058,0.1211 0.8848,1.5938 c 0.099,0.179 0.325,0.2419 0.5039,0.1426 l 0.4512,-0.25 c 0.1789,-0.099 0.2439,-0.3249 0.1445,-0.5039 l -0.9688,-1.7422 c -0.042,-0.1572 -0.1689,-0.3244 -0.2832,-0.3575 l -0.9042,-0.2148 c -0.5271,-0.6763 -2.0729,-0.8919 -2.3515,-0.9023 z m -19.8669,3.4336 -2.328,3.4999 4.6971,3.1268 2.33,-3.4979 -4.6991,-3.1288 z m 25.4234,0.5722 -2.75,0.7109 -0.043,2.0546 3.8339,-0.9707 -1.041,-1.7948 z"
         style="display:inline;fill:#ffffff;fill-opacity:1;stroke:none" />
    </g>
  </g>
</svg>
