<?xml version="1.0" encoding="UTF-8" standalone="no"?>
<!-- Created with Inkscape (http://www.inkscape.org/) -->

<svg
   xmlns:dc="http://purl.org/dc/elements/1.1/"
   xmlns:cc="http://creativecommons.org/ns#"
   xmlns:rdf="http://www.w3.org/1999/02/22-rdf-syntax-ns#"
   xmlns:svg="http://www.w3.org/2000/svg"
   xmlns="http://www.w3.org/2000/svg"
   xmlns:sodipodi="http://sodipodi.sourceforge.net/DTD/sodipodi-0.dtd"
   xmlns:inkscape="http://www.inkscape.org/namespaces/inkscape"
   width="32"
   height="39"
   viewBox="0 0 32 39.000001"
   id="svg8605"
   version="1.1"
   inkscape:version="0.91 r13725"
   sodipodi:docname="CentroAsistencial.svg"
   inkscape:export-filename="C:\Users\jhernandez\Documents\imagenCorp\iconos\cartografia\varios\CentroAsistencial.png"
   inkscape:export-xdpi="286.42999"
   inkscape:export-ydpi="286.42999">
  <defs
     id="defs8607" />
  <sodipodi:namedview
     id="base"
     pagecolor="#ffffff"
     bordercolor="#666666"
     borderopacity="1.0"
     inkscape:pageopacity="0.0"
     inkscape:pageshadow="2"
     inkscape:zoom="15.839192"
     inkscape:cx="-22.05436"
     inkscape:cy="25.777551"
     inkscape:document-units="px"
     inkscape:current-layer="layer1"
     showgrid="false"
     units="px"
     inkscape:window-width="1920"
     inkscape:window-height="1018"
     inkscape:window-x="1912"
     inkscape:window-y="-8"
     inkscape:window-maximized="1" />
  <metadata
     id="metadata8610">
    <rdf:RDF>
      <cc:Work
         rdf:about="">
        <dc:format>image/svg+xml</dc:format>
        <dc:type
           rdf:resource="http://purl.org/dc/dcmitype/StillImage" />
        <dc:title />
      </cc:Work>
    </rdf:RDF>
  </metadata>
  <g
     inkscape:label="Capa 1"
     inkscape:groupmode="layer"
     id="layer1"
     transform="translate(0,-1013.3622)">
    <g
       id="g4146"
       transform="matrix(1.0016371,0,0,1,-4.9949798,2.4707722)">
      <path
         inkscape:export-ydpi="200"
         inkscape:export-xdpi="200"
         inkscape:export-filename="C:\Documents and Settings\jhernandez\Mis documentos\imagenCorp\iconos\cartografia\centro_asis2.png"
         style="display:inline;fill:#940500;fill-opacity:1;stroke:none;stroke-width:3.40799999"
         d="m 8.5655152,1011.3861 c -2.2908,0 -3.5787,1.1846 -3.5787,3.6047 l 0,24.9465 c 0,2.2637 1.1582,3.449 3.4469,3.449 l 5.4448998,0 3.0414,2.6181 4.0407,3.3968 4.0413,-3.3968 3.0407,-2.6181 5.4429,0 c 2.2893,0 3.4489,-1.126 3.4489,-3.449 l 0,-24.9465 c 0,-2.3611 -1.1595,-3.6047 -3.5202,-3.6047 -3e-4,0 -24.8566998,-0.01 -24.8487998,0 z"
         id="path7689"
         inkscape:connector-curvature="0" />
      <path
         inkscape:export-ydpi="200"
         inkscape:export-xdpi="200"
         inkscape:export-filename="C:\Documents and Settings\jhernandez\Mis documentos\imagenCorp\iconos\cartografia\centro_asis2.png"
         sodipodi:nodetypes="ccccccccccccccsscccsssscsccccczcccccsc"
         inkscape:connector-curvature="0"
         id="path5027"
         d="m 17.284715,1014.4326 c -1.3924,0 -2.521,1.1287 -2.521,2.521 0,1.0862 0.6975,2.0497 1.7287,2.3911 l 0.4687,0.7221 0.7771,1.1732 0.5441,-1.1744 0.4846,-1.0764 c 0.6516,-0.4737 1.0376,-1.2301 1.0388,-2.0356 0,-1.3923 -1.1287,-2.521 -2.521,-2.521 z m -3.4254,4.2795 c -0.6512,-0.018 -1.2893,0.3136 -1.6391,0.9195 l -3.5947998,6.2262 c -0.2688,0.6487 -0.757,2.0379 -0.5308,2.6493 l 0.4457,3.8149 c -0.6055,2.2285 -1.1303,4.0305 -1.7294,6.2665 -0.2103,0.7849 -0.011,1.5862 0.7778,1.7966 0.7849,0.2103 1.586,-0.2523 1.7963,-1.0372 0.5362,-2.7033 1.9138998,-5.6115 1.9022998,-8.2289 l 1.7179,1.4585 -1.6107,6.011 c -0.2104,0.7849 -0.011,1.5862 0.7779,1.7966 0.7849,0.2103 1.5859,-0.2523 1.7963,-1.0372 l 1.7795,-6.6412 c 0.049,-0.1838 0.06,-0.3684 0.041,-0.5462 0.1428,-0.5409 0,-1.1397 -0.4226,-1.5654 l -2.1822,-2.1822 2.5174,-4.36 0.3667,0.6353 c 0.2378,0.5917 0.719,1.0729 1.2537,1.2296 l 2.5602,1.478 c 0.3178,0.2027 1.0833,0.3664 1.3987,-0.2534 0.3154,-0.6198 -0.017,-1.159 -0.5651,-1.496 l -2.7665,-1.6425 -1.1152,-1.9318 c 0.3801,-0.85 0.064,-1.8607 -0.7601,-2.3369 l -1.3438,-0.7761 c -0.2754,-0.159 -0.5741,-0.2389 -0.87,-0.2469 z"
         style="display:inline;fill:#ffffff;fill-opacity:1;stroke:none;stroke-width:1.39999998;stroke-linecap:round;stroke-linejoin:round;stroke-miterlimit:4;stroke-dasharray:none;stroke-dashoffset:0;stroke-opacity:1" />
      <path
         inkscape:export-ydpi="200"
         inkscape:export-xdpi="200"
         inkscape:export-filename="C:\Documents and Settings\jhernandez\Mis documentos\imagenCorp\iconos\cartografia\centro_asis2.png"
         inkscape:connector-curvature="0"
         id="path5064"
         d="m 24.080115,1013.4051 a 1.0001,1.0001 0 0 0 -0.6114,0.209 l -1.9082,1.4785 a 1.0001,1.0001 0 1 0 1.2227,1.582 l 1.2715,-0.9844 7.9004,6.6504 a 1.0001,1.0001 0 0 0 -0.875,0.9922 l 0,13.3457 a 1.0001,1.0001 0 1 0 2,0 l 0,-12.3457 1.6074,0 a 1.0001,1.0001 0 0 0 0.6445,-1.7656 l -10.6074,-8.9277 a 1.0001,1.0001 0 0 0 -0.6445,-0.2344 z"
         style="color:#000000;font-style:normal;font-variant:normal;font-weight:normal;font-stretch:normal;font-size:medium;line-height:normal;font-family:sans-serif;text-indent:0;text-align:start;text-decoration:none;text-decoration-line:none;text-decoration-style:solid;text-decoration-color:#000000;letter-spacing:normal;word-spacing:normal;text-transform:none;direction:ltr;block-progression:tb;writing-mode:lr-tb;baseline-shift:baseline;text-anchor:start;white-space:normal;clip-rule:nonzero;display:inline;overflow:visible;visibility:visible;opacity:1;isolation:auto;mix-blend-mode:normal;color-interpolation:sRGB;color-interpolation-filters:linearRGB;solid-color:#000000;solid-opacity:1;fill:#ffffff;fill-opacity:1;fill-rule:evenodd;stroke:none;stroke-width:2;stroke-linecap:round;stroke-linejoin:round;stroke-miterlimit:4;stroke-dasharray:none;stroke-dashoffset:0;stroke-opacity:1;color-rendering:auto;image-rendering:auto;shape-rendering:auto;text-rendering:auto;enable-background:accumulate" />
    </g>
  </g>
</svg>
