<?xml version="1.0" encoding="UTF-8" standalone="no"?>
<!-- Created with Inkscape (http://www.inkscape.org/) -->

<svg
   xmlns:dc="http://purl.org/dc/elements/1.1/"
   xmlns:cc="http://creativecommons.org/ns#"
   xmlns:rdf="http://www.w3.org/1999/02/22-rdf-syntax-ns#"
   xmlns:svg="http://www.w3.org/2000/svg"
   xmlns="http://www.w3.org/2000/svg"
   xmlns:sodipodi="http://sodipodi.sourceforge.net/DTD/sodipodi-0.dtd"
   xmlns:inkscape="http://www.inkscape.org/namespaces/inkscape"
   width="32"
   height="39"
   viewBox="0 0 32 39.000001"
   id="svg8605"
   version="1.1"
   inkscape:version="0.91 r13725"
   sodipodi:docname="DepositosAgua.svg"
   inkscape:export-filename="C:\Users\jhernandez\Documents\imagenCorp\iconos\cartografia\varios\DepositosAgua.png"
   inkscape:export-xdpi="286.42999"
   inkscape:export-ydpi="286.42999">
  <defs
     id="defs8607" />
  <sodipodi:namedview
     id="base"
     pagecolor="#ffffff"
     bordercolor="#666666"
     borderopacity="1.0"
     inkscape:pageopacity="0.0"
     inkscape:pageshadow="2"
     inkscape:zoom="15.839192"
     inkscape:cx="-9.6168567"
     inkscape:cy="25.840686"
     inkscape:document-units="px"
     inkscape:current-layer="layer1"
     showgrid="false"
     units="px"
     inkscape:window-width="1920"
     inkscape:window-height="1018"
     inkscape:window-x="1912"
     inkscape:window-y="-8"
     inkscape:window-maximized="1" />
  <metadata
     id="metadata8610">
    <rdf:RDF>
      <cc:Work
         rdf:about="">
        <dc:format>image/svg+xml</dc:format>
        <dc:type
           rdf:resource="http://purl.org/dc/dcmitype/StillImage" />
        <dc:title />
      </cc:Work>
    </rdf:RDF>
  </metadata>
  <g
     inkscape:label="Capa 1"
     inkscape:groupmode="layer"
     id="layer1"
     transform="translate(0,-1013.3622)">
    <g
       id="g9373"
       transform="translate(-8.938141,10.046922)">
      <path
         inkscape:export-ydpi="89.889763"
         inkscape:export-xdpi="89.889763"
         inkscape:export-filename="C:\Documents and Settings\jhernandez\Mis documentos\imagenCorp\iconos\cartografia\ICONOS_GRAFCAN.png"
         style="display:inline;fill:#00338c;fill-opacity:1;stroke:none;stroke-width:3.40799999"
         d="m 12.523291,1003.7757 c -2.2946,0 -3.5849,1.1868 -3.5849,3.6108 l 0,24.9865 c 0,2.2674 1.1599,3.4545 3.4523,3.4545 l 5.4455,0 3.0613,2.6351 4.0406,3.3967 4.0413,-3.3967 3.0605,-2.6351 5.4435,0 c 2.293,0 3.4545,-1.1277 3.4545,-3.4545 l 0,-24.9865 c 0,-2.365 -1.1612,-3.6108 -3.5258,-3.6108 -2e-4,0 -24.8967,-0.01 -24.8888,0 z"
         id="path7755"
         inkscape:connector-curvature="0" />
      <path
         inkscape:export-ydpi="89.889763"
         inkscape:export-xdpi="89.889763"
         inkscape:export-filename="C:\Documents and Settings\jhernandez\Mis documentos\imagenCorp\iconos\cartografia\ICONOS_GRAFCAN.png"
         id="path7001"
         d="m 37.011991,1014.7492 0,1.5713 c -0.3817,-0.094 -0.7355,-0.4993 -1.3714,-0.4702 -0.6625,0.023 -1.5981,0.6164 -2.5021,0.6164 -0.9169,-0.02 -1.9466,-0.6425 -2.8822,-0.6425 -0.9325,0.01 -1.7802,0.6524 -2.6748,0.672 -0.9105,0 -1.8179,-0.6032 -2.7095,-0.6164 -0.9042,-0.023 -1.7613,0.5377 -2.6058,0.5311 -0.8319,-0.016 -1.5698,-0.6131 -2.3955,-0.5868 -0.8477,0.033 -1.777,0.6884 -2.6057,0.7279 -0.8351,0.013 -1.5918,-0.6099 -2.3296,-0.6165 -0.739,-0.013 -1.5676,0.4491 -2.0711,0.5582 l 0,-1.7445 -1.0547,0 0,13.3228 0,1.0547 1.0547,0 24.1477,0 1.0547,0 0,-1.0547 0,-13.3228 -1.0547,0 z m 0,13.3228 -24.1477,0 0,-0.8351 c 0.5034,-0.1092 1.332,-0.571 2.0711,-0.5582 0.7378,0.01 1.4945,0.6295 2.3296,0.6165 0.8287,-0.04 1.7581,-0.6952 2.6057,-0.7279 0.8257,-0.026 1.5635,0.5705 2.3955,0.5868 0.8446,0.01 1.7016,-0.5541 2.6058,-0.5311 0.8916,0.013 1.7989,0.6197 2.7095,0.6164 0.8946,-0.02 1.7423,-0.6657 2.6748,-0.6721 0.9356,0 1.9653,0.6231 2.8822,0.6426 0.904,0 1.8398,-0.5935 2.5021,-0.6164 0.6359,-0.023 0.9897,0.3756 1.3714,0.4733 l 0,1.0052 z m 0,-2.746 c -0.3817,-0.095 -0.7355,-0.4992 -1.3714,-0.4702 -0.6625,0.023 -1.5981,0.6164 -2.5021,0.6164 -0.9169,-0.02 -1.9466,-0.6425 -2.8822,-0.6425 -0.9325,0.01 -1.7802,0.6524 -2.6748,0.672 -0.9105,0 -1.8179,-0.6032 -2.7095,-0.6164 -0.9042,-0.023 -1.7613,0.5377 -2.6058,0.5311 -0.8319,-0.016 -1.5698,-0.6131 -2.3955,-0.5868 -0.8477,0.033 -1.777,0.6884 -2.6057,0.7279 -0.8351,0.013 -1.5918,-0.6099 -2.3296,-0.6165 -0.739,-0.013 -1.5676,0.4491 -2.0711,0.5582 l 0,-1.2642 c 0.5034,-0.1092 1.332,-0.571 2.0711,-0.5582 0.7378,0.01 1.4945,0.6296 2.3296,0.6165 0.8287,-0.039 1.7581,-0.6952 2.6057,-0.728 0.8257,-0.026 1.5635,0.5705 2.3955,0.5869 0.8446,0.01 1.7016,-0.5541 2.6058,-0.5311 0.8916,0.013 1.7989,0.6197 2.7095,0.6163 0.8946,-0.019 1.7423,-0.6656 2.6748,-0.672 0.9356,0 1.9653,0.623 2.8822,0.6426 0.904,0 1.8398,-0.5934 2.5021,-0.6164 0.6359,-0.023 0.9897,0.3756 1.3714,0.4733 l 0,1.2611 z m 0,-3.0018 c -0.3817,-0.094 -0.7355,-0.4992 -1.3714,-0.4702 -0.6625,0.023 -1.5981,0.6162 -2.5021,0.6162 -0.9169,-0.019 -1.9466,-0.6424 -2.8822,-0.6424 -0.9325,0.01 -1.7802,0.6525 -2.6748,0.672 -0.9105,0 -1.8179,-0.6031 -2.7095,-0.6163 -0.9042,-0.023 -1.7613,0.5376 -2.6058,0.531 -0.8319,-0.016 -1.5698,-0.613 -2.3955,-0.5867 -0.8477,0.033 -1.777,0.6883 -2.6057,0.7278 -0.8351,0.013 -1.5918,-0.6098 -2.3296,-0.6164 -0.739,-0.013 -1.5676,0.449 -2.0711,0.5581 l 0,-1.2641 c 0.5034,-0.1092 1.332,-0.5711 2.0711,-0.5582 0.7378,0.01 1.4945,0.6295 2.3296,0.6165 0.8287,-0.039 1.7581,-0.6952 2.6057,-0.7279 0.8257,-0.026 1.5635,0.5705 2.3955,0.5869 0.8446,0.01 1.7016,-0.5542 2.6058,-0.5312 0.8916,0.013 1.7989,0.6197 2.7095,0.6163 0.8946,-0.019 1.7423,-0.6656 2.6748,-0.672 0.9356,0 1.9653,0.623 2.8822,0.6426 0.904,0 1.8398,-0.5935 2.5021,-0.6164 0.6359,-0.023 0.9897,0.3756 1.3714,0.4732 l 0,1.2612 z m 0,-3.0019 c -0.3817,-0.095 -0.7355,-0.4993 -1.3714,-0.4702 -0.6625,0.023 -1.5981,0.6164 -2.5021,0.6164 -0.9169,-0.02 -1.9466,-0.6425 -2.8822,-0.6425 -0.9325,0.01 -1.7802,0.6525 -2.6748,0.672 -0.9105,0 -1.8179,-0.6032 -2.7095,-0.6164 -0.9042,-0.023 -1.7613,0.5377 -2.6058,0.5311 -0.8319,-0.016 -1.5698,-0.6131 -2.3955,-0.5868 -0.8477,0.033 -1.777,0.6884 -2.6057,0.7279 -0.8351,0.013 -1.5918,-0.6099 -2.3296,-0.6165 -0.739,-0.013 -1.5676,0.4491 -2.0711,0.5582 l 0,-1.2642 c 0.5034,-0.1092 1.332,-0.5711 2.0711,-0.5582 0.7378,0.01 1.4945,0.6295 2.3296,0.6165 0.8287,-0.039 1.7581,-0.6952 2.6057,-0.7279 0.8257,-0.026 1.5635,0.5705 2.3955,0.5868 0.8446,0.01 1.7016,-0.5541 2.6058,-0.5311 0.8916,0.013 1.7989,0.6197 2.7095,0.6164 0.8946,-0.02 1.7423,-0.6657 2.6748,-0.6721 0.9356,0 1.9653,0.623 2.8822,0.6426 0.904,0 1.8398,-0.5935 2.5021,-0.6165 0.6359,-0.023 0.9897,0.3757 1.3714,0.4734 l 0,1.2611 z"
         inkscape:connector-curvature="0"
         style="display:inline;fill:#ffffff;stroke:none" />
    </g>
  </g>
</svg>
