<?xml version="1.0" encoding="UTF-8" standalone="no"?>
<!-- Created with Inkscape (http://www.inkscape.org/) -->

<svg
   xmlns:dc="http://purl.org/dc/elements/1.1/"
   xmlns:cc="http://creativecommons.org/ns#"
   xmlns:rdf="http://www.w3.org/1999/02/22-rdf-syntax-ns#"
   xmlns:svg="http://www.w3.org/2000/svg"
   xmlns="http://www.w3.org/2000/svg"
   xmlns:sodipodi="http://sodipodi.sourceforge.net/DTD/sodipodi-0.dtd"
   xmlns:inkscape="http://www.inkscape.org/namespaces/inkscape"
   width="32"
   height="39"
   viewBox="0 0 32 39.000001"
   id="svg8605"
   version="1.1"
   inkscape:version="0.91 r13725"
   sodipodi:docname="Depuradoras.svg"
   inkscape:export-filename="C:\Users\jhernandez\Documents\imagenCorp\iconos\cartografia\varios\Depuradoras.png"
   inkscape:export-xdpi="286.42999"
   inkscape:export-ydpi="286.42999">
  <defs
     id="defs8607" />
  <sodipodi:namedview
     id="base"
     pagecolor="#ffffff"
     bordercolor="#666666"
     borderopacity="1.0"
     inkscape:pageopacity="0.0"
     inkscape:pageshadow="2"
     inkscape:zoom="11.2"
     inkscape:cx="-1.3092345"
     inkscape:cy="25.090032"
     inkscape:document-units="px"
     inkscape:current-layer="layer1"
     showgrid="false"
     units="px"
     inkscape:window-width="1920"
     inkscape:window-height="1018"
     inkscape:window-x="1912"
     inkscape:window-y="-8"
     inkscape:window-maximized="1" />
  <metadata
     id="metadata8610">
    <rdf:RDF>
      <cc:Work
         rdf:about="">
        <dc:format>image/svg+xml</dc:format>
        <dc:type
           rdf:resource="http://purl.org/dc/dcmitype/StillImage" />
        <dc:title />
      </cc:Work>
    </rdf:RDF>
  </metadata>
  <g
     inkscape:label="Capa 1"
     inkscape:groupmode="layer"
     id="layer1"
     transform="translate(0,-1013.3622)">
    <g
       id="g9351"
       transform="translate(-4.5187238,6.3220722)"
       inkscape:export-xdpi="90"
       inkscape:export-ydpi="90">
      <path
         inkscape:export-ydpi="89.889763"
         inkscape:export-xdpi="89.889763"
         inkscape:export-filename="C:\Documents and Settings\jhernandez\Mis documentos\imagenCorp\iconos\cartografia\ICONOS_GRAFCAN.png"
         style="display:inline;fill:#00338c;fill-opacity:1;stroke:none;stroke-width:0.5;stroke-linecap:round;stroke-linejoin:round;stroke-miterlimit:4;stroke-dasharray:none;stroke-opacity:1"
         d="m 8.1031736,1007.5005 c -2.2945,0 -3.5842,1.1862 -3.5842,3.6101 l 0,24.9873 c 0,2.2673 1.1599,3.4545 3.4524,3.4545 l 5.4462004,0 3.0598,2.6344 4.0414,3.3974 4.0406,-3.3974 3.0605,-2.6344 5.4442,0 c 2.293,0 3.4544,-1.1278 3.4544,-3.4545 l 0,-24.9873 c 0,-2.3649 -1.1617,-3.6101 -3.5264,-3.6101 -2e-4,0 -24.8967004,-0.01 -24.8888004,0 z"
         id="path7799"
         inkscape:connector-curvature="0" />
      <path
         inkscape:export-ydpi="89.889763"
         inkscape:export-xdpi="89.889763"
         inkscape:export-filename="C:\Documents and Settings\jhernandez\Mis documentos\imagenCorp\iconos\cartografia\ICONOS_GRAFCAN.png"
         id="path7045"
         d="m 8.8561736,1011.3253 0,23.8141 23.3251004,0 0,-13.5059 -6.0217,4.8817 0,-4.8817 -6.1636,4.5271 -0.089,-4.4123 -6.0502,4.2567 -0.077,-14.6797 -4.9212004,0 z m 7.3864004,16.8319 c 0.6965,-0.032 1.3188,0.7112 2.0205,0.7316 0.7122,0.01 1.435,-0.691 2.1976,-0.6623 0.7519,0.016 1.5167,0.7731 2.2845,0.769 0.7547,-0.024 1.4697,-0.8304 2.2561,-0.8383 0.7891,0 1.6575,0.7766 2.4306,0.8009 0.7626,0 1.5515,-0.7397 2.1102,-0.7683 0.5361,-0.028 0.8349,0.4686 1.1568,0.5903 l 0,1.572 c -0.3219,-0.1178 -0.6207,-0.6225 -1.1568,-0.5862 -0.5587,0.028 -1.3476,0.7689 -2.1102,0.7689 -0.7732,-0.024 -1.6415,-0.8016 -2.4306,-0.8016 -0.7864,0.01 -1.5014,0.8139 -2.2561,0.8383 -0.7678,0 -1.5326,-0.7525 -2.2845,-0.769 -0.7626,-0.028 -1.4854,0.6705 -2.1976,0.6623 -0.7017,-0.02 -1.324,-0.7643 -2.0205,-0.7316 -0.7148,0.041 -1.4987,0.8583 -2.1976,0.9076 -0.7044,0.016 -1.3424,-0.7601 -1.9645,-0.7683 -0.6234,-0.016 -1.3221,0.5596 -1.7467,0.6956 l 0,-1.576 c 0.4245,-0.1361 1.1232,-0.7118 1.7467,-0.6957 0.6222,0.01 1.2601,0.7846 1.9645,0.7684 0.699,-0.049 1.4828,-0.8668 2.1976,-0.9076 z m 0,3.1942 c 0.6965,-0.032 1.3188,0.7112 2.0205,0.7316 0.7122,0.01 1.435,-0.691 2.1976,-0.6623 0.7519,0.016 1.5167,0.7731 2.2845,0.769 0.7547,-0.024 1.4697,-0.8304 2.2561,-0.8383 0.7891,0 1.6575,0.7766 2.4306,0.8009 0.7626,0 1.5515,-0.7397 2.1102,-0.7683 0.5361,-0.028 0.8349,0.4686 1.1568,0.5903 l 0,1.572 c -0.3219,-0.1178 -0.6207,-0.6225 -1.1568,-0.5862 -0.5587,0.029 -1.3476,0.769 -2.1102,0.769 -0.7732,-0.024 -1.6415,-0.8017 -2.4306,-0.8017 -0.7864,0.01 -1.5014,0.814 -2.2561,0.8384 -0.7678,0 -1.5326,-0.7526 -2.2845,-0.7691 -0.7626,-0.029 -1.4854,0.6706 -2.1976,0.6624 -0.7017,-0.021 -1.324,-0.7644 -2.0205,-0.7317 -0.7148,0.041 -1.4987,0.8584 -2.1976,0.9077 -0.7044,0.016 -1.3424,-0.7602 -1.9645,-0.7684 -0.6234,-0.016 -1.3221,0.5597 -1.7467,0.6957 l 0,-1.5761 c 0.4245,-0.1361 1.1232,-0.7118 1.7467,-0.6957 0.6222,0.01 1.2601,0.7846 1.9645,0.7684 0.699,-0.049 1.4828,-0.8668 2.1976,-0.9076 z"
         style="display:inline;fill:#ffffff;stroke:none"
         inkscape:connector-curvature="0" />
    </g>
  </g>
</svg>
