<?xml version="1.0" encoding="UTF-8" standalone="no"?>
<!-- Created with Inkscape (http://www.inkscape.org/) -->

<svg
   xmlns:dc="http://purl.org/dc/elements/1.1/"
   xmlns:cc="http://creativecommons.org/ns#"
   xmlns:rdf="http://www.w3.org/1999/02/22-rdf-syntax-ns#"
   xmlns:svg="http://www.w3.org/2000/svg"
   xmlns="http://www.w3.org/2000/svg"
   xmlns:sodipodi="http://sodipodi.sourceforge.net/DTD/sodipodi-0.dtd"
   xmlns:inkscape="http://www.inkscape.org/namespaces/inkscape"
   width="32"
   height="39"
   viewBox="0 0 32 39.000001"
   id="svg8605"
   version="1.1"
   inkscape:version="0.91 r13725"
   sodipodi:docname="InstalacionesDeportivas.svg"
   inkscape:export-filename="C:\Users\jhernandez\Documents\imagenCorp\iconos\cartografia\varios\InstalacionesDeportivas.png"
   inkscape:export-xdpi="286.42999"
   inkscape:export-ydpi="286.42999">
  <defs
     id="defs8607" />
  <sodipodi:namedview
     id="base"
     pagecolor="#ffffff"
     bordercolor="#666666"
     borderopacity="1.0"
     inkscape:pageopacity="0.0"
     inkscape:pageshadow="2"
     inkscape:zoom="15.839192"
     inkscape:cx="4.9356533"
     inkscape:cy="25.903821"
     inkscape:document-units="px"
     inkscape:current-layer="layer1"
     showgrid="false"
     units="px"
     inkscape:window-width="1920"
     inkscape:window-height="1018"
     inkscape:window-x="1912"
     inkscape:window-y="-8"
     inkscape:window-maximized="1" />
  <metadata
     id="metadata8610">
    <rdf:RDF>
      <cc:Work
         rdf:about="">
        <dc:format>image/svg+xml</dc:format>
        <dc:type
           rdf:resource="http://purl.org/dc/dcmitype/StillImage" />
        <dc:title />
      </cc:Work>
    </rdf:RDF>
  </metadata>
  <g
     inkscape:label="Capa 1"
     inkscape:groupmode="layer"
     id="layer1"
     transform="translate(0,-1013.3622)">
    <g
       id="g9498"
       transform="translate(2.4260751,-1.3172278)"
       inkscape:export-filename="C:\Documents and Settings\jhernandez\Mis documentos\imagenCorp\iconos\cartografia\nuevos\InstalacionesDeportivas.png"
       inkscape:export-xdpi="90.147331"
       inkscape:export-ydpi="90.147331">
      <path
         inkscape:export-ydpi="89.889763"
         inkscape:export-xdpi="89.889763"
         inkscape:export-filename="C:\Documents and Settings\jhernandez\Mis documentos\imagenCorp\iconos\cartografia\ICONOS_GRAFCAN.png"
         style="display:inline;fill:#960055;fill-opacity:1;stroke:none;stroke-width:3.40799999"
         d="m 1.1787749,1015.1738 c -2.2908,0 -3.5787,1.1846 -3.5787,3.6046 l 0,24.9465 c 0,2.2637 1.1582,3.4491 3.4469,3.4491 l 5.4449,0 3.0414,2.6181 4.0407001,3.3974 4.0413,-3.3974 3.0414,-2.6181 5.4422,0 c 2.2893,0 3.4489,-1.1261 3.4489,-3.4491 l 0,-24.9465 c 0,-2.361 -1.1595,-3.6046 -3.5202,-3.6046 -3e-4,0 -24.8567001,-0.01 -24.8488001,0 z"
         id="path7785"
         inkscape:connector-curvature="0" />
      <path
         inkscape:export-ydpi="89.889763"
         inkscape:export-xdpi="89.889763"
         inkscape:export-filename="C:\Documents and Settings\jhernandez\Mis documentos\imagenCorp\iconos\cartografia\ICONOS_GRAFCAN.png"
         inkscape:connector-curvature="0"
         id="path7031"
         d="m 4.3397749,1025.2271 c -2.462,0 -4.47260004,2.0126 -4.47260004,4.4746 0,2.4618 2.01060004,4.4706 4.47260004,4.4706 0.076,0 0.146,-0.018 0.2207,-0.022 0.363,2.1026 2.1933,3.7167 4.3964,3.7167 2.2030001,0 4.0314001,-1.6141 4.3944001,-3.7167 0.075,0 0.1466,0.022 0.2227,0.022 0.075,0 0.146,-0.018 0.2207,-0.022 0.3629,2.1026 2.1935,3.7167 4.3963,3.7167 2.2031,0 4.0316,-1.6142 4.3946,-3.7167 0.075,0 0.1465,0.022 0.2225,0.022 2.4619,0 4.4727,-2.0088 4.4727,-4.4706 0,-2.462 -2.0108,-4.4746 -4.4727,-4.4746 -2.2027,0 -4.0313,1.6142 -4.3944,3.7167 -0.075,0 -0.1464,-0.021 -0.2227,-0.021 -0.076,0 -0.1474,0.018 -0.2226,0.021 -0.3631,-2.1025 -2.1916,-3.7167 -4.3944,-3.7167 -2.2029,0 -4.0333001,1.6141 -4.3964001,3.7167 -0.075,0 -0.1452,-0.021 -0.2207,-0.021 -0.076,0 -0.1475,0.018 -0.2227,0.021 -0.3631,-2.1026 -2.1916,-3.7167 -4.3944,-3.7167 z m 0,1.3945 c 1.5459,0 2.8036,1.1262 3.0311,2.6054 -1.489,0.5705 -2.5872,1.9095 -2.8221,3.5312 -0.071,0 -0.1371,0.022 -0.209,0.022 -1.7086,0 -3.0801,-1.3694 -3.0801,-3.078 0,-1.7086 1.3715,-3.0801 3.0801,-3.0801 z m 9.2342001,0 c 1.5459,0 2.8037,1.1262 3.0312,2.6054 -1.4892,0.5705 -2.5894,1.9094 -2.8242,3.5312 -0.07,0 -0.136,0.022 -0.207,0.022 -0.072,0 -0.1399,-0.017 -0.211,-0.022 -0.2349,-1.6217 -1.3331,-2.9607 -2.8221,-3.5312 0.2275,-1.4792 1.487,-2.6054 3.0331,-2.6054 z m 9.2341,0 c 1.7086,0 3.0782,1.3715 3.0782,3.0801 0,1.7086 -1.3696,3.078 -3.0782,3.078 -0.072,0 -0.1386,-0.017 -0.2088,-0.022 -0.2348,-1.6211 -1.334,-2.9603 -2.8223,-3.5312 0.2276,-1.4791 1.4854,-2.6054 3.0311,-2.6054 z m -13.8512001,3.6933 c 0.071,0 0.137,0.017 0.207,0.022 0.2347,1.6221 1.3348001,2.9608 2.8241001,3.5312 -0.2267,1.48 -1.4845,2.6054 -3.0311001,2.6054 -1.5467,0 -2.8065,-1.1254 -3.0332,-2.6054 1.4893,-0.5704 2.5895,-1.9091 2.8242,-3.5312 0.07,0 0.1373,-0.022 0.209,-0.022 z m 9.2341001,0 c 0.072,0 0.1386,0.017 0.209,0.022 0.2347,1.622 1.333,2.9608 2.8223,3.5312 -0.2268,1.48 -1.4846,2.6054 -3.0313,2.6054 -1.5464,0 -2.8063,-1.1254 -3.0331,-2.6054 1.4894,-0.5704 2.5895,-1.9092 2.8242,-3.5312 0.07,0 0.1373,-0.022 0.2089,-0.022 z m -11.0076001,0.5625 c -0.2235,0.5445 -0.5979,1.0063 -1.0722,1.3398 0.2235,-0.5444 0.5979,-1.0061 1.0722,-1.3398 z m 3.5450001,0 c 0.4748,0.3341 0.8506,0.7966 1.0741,1.3417 -0.4754,-0.3336 -0.8502,-0.7964 -1.0741,-1.3417 z m 5.6913,0 c -0.2236,0.5445 -0.5999,1.0063 -1.0743,1.3398 0.2236,-0.5444 0.5999,-1.0061 1.0743,-1.3398 z m 3.5428,0 c 0.4744,0.3337 0.8507,0.7954 1.0742,1.3398 -0.4743,-0.3335 -0.8506,-0.7953 -1.0742,-1.3398 z"
         style="color:#000000;font-style:normal;font-variant:normal;font-weight:normal;font-stretch:normal;font-size:medium;line-height:normal;font-family:sans-serif;text-indent:0;text-align:start;text-decoration:none;text-decoration-line:none;text-decoration-style:solid;text-decoration-color:#000000;letter-spacing:normal;word-spacing:normal;text-transform:none;direction:ltr;block-progression:tb;writing-mode:lr-tb;baseline-shift:baseline;text-anchor:start;white-space:normal;clip-rule:nonzero;display:inline;overflow:visible;visibility:visible;opacity:1;isolation:auto;mix-blend-mode:normal;color-interpolation:sRGB;color-interpolation-filters:linearRGB;solid-color:#000000;solid-opacity:1;fill:#ffffff;fill-opacity:1;fill-rule:nonzero;stroke:none;stroke-width:5;stroke-linecap:butt;stroke-linejoin:miter;stroke-miterlimit:4;stroke-dasharray:none;stroke-dashoffset:0;stroke-opacity:1;color-rendering:auto;image-rendering:auto;shape-rendering:auto;text-rendering:auto;enable-background:accumulate" />
    </g>
  </g>
</svg>
