<?xml version="1.0" encoding="UTF-8" standalone="no"?>
<!-- Created with Inkscape (http://www.inkscape.org/) -->

<svg
   xmlns:dc="http://purl.org/dc/elements/1.1/"
   xmlns:cc="http://creativecommons.org/ns#"
   xmlns:rdf="http://www.w3.org/1999/02/22-rdf-syntax-ns#"
   xmlns:svg="http://www.w3.org/2000/svg"
   xmlns="http://www.w3.org/2000/svg"
   xmlns:sodipodi="http://sodipodi.sourceforge.net/DTD/sodipodi-0.dtd"
   xmlns:inkscape="http://www.inkscape.org/namespaces/inkscape"
   width="32"
   height="39"
   viewBox="0 0 32 39.000001"
   id="svg8605"
   version="1.1"
   inkscape:version="0.91 r13725"
   sodipodi:docname="LonjaMercadoFeria.svg"
   inkscape:export-filename="C:\Users\jhernandez\Documents\imagenCorp\iconos\cartografia\varios\LonjaMercadoFeria.png"
   inkscape:export-xdpi="286.88242"
   inkscape:export-ydpi="286.88242">
  <defs
     id="defs8607" />
  <sodipodi:namedview
     id="base"
     pagecolor="#ffffff"
     bordercolor="#666666"
     borderopacity="1.0"
     inkscape:pageopacity="0.0"
     inkscape:pageshadow="2"
     inkscape:zoom="15.839192"
     inkscape:cx="4.9356533"
     inkscape:cy="25.903821"
     inkscape:document-units="px"
     inkscape:current-layer="layer1"
     showgrid="false"
     units="px"
     inkscape:window-width="1920"
     inkscape:window-height="1018"
     inkscape:window-x="1912"
     inkscape:window-y="-8"
     inkscape:window-maximized="1" />
  <metadata
     id="metadata8610">
    <rdf:RDF>
      <cc:Work
         rdf:about="">
        <dc:format>image/svg+xml</dc:format>
        <dc:type
           rdf:resource="http://purl.org/dc/dcmitype/StillImage" />
        <dc:title />
      </cc:Work>
    </rdf:RDF>
  </metadata>
  <g
     inkscape:label="Capa 1"
     inkscape:groupmode="layer"
     id="layer1"
     transform="translate(0,-1013.3622)">
    <g
       id="g9329"
       transform="translate(-4.076782,7.9635163)">
      <path
         inkscape:export-ydpi="89.889763"
         inkscape:export-xdpi="89.889763"
         inkscape:export-filename="C:\Documents and Settings\jhernandez\Mis documentos\imagenCorp\iconos\cartografia\ICONOS_GRAFCAN.png"
         style="display:inline;fill:#d6671c;fill-opacity:1;stroke:#eeeeee;stroke-width:0.18807188"
         d="m 7.7347318,1005.8919 c -2.2808,0 -3.5634999,1.1793 -3.5634999,3.5889 l 0,24.84 c 0,2.254 1.1529999,3.4347 3.4318999,3.4347 l 5.2635002,0 3.1699,2.7289 4.0406,3.3967 4.0407,-3.3967 3.1698,-2.7289 5.2608,0 c 2.2795,0 3.4339,-1.1217 3.4339,-3.4347 l 0,-24.84 c 0,-2.3508 -1.1547,-3.5889 -3.5053,-3.5889 -1e-4,0 -24.7499002,-0.01 -24.7423002,0 z"
         id="path7811"
         inkscape:connector-curvature="0" />
      <path
         inkscape:export-ydpi="89.889763"
         inkscape:export-xdpi="89.889763"
         inkscape:export-filename="C:\Documents and Settings\jhernandez\Mis documentos\imagenCorp\iconos\cartografia\ICONOS_GRAFCAN.png"
         inkscape:connector-curvature="0"
         style="display:inline;fill:#ffffff"
         d="m 32.521532,1018.5678 c -0.1475,-0.1864 -0.372,-0.295 -0.6096,-0.295 l -10.5428,0 2.6411,-7.0976 c 0.051,-0.1371 0.046,-0.289 -0.015,-0.4221 -0.061,-0.133 -0.1722,-0.2365 -0.3093,-0.2875 l -0.8648,-0.3218 c -0.2855,-0.1063 -0.6034,0.039 -0.7097,0.3247 l -2.904,7.8043 -10.9627002,0 c -0.2374,0 -0.4618,0.1084 -0.6093,0.2945 -0.1474,0.186 -0.2017,0.4292 -0.1476,0.6603 l 2.7410002,11.6897 c 0.082,0.3516 0.396,0.6 0.7568,0.6 0,0 0,0 0,0 l 18.1853,-0.081 c 0.3592,0 0.6705,-0.2492 0.7531,-0.5988 l 2.7413,-11.6092 c 0.055,-0.2312 0,-0.4747 -0.147,-0.661 z m -10.5553,1.2598 0,3.0322 -3.99,0 0,-3.0322 3.99,0 z m 0,4.0687 0,3.3278 -3.99,0 0,-3.3278 3.99,0 z m -5.0266,-1.0365 -3.7692,0 0,-3.0322 3.7692,0 0,3.0322 z m 0,1.0365 0,3.3278 -3.7692,0 0,-3.3278 3.7692,0 z m 0,4.3642 0,1.6757 -3.7692,0.017 0,-1.6923 3.7692,0 z m 1.0366,0 3.99,0 0,1.6534 -3.99,0.018 0,-1.6711 z m 5.0265,0 3.8796,0 0,1.6317 -3.8796,0.017 0,-1.6488 z m 0,-1.0364 0,-3.3279 3.8796,0 0,3.3279 -3.8796,0 z m 0,-4.3643 0,-3.0322 3.8796,0 0,3.0322 -3.8796,0 z m -10.8687,-3.0322 0,3.0322 -1.78,0 c -0.1498,0 -0.2844,0.064 -0.3791002,0.1656 l -0.7498,-3.1978 2.9089002,0 z m -1.9628,4.0348 c 0.057,0.022 0.1184,0.034 0.1828,0.034 l 1.78,0 0,3.3278 -0.7968,0 c -0.1334,0 -0.2546,0.051 -0.3464,0.1336 l -0.8196,-3.4952 z m 1.0267,4.3786 c 0.044,0.013 0.091,0.02 0.1393,0.02 l 0.7968,0 0,1.6969 -0.5331,0 -0.403,-1.7188 z m 16.7209,1.6466 0,-1.6271 1.0196,0 -0.3835,1.6243 -0.6361,0 z m 1.2641,-2.6629 c 0,0 -0.01,0 -0.013,0 l -1.2508,0 0,-3.3278 2.05,0 -0.7859,3.3285 z m 1.0297,-4.3612 c -0.02,0 -0.04,0 -0.06,0 l -2.2339,0 0,-3.0322 3.0107,0 -0.7169,3.0359 z"
         id="path7057" />
    </g>
  </g>
</svg>
