<?xml version="1.0" encoding="UTF-8"?>
<svg width="33" height="33" version="1.1" viewBox="0 0 8.7313 8.7312" xmlns="http://www.w3.org/2000/svg">
 <g transform="translate(-36.054 -267.52)">
  <g transform="translate(-74.293 174.42)">
   <g transform="matrix(1.0084 0 0 1.0084 -57.856 -29.344)">
    <g transform="translate(-1.1279 -1.2345)">
     <rect transform="rotate(-45)" x="28.97" y="208.55" width="6.085" height="6.085" rx=".32026" ry=".32026" fill="#e6e600" stroke="#000" stroke-width=".32026"/>
     <g transform="translate(-2.3792 -.14853)" stroke-width=".01423">
      <path d="m172.8 127.14v-2.106l0.13874 8e-5c0.088 5e-5 0.20468 0.0128 0.31917 0.0348 0.17142 0.033 0.18646 0.0388 0.30118 0.1151 0.0856 0.057 0.12348 0.0913 0.13015 0.1178 5e-3 0.0206 0.0182 0.24252 0.0289 0.49316 0.0247 0.57687 0.0361 0.63139 0.17424 0.83731 0.0527 0.0785 0.1037 0.15604 0.11336 0.17228 0.0105 0.0177 0.0177 0.0827 0.0178 0.16222l2.1e-4 0.13269 0.0818 0.0859c0.10523 0.11051 0.29452 0.25277 0.43107 0.32396 0.059 0.0308 0.1711 0.0746 0.24903 0.0974 0.11767 0.0344 0.17634 0.0632 0.34624 0.17005l0.20456 0.1286 0.12061 0.18289c0.0663 0.1006 0.13948 0.22455 0.16253 0.27545 0.0231 0.0509 0.0631 0.11496 0.089 0.14235 0.0614 0.0649 0.13026 0.16809 0.16343 0.24478 0.0188 0.0434 0.0849 0.11634 0.22779 0.25125 0.11074 0.10455 0.20782 0.2022 0.21575 0.21701 0.0141 0.0263-0.0237 0.0269-1.7506 0.0269h-1.765zm3.1834 0.87829-0.2247-0.2166 5.8e-4 -0.0691c1e-3 -0.14603 0.15596-0.51854 0.26289-0.63285 0.0588-0.0629 0.0733-0.0709 0.14-0.0776 0.0409-4e-3 0.1106-0.0157 0.15486-0.0257 0.11152-0.0253 0.17856-3e-3 0.27961 0.0914 0.0924 0.0867 0.14553 0.19178 0.22323 0.44156l0.0525 0.16885-0.0245 0.066c-0.0315 0.0846-0.14171 0.29885-0.17388 0.33793-0.0182 0.0221-0.08 0.0437-0.23432 0.0818-0.11526 0.0285-0.21451 0.0516-0.22056 0.0513-6e-3 -2.3e-4 -0.11212-0.0979-0.2357-0.217zm-0.50814-0.56092c-0.0117-4e-3 -0.052-0.0269-0.0895-0.0505l-0.0681-0.0429 4e-3 -0.11433 4e-3 -0.11434 0.163-0.0545c0.0896-0.03 0.16726-0.0498 0.17248-0.0439 0.0108 0.012 0.11424 0.32008 0.10903 0.32455-2e-3 2e-3 -0.0496 0.0261-0.10619 0.0544-0.098 0.0491-0.14141 0.0586-0.1889 0.0416zm-0.47888-0.64171c-0.10624-0.10075-0.1169-0.11592-0.12651-0.17998-0.0138-0.0918 2e-3 -0.34879 0.0272-0.45432 0.0251-0.10345 0.0567-0.1366 0.13816-0.14494 0.0684-7e-3 0.1119 7e-3 0.21651 0.0677 0.0486 0.0284 0.0875 0.0398 0.13558 0.0398 0.10356 0 0.15696 0.0517 0.17894 0.17317 0.0176 0.097-0.04 0.30209-0.10245 0.36492-0.0133 0.0134-0.048 0.0569-0.0772 0.0967-0.0683 0.0932-0.15013 0.14796-0.2206 0.14739-0.0472-3.7e-4 -0.0677-0.0137-0.16968-0.11046zm-0.66161-0.11323c-0.0595-0.0606-0.11188-0.12591-0.11644-0.14501-0.0111-0.0463 0.0266-0.1223 0.0791-0.15968l0.0424-0.0302 0.10136 0.0483c0.0557 0.0266 0.12642 0.0707 0.15706 0.098 0.0551 0.0492 0.13039 0.15377 0.11895 0.16521-6e-3 6e-3 -0.26547 0.1337-0.27137 0.1337-2e-3 0-0.0516-0.0496-0.11107-0.11029zm-0.21747-0.55516c-4e-3 -4e-3 -8e-3 -0.0778-8e-3 -0.16309 0-0.15228 7.8e-4 -0.15596 0.0444-0.2103 0.0503-0.0626 0.102-0.0853 0.19388-0.0853 0.11886 0 0.21704 0.0741 0.21704 0.16377 0 0.0308-0.0177 0.0701-0.0534 0.11875-0.0518 0.0705-0.0583 0.0743-0.21957 0.12849-0.0914 0.0307-0.16986 0.0522-0.17431 0.0477z"/>
      <path d="m172.8 127.14v-2.106l0.13874 8e-5c0.088 5e-5 0.20468 0.0128 0.31917 0.0348 0.17142 0.033 0.18646 0.0388 0.30118 0.1151 0.0856 0.057 0.12348 0.0913 0.13015 0.1178 5e-3 0.0206 0.0182 0.24252 0.0289 0.49316 0.0247 0.57687 0.0361 0.63139 0.17424 0.83731 0.0527 0.0785 0.1037 0.15604 0.11336 0.17228 0.0105 0.0177 0.0177 0.0827 0.0178 0.16222l2.1e-4 0.13269 0.0818 0.0859c0.10523 0.11051 0.29452 0.25277 0.43107 0.32396 0.059 0.0308 0.1711 0.0746 0.24903 0.0974 0.11767 0.0344 0.17634 0.0632 0.34624 0.17005l0.20456 0.1286 0.12061 0.18289c0.0663 0.1006 0.13948 0.22455 0.16253 0.27545 0.0231 0.0509 0.0631 0.11496 0.089 0.14235 0.0614 0.0649 0.13026 0.16809 0.16343 0.24478 0.0188 0.0434 0.0849 0.11634 0.22779 0.25125 0.11074 0.10455 0.20782 0.2022 0.21575 0.21701 0.0141 0.0263-0.0237 0.0269-1.7506 0.0269h-1.765zm3.1834 0.87829-0.2247-0.2166 5.8e-4 -0.0691c1e-3 -0.14603 0.15596-0.51854 0.26289-0.63285 0.0588-0.0629 0.0733-0.0709 0.14-0.0776 0.0409-4e-3 0.1106-0.0157 0.15486-0.0257 0.11152-0.0253 0.17856-3e-3 0.27961 0.0914 0.0924 0.0867 0.14553 0.19178 0.22323 0.44156l0.0525 0.16885-0.0245 0.066c-0.0315 0.0846-0.14171 0.29885-0.17388 0.33793-0.0182 0.0221-0.08 0.0437-0.23432 0.0818-0.11526 0.0285-0.21451 0.0516-0.22056 0.0513-6e-3 -2.3e-4 -0.11212-0.0979-0.2357-0.217zm-0.50814-0.56092c-0.0117-4e-3 -0.052-0.0269-0.0895-0.0505l-0.0681-0.0429 4e-3 -0.11433 4e-3 -0.11434 0.163-0.0545c0.0896-0.03 0.16726-0.0498 0.17248-0.0439 0.0108 0.012 0.11424 0.32008 0.10903 0.32455-2e-3 2e-3 -0.0496 0.0261-0.10619 0.0544-0.098 0.0491-0.14141 0.0586-0.1889 0.0416zm-0.47888-0.64171c-0.10624-0.10075-0.1169-0.11592-0.12651-0.17998-0.0138-0.0918 2e-3 -0.34879 0.0272-0.45432 0.0251-0.10345 0.0567-0.1366 0.13816-0.14494 0.0684-7e-3 0.1119 7e-3 0.21651 0.0677 0.0486 0.0284 0.0875 0.0398 0.13558 0.0398 0.10356 0 0.15696 0.0517 0.17894 0.17317 0.0176 0.097-0.04 0.30209-0.10245 0.36492-0.0133 0.0134-0.048 0.0569-0.0772 0.0967-0.0683 0.0932-0.15013 0.14796-0.2206 0.14739-0.0472-3.7e-4 -0.0677-0.0137-0.16968-0.11046zm-0.66161-0.11323c-0.0595-0.0606-0.11188-0.12591-0.11644-0.14501-0.0111-0.0463 0.0266-0.1223 0.0791-0.15968l0.0424-0.0302 0.10136 0.0483c0.0557 0.0266 0.12642 0.0707 0.15706 0.098 0.0551 0.0492 0.13039 0.15377 0.11895 0.16521-6e-3 6e-3 -0.26547 0.1337-0.27137 0.1337-2e-3 0-0.0516-0.0496-0.11107-0.11029zm-0.21747-0.55516c-4e-3 -4e-3 -8e-3 -0.0778-8e-3 -0.16309 0-0.15228 7.8e-4 -0.15596 0.0444-0.2103 0.0503-0.0626 0.102-0.0853 0.19388-0.0853 0.11886 0 0.21704 0.0741 0.21704 0.16377 0 0.0308-0.0177 0.0701-0.0534 0.11875-0.0518 0.0705-0.0583 0.0743-0.21957 0.12849-0.0914 0.0307-0.16986 0.0522-0.17431 0.0477z"/>
      <path d="m172.8 127.14v-2.106l0.13874 8e-5c0.088 5e-5 0.20468 0.0128 0.31917 0.0348 0.17142 0.033 0.18646 0.0388 0.30118 0.1151 0.0856 0.057 0.12348 0.0913 0.13015 0.1178 5e-3 0.0206 0.0182 0.24252 0.0289 0.49316 0.0247 0.57687 0.0361 0.63139 0.17424 0.83731 0.0527 0.0785 0.1037 0.15604 0.11336 0.17228 0.0105 0.0177 0.0177 0.0827 0.0178 0.16222l2.1e-4 0.13269 0.0818 0.0859c0.10523 0.11051 0.29452 0.25277 0.43107 0.32396 0.059 0.0308 0.1711 0.0746 0.24903 0.0974 0.11767 0.0344 0.17634 0.0632 0.34624 0.17005l0.20456 0.1286 0.12061 0.18289c0.0663 0.1006 0.13948 0.22455 0.16253 0.27545 0.0231 0.0509 0.0631 0.11496 0.089 0.14235 0.0614 0.0649 0.13026 0.16809 0.16343 0.24478 0.0188 0.0434 0.0849 0.11634 0.22779 0.25125 0.11074 0.10455 0.20782 0.2022 0.21575 0.21701 0.0141 0.0263-0.0237 0.0269-1.7506 0.0269h-1.765zm3.1834 0.87829-0.2247-0.2166 5.8e-4 -0.0691c1e-3 -0.14603 0.15596-0.51854 0.26289-0.63285 0.0588-0.0629 0.0733-0.0709 0.14-0.0776 0.0409-4e-3 0.1106-0.0157 0.15486-0.0257 0.11152-0.0253 0.17856-3e-3 0.27961 0.0914 0.0924 0.0867 0.14553 0.19178 0.22323 0.44156l0.0525 0.16885-0.0245 0.066c-0.0315 0.0846-0.14171 0.29885-0.17388 0.33793-0.0182 0.0221-0.08 0.0437-0.23432 0.0818-0.11526 0.0285-0.21451 0.0516-0.22056 0.0513-6e-3 -2.3e-4 -0.11212-0.0979-0.2357-0.217zm-0.50814-0.56092c-0.0117-4e-3 -0.052-0.0269-0.0895-0.0505l-0.0681-0.0429 4e-3 -0.11433 4e-3 -0.11434 0.163-0.0545c0.0896-0.03 0.16726-0.0498 0.17248-0.0439 0.0108 0.012 0.11424 0.32008 0.10903 0.32455-2e-3 2e-3 -0.0496 0.0261-0.10619 0.0544-0.098 0.0491-0.14141 0.0586-0.1889 0.0416zm-0.47888-0.64171c-0.10624-0.10075-0.1169-0.11592-0.12651-0.17998-0.0138-0.0918 2e-3 -0.34879 0.0272-0.45432 0.0251-0.10345 0.0567-0.1366 0.13816-0.14494 0.0684-7e-3 0.1119 7e-3 0.21651 0.0677 0.0486 0.0284 0.0875 0.0398 0.13558 0.0398 0.10356 0 0.15696 0.0517 0.17894 0.17317 0.0176 0.097-0.04 0.30209-0.10245 0.36492-0.0133 0.0134-0.048 0.0569-0.0772 0.0967-0.0683 0.0932-0.15013 0.14796-0.2206 0.14739-0.0472-3.7e-4 -0.0677-0.0137-0.16968-0.11046zm-0.66161-0.11323c-0.0595-0.0606-0.11188-0.12591-0.11644-0.14501-0.0111-0.0463 0.0266-0.1223 0.0791-0.15968l0.0424-0.0302 0.10136 0.0483c0.0557 0.0266 0.12642 0.0707 0.15706 0.098 0.0551 0.0492 0.13039 0.15377 0.11895 0.16521-6e-3 6e-3 -0.26547 0.1337-0.27137 0.1337-2e-3 0-0.0516-0.0496-0.11107-0.11029zm-0.21747-0.55516c-4e-3 -4e-3 -8e-3 -0.0778-8e-3 -0.16309 0-0.15228 7.8e-4 -0.15596 0.0444-0.2103 0.0503-0.0626 0.102-0.0853 0.19388-0.0853 0.11886 0 0.21704 0.0741 0.21704 0.16377 0 0.0308-0.0177 0.0701-0.0534 0.11875-0.0518 0.0705-0.0583 0.0743-0.21957 0.12849-0.0914 0.0307-0.16986 0.0522-0.17431 0.0477z"/>
      <path d="m172.8 127.14v-2.106h0.13328c0.0819 0 0.20516 0.0135 0.31962 0.0351 0.17868 0.0337 0.19127 0.0384 0.30651 0.11509 0.0693 0.0461 0.12385 0.093 0.12885 0.11074 5e-3 0.0169 0.0149 0.20367 0.0224 0.41498 0.0243 0.67845 0.0343 0.71927 0.25495 1.0371l0.0581 0.0837v0.27698l0.11329 0.10824c0.21676 0.20708 0.40388 0.32002 0.64456 0.38902 0.10611 0.0304 0.17183 0.0627 0.34015 0.16699l0.20863 0.12928 0.11741 0.17788c0.0646 0.0978 0.13522 0.21694 0.15698 0.2647 0.0218 0.0478 0.0721 0.1246 0.11195 0.17076 0.0398 0.0462 0.0955 0.13022 0.12379 0.18681 0.0444 0.0888 0.0803 0.13034 0.26283 0.30365 0.11628 0.11042 0.21142 0.2098 0.21142 0.22085 0 0.0172-0.25391 0.0201-1.7574 0.0201h-1.7574zm3.3568 1.0423c-0.0276-0.0293-0.12823-0.12588-0.22357-0.21451l-0.17336-0.16114v-0.0686c0-0.0812 0.0352-0.20101 0.1116-0.37953 0.0985-0.23031 0.18088-0.32462 0.29395-0.33662 0.0391-4e-3 0.10736-0.0157 0.15162-0.0257 0.11178-0.0252 0.17882-3e-3 0.27895 0.0915 0.0946 0.0894 0.12256 0.14366 0.20931 0.40543l0.0676 0.20383-0.0248 0.0665c-0.0355 0.0953-0.14454 0.30534-0.17622 0.33935-0.0184 0.0197-0.0927 0.0454-0.23434 0.0808-0.11409 0.0286-0.21263 0.0519-0.21898 0.0519-6e-3 0-0.0341-0.024-0.0618-0.0534zm-0.70288-0.73481c-0.0235-0.0103-0.0637-0.0364-0.0895-0.0581-0.0462-0.0389-0.0468-0.0409-0.0427-0.14677l4e-3 -0.10732 0.16264-0.0544c0.0894-0.0299 0.16481-0.0522 0.16747-0.0496 3e-3 3e-3 0.0295 0.0784 0.0597 0.16832l0.0549 0.16348-0.10523 0.0521c-0.11356 0.0562-0.14559 0.0611-0.21148 0.0323zm-0.45753-0.63187c-0.10625-0.10076-0.1169-0.11592-0.12651-0.18-0.0126-0.084 8e-5 -0.32547 0.023-0.43661 0.0231-0.11227 0.0605-0.15448 0.14399-0.16261 0.0571-6e-3 0.0826 2e-3 0.17682 0.0505 0.0729 0.0377 0.12873 0.057 0.16523 0.057 0.16588 0 0.22775 0.15661 0.15564 0.39399-0.0166 0.0546-0.0447 0.1151-0.0625 0.13453-0.0178 0.0194-0.056 0.0659-0.0849 0.10332-0.0779 0.10076-0.14942 0.15002-0.21783 0.14998-0.0515-3e-5 -0.068-0.0106-0.17294-0.11007zm-0.6634-0.11354c-0.10091-0.1015-0.10995-0.11535-0.10995-0.16839 0-0.0476 9e-3 -0.067 0.0522-0.10996 0.0287-0.0287 0.0577-0.0522 0.0644-0.0522 7e-3 0 0.0585 0.023 0.11503 0.0512 0.11489 0.0573 0.19891 0.12987 0.23812 0.20579l0.0262 0.0507-0.13429 0.0667c-0.0739 0.0367-0.13597 0.0667-0.138 0.0667-2e-3 0-0.0532-0.0498-0.11365-0.1106zm-0.21568-0.55485c-4e-3 -4e-3 -8e-3 -0.0782-8e-3 -0.16394 0-0.15419 4.7e-4 -0.15638 0.0446-0.20752 0.0246-0.0284 0.0614-0.0594 0.0818-0.0688 0.0579-0.0267 0.16642-0.022 0.22891 0.01 0.11519 0.0588 0.13017 0.14048 0.0466 0.25425-0.0518 0.0705-0.0583 0.0743-0.21957 0.12849-0.0914 0.0307-0.16986 0.0522-0.17431 0.0477z"/>
      <path d="m172.8 127.14v-2.106h0.12617c0.075 0 0.20328 0.0145 0.31619 0.0358 0.18304 0.0345 0.19458 0.0388 0.31385 0.1173 0.10078 0.0663 0.12526 0.0895 0.13152 0.12428 4e-3 0.0235 0.0144 0.22762 0.0225 0.45353 0.0212 0.58889 0.0477 0.69901 0.22711 0.94549l0.0757 0.104 0.014 0.31178 0.11731 0.10465c0.23086 0.20595 0.43082 0.32364 0.64804 0.3814 0.0974 0.0259 0.15878 0.0561 0.3263 0.16061l0.20633 0.1287 0.1103 0.16353c0.0607 0.0899 0.13614 0.21476 0.16772 0.27737 0.0316 0.0626 0.0895 0.15226 0.12866 0.19922 0.0392 0.047 0.094 0.13064 0.12168 0.18597 0.0424 0.0845 0.0755 0.12317 0.20716 0.24191 0.16906 0.15243 0.25346 0.23978 0.25346 0.26231 0 9e-3 -0.59867 0.0142-1.7574 0.0142h-1.7574zm3.3293 1.0125c-0.0433-0.0442-0.14429-0.14126-0.22437-0.21561-0.14186-0.13173-0.14558-0.13677-0.14534-0.19712 5.6e-4 -0.13522 0.16383-0.52714 0.26859-0.64469 0.0535-0.0601 0.0661-0.0669 0.13371-0.0725 0.0411-3e-3 0.11012-0.0142 0.15347-0.024 0.10377-0.0234 0.17461-4e-3 0.25909 0.0701 0.0965 0.085 0.14373 0.17047 0.22349 0.40481 0.0656 0.19274 0.0708 0.21722 0.0562 0.26325-0.0272 0.0852-0.15479 0.33348-0.18791 0.36552-0.0213 0.0206-0.0975 0.0465-0.24076 0.0818-0.11526 0.0284-0.21131 0.051-0.21345 0.0503-2e-3 -7.7e-4 -0.0393-0.0376-0.0827-0.0818zm-0.68963-0.7189c-0.11018-0.0517-0.123-0.0729-0.11805-0.1946l4e-3 -0.10364 0.1416-0.0474c0.0779-0.0261 0.15251-0.0509 0.16585-0.0551 0.02-6e-3 0.0333 0.0194 0.0754 0.14583 0.0281 0.0844 0.0512 0.16012 0.0512 0.16817 0 0.0156-0.20192 0.12059-0.23147 0.12035-0.01-7e-5 -0.0496-0.0152-0.0887-0.0336zm-0.44267-0.62017c-0.12592-0.12301-0.13325-0.13987-0.1334-0.30665-1e-4 -0.11658 0.037-0.35374 0.0633-0.40459 0.0221-0.0428 0.0344-0.0491 0.12353-0.0641 0.043-7e-3 0.0709 1e-3 0.16365 0.05 0.0838 0.0441 0.12689 0.0584 0.17231 0.0572 0.05-1e-3 0.0696 7e-3 0.11248 0.046 0.0457 0.0419 0.0527 0.0575 0.0587 0.12983 0.0117 0.14153-0.0281 0.27234-0.11656 0.38314-0.14294 0.17893-0.19818 0.22249-0.2817 0.22213-0.0393-1.7e-4 -0.0657-0.0185-0.16234-0.11293zm-0.65788-0.11939c-0.14122-0.14195-0.1486-0.17487-0.0604-0.26941l0.0557-0.0597 0.10428 0.0496c0.0573 0.0273 0.13143 0.0743 0.16461 0.10452 0.0545 0.0496 0.10353 0.12231 0.10353 0.15344 0 7e-3 -0.0566 0.0403-0.12581 0.0751l-0.12581 0.0632zm-0.21571-0.71809v-0.16796l0.0462-0.0446c0.0254-0.0245 0.0643-0.0514 0.0863-0.0597 0.13666-0.0515 0.30858 0.0381 0.30858 0.16078 0 0.0193-0.0252 0.0669-0.0561 0.10599-0.0528 0.0668-0.0651 0.074-0.20992 0.12223-0.0846 0.0282-0.1586 0.0512-0.16445 0.0512-6e-3 0-0.0106-0.0756-0.0106-0.16797z"/>
      <path d="m172.8 127.13v-2.108l0.1672 8e-3c0.092 4e-3 0.23444 0.0217 0.31662 0.0387 0.13282 0.0275 0.16307 0.0398 0.27243 0.11121 0.14839 0.0968 0.13594 0.048 0.15488 0.60748 0.0144 0.42673 0.0392 0.60631 0.0997 0.7232 0.0169 0.0327 0.0684 0.11227 0.11448 0.17683l0.0837 0.11738 0.02 0.31528 0.12231 0.10926c0.2335 0.2086 0.39356 0.30356 0.62364 0.37003 0.12219 0.0353 0.17789 0.0623 0.34669 0.16805l0.2011 0.12599 0.12489 0.18584c0.0687 0.10221 0.13909 0.21884 0.15644 0.25917 0.0173 0.0403 0.0694 0.11999 0.11564 0.17702 0.0463 0.057 0.10621 0.14879 0.13323 0.2039 0.0426 0.087 0.073 0.12179 0.22918 0.26326 0.1775 0.16073 0.23348 0.21905 0.23348 0.24323 0 7e-3 -0.77791 0.0123-1.7574 0.0123h-1.7574zm3.329 1.0144c-0.0435-0.0442-0.1453-0.14238-0.22626-0.21809l-0.14719-0.13765 9e-3 -0.0865c0.0172-0.16473 0.15336-0.48222 0.2613-0.60936 0.0552-0.0651 0.0702-0.0747 0.11569-0.0747 0.0288 0 0.0969-9e-3 0.15147-0.0207 0.13076-0.0274 0.19872-0.0107 0.28956 0.071 0.0888 0.0798 0.13281 0.16395 0.21657 0.41396l0.0693 0.20684-0.029 0.0736c-0.0436 0.11066-0.15255 0.31641-0.18017 0.34023-0.0188 0.0162-0.42995 0.12955-0.44735 0.1233-2e-3 -7.7e-4 -0.0395-0.0376-0.083-0.0818zm-0.65541-0.70483c-0.0283-0.0101-0.0718-0.0329-0.0966-0.0505-0.0451-0.0321-0.0452-0.0324-0.0411-0.14697l4e-3 -0.11481 0.31868-0.1066 0.0506 0.15172c0.0278 0.0834 0.0506 0.1583 0.0506 0.16635 0 0.0137-0.20138 0.12124-0.22436 0.11987-6e-3 -3.5e-4 -0.0336-9e-3 -0.0619-0.019zm-0.47855-0.63688c-0.12512-0.12283-0.13881-0.16115-0.12645-0.35392 0.0157-0.24498 0.0543-0.3882 0.10923-0.40564 0.0736-0.0233 0.13964-0.0115 0.25675 0.046 0.0876 0.043 0.1312 0.0569 0.1626 0.0516 0.0835-0.0139 0.16344 0.0875 0.16344 0.20737 0 0.074-0.0263 0.1964-0.0537 0.25018-0.0272 0.0534-0.10369 0.14805-0.19172 0.23739-0.0638 0.0647-0.0717 0.0686-0.1423 0.0684-0.0734-1.6e-4 -0.0766-2e-3 -0.17785-0.10137zm-0.66209-0.12289c-0.13449-0.13528-0.14157-0.16966-0.0543-0.26327l0.0557-0.0597 0.10257 0.0496c0.13044 0.0631 0.26985 0.1941 0.26985 0.25364 0 0.0117-0.23139 0.13035-0.25428 0.13035-5e-3 0-0.0591-0.0498-0.11958-0.1106zm-0.20956-0.70702v-0.16305l0.0534-0.0561c0.0624-0.0657 0.15358-0.0881 0.24554-0.0606 0.0629 0.0189 0.14221 0.10182 0.14221 0.14878 0 0.034-0.065 0.14609-0.10267 0.177-0.0203 0.0167-0.30071 0.117-0.32703 0.117-6e-3 0-0.0114-0.0734-0.0114-0.16304z"/>
      <path d="m172.81 127.13v-2.1081l0.14586 8e-3c0.0802 4e-3 0.21949 0.0224 0.3095 0.0398 0.15326 0.0297 0.1714 0.0369 0.28607 0.11388l0.12243 0.0822 0.01 0.0829c5e-3 0.0456 0.0155 0.25254 0.0222 0.45994 0.0119 0.36543 0.0297 0.51703 0.0772 0.65475 0.0169 0.049 0.10339 0.1857 0.18 0.28443 0.0348 0.0448 0.0397 0.0658 0.049 0.21015l0.0104 0.16034 0.10871 0.1009c0.2134 0.19804 0.45383 0.33952 0.66368 0.39053 0.0782 0.019 0.14609 0.0533 0.31584 0.1593l0.21624 0.13509 0.11357 0.17247c0.0625 0.0949 0.13277 0.21262 0.15622 0.2617 0.0235 0.0491 0.0676 0.11951 0.098 0.15653 0.0794 0.0965 0.11237 0.14642 0.15967 0.24175 0.0336 0.0677 0.0784 0.11743 0.22785 0.25316 0.16546 0.15023 0.22808 0.21632 0.22808 0.24069 0 4e-3 -0.78762 8e-3 -1.7503 8e-3h-1.7503zm3.1696 0.87142c-0.26114-0.2584-0.25206-0.23399-0.17395-0.46743 0.0645-0.19272 0.14859-0.36342 0.21998-0.44652 0.0536-0.0623 0.0614-0.0664 0.14589-0.0745 0.29808-0.0286 0.27571-0.0293 0.34298 0.0102 0.12765 0.0748 0.1899 0.17881 0.28661 0.47887 0.0375 0.11632 0.0504 0.178 0.0447 0.21327-0.0116 0.0714-0.16247 0.36788-0.19868 0.39028-0.0239 0.0148-0.29568 0.0879-0.42193 0.11344-0.012 2e-3 -0.11927-0.0926-0.24561-0.21759zm-0.51569-0.56651c-0.0313-0.0126-0.0748-0.0353-0.0966-0.0504-0.0386-0.0267-0.0396-0.0307-0.0356-0.14229l4e-3 -0.11481 0.31521-0.1054 0.0536 0.16284c0.0295 0.0896 0.0514 0.16482 0.0487 0.16723-0.0127 0.0114-0.21183 0.10724-0.22152 0.1066-6e-3 -4.1e-4 -0.0366-0.0111-0.0679-0.0237zm-0.47328-0.63383c-0.12985-0.13072-0.14379-0.18085-0.11843-0.42594 0.0299-0.28904 0.0561-0.33894 0.17797-0.3386 0.0573 1.6e-4 0.0941 0.0121 0.17822 0.058 0.0819 0.0446 0.11588 0.0559 0.14941 0.0497 0.0597-0.0111 0.13162 0.0349 0.15982 0.10235 0.0256 0.0611 0.0191 0.18016-0.0161 0.29496-0.0254 0.0829-0.19961 0.30823-0.26408 0.34157-0.0226 0.0117-0.0689 0.0213-0.10273 0.0213-0.0575 0-0.0683-7e-3 -0.16413-0.10329zm-0.66188-0.12115c-0.0726-0.073-0.10995-0.12162-0.10995-0.14301 0-0.045 0.0351-0.10833 0.0793-0.14309l0.0372-0.0292 0.10114 0.0509c0.13024 0.0656 0.20532 0.12651 0.24026 0.19495 0.0154 0.0301 0.0259 0.0566 0.0234 0.0588-0.0117 0.0105-0.24007 0.12123-0.25003 0.12123-6e-3 0-0.0608-0.0498-0.12127-0.1106zm-0.20956-0.70373v-0.1628l0.0534-0.0576c0.0445-0.0481 0.0655-0.0592 0.12692-0.0676 0.11997-0.0163 0.23592 0.0487 0.25456 0.14269 7e-3 0.0335-3e-3 0.0573-0.0479 0.12002-0.055 0.0766-0.0592 0.0793-0.20377 0.12647-0.0812 0.0265-0.15561 0.0512-0.16539 0.0549-0.0136 5e-3 -0.0178-0.0318-0.0178-0.15611z"/>
     </g>
    </g>
   </g>
  </g>
 </g>
</svg>
