<?xml version="1.0" encoding="UTF-8"?>
<svg width="33" height="33" version="1.1" viewBox="0 0 8.7313 8.7312" xmlns="http://www.w3.org/2000/svg">
 <g transform="translate(-36.054 -267.52)">
  <g transform="translate(-74.293 174.42)">
   <g transform="matrix(1.0084 0 0 1.0084 -57.856 -29.344)">
    <g transform="translate(-1.1279 -1.2345)">
     <rect transform="matrix(.70705 -.70717 .70705 .70717 0 0)" x="28.987" y="208.55" width="6.085" height="6.085" rx=".32026" ry=".32026" fill="#f5ca7a" stroke="#000" stroke-width=".32026"/>
     <g transform="matrix(.99992 0 0 1.0001 -2.5663 -.45379)" fill="#802b00" stroke-width=".049123">
      <path d="m176.43 128.55c-0.16038-0.10051-0.18501-0.10221-0.58947-0.0407-0.23216 0.0353-0.78684 0.0645-1.2326 0.0649-0.87183 8e-4 -0.83243 0.01-1.4246-0.32003-0.20137-0.11212-0.48425-0.12027-0.92106-0.0266-0.16886 0.0362-0.30702 0.0503-0.30702 0.0312s0.14616-0.29817 0.3248-0.62023c0.81863-1.4759 1.2666-2.2418 1.3242-2.2639 0.0818-0.0314 0.25506 0.0598 0.43871 0.23089 0.081 0.0755 0.25666 0.18893 0.39023 0.252 0.21351 0.10083 0.26222 0.15411 0.40303 0.44088 0.11288 0.22987 0.21253 0.35855 0.33748 0.43577 0.0975 0.0603 0.23413 0.20085 0.30359 0.31241 0.14083 0.22615 0.46624 0.55663 0.80077 0.81325 0.20203 0.15498 0.25574 0.17141 0.62418 0.19089 0.31364 0.0166 0.42164 0.0418 0.48656 0.11351 0.0499 0.0552 0.14942 0.0922 0.24776 0.0922 0.24421 0 0.20065 0.0684-0.14271 0.22395-0.41391 0.18757-0.83187 0.21486-1.0639 0.0695zm0.85952-0.0767 0.21659-0.0827-0.12166-0.11276c-0.10448-0.0968-0.18949-0.11634-0.60174-0.13809-0.26404-0.0139-0.48656-0.0265-0.4945-0.028-8e-3 -1e-3 -8e-3 -0.0408 0-0.0874 9e-3 -0.0505-0.0172-0.0853-0.0638-0.086-0.043-6.4e-4 -0.17799-0.10824-0.29999-0.23912-0.18113-0.19433-0.22762-0.22279-0.25355-0.15522-0.0376 0.0979 5e-3 0.18571 0.0706 0.14523 0.0531-0.0328 0.19332 0.0951 0.26741 0.24413 0.0279 0.0561 0.19266 0.17293 0.3661 0.25955 0.18204 0.0909 0.28532 0.16714 0.2443 0.18032-0.0391 0.0126-0.10421 0.0331-0.14474 0.0457-0.0488 0.0152-0.0157 0.0498 0.0982 0.10256 0.19267 0.0893 0.3916 0.0759 0.7167-0.0483zm-0.55134-0.0309c-0.0131-0.0212 0.0494-0.0388 0.13876-0.0392 0.0894-3.7e-4 0.21781-0.0144 0.28535-0.0312 0.084-0.0209 0.10728-0.0145 0.0737 0.0202-0.0605 0.0625-0.465 0.10328-0.4978 0.0502zm0.22762-0.18586c0-0.0577 0.0378-0.0577 0.17193 0 0.0871 0.0374 0.0829 0.0426-0.0368 0.0457-0.0743 2e-3 -0.13509-0.0187-0.13509-0.0457zm-0.44211-0.0491c-0.0635-0.041-0.0622-0.0477 9e-3 -0.0484 0.0457-4.1e-4 0.0967 0.0214 0.11342 0.0484 0.0384 0.0622-0.0266 0.0622-0.12281 0zm-0.88421-0.66552c0-0.0148-0.0608-0.0831-0.13509-0.15169-0.0873-0.0806-0.1048-0.11514-0.0495-0.0976 0.0728 0.0231 0.0684-1.3e-4 -0.0292-0.15533-0.11173-0.17769-0.41681-0.42803-0.46405-0.38079-0.0282 0.0282 0.5881 0.80746 0.64093 0.8103 0.0203 1e-3 0.0368-0.0101 0.0368-0.0249zm-0.93351-1.3243c-0.0648-0.13388-0.1399-0.2207-0.19088-0.2207-0.0462 0-0.11327-0.0276-0.149-0.0614-0.0536-0.0507-0.0549-0.0419-7e-3 0.0507 0.0317 0.0617 0.0929 0.10586 0.13601 0.0983 0.0431-8e-3 0.089 0.0169 0.10205 0.0544 0.0145 0.0416 2e-3 0.0549-0.0317 0.0339-0.0916-0.0566-0.0633 0.0169 0.0776 0.20171 0.16811 0.22041 0.20341 0.13277 0.0632-0.15688zm-0.0653 0.0904c-0.018-0.018-0.0327-0.0556-0.0327-0.0835 0-0.0308 0.0229-0.0279 0.0581 7e-3 0.032 0.032 0.0467 0.0695 0.0327 0.0835s-0.0401 0.0106-0.0581-7e-3z"/>
      <path d="m176.46 128.55c-0.18556-0.10233-0.2102-0.10386-0.68772-0.0426-0.64902 0.0832-1.8086 0.0861-2.0772 5e-3 -0.11359-0.0342-0.27557-0.12034-0.35995-0.19134-0.19204-0.16158-0.51927-0.19984-0.98993-0.11572-0.18762 0.0335-0.34951 0.0526-0.35975 0.0423-0.0188-0.0188 0.43428-0.84851 1.1676-2.1385 0.21821-0.38386 0.42949-0.71049 0.46951-0.72585 0.074-0.0284 0.40095 0.16307 0.40156 0.23513 1.9e-4 0.0217 0.14676 0.10794 0.32572 0.19168 0.3091 0.14465 0.3328 0.16813 0.4737 0.46922 0.11261 0.24065 0.20519 0.35782 0.38451 0.48665 0.12991 0.0933 0.2512 0.21696 0.26953 0.27474 0.0423 0.13338 0.45845 0.55703 0.79567 0.81007 0.23801 0.1786 0.29208 0.19711 0.65822 0.22534 0.25049 0.0193 0.4296 0.0585 0.4814 0.10542 0.0454 0.0411 0.1526 0.0747 0.23828 0.0747 0.23701 0 0.18783 0.0714-0.15124 0.21955-0.42521 0.1858-0.79007 0.21178-1.0398 0.074zm0.90886-0.11061c0.17629-0.0833 0.2308-0.12705 0.16155-0.12976-0.0575-2e-3 -0.13203-0.0373-0.16566-0.0778-0.0379-0.0457-0.14759-0.0741-0.28848-0.0749-0.30277-2e-3 -0.64774-0.0844-0.75466-0.18119-0.0477-0.0431-0.0867-0.0592-0.0867-0.0357s-0.12158-0.0773-0.27018-0.22404c-0.15365-0.15175-0.27107-0.23577-0.27224-0.19482-1e-3 0.0396-0.0408-6.7e-4 -0.0882-0.0895-0.0474-0.0888-0.10525-0.1441-0.12862-0.12281-0.0234 0.0213-0.0278 0.013-0.01-0.0183 0.0496-0.0867-0.11115-0.32986-0.29998-0.45365-0.0926-0.0607-0.18044-0.0983-0.19519-0.0835-0.0411 0.0411 0.36439 0.54842 0.74845 0.93658 0.19203 0.19407 0.46695 0.41142 0.62262 0.49223 0.28082 0.14578 0.32213 0.22032 0.12361 0.22307-0.097 1e-3 -0.0991 6e-3 -0.0213 0.0518 0.0475 0.0277 0.1117 0.0346 0.14268 0.0155 0.0332-0.0205 0.043-0.0132 0.0239 0.0177-0.0953 0.15418 0.39356 0.1214 0.75824-0.0508zm-0.53125-0.0205c0.0478-0.0125 0.11411-0.0116 0.14737 2e-3 0.0333 0.0135-6e-3 0.0236-0.0869 0.0226-0.0811-1e-3 -0.10827-0.012-0.0605-0.0245zm0.2324 0.0147c0-0.0106 0.0343-0.0325 0.0762-0.0486 0.0437-0.0168 0.0634-9e-3 0.0462 0.0193-0.0289 0.0467-0.12246 0.069-0.12246 0.0292zm-0.0614-0.16059c0.0338-0.0136 0.089-0.0136 0.12281 0 0.0338 0.0136 6e-3 0.0248-0.0614 0.0248-0.0675 0-0.0952-0.0111-0.0614-0.0248zm-1.1729-0.49554c-0.0624-0.0795-0.06-0.0806 0.0308-0.0139 0.054 0.0396 0.10746 0.0783 0.11872 0.086 0.0113 8e-3 -3e-3 0.0139-0.0308 0.0139-0.0282 0-0.0816-0.0387-0.11871-0.086zm-1.0835-1.4681c-0.078-0.19653-0.14468-0.29241-0.21201-0.30476-0.054-0.01-0.13693-0.0523-0.18421-0.0943-0.0473-0.0419-0.086-0.0541-0.086-0.0271 0 0.0777 0.18504 0.22459 0.24005 0.19059 0.0595-0.0368 0.16996 0.15032 0.12839 0.21758-0.029 0.047 0.17245 0.35973 0.2085 0.32368 0.0105-0.0105-0.0322-0.14804-0.0948-0.30574zm-0.17844-0.12679c-0.0353-0.0353-0.0581-0.0382-0.0581-7e-3 0 0.0656 0.0581 0.12366 0.0909 0.0909 0.014-0.014-7.8e-4 -0.0515-0.0327-0.0835z"/>
      <path d="m176.47 128.54c-0.17435-0.0883-0.26219-0.10418-0.42325-0.0767-0.54675 0.0933-1.5466 0.13858-1.9793 0.0896-0.46988-0.0532-0.58786-0.093-0.77093-0.2597-0.14124-0.12863-0.53273-0.16374-0.97226-0.0872-0.181 0.0315-0.33604 0.0504-0.34453 0.0419-0.0231-0.0231 1.4838-2.6895 1.5801-2.7959 0.11209-0.12387 0.13636-0.11843 0.35572 0.0798 0.10445 0.0944 0.31719 0.22984 0.47276 0.30106 0.26231 0.12009 0.29311 0.1521 0.42395 0.44067 0.10183 0.22458 0.20119 0.35609 0.35707 0.47262 0.11879 0.0888 0.25485 0.23292 0.30235 0.32027 0.0968 0.17804 0.59122 0.65642 0.88565 0.85698 0.15258 0.10393 0.27575 0.13859 0.58616 0.16495 0.2207 0.0187 0.42698 0.0634 0.47054 0.10176 0.0427 0.0376 0.14765 0.0684 0.23333 0.0684 0.25811 0 0.17762 0.0827-0.23562 0.24204-0.46706 0.18012-0.64905 0.18776-0.9418 0.0395zm0.77873-0.042c0.32389-0.11884 0.42749-0.19043 0.27557-0.19043-0.0561 0-0.12693-0.03-0.15733-0.0666-0.0325-0.0391-0.20214-0.078-0.41128-0.0941-0.1958-0.0151-0.42232-0.055-0.50337-0.0887-0.0811-0.0336-0.16559-0.0571-0.18786-0.052-0.0223 5e-3 -0.0271-0.0126-0.0107-0.0391s-0.0317-0.0801-0.10687-0.11909c-0.0752-0.039-0.19766-0.13937-0.27216-0.22314-0.0745-0.0838-0.15605-0.15231-0.18121-0.15231-0.0251 0-0.12542-0.1291-0.22281-0.2869-0.11513-0.18651-0.24625-0.32577-0.37478-0.398-0.10873-0.0611-0.21587-0.15859-0.2381-0.21662-0.20482-0.53469-0.2018-0.5312-0.61607-0.71113-0.027-0.0117 8e-3 0.0424 0.0772 0.12021 0.0695 0.0779 0.29054 0.36018 0.49123 0.62739 0.76784 1.0223 1.2714 1.5206 1.6809 1.6634l0.15649 0.0546-0.27727 0.1134 0.16378 0.0807c0.21884 0.10784 0.37515 0.10316 0.71457-0.0214z"/>
      <path d="m176.47 128.54c-0.20714-0.10537-0.23789-0.10784-0.65921-0.0529-0.52301 0.0682-1.7892 0.0808-2.0495 0.0203-0.10063-0.0234-0.28853-0.11335-0.41755-0.19994-0.23132-0.15525-0.24072-0.15706-0.67668-0.12987-0.24316 0.0152-0.50377 0.0421-0.57914 0.0598l-0.13703 0.0323 0.0944-0.16574c0.0519-0.0912 0.36594-0.65207 0.69777-1.2465 0.77854-1.3945 0.81362-1.4491 0.93145-1.4491 0.0536 0 0.18304 0.0773 0.28759 0.17175 0.10456 0.0945 0.31141 0.22539 0.45968 0.29096 0.25309 0.11193 0.27792 0.13885 0.40591 0.44 0.10217 0.2404 0.1831 0.35173 0.32298 0.44429 0.10266 0.0679 0.25872 0.22923 0.3468 0.35844 0.25661 0.37641 0.86925 0.88395 1.1476 0.9507 0.14393 0.0345 0.14449 0.0357 0.0187 0.0406-0.0749 3e-3 -0.2407-0.0708-0.39298-0.17474-0.31418-0.21441-0.87745-0.77626-0.87745-0.87523 0-0.0386-0.105-0.14183-0.23333-0.22949-0.27402-0.18718-0.33901-0.26449-0.37564-0.44689-0.0423-0.21063-0.1758-0.37909-0.36211-0.45694-0.0939-0.0392-0.17833-0.0713-0.1876-0.0713-9e-3 0 0.23088 0.32605 0.53367 0.72456 0.65818 0.86627 1.2409 1.4676 1.5897 1.6405 0.24865 0.12325 0.25048 0.12578 0.12321 0.17054l-0.12919 0.0454 0.17895 0.0849c0.0984 0.0467 0.24371 0.0849 0.32284 0.0849 0.17168 0 0.71439-0.21231 0.74013-0.28954 0.01-0.0299 0.066-0.0532 0.12454-0.0517 0.10443 3e-3 0.10419 4e-3 -0.0128 0.086-0.18123 0.12678-0.68363 0.30444-0.86091 0.30444-0.0867 0-0.2554-0.0497-0.37489-0.11052zm0.89035-0.30459c-0.0331-0.0399-0.17084-0.0791-0.31303-0.0892l-0.2539-0.0179 0.26243-9e-3c0.19777-7e-3 0.2932 0.0151 0.38733 0.0892 0.0831 0.0654 0.10004 0.0982 0.0506 0.0982-0.0409 0-0.1009-0.0321-0.13343-0.0712z"/>
      <path d="m176.47 128.53c-0.21951-0.11671-0.22544-0.11712-0.73188-0.0502-0.68583 0.0906-1.7286 0.0901-2.0315-1e-3 -0.12911-0.0389-0.28905-0.12166-0.35542-0.18402-0.10009-0.094-0.18499-0.11615-0.49763-0.12969-0.20733-9e-3 -0.47583 6e-3 -0.59668 0.0339-0.12084 0.0276-0.2284 0.0415-0.239 0.0309-0.02-0.02 0.87893-1.6581 1.317-2.3998 0.28739-0.48656 0.34668-0.51105 0.62751-0.25922 0.1014 0.0909 0.27278 0.2138 0.38085 0.27306 0.17919 0.0983 0.1562 0.1058-0.0589 0.0193-0.0459-0.0185 0.0919 0.19707 0.3061 0.47895 0.89358 1.1757 1.3732 1.6822 1.7807 1.8804 0.19444 0.0946 0.20218 0.10542 0.10189 0.14251l-0.10852 0.0401 0.10919 0.0765c0.0601 0.0421 0.21315 0.094 0.34021 0.11542 0.21709 0.0366 0.22036 0.0393 0.0541 0.0447-0.10211 3e-3 -0.27045-0.044-0.3982-0.11189zm0.84527-0.0416c0.0676-0.0299 0.19465-0.0965 0.28246-0.14805 0.0878-0.0515 0.15965-0.0725 0.15965-0.0465 0 0.0456-0.44404 0.25906-0.5249 0.25234-0.022-2e-3 0.0153-0.0278 0.0828-0.0577zm0.0512-0.2557c-0.0325-0.0391-0.16229-0.0794-0.28848-0.0894l-0.22942-0.0182 0.22106-8e-3c0.15374-5e-3 0.25845 0.0215 0.34386 0.0883 0.0675 0.0528 0.0979 0.0965 0.0674 0.0971s-0.082-0.0309-0.11444-0.0701zm-0.94157-0.21156c-0.35109-0.23339-0.43164-0.29899-0.69042-0.56231-0.15345-0.15615-0.29246-0.3263-0.30891-0.37813-0.0164-0.0518-0.14817-0.18351-0.2927-0.29264-0.20357-0.15369-0.28061-0.25067-0.34179-0.43023-0.0434-0.12749-0.11776-0.27785-0.16514-0.33413-0.0855-0.10151-0.0853-0.10161 0.0199-0.0128 0.0583 0.0492 0.13239 0.15976 0.16461 0.24562 0.11402 0.3039 0.16377 0.37526 0.34539 0.49545 0.10099 0.0668 0.25509 0.22742 0.34245 0.35686 0.24982 0.37017 0.87389 0.88599 1.1529 0.9529 0.13474 0.0323 0.13708 0.036 0.0255 0.0403-0.0675 3e-3 -0.18082-0.0338-0.25174-0.0809z"/>
      <path d="m176.78 128.61c0.0473-0.0123 0.12465-0.0123 0.17193 0 0.0473 0.0124 9e-3 0.0225-0.086 0.0225-0.0946 0-0.13325-0.0101-0.086-0.0225zm-0.37096-0.11462c-0.12328-0.097-0.13994-0.0976-0.69686-0.0246-0.66694 0.0874-1.5846 0.0975-1.94 0.0213-0.13721-0.0294-0.31937-0.11233-0.4048-0.18422-0.13268-0.11164-0.20948-0.13306-0.52664-0.14683-0.20422-9e-3 -0.47018 6e-3 -0.59103 0.0341-0.12084 0.0276-0.22712 0.0428-0.23617 0.0338-0.0169-0.0169 1.0948-2.04 1.3984-2.5447 0.20068-0.33366 0.28227-0.35125 0.54333-0.11714 0.1014 0.0909 0.27278 0.2138 0.38085 0.27306 0.17779 0.0975 0.15605 0.10588-0.0544 0.021-0.0923-0.0372 0.48226 0.75576 0.98393 1.3581 0.47783 0.57369 0.74306 0.82011 1.06 0.9848 0.19463 0.10115 0.23927 0.14107 0.15965 0.14277-0.15039 3e-3 -0.13906 0.082 0.0246 0.17076 0.0743 0.0403 0.11044 0.0742 0.0803 0.0753-0.0301 1e-3 -0.11162-0.0427-0.18109-0.0974zm0.84991 1e-3c0.0405-0.0262 0.0958-0.0476 0.12281-0.0476 0.027 0 0.016 0.0214-0.0246 0.0476-0.0405 0.0262-0.0958 0.0476-0.12281 0.0476-0.027 0-0.016-0.0214 0.0246-0.0476zm0.38377-0.18092c0.0355-0.0142 0.0778-0.0125 0.0942 4e-3 0.0163 0.0163-0.0127 0.0279-0.0645 0.0258-0.0572-2e-3 -0.0689-0.014-0.0297-0.0297zm-0.31254-0.11053c-0.0257-0.0252-0.13509-0.0547-0.24316-0.0654l-0.19649-0.0196 0.20276-8e-3c0.12875-5e-3 0.22507 0.0186 0.26391 0.0654 0.0671 0.0808 0.0475 0.10102-0.027 0.0279zm-0.77123-0.13406c0.0338-0.0136 0.089-0.0136 0.1228 0s6e-3 0.0248-0.0614 0.0248c-0.0675 0-0.0952-0.0112-0.0614-0.0248zm-0.33785-0.20081c-0.0611-0.0779-0.0594-0.0796 0.0185-0.0185 0.0473 0.0371 0.086 0.0758 0.086 0.086 0 0.0404-0.0403 0.0144-0.10451-0.0674zm-0.49281-0.41827c-0.0989-0.0874-0.21662-0.22524-0.26164-0.30629-0.0813-0.1464-0.0813-0.14656 7e-3 -0.0246 0.0489 0.0675 0.17764 0.2057 0.28618 0.30702 0.24146 0.22538 0.21723 0.24371-0.0315 0.0238zm-0.44053-0.56419c-0.0611-0.0779-0.0594-0.0796 0.0186-0.0185 0.0473 0.0371 0.086 0.0758 0.086 0.086 0 0.0404-0.0403 0.0144-0.10451-0.0674zm-0.55549-0.6856c-0.0267-0.07-0.021-0.0756 0.0275-0.0275 0.0336 0.0333 0.0487 0.073 0.0335 0.0881-0.0151 0.0151-0.0426-0.0121-0.061-0.0606zm-0.13223-0.19861c-0.0611-0.0779-0.0594-0.0797 0.0185-0.0186 0.0818 0.0642 0.10785 0.10452 0.0674 0.10452-0.0102 0-0.0489-0.0387-0.086-0.086z"/>
      <path d="m176.78 128.61c0.0473-0.0123 0.12465-0.0123 0.17193 0 0.0473 0.0124 9e-3 0.0225-0.086 0.0225-0.0946 0-0.13325-0.0101-0.086-0.0225zm-3.019-0.13326c-0.12719-0.0342-0.31627-0.12117-0.42018-0.19318-0.16644-0.11534-0.2354-0.13079-0.57928-0.12976-0.21469 6.5e-4 -0.47324 0.0204-0.57455 0.0439-0.10132 0.0235-0.18421 0.0354-0.18421 0.0264 0-0.0133 0.74793-1.3625 1.2514-2.2574 0.34351-0.61056 0.34164-0.60878 0.5325-0.50859 0.13885 0.0729 0.45115 0.34433 0.45115 0.39213 0 0.0203 0.1428 0.23165 0.31734 0.46966 0.80016 1.0912 1.365 1.6953 1.7777 1.9009 0.18502 0.0922 0.22574 0.12837 0.14448 0.12837-0.0847 0-0.10537 0.0203-0.0822 0.0806 0.0249 0.0648 0.0174 0.0694-0.0382 0.0232-0.053-0.044-0.21109-0.0398-0.6751 0.0176-0.72309 0.0895-1.6006 0.0923-1.9208 6e-3zm3.8817-0.16117c0.0355-0.0142 0.0778-0.0125 0.0942 4e-3 0.0163 0.0163-0.0127 0.0279-0.0645 0.0258-0.0572-2e-3 -0.0689-0.014-0.0297-0.0297zm-0.50658-0.16294-0.19649-0.0352 0.18131-7e-3c0.0997-4e-3 0.19498 0.0151 0.21167 0.0421 0.0167 0.027 0.0235 0.046 0.0152 0.0422-8e-3 -4e-3 -0.1036-0.0228-0.21167-0.0422zm-0.525-0.0827c0.0355-0.0142 0.0778-0.0124 0.0941 4e-3 0.0163 0.0163-0.0127 0.0279-0.0645 0.0258-0.0572-2e-3 -0.0689-0.014-0.0297-0.0297zm-0.85044-0.58661c-0.0883-0.0752-0.10639-0.10505-0.0451-0.0746 0.09 0.0447 0.25894 0.20643 0.21075 0.20177-0.0101-9.7e-4 -0.0846-0.0582-0.16566-0.12717zm-1.1607-1.4798c-0.0611-0.0779-0.0594-0.0797 0.0185-0.0186 0.0818 0.0642 0.10785 0.10452 0.0674 0.10452-0.0102 0-0.0489-0.0387-0.086-0.086z"/>
     </g>
    </g>
   </g>
  </g>
 </g>
</svg>
