<?xml version="1.0" encoding="UTF-8"?>
<svg width="33" height="33" version="1.1" viewBox="0 0 8.7313 8.7312" xmlns="http://www.w3.org/2000/svg">
 <g transform="translate(-36.054 -267.52)">
  <g transform="translate(-74.293 174.42)">
   <g transform="matrix(1.0084 0 0 1.0084 -57.856 -29.344)">
    <g transform="translate(-1.1279 -1.2345)">
     <path transform="rotate(-45)" d="m29.29 208.55h5.4445c0.17743 0 0.32026 0.14283 0.32026 0.32026v5.4445c0 0.17742-0.14284 0.32026-0.32026 0.32026h-5.4445c-0.17743 0-0.32026-0.14284-0.32026-0.32026v-5.4445c0-0.17743 0.14284-0.32026 0.32026-0.32026z" fill="#f50" stroke="#000" stroke-width=".32026"/>
     <g transform="translate(-2.7754 .035092)" stroke-width=".021668">
      <path d="m174.69 129.17c-0.31858-0.0387-0.55902-0.22084-0.58003-0.43945-0.0203-0.2117 0.11442-0.41062 0.46403-0.68493 0.24099-0.18909 0.4271-0.40017 0.52327-0.59351 0.0748-0.15032 0.0803-0.17474 0.0803-0.35753 0-0.24695-0.0371-0.32869-0.26693-0.58803-0.3642-0.41098-0.41891-0.47975-0.48162-0.60541-0.0789-0.15814-0.0891-0.31372-0.0319-0.48701 0.0534-0.16166 0.26116-0.36502 0.50924-0.49836 0.0998-0.0536 0.18536-0.1097 0.19019-0.1246 7e-3 -0.0206-0.0477-0.0269-0.22595-0.0263l-0.23474 7.7e-4 -1.3944 1.2668c-0.76693 0.69675-1.3983 1.2668-1.403 1.2668-5e-3 0-9e-3 -0.0662-9e-3 -0.14715v-0.14715l2.7067-2.4576h1.0551l1.326 1.2065 1.326 1.2065v0.3022l-0.0476-0.0413c-0.0262-0.0227-0.64523-0.58488-1.3757-1.2493-0.89561-0.81457-1.3434-1.208-1.375-1.208-0.0279 0-0.077 0.0352-0.12112 0.0867-0.0408 0.0477-0.14022 0.12594-0.22086 0.17385-0.3748 0.22266-0.48532 0.41967-0.36788 0.65575 0.0273 0.0549 0.19408 0.23792 0.41875 0.45958 0.49371 0.48709 0.65984 0.71591 0.77935 1.0734 0.18913 0.56577 0.0721 1.1742-0.30383 1.5803-0.0646 0.0698-0.16581 0.15789-0.2249 0.19581-0.20046 0.12863-0.50602 0.20577-0.71475 0.18044z"/>
      <path d="m174.69 129.17c-0.31858-0.0387-0.55902-0.22084-0.58003-0.43945-0.0203-0.2117 0.11442-0.41062 0.46403-0.68493 0.24099-0.18909 0.4271-0.40017 0.52327-0.59351 0.0748-0.15032 0.0803-0.17474 0.0803-0.35753 0-0.24695-0.0371-0.32869-0.26693-0.58803-0.3642-0.41098-0.41891-0.47975-0.48162-0.60541-0.0789-0.15814-0.0891-0.31372-0.0319-0.48701 0.0534-0.16166 0.26116-0.36502 0.50924-0.49836 0.0998-0.0536 0.18536-0.1097 0.19019-0.1246 7e-3 -0.0206-0.0477-0.0269-0.22595-0.0263l-0.23474 7.7e-4 -1.3944 1.2668c-0.76693 0.69675-1.3983 1.2668-1.403 1.2668-5e-3 0-9e-3 -0.0662-9e-3 -0.14715v-0.14715l2.7067-2.4576h1.0551l1.326 1.2065 1.326 1.2065v0.3022l-0.0476-0.0413c-0.0262-0.0227-0.64523-0.58488-1.3757-1.2493-0.89561-0.81457-1.3434-1.208-1.375-1.208-0.0279 0-0.077 0.0352-0.12112 0.0867-0.0408 0.0477-0.14022 0.12594-0.22086 0.17385-0.3748 0.22266-0.48532 0.41967-0.36788 0.65575 0.0273 0.0549 0.19408 0.23792 0.41875 0.45958 0.49371 0.48709 0.65984 0.71591 0.77935 1.0734 0.18913 0.56577 0.0721 1.1742-0.30383 1.5803-0.0646 0.0698-0.16581 0.15789-0.2249 0.19581-0.20046 0.12863-0.50602 0.20577-0.71475 0.18044z"/>
      <path d="m174.69 129.17c-0.31858-0.0387-0.55902-0.22084-0.58003-0.43945-0.0203-0.2117 0.11442-0.41062 0.46403-0.68493 0.24099-0.18909 0.4271-0.40017 0.52327-0.59351 0.0748-0.15032 0.0803-0.17474 0.0803-0.35753 0-0.24695-0.0371-0.32869-0.26693-0.58803-0.3642-0.41098-0.41891-0.47975-0.48162-0.60541-0.0789-0.15814-0.0891-0.31372-0.0319-0.48701 0.0534-0.16166 0.26116-0.36502 0.50924-0.49836 0.0998-0.0536 0.18536-0.1097 0.19019-0.1246 7e-3 -0.0206-0.0477-0.0269-0.22595-0.0263l-0.23474 7.7e-4 -1.3944 1.2668c-0.76693 0.69675-1.3983 1.2668-1.403 1.2668-5e-3 0-9e-3 -0.0662-9e-3 -0.14715v-0.14715l2.7067-2.4576h1.0551l1.326 1.2065 1.326 1.2065v0.3022l-0.0476-0.0413c-0.0262-0.0227-0.64523-0.58488-1.3757-1.2493-0.89561-0.81457-1.3434-1.208-1.375-1.208-0.0279 0-0.077 0.0352-0.12112 0.0867-0.0408 0.0477-0.14022 0.12594-0.22086 0.17385-0.3748 0.22266-0.48532 0.41967-0.36788 0.65575 0.0273 0.0549 0.19408 0.23792 0.41875 0.45958 0.49371 0.48709 0.65984 0.71591 0.77935 1.0734 0.18913 0.56577 0.0721 1.1742-0.30383 1.5803-0.0646 0.0698-0.16581 0.15789-0.2249 0.19581-0.20046 0.12863-0.50602 0.20577-0.71475 0.18044z"/>
      <path d="m174.69 129.17c-0.31858-0.0387-0.55902-0.22084-0.58003-0.43945-0.0203-0.2117 0.11442-0.41062 0.46403-0.68493 0.24099-0.18909 0.4271-0.40017 0.52327-0.59351 0.0748-0.15032 0.0803-0.17474 0.0803-0.35753 0-0.24695-0.0371-0.32869-0.26693-0.58803-0.3642-0.41098-0.41891-0.47975-0.48162-0.60541-0.0789-0.15814-0.0891-0.31372-0.0319-0.48701 0.0534-0.16166 0.26116-0.36502 0.50924-0.49836 0.0998-0.0536 0.18536-0.1097 0.19019-0.1246 7e-3 -0.0206-0.0477-0.0269-0.22595-0.0263l-0.23474 7.7e-4 -1.3944 1.2668c-0.76693 0.69675-1.3983 1.2668-1.403 1.2668-5e-3 0-9e-3 -0.0662-9e-3 -0.14715v-0.14715l2.7067-2.4576h1.0551l1.326 1.2065 1.326 1.2065v0.3022l-0.0476-0.0413c-0.0262-0.0227-0.64523-0.58488-1.3757-1.2493-0.89561-0.81457-1.3434-1.208-1.375-1.208-0.0279 0-0.077 0.0352-0.12112 0.0867-0.0408 0.0477-0.14022 0.12594-0.22086 0.17385-0.3748 0.22266-0.48532 0.41967-0.36788 0.65575 0.0273 0.0549 0.19408 0.23792 0.41875 0.45958 0.49371 0.48709 0.65984 0.71591 0.77935 1.0734 0.18913 0.56577 0.0721 1.1742-0.30383 1.5803-0.0646 0.0698-0.16581 0.15789-0.2249 0.19581-0.20046 0.12863-0.50602 0.20577-0.71475 0.18044z"/>
      <path d="m174.69 129.17c-0.31858-0.0387-0.55902-0.22084-0.58003-0.43945-0.0203-0.2117 0.11442-0.41062 0.46403-0.68493 0.24099-0.18909 0.4271-0.40017 0.52327-0.59351 0.0748-0.15032 0.0803-0.17474 0.0803-0.35753 0-0.24695-0.0371-0.32869-0.26693-0.58803-0.3642-0.41098-0.41891-0.47975-0.48162-0.60541-0.0789-0.15814-0.0891-0.31372-0.0319-0.48701 0.0534-0.16166 0.26116-0.36502 0.50924-0.49836 0.0998-0.0536 0.18536-0.1097 0.19019-0.1246 7e-3 -0.0206-0.0477-0.0269-0.22595-0.0263l-0.23474 7.7e-4 -1.3944 1.2668c-0.76693 0.69675-1.3983 1.2668-1.403 1.2668-5e-3 0-9e-3 -0.0662-9e-3 -0.14715v-0.14715l2.7067-2.4576h1.0551l1.326 1.2065 1.326 1.2065v0.3022l-0.0476-0.0413c-0.0262-0.0227-0.64523-0.58488-1.3757-1.2493-0.89561-0.81457-1.3434-1.208-1.375-1.208-0.0279 0-0.077 0.0352-0.12112 0.0867-0.0408 0.0477-0.14022 0.12594-0.22086 0.17385-0.3748 0.22266-0.48532 0.41967-0.36788 0.65575 0.0273 0.0549 0.19408 0.23792 0.41875 0.45958 0.49371 0.48709 0.65984 0.71591 0.77935 1.0734 0.18913 0.56577 0.0721 1.1742-0.30383 1.5803-0.0646 0.0698-0.16581 0.15789-0.2249 0.19581-0.20046 0.12863-0.50602 0.20577-0.71475 0.18044z"/>
      <path d="m174.56 129.15c-0.14162-0.0337-0.31192-0.13446-0.37553-0.22227-0.0834-0.11513-0.0975-0.20366-0.0552-0.34535 0.0489-0.16341 0.15332-0.29317 0.38553-0.47897 0.48044-0.38441 0.66809-0.66657 0.66987-1.0072 1e-3 -0.23105-0.0662-0.35546-0.38421-0.70953-0.26936-0.29986-0.37504-0.44668-0.41947-0.58275-0.038-0.11621-0.0177-0.32782 0.0428-0.4463 0.0716-0.14035 0.24831-0.30109 0.45005-0.40939 0.0974-0.0523 0.19347-0.11321 0.21358-0.13543 0.0355-0.0392 0.0292-0.0404-0.21244-0.0404h-0.24901l-1.3438 1.2188c-0.73911 0.67036-1.3652 1.2378-1.3913 1.261l-0.0475 0.0422 0.012-0.30422 2.6827-2.4346 1.0442 0.00144 1.212 1.1049c0.6666 0.60769 1.2638 1.1531 1.3272 1.2121 0.11486 0.1069 0.11517 0.10755 0.11517 0.23962 0 0.076-9e-3 0.12935-0.021 0.1252-0.0115-4e-3 -0.62622-0.55813-1.3659-1.2315-0.92629-0.84317-1.3624-1.2265-1.4009-1.2314-0.0425-5e-3 -0.0713 0.0114-0.11909 0.0694-0.0347 0.0421-0.14319 0.12508-0.2411 0.18442-0.17686 0.10718-0.33317 0.24829-0.38331 0.34603-0.0388 0.0757-0.0342 0.22035 0.01 0.30648 0.0213 0.0417 0.2257 0.26597 0.4542 0.49836 0.24476 0.24893 0.45719 0.48597 0.51703 0.57695 0.22342 0.33964 0.31848 0.63635 0.31848 0.99398 0 0.79624-0.5379 1.426-1.2103 1.417-0.0911-1e-3 -0.19703-0.01-0.23539-0.0188z"/>
      <path d="m174.53 129.13c-0.43699-0.12198-0.54243-0.44294-0.26517-0.8071 0.0299-0.0392 0.14303-0.14092 0.25147-0.22597 0.46975-0.36841 0.66802-0.66514 0.67122-1.0045 2e-3 -0.22505-0.0722-0.35892-0.40772-0.73503-0.3094-0.34678-0.40124-0.49671-0.41808-0.68247-0.0247-0.27205 0.16862-0.55014 0.50798-0.73085 0.0946-0.0504 0.18981-0.1113 0.21164-0.13543 0.0396-0.0438 0.0393-0.0439-0.21202-0.0439h-0.25171l-1.3063 1.1841c-0.71848 0.65123-1.3429 1.2187-1.3876 1.2611l-0.0813 0.0771v-0.28878l1.3488-1.225 1.3488-1.225 1.0305-2.2e-4 2.6423 2.4073v0.28419l-0.18959-0.17277c-2.4155-2.2011-2.5294-2.3021-2.5967-2.3021-0.0505 0-0.0731 0.0134-0.0917 0.0544-0.0136 0.0299-0.0956 0.0994-0.18224 0.1544-0.28197 0.17912-0.31636 0.20573-0.39285 0.3039-0.10489 0.13464-0.1183 0.23539-0.0509 0.38258 0.0416 0.0908 0.1429 0.20572 0.46377 0.52595 0.43556 0.43471 0.56564 0.60333 0.6922 0.8973 0.29448 0.68398 0.0984 1.5057-0.44714 1.8742-0.0894 0.0604-0.21614 0.12778-0.28169 0.14977-0.16112 0.0541-0.45423 0.065-0.60599 0.0227z"/>
     </g>
    </g>
   </g>
  </g>
 </g>
</svg>
