<?xml version="1.0" encoding="UTF-8"?>
<svg width="32.725" height="32.725" version="1.1" viewBox="0 0 8.6584 8.6584" xmlns="http://www.w3.org/2000/svg">
 <g transform="translate(-48.859 -132.66)">
  <g transform="translate(1.5941 67.529)">
   <rect transform="rotate(-45)" x="-15.675" y="82.554" width="6.085" height="6.085" rx=".32026" ry=".32026" stroke="#646464" stroke-opacity=".62745" stroke-width=".32026"/>
   <path d="m49.83 71.567c-0.0368 0-0.05016-0.0089-0.05603-0.03721-0.0042-0.02047-0.01934-0.27164-0.03356-0.55816s-0.03037-0.5749-0.03589-0.64085l-0.01004-0.1199h-0.11382c-0.11146 0-0.11382-8.89e-4 -0.11382-0.04287 0-0.03311 0.12241-0.81133 0.17405-1.1065 0.0048-0.02729-0.07523 0.11411-0.17778 0.31422l-0.18646 0.36384-0.07029 0.0051c-0.06094 0.0044-0.07029 6.91e-4 -0.07029-0.02796 0-0.01818-0.0076-0.03777-0.01697-0.04354-0.01797-0.01111-0.01682-0.12377 0.0013-0.12377 0.0058 0 0.01191-0.04279 0.0135-0.09509 0.0029-0.09567 0.09431-0.35985 0.30037-0.86824 0.14051-0.34667 0.21674-0.42559 0.44857-0.4644l0.12053-0.02018-0.06625-0.01985c-0.14567-0.04365-0.238-0.18959-0.238-0.37621 0-0.13381 0.03369-0.22217 0.11318-0.29686 0 0 0.03222-0.03553 0.05193-0.04879 0.07039-0.04735 0.15314-0.05958 0.23341-0.05923 0.07944 3.45e-4 0.16129 0.0216 0.23048 0.06062 0.02306 0.013 0.05703 0.05528 0.05703 0.05528 0.08366 0.08108 0.11186 0.16942 0.10466 0.32784-0.0052 0.11453-0.01261 0.14166-0.05565 0.20375-0.03187 0.04597-0.0806 0.08733-0.13603 0.11547l-0.08638 0.04384 0.1098 0.01912c0.2334 0.04064 0.29785 0.11168 0.4533 0.49962 0.19361 0.48317 0.36233 0.95284 0.36233 1.0086 0 0.06463-0.0339 0.11316-0.07905 0.11316-0.0183 0-0.0032 0.02463 0.04666 0.07608 0.10384 0.10715 0.22518 0.18691 0.26752 0.17584 0.02966-0.0078 0.03092-0.0115 0.0092-0.02738-0.08864-0.06481-0.12255-0.23696-0.06893-0.34995 0.04353-0.09172 0.11948-0.12749 0.25454-0.11985 0.1274 0.0072 0.18316 0.04217 0.22543 0.14137 0.04674 0.1097 0.0142 0.27166-0.06585 0.32773-0.03426 0.024-0.03419 0.02423 0.0076 0.02423 0.05147 0 0.16587-0.074 0.25332-0.16386l0.06489-0.06667-0.04421-0.03478c-0.03299-0.02595-0.04421-0.04958-0.04421-0.09311 0-0.104 0.33304-1.0964 0.42407-1.2637 0.08529-0.15671 0.21132-0.23256 0.42762-0.25737l0.09921-0.01138-0.06857-0.02286c-0.08042-0.02681-0.1708-0.10925-0.20975-0.19133-0.0385-0.08114-0.03662-0.27998 0.0035-0.36739 0.04761-0.10379 0.0879-0.18561 0.16757-0.18862 0 0 0.06148-0.0136 0.08126-0.01197 0.0512-0.0055 0.10349-0.0126 0.13764-0.01187 0.0101 0.0062 0.06106-0.01068 0.12083 0.0175 0.10274 0.0058 0.1017 0.04287 0.16008 0.1065 0.1565 0.17052 0.12108 0.49176-0.06741 0.6113-0.04138 0.02624-0.09052 0.04852-0.1092 0.0495-0.01868 9.84e-4 0.02115 0.01185 0.08853 0.02414 0.1716 0.03131 0.28878 0.09251 0.35743 0.1867 0.0992 0.13608 0.37639 0.92241 0.39436 1.1187 0.0058 0.06367 0.01501 0.1428 0.02039 0.17583 0.0059 0.03609 0.0026 0.06453-0.0083 0.07126-0.01 0.0062-0.01812 0.02564-0.01812 0.0433 0 0.04536-0.1031 0.04477-0.14406-8.25e-4 -0.01627-0.01811-0.10773-0.20838-0.20324-0.42282l-0.17365-0.38989-0.0135 0.25331c-0.0095 0.1785-0.0034 0.53657 0.02076 1.2125 0.038 1.0639 0.03945 1.1484 0.0202 1.1787-0.01467 0.02312-0.17675 0.03839-0.26359 0.02484-0.02981-0.0047-0.06066-0.02061-0.06855-0.03546-0.0079-0.01485-0.03806-0.27631-0.06704-0.58102-0.02898-0.30471-0.05787-0.56767-0.0642-0.58435-0.0063-0.01668-0.03645 0.22891-0.06694 0.54575s-0.06174 0.59282-0.06943 0.61329c-0.01132 0.03011-0.02669 0.03721-0.08055 0.03721-0.09142 0.0071-0.13149 0-0.19817 0-0.02739 0-0.05093-0.01084-0.05681-0.02616-0.01605-0.04182-0.01175-0.28788 0.02163-1.239 0.01894-0.53969 0.02706-0.99412 0.02051-1.1485l-0.01083-0.25543-0.16703 0.37091c-0.16187 0.35945-0.16596 0.37144-0.1323 0.38812 0.02357 0.01167 0.03631 0.03593 0.03966 0.0755 4e-3 0.04685-0.01165 0.0837-0.07956 0.18773-0.10285 0.15754-0.23485 0.29993-0.31683 0.34176-0.03351 0.01709-0.06577 0.04634-0.07169 0.06498-0.01736 0.05469-0.01342 0.4759 0.0081 0.86502 0.01097 0.19848 0.01725 0.36358 0.01394 0.36689-0.0033 0.0033-0.02606 0.0087-0.05057 0.01198-0.07129 0.0022-0.1006-0.0042-0.1533-0.0065l-0.04961-0.0056-0.02381-0.16951c-0.01309-0.09323-0.029-0.16951-0.03535-0.16951-0.0063 0-0.02112 0.07514-0.03282 0.16698-0.01826 0.1433-0.02615 0.16879-0.05561 0.17974-0.01888 7e-3 -0.04364 0.0092-0.05501 0.0049-0.05176 0.0024-0.07174-0.0024-0.12708-0.0043-0.05037 0-0.04826 0.05452-0.02043-0.52922 0.01965-0.41201 0.02038-0.62273 0.0024-0.70537-0.0043-0.01988-0.03977-0.05437-0.08032-0.07813-0.13984-0.08195-0.39088-0.41118-0.3904-0.51198 2.98e-4 -0.06155 0.01435-0.08761 0.05172-0.09593 0.02195-0.0049-0.0042-0.06804-0.13626-0.32854-0.08989-0.17737-0.15991-0.30388-0.15562-0.28114 0.03481 0.1842 0.17375 1.0818 0.17375 1.1225v0.05167h-0.227l-0.01028 0.15298c-0.0057 0.08414-0.02252 0.3874-0.03748 0.67392-0.01496 0.28652-0.0292 0.52328-0.03163 0.52614-0.0024 0.0029-0.02752 0.0058-0.05574 0.0067-0.06264 0.0094-0.09091-8.8e-5 -0.1337-1.3e-4 -0.02258-0.0031-0.04435-0.0089-0.04839-0.01297-4e-3 -4e-3 -0.02366-0.27333-0.0436-0.59842-0.01994-0.3251-0.03828-0.5948-0.04074-0.59935-0.0025-0.0045-0.02019 0.26337-0.03939 0.59537l-0.03491 0.60364-0.04956 0.0056c-0.07114 0.0039-0.0841 0.0015-0.14134 0.0026z" fill="#fff" stroke-width=".016538"/>
  </g>
 </g>
</svg>
