<?xml version="1.0" encoding="UTF-8"?>
<svg width="33" height="33" version="1.1" viewBox="0 0 8.7313 8.7312" xmlns="http://www.w3.org/2000/svg">
 <g transform="translate(-36.054 -267.52)">
  <g transform="translate(-74.293 174.42)">
   <rect transform="rotate(-45)" x="9.1292" y="146.96" width="6.1362" height="6.1362" rx=".32296" ry=".32296" stroke="#646464" stroke-opacity=".62745" stroke-width=".32296"/>
   <path d="m114.07 99.847c-0.44541-0.08056-0.74847-0.2446-0.94025-0.43056-0.18064-0.22133-0.27226-0.42118-0.35147-0.68764-7e-3 -0.09899-9e-3 -0.10041-0.0135-0.15061-0.0162-0.11652-0.0162-0.12931-0.0176-0.14072-0.0166-0.05931-0.0168-0.29153-3.3e-4 -0.352 0.0146-0.15489 0.0262-0.25563 0.0286-0.28675 0-0.06652 0.0382-0.05776 0.0991 0.02278 0.078 0.1031 0.21174 0.24335 0.27479 0.28824 0.0504 0.03591 0.16877 0.06024 0.24126 0.04854 0.0319-0.04237 0.0285-0.04228 0.0672-0.06512 0.0223-0.07675 0.0226-0.08348 0.0222-0.22072-4.3e-4 -0.14997-0.0113-0.18854-0.0239-0.24063-0.0433-0.08012-0.14177-0.2798-0.21392-0.48563-0.0445-0.15753-0.0732-0.25321-0.0897-0.36678 2.9e-4 -0.11385 0.0103-0.1707 0.0431-0.24522-5.2e-4 -0.05137 0.0449-0.11417 0.0559-0.13221 0.0503-0.07778 0.17282-0.19455 0.31234-0.26729 0.13417-0.06994 0.29478-0.11299 0.38339-0.10275 0.051 0.0058 0.0552 0.01175 0.0509 0.07126-0.0188 0.26266-0.0121 0.4399 0.0195 0.5219 0.0488 0.12652 0.17009 0.23168 0.28421 0.24647 0.0495 0.0065 0.10538 0.01482 0.12422 0.01871 0.0382 0.0064 0.045-0.05097 0.0678-0.07682 0.0712-0.08108 0.0813-0.12713 0.066-0.2994-7e-3 -0.07822-0.0143-0.16018-0.0162-0.18214-2e-3 -0.02195-8e-3 -0.03695-0.0142-0.03334-0.0179 0.01107-0.0501-0.11352-0.0795-0.18092-0.0929-0.13607-0.18495-0.26484-0.25444-0.39088-0.0518-0.21194 0.0199-0.55094 0.1866-0.88244 0.10612-0.21107 0.15465-0.19795 0.17131 0.04631 0.0234 0.34303 0.27324 0.60541 0.89178 0.93652 0.12084 0.06469 0.25289 0.14982 0.29346 0.18919 0.10672 0.10358 0.19822 0.30929 0.23346 0.52492 0.0287 0.17571 0.0219 0.3504-0.0266 0.68492l-0.011 0.07623 0.14568-0.07202c0.18843-0.09316 0.33846-0.12006 0.51077-0.09161 0.28276 0.07651 0.1415 0.02375 0.26575 0.08655 0.0275 5.26e-4 0.0324 0.03042 2e-3 0.05319-0.0185 0.01404-0.031 0.02899-0.0278 0.03325 3e-3 0.0042-0.0656 0.07539-0.15297 0.15809-0.0874 0.0827-0.18219 0.18404-0.21072 0.22521-0.0285 0.04116-0.0605 0.06954-0.071 0.06305-0.0108-0.0067-0.0135-0.0028-6e-3 0.0089-0.0612 0.18183-0.12104 0.38986-0.15532 0.55008-0.0139 0.22612-0.14343 0.55125-0.19924 0.66932 0.0155 0.02506-0.11469 0.1859-0.23453 0.32854-0.10237 0.12659-0.30819 0.24426-0.40943 0.30776-0.19943 0.16007-0.459 0.19217-0.68782 0.22796-0.0265 0.01636-0.60713 0.01298-0.63409-0.0037zm0.72873-0.60429c0.3551-0.38329 0.3088-1.0135-0.23598-1.3512-0.10185-0.02339-0.12758 0.02888-0.14805 0.03352-0.23161 0.2606-0.37813 0.5406-0.43131 0.65131-0.0381 0.12656-0.0338 0.29816 0.01 0.39426 0.0756 0.16654 0.23454 0.26148 0.47258 0.28228 0.14904 0.01302 0.19723 0.01156 0.333-0.0101zm0.51607-3.6628c-0.0289-0.04551-0.10275-0.22752-0.10464-0.258-1e-3 -0.01708-8e-3 -0.02716-0.016-0.02239-8e-3 0.0047-0.0518-0.04269-0.098-0.10546-0.0912-0.12382-0.14956-0.28674-0.13113-0.36573 0.0215-0.09217 0.0427-0.17032 0.0621-0.15836 0.01-0.08814 0.17422-0.19831 0.22253-0.24553 4e-3 0.0011 0.0314 0.0025 0.0357 0.0032 0.0664 0.01642 0.0546 0.0183 0.0772 0.03787 0.01 0.02073 0.0114 0.03531 6e-3 0.14865l-0.01 0.20608 0.0953 0.16508c0.0801 0.13879 0.0953 0.17989 0.0953 0.25806 0 0.1082-0.0693 0.26451-0.14307 0.3225-0.0549 0.04319-0.0716 0.04572-0.0918 0.01397z" fill="#ff3500" stroke-width=".018526"/>
  </g>
 </g>
</svg>
