<?xml version="1.0" encoding="UTF-8"?>
<svg width="33" height="33" version="1.1" viewBox="0 0 8.7313 8.7312" xmlns="http://www.w3.org/2000/svg">
 <g transform="translate(-36.054 -267.52)">
  <g transform="translate(-74.293 174.42)">
   <g transform="matrix(1.0084 0 0 1.0084 -57.856 -29.344)">
    <g transform="translate(-1.1279 -1.2345)">
     <rect transform="rotate(-45)" x="28.97" y="208.55" width="6.085" height="6.085" rx=".32026" ry=".32026" fill="#fa0" stroke="#000" stroke-width=".32026"/>
     <g transform="translate(-1.1278 .60814)" stroke-width=".014135">
      <path d="m171.29 126.39v-1.8802l0.0389 0.01c0.35563 0.0897 0.33586 0.0827 0.33319 0.11907-0.0379 0.51694-2e-3 0.79017 0.14067 1.0653 0.12091 0.23353 0.38103 0.43031 0.6269 0.47425 0.091 0.0163 0.10032 0.0215 0.14663 0.0821 0.0809 0.10588 0.29629 0.31714 0.40989 0.4021 0.1359 0.10165 0.30746 0.18729 0.44628 0.22279 0.10877 0.0278 0.26819 0.0371 0.29637 0.0172 0.01-7e-3 0.0106-0.0353 3e-3 -0.0831l-0.012-0.0727-0.0636-0.01c-0.2953-0.0443-0.54047-0.17279-0.80759-0.4233-0.15496-0.14533-0.2152-0.18779-0.43012-0.30321-0.25568-0.13731-0.3504-0.22628-0.42753-0.40161-0.065-0.14781-0.0993-0.33825-0.11522-0.63919l-0.01-0.18375 0.0337 0.0302c0.0185 0.0166 0.093 0.0637 0.16545 0.10464 0.15666 0.0885 0.17548 0.11084 0.37402 0.44464 0.0786 0.13216 0.17382 0.27308 0.21159 0.31316 0.0762 0.0808 0.19398 0.14831 0.38827 0.22245 0.16997 0.0649 0.25245 0.10781 0.34005 0.17705 0.11 0.0869 0.25159 0.26138 0.3158 0.38903 0.0477 0.0949 0.0563 0.12448 0.0514 0.17749l-6e-3 0.0636 0.0473-1e-3c0.026-7.8e-4 0.0514-6e-3 0.0565-0.0106 5e-3 -5e-3 0.0232-9e-3 0.0404-9e-3s0.0392-0.01 0.0488-0.0212c0.0263-0.0317 0.0897-0.0258 0.12474 0.0115 0.0336 0.0358 0.0409 0.10692 0.0138 0.13408-0.0256 0.0256-0.078 0.0204-0.0991-0.01-0.0179-0.0255-0.0202-0.0256-0.049-2e-3 -0.021 0.017-0.0264 0.0306-0.0176 0.0445 7e-3 0.011 0.0127 0.0144 0.0128 8e-3 1.2e-4 -7e-3 0.0288 0.0112 0.0638 0.0398 0.0616 0.0505 0.0636 0.0511 0.0636 0.0187 0-0.0447 0.0252-0.0674 0.0749-0.0674 0.0489 0 0.12299 0.0716 0.12299 0.11882 0 0.0671-0.0676 0.086-0.12272 0.0343-0.018-0.0169-0.0355-0.0278-0.039-0.0243-4e-3 4e-3 0.13782 0.13787 0.31406 0.29858 0.28678 0.2615 0.32282 0.29003 0.34313 0.27165 0.0276-0.0249 0.0724-0.0266 0.0954-4e-3 0.0206 0.0206 0.0224 0.077 3e-3 0.089-8e-3 5e-3 -0.0141 0.0143-0.0141 0.021 0 7e-3 0.1463 0.14677 0.3251 0.31117s0.32509 0.30162 0.32509 0.30493c0 3e-3 -0.94136 6e-3 -2.0919 6e-3h-2.0919zm3.4157 1.091c-0.0445-0.0491-0.021-0.1155 0.0408-0.1155 0.0596 0 0.10029 0.0842 0.0601 0.12439-0.025 0.025-0.0743 0.0206-0.10099-9e-3zm-0.19018-0.16073c-9e-3 -9e-3 -0.017-0.0303-0.017-0.0466 0-0.0418 0.0267-0.0636 0.0777-0.0636 0.0511 0 0.0777 0.0218 0.0777 0.0636s-0.0267 0.0636-0.0777 0.0636c-0.0241 0-0.0515-8e-3 -0.0608-0.017zm-0.21238-0.18536c-0.0542-0.0577-0.0327-0.12277 0.0406-0.12277 0.0457 0 0.0842 0.0396 0.0842 0.0866 0 0.0719-0.0717 0.0926-0.12475 0.0361zm0.0541-0.34138v-0.0631l0.29738-8e-3 -0.63633-0.52987c-0.34998-0.29142-0.63633-0.53343-0.63633-0.53778 0-4e-3 0.0247-0.032 0.0549-0.0615l0.0549-0.0536 1.2824 1.0658 8e-3 -0.2999h0.1262v0.55125h-0.55125z"/>
      <path d="m171.29 126.39v-1.8802l0.0389 0.01c0.35563 0.0897 0.33586 0.0827 0.33319 0.11907-0.0379 0.51694-2e-3 0.79017 0.14067 1.0653 0.12091 0.23353 0.38103 0.43031 0.6269 0.47425 0.091 0.0163 0.10032 0.0215 0.14663 0.0821 0.0809 0.10588 0.29629 0.31714 0.40989 0.4021 0.1359 0.10165 0.30746 0.18729 0.44628 0.22279 0.10877 0.0278 0.26819 0.0371 0.29637 0.0172 0.01-7e-3 0.0106-0.0353 3e-3 -0.0831l-0.012-0.0727-0.0636-0.01c-0.2953-0.0443-0.54047-0.17279-0.80759-0.4233-0.15496-0.14533-0.2152-0.18779-0.43012-0.30321-0.25568-0.13731-0.3504-0.22628-0.42753-0.40161-0.065-0.14781-0.0993-0.33825-0.11522-0.63919l-0.01-0.18375 0.0337 0.0302c0.0185 0.0166 0.093 0.0637 0.16545 0.10464 0.15666 0.0885 0.17548 0.11084 0.37402 0.44464 0.0786 0.13216 0.17382 0.27308 0.21159 0.31316 0.0762 0.0808 0.19398 0.14831 0.38827 0.22245 0.16997 0.0649 0.25245 0.10781 0.34005 0.17705 0.11 0.0869 0.25159 0.26138 0.3158 0.38903 0.0477 0.0949 0.0563 0.12448 0.0514 0.17749l-6e-3 0.0636 0.0473-1e-3c0.026-7.8e-4 0.0514-6e-3 0.0565-0.0106 5e-3 -5e-3 0.0232-9e-3 0.0404-9e-3s0.0392-0.01 0.0488-0.0212c0.0263-0.0317 0.0897-0.0258 0.12474 0.0115 0.0336 0.0358 0.0409 0.10692 0.0138 0.13408-0.0256 0.0256-0.078 0.0204-0.0991-0.01-0.0179-0.0255-0.0202-0.0256-0.049-2e-3 -0.021 0.017-0.0264 0.0306-0.0176 0.0445 7e-3 0.011 0.0127 0.0144 0.0128 8e-3 1.2e-4 -7e-3 0.0288 0.0112 0.0638 0.0398 0.0616 0.0505 0.0636 0.0511 0.0636 0.0187 0-0.0447 0.0252-0.0674 0.0749-0.0674 0.0489 0 0.12299 0.0716 0.12299 0.11882 0 0.0671-0.0676 0.086-0.12272 0.0343-0.018-0.0169-0.0355-0.0278-0.039-0.0243-4e-3 4e-3 0.13782 0.13787 0.31406 0.29858 0.28678 0.2615 0.32282 0.29003 0.34313 0.27165 0.0276-0.0249 0.0724-0.0266 0.0954-4e-3 0.0206 0.0206 0.0224 0.077 3e-3 0.089-8e-3 5e-3 -0.0141 0.0143-0.0141 0.021 0 7e-3 0.1463 0.14677 0.3251 0.31117s0.32509 0.30162 0.32509 0.30493c0 3e-3 -0.94136 6e-3 -2.0919 6e-3h-2.0919zm3.4157 1.091c-0.0445-0.0491-0.021-0.1155 0.0408-0.1155 0.0596 0 0.10029 0.0842 0.0601 0.12439-0.025 0.025-0.0743 0.0206-0.10099-9e-3zm-0.19018-0.16073c-9e-3 -9e-3 -0.017-0.0303-0.017-0.0466 0-0.0418 0.0267-0.0636 0.0777-0.0636 0.0511 0 0.0777 0.0218 0.0777 0.0636s-0.0267 0.0636-0.0777 0.0636c-0.0241 0-0.0515-8e-3 -0.0608-0.017zm-0.21238-0.18536c-0.0542-0.0577-0.0327-0.12277 0.0406-0.12277 0.0457 0 0.0842 0.0396 0.0842 0.0866 0 0.0719-0.0717 0.0926-0.12475 0.0361zm0.0541-0.34138v-0.0631l0.29738-8e-3 -0.63633-0.52987c-0.34998-0.29142-0.63633-0.53343-0.63633-0.53778 0-4e-3 0.0247-0.032 0.0549-0.0615l0.0549-0.0536 1.2824 1.0658 8e-3 -0.2999h0.1262v0.55125h-0.55125z"/>
      <path d="m171.29 126.39v-1.8802l0.0389 0.01c0.35563 0.0897 0.33586 0.0827 0.33319 0.11907-0.0379 0.51694-2e-3 0.79017 0.14067 1.0653 0.12091 0.23353 0.38103 0.43031 0.6269 0.47425 0.091 0.0163 0.10032 0.0215 0.14663 0.0821 0.0809 0.10588 0.29629 0.31714 0.40989 0.4021 0.1359 0.10165 0.30746 0.18729 0.44628 0.22279 0.10877 0.0278 0.26819 0.0371 0.29637 0.0172 0.01-7e-3 0.0106-0.0353 3e-3 -0.0831l-0.012-0.0727-0.0636-0.01c-0.2953-0.0443-0.54047-0.17279-0.80759-0.4233-0.15496-0.14533-0.2152-0.18779-0.43012-0.30321-0.25568-0.13731-0.3504-0.22628-0.42753-0.40161-0.065-0.14781-0.0993-0.33825-0.11522-0.63919l-0.01-0.18375 0.0337 0.0302c0.0185 0.0166 0.093 0.0637 0.16545 0.10464 0.15666 0.0885 0.17548 0.11084 0.37402 0.44464 0.0786 0.13216 0.17382 0.27308 0.21159 0.31316 0.0762 0.0808 0.19398 0.14831 0.38827 0.22245 0.16997 0.0649 0.25245 0.10781 0.34005 0.17705 0.11 0.0869 0.25159 0.26138 0.3158 0.38903 0.0477 0.0949 0.0563 0.12448 0.0514 0.17749l-6e-3 0.0636 0.0473-1e-3c0.026-7.8e-4 0.0514-6e-3 0.0565-0.0106 5e-3 -5e-3 0.0232-9e-3 0.0404-9e-3s0.0392-0.01 0.0488-0.0212c0.0263-0.0317 0.0897-0.0258 0.12474 0.0115 0.0336 0.0358 0.0409 0.10692 0.0138 0.13408-0.0256 0.0256-0.078 0.0204-0.0991-0.01-0.0179-0.0255-0.0202-0.0256-0.049-2e-3 -0.021 0.017-0.0264 0.0306-0.0176 0.0445 7e-3 0.011 0.0127 0.0144 0.0128 8e-3 1.2e-4 -7e-3 0.0288 0.0112 0.0638 0.0398 0.0616 0.0505 0.0636 0.0511 0.0636 0.0187 0-0.0447 0.0252-0.0674 0.0749-0.0674 0.0489 0 0.12299 0.0716 0.12299 0.11882 0 0.0671-0.0676 0.086-0.12272 0.0343-0.018-0.0169-0.0355-0.0278-0.039-0.0243-4e-3 4e-3 0.13782 0.13787 0.31406 0.29858 0.28678 0.2615 0.32282 0.29003 0.34313 0.27165 0.0276-0.0249 0.0724-0.0266 0.0954-4e-3 0.0206 0.0206 0.0224 0.077 3e-3 0.089-8e-3 5e-3 -0.0141 0.0143-0.0141 0.021 0 7e-3 0.1463 0.14677 0.3251 0.31117s0.32509 0.30162 0.32509 0.30493c0 3e-3 -0.94136 6e-3 -2.0919 6e-3h-2.0919zm3.4157 1.091c-0.0445-0.0491-0.021-0.1155 0.0408-0.1155 0.0596 0 0.10029 0.0842 0.0601 0.12439-0.025 0.025-0.0743 0.0206-0.10099-9e-3zm-0.19018-0.16073c-9e-3 -9e-3 -0.017-0.0303-0.017-0.0466 0-0.0418 0.0267-0.0636 0.0777-0.0636 0.0511 0 0.0777 0.0218 0.0777 0.0636s-0.0267 0.0636-0.0777 0.0636c-0.0241 0-0.0515-8e-3 -0.0608-0.017zm-0.21238-0.18536c-0.0542-0.0577-0.0327-0.12277 0.0406-0.12277 0.0457 0 0.0842 0.0396 0.0842 0.0866 0 0.0719-0.0717 0.0926-0.12475 0.0361zm0.0541-0.34138v-0.0631l0.29738-8e-3 -0.63633-0.52987c-0.34998-0.29142-0.63633-0.53343-0.63633-0.53778 0-4e-3 0.0247-0.032 0.0549-0.0615l0.0549-0.0536 1.2824 1.0658 8e-3 -0.2999h0.1262v0.55125h-0.55125z"/>
      <path d="m171.29 126.39v-1.8802l0.0389 0.01c0.35563 0.0897 0.33586 0.0827 0.33319 0.11907-0.0379 0.51694-2e-3 0.79017 0.14067 1.0653 0.12091 0.23353 0.38103 0.43031 0.6269 0.47425 0.091 0.0163 0.10032 0.0215 0.14663 0.0821 0.0809 0.10588 0.29629 0.31714 0.40989 0.4021 0.1359 0.10165 0.30746 0.18729 0.44628 0.22279 0.10877 0.0278 0.26819 0.0371 0.29637 0.0172 0.01-7e-3 0.0106-0.0353 3e-3 -0.0831l-0.012-0.0727-0.0636-0.01c-0.2953-0.0443-0.54047-0.17279-0.80759-0.4233-0.15496-0.14533-0.2152-0.18779-0.43012-0.30321-0.25568-0.13731-0.3504-0.22628-0.42753-0.40161-0.065-0.14781-0.0993-0.33825-0.11522-0.63919l-0.01-0.18375 0.0337 0.0302c0.0185 0.0166 0.093 0.0637 0.16545 0.10464 0.15666 0.0885 0.17548 0.11084 0.37402 0.44464 0.0786 0.13216 0.17382 0.27308 0.21159 0.31316 0.0762 0.0808 0.19398 0.14831 0.38827 0.22245 0.16997 0.0649 0.25245 0.10781 0.34005 0.17705 0.11 0.0869 0.25159 0.26138 0.3158 0.38903 0.0477 0.0949 0.0563 0.12448 0.0514 0.17749l-6e-3 0.0636 0.0473-1e-3c0.026-7.8e-4 0.0514-6e-3 0.0565-0.0106 5e-3 -5e-3 0.0232-9e-3 0.0404-9e-3s0.0392-0.01 0.0488-0.0212c0.0263-0.0317 0.0897-0.0258 0.12474 0.0115 0.0336 0.0358 0.0409 0.10692 0.0138 0.13408-0.0256 0.0256-0.078 0.0204-0.0991-0.01-0.0176-0.0252-0.0205-0.0254-0.0478-3e-3 -0.0265 0.0215-0.0322 0.0676-6e-3 0.0516 6e-3 -4e-3 0.18821 0.15494 0.40468 0.3527 0.35311 0.3226 0.39592 0.35745 0.41637 0.33894 0.0277-0.025 0.0724-0.0267 0.0955-4e-3 0.0206 0.0206 0.0224 0.077 3e-3 0.089-8e-3 5e-3 -0.0141 0.0143-0.0141 0.021 0 7e-3 0.1463 0.14677 0.3251 0.31117s0.32509 0.30162 0.32509 0.30493c0 3e-3 -0.94136 6e-3 -2.0919 6e-3h-2.0919zm3.4157 1.091c-0.0445-0.0491-0.021-0.1155 0.0408-0.1155 0.0596 0 0.10029 0.0842 0.0601 0.12439-0.025 0.025-0.0743 0.0206-0.10099-9e-3zm-0.19018-0.16073c-9e-3 -9e-3 -0.017-0.0303-0.017-0.0466 0-0.0418 0.0267-0.0636 0.0777-0.0636 0.0511 0 0.0777 0.0218 0.0777 0.0636s-0.0267 0.0636-0.0777 0.0636c-0.0241 0-0.0515-8e-3 -0.0608-0.017zm-0.21238-0.18536c-0.0542-0.0577-0.0327-0.12277 0.0406-0.12277 0.0457 0 0.0842 0.0396 0.0842 0.0866 0 0.0719-0.0717 0.0926-0.12475 0.0361zm-0.20388-0.1551c-0.078-0.0668-0.0668-0.13729 0.0219-0.13729 0.078 0 0.15369 0.11913 0.10602 0.16679-0.0283 0.0284-0.0722 0.0182-0.12791-0.0295zm0.25795-0.18628v-0.0631l0.29738-8e-3 -0.63633-0.52987c-0.34998-0.29142-0.63633-0.53343-0.63633-0.53778 0-4e-3 0.0247-0.032 0.0549-0.0615l0.0549-0.0536 1.2824 1.0658 8e-3 -0.2999h0.1262v0.55125h-0.55125z"/>
      <path d="m171.29 126.39v-1.8802l0.0389 0.01c0.30457 0.0768 0.33543 0.0867 0.33091 0.10529-3e-3 0.0108-8e-3 0.12785-0.012 0.26001-0.011 0.36371 0.0377 0.61831 0.16011 0.83802 0.0615 0.11038 0.19346 0.25307 0.29852 0.3228 0.0936 0.0621 0.25142 0.12589 0.34633 0.13993 0.0623 9e-3 0.0739 0.0179 0.15767 0.11832 0.25482 0.30551 0.558 0.52 0.82899 0.58648 0.095 0.0233 0.28997 0.0312 0.29963 0.0122 3e-3 -6e-3 -2.4e-4 -0.0434-7e-3 -0.0835l-0.0125-0.0729-0.0907-0.0158c-0.30942-0.0539-0.50244-0.16146-0.82773-0.46135-0.12262-0.11304-0.14601-0.12866-0.43227-0.28874-0.0869-0.0486-0.18463-0.11461-0.21714-0.14666-0.17904-0.17656-0.24704-0.39419-0.2764-0.88456l-0.01-0.16196 0.0454 0.0382c0.025 0.021 0.0988 0.068 0.16415 0.10433 0.0663 0.0369 0.13701 0.0888 0.1601 0.11758 0.0228 0.0283 0.10573 0.15919 0.1844 0.29085 0.22805 0.38165 0.28704 0.43559 0.61783 0.56494 0.12946 0.0506 0.2348 0.10261 0.29832 0.14721 0.15522 0.10901 0.32694 0.32115 0.38451 0.47503 0.033 0.0883 0.0354 0.11545 0.0146 0.17003-0.0128 0.0336-0.0119 0.0362 7e-3 0.0204 0.0119-0.01 0.0377-0.0148 0.0573-0.0111 0.0197 4e-3 0.0392 1e-3 0.0433-5e-3 4e-3 -7e-3 0.0223-0.0122 0.0403-0.0122s0.0407-0.01 0.0504-0.0212c0.0263-0.0317 0.0897-0.0258 0.12474 0.0115 0.0336 0.0358 0.0409 0.10692 0.0138 0.13408-0.0256 0.0256-0.078 0.0204-0.0991-0.01-0.0176-0.0252-0.0205-0.0254-0.0478-3e-3 -0.0259 0.021-0.0325 0.0678-7e-3 0.0523 6e-3 -3e-3 0.18691 0.15596 0.40307 0.35416 0.36391 0.33369 0.39483 0.35874 0.41743 0.33829 0.0682-0.0617 0.15543 0.0218 0.0939 0.0899-0.018 0.0199 0.0157 0.055 0.30521 0.31908 0.17897 0.16321 0.32837 0.30154 0.332 0.30741 4e-3 6e-3 -0.93515 0.0107-2.0862 0.0107h-2.0928zm3.4157 1.091c-0.0445-0.0491-0.021-0.1155 0.0408-0.1155 0.0596 0 0.10029 0.0842 0.0601 0.12439-0.025 0.025-0.0743 0.0206-0.10099-9e-3zm-0.19018-0.16073c-9e-3 -9e-3 -0.017-0.0303-0.017-0.0466 0-0.0418 0.0267-0.0636 0.0777-0.0636 0.0511 0 0.0777 0.0218 0.0777 0.0636s-0.0267 0.0636-0.0777 0.0636c-0.0241 0-0.0515-8e-3 -0.0608-0.017zm-0.21238-0.18536c-0.0542-0.0577-0.0327-0.12277 0.0406-0.12277 0.0457 0 0.0842 0.0396 0.0842 0.0866 0 0.0719-0.0717 0.0926-0.12475 0.0361zm-0.20388-0.1551c-0.078-0.0668-0.0668-0.13729 0.0219-0.13729 0.078 0 0.15369 0.11913 0.10602 0.16679-0.0283 0.0284-0.0722 0.0182-0.12791-0.0295zm0.25795-0.18628v-0.0631l0.3-8e-3 -0.61898-0.51591c-0.34044-0.28375-0.62897-0.52353-0.64117-0.53285-0.0194-0.0148-0.0148-0.0244 0.0361-0.0758l0.0583-0.0589 0.6484 0.5406 0.64839 0.5406 4e-3 -0.15737 4e-3 -0.15738h0.1122v0.55125h-0.55125z"/>
      <path d="m171.29 126.39v-1.8782l0.18022 0.0452 0.18021 0.0452-5e-3 0.2747c-8e-3 0.4579 0.0561 0.71976 0.23514 0.95801 0.12442 0.16559 0.34867 0.30728 0.54484 0.34427 0.0949 0.0179 0.098 0.0199 0.17294 0.11149 0.17059 0.20851 0.41143 0.41348 0.59529 0.50662 0.15793 0.08 0.24017 0.10193 0.41428 0.11041 0.13814 7e-3 0.16013 5e-3 0.14666-0.0119-9e-3 -0.0109-0.0201-0.0494-0.0254-0.0856l-0.01-0.0658-0.0947-0.0164c-0.28504-0.0494-0.49424-0.16159-0.75418-0.40459-0.16484-0.1541-0.20859-0.18598-0.38652-0.28166-0.20207-0.10866-0.29555-0.17157-0.36456-0.24536-0.15067-0.16108-0.21309-0.37823-0.24403-0.84897l-0.01-0.14763 0.0406 0.0268c0.0223 0.0147 0.0959 0.0592 0.16355 0.0988 0.0707 0.0414 0.14185 0.0958 0.16736 0.12792 0.0244 0.0307 0.11498 0.17329 0.20124 0.31682 0.0863 0.14353 0.18279 0.28692 0.21451 0.31864 0.0769 0.0769 0.17977 0.13395 0.38314 0.21255 0.21592 0.0834 0.30916 0.1408 0.43239 0.26593 0.19173 0.19469 0.30233 0.40589 0.26915 0.51399-0.0126 0.0409-0.0118 0.0456 5e-3 0.0314 0.011-9e-3 0.0361-0.0136 0.0558-0.01 0.0197 4e-3 0.0392 1e-3 0.0433-5e-3 4e-3 -7e-3 0.0223-0.0122 0.0403-0.0122s0.0407-0.01 0.0504-0.0212c0.0263-0.0317 0.0897-0.0258 0.12474 0.0115 0.0336 0.0358 0.0409 0.10692 0.0138 0.13408-0.0256 0.0256-0.078 0.0204-0.0991-0.01-0.0179-0.0255-0.0202-0.0256-0.049-2e-3 -0.0298 0.0241-0.0277 0.0477 5e-3 0.0588 9e-3 3e-3 0.19106 0.16542 0.40413 0.3607 0.3503 0.32105 0.38897 0.35251 0.40389 0.32863 0.0186-0.0298 0.0727-0.035 0.0982-9e-3 0.0232 0.0232 0.0213 0.0679-4e-3 0.0958-0.0189 0.0209 6e-3 0.0474 0.25583 0.27674 0.15221 0.13951 0.30313 0.27723 0.33539 0.30605l0.0587 0.0524-4.1909 0.00121zm3.4157 1.0891c-0.0445-0.0491-0.021-0.1155 0.0408-0.1155 0.0596 0 0.10029 0.0842 0.0601 0.12439-0.025 0.025-0.0743 0.0206-0.10099-9e-3zm-0.19018-0.16073c-9e-3 -9e-3 -0.017-0.0303-0.017-0.0466 0-0.0418 0.0267-0.0636 0.0777-0.0636 0.0511 0 0.0777 0.0218 0.0777 0.0636s-0.0267 0.0636-0.0777 0.0636c-0.0241 0-0.0515-8e-3 -0.0608-0.017zm-0.21238-0.18536c-0.0542-0.0577-0.0327-0.12277 0.0406-0.12277 0.0457 0 0.0842 0.0396 0.0842 0.0866 0 0.0719-0.0717 0.0926-0.12475 0.0361zm-0.20388-0.1551c-0.078-0.0668-0.0668-0.13729 0.0219-0.13729 0.078 0 0.15369 0.11913 0.10602 0.16679-0.0283 0.0284-0.0722 0.0182-0.12791-0.0295zm0.26066-0.18291 4e-3 -0.0604 0.30547-8e-3 -0.61211-0.50952c-0.33666-0.28023-0.62457-0.52163-0.6398-0.53644-0.0274-0.0267-0.0272-0.0274 0.0208-0.0769 0.0266-0.0275 0.0563-0.047 0.0659-0.0433 0.01 4e-3 0.30011 0.24235 0.64561 0.53038 0.3455 0.28802 0.63203 0.52368 0.63674 0.52368 5e-3 0 9e-3 -0.07 9e-3 -0.15548v-0.15548h0.1136l-8e-3 0.54418-0.54583 8e-3z"/>
      <path d="m171.29 126.4c0-1.489 4e-3 -1.8728 0.0177-1.8725 0.0222 3.9e-4 0.33604 0.0801 0.34308 0.0872 3e-3 3e-3 1.5e-4 0.0881-6e-3 0.18945-0.0437 0.72043 0.19253 1.1914 0.67957 1.3546 0.0597 0.02 0.12533 0.0364 0.14591 0.0364 0.0264 0 0.0526 0.0176 0.0894 0.0601 0.13004 0.15031 0.33032 0.3457 0.43361 0.42301 0.18469 0.13826 0.40693 0.2309 0.57245 0.23861 0.13792 6e-3 0.20208 9e-5 0.18706-0.0185-8e-3 -0.01-0.0186-0.0499-0.0239-0.0893-0.0111-0.0824 0.0101-0.11302 0.0703-0.10151 0.0197 4e-3 0.0392 1e-3 0.0433-5e-3 4e-3 -7e-3 0.0223-0.0122 0.0403-0.0122s0.0407-0.01 0.0504-0.0212c0.0263-0.0317 0.0897-0.0258 0.12474 0.0115 0.0336 0.0358 0.0409 0.10692 0.0138 0.13408-0.0256 0.0256-0.078 0.0204-0.0991-0.01-0.0176-0.0252-0.0205-0.0254-0.0478-3e-3 -0.0298 0.0242-0.0304 0.0578-9.8e-4 0.059 9e-3 3.7e-4 0.19141 0.16171 0.40519 0.35853 0.35779 0.32939 0.39017 0.35576 0.40717 0.33149 0.0209-0.0298 0.0734-0.0348 0.0988-9e-3 0.0232 0.0232 0.0213 0.0679-4e-3 0.0961-0.0192 0.0213 5e-3 0.047 0.26268 0.28381 0.15612 0.14323 0.30716 0.28086 0.33566 0.30583l0.0518 0.0454-4.1909 0.00106zm3.4157 1.0837c-0.0445-0.0491-0.021-0.1155 0.0408-0.1155 0.0596 0 0.10029 0.0842 0.0601 0.12439-0.025 0.025-0.0743 0.0206-0.10099-9e-3zm-0.19018-0.16073c-9e-3 -9e-3 -0.017-0.0303-0.017-0.0466 0-0.0418 0.0267-0.0636 0.0777-0.0636 0.0511 0 0.0777 0.0218 0.0777 0.0636s-0.0267 0.0636-0.0777 0.0636c-0.0241 0-0.0515-8e-3 -0.0608-0.017zm-0.21238-0.18536c-0.0542-0.0577-0.0327-0.12277 0.0406-0.12277 0.0457 0 0.0842 0.0396 0.0842 0.0866 0 0.0719-0.0717 0.0926-0.12475 0.0361zm-0.20388-0.1551c-0.078-0.0668-0.0668-0.13729 0.0219-0.13729 0.078 0 0.15369 0.11913 0.10602 0.16679-0.0283 0.0284-0.0722 0.0182-0.12791-0.0295zm0.25795-0.18676v-0.0495h0.15548c0.0855 0 0.15512-5e-3 0.15468-0.0106-4.3e-4 -6e-3 -0.28065-0.24276-0.62269-0.52651s-0.6289-0.52412-0.63747-0.53416c-0.0118-0.0139-4e-3 -0.0301 0.0321-0.0675 0.0262-0.0271 0.0556-0.0462 0.0653-0.0425 0.01 4e-3 0.30404 0.24565 0.65417 0.53764l0.63658 0.5309v-0.3255h0.113v0.53711h-0.55125zm-0.76179-0.0713c-0.30261-0.0657-0.46694-0.15653-0.73621-0.40715-0.0996-0.0927-0.20116-0.17195-0.27366-0.21355-0.0634-0.0364-0.16778-0.0959-0.23192-0.13231-0.15196-0.0862-0.23502-0.15759-0.29966-0.25761-0.0991-0.15324-0.151-0.38081-0.17702-0.77539l-9e-3 -0.13291 0.0325 0.0229c0.0179 0.0126 0.0834 0.0525 0.14555 0.0887 0.0622 0.0362 0.1342 0.0857 0.16001 0.11 0.0258 0.0243 0.12123 0.16786 0.21202 0.31897 0.22828 0.37989 0.29051 0.43716 0.6058 0.55748 0.20381 0.0778 0.29436 0.12991 0.40198 0.23143 0.19018 0.17941 0.31469 0.37745 0.3147 0.50057 1e-5 0.0592-0.0224 0.1126-0.046 0.10961-5e-3 -6.2e-4 -0.0496-0.01-0.0993-0.0207z"/>
     </g>
    </g>
   </g>
  </g>
 </g>
</svg>
