<?xml version="1.0" encoding="UTF-8"?>
<svg width="33" height="33" version="1.1" viewBox="0 0 8.7313 8.7312" xmlns="http://www.w3.org/2000/svg">
 <g transform="translate(-36.054 -267.52)">
  <g transform="translate(-74.293 174.42)">
   <g transform="matrix(1.0084 0 0 1.0084 -57.856 -29.344)">
    <g transform="translate(-1.1279 -1.2345)">
     <g transform="translate(.41306 1.7603)">
      <g transform="translate(101.24 64.898)">
       <g>
        <rect transform="rotate(-45)" x="4.2245" y="89.537" width="6.085" height="6.085" rx=".32026" ry=".32026" fill="#f0f0f0" stroke="#000" stroke-width=".32026"/>
        <rect x="70.165" y="58.905" width="2.2644" height="2.9831" fill="#49c6e9" stroke-width=".91573"/>
        <path d="m68.969 61.74c-0.02193 0.0697 0.01678 0.14396 0.08644 0.16592 0.01397 4e-3 0.02858 6e-3 0.04321 6e-3h1.0583c0.07305 0 0.13229-0.0592 0.13229-0.13229v-3.175c0-0.073-0.05924-0.13229-0.13229-0.13229h-0.29104l-0.89694 3.2676z" fill="#969696" stroke-width=".26458"/>
       </g>
       <path d="m69.7 59.5c-0.03118 0.01558-0.2332-0.01209-0.2631 0.0058-0.0554 0.03324-0.0046 0.0093-0.02339 0.04677-0.0054 0.01082-0.07979 0.07979-0.09355 0.09354-7.94e-4 7.94e-4 -0.0841 0.08882-0.09354 0.09354-7e-3 0.0035-0.0164-0.0035-0.02339 0-0.01249 0.0062-0.05785 0.05785-0.07016 0.07016l-0.02339 0.02339c-0.0078 0.0078-0.01847 0.01352-0.02339 0.02339 0 0.06236 0.0078-0.0078-0.02339 0.02339-0.0055 0.0055 0.0055 0.01789 0 0.02339s-0.01789-0.0055-0.02339 0c-0.01233 0.01233-0.01789 0.03024-0.02339 0.04677-0.0024 0.0074 0.0055 0.01789 0 0.02339-0.01233 0.01233-0.03445 0.01106-0.04677 0.02339-0.0055 0.0055 0.0035 0.0164 0 0.02339-0.0049 0.0099-0.01847 0.01352-0.02339 0.02339-7e-3 0.01394 0.01103 0.03575 0 0.04677-0.04839 0.04839 0.0019-0.07394-0.04677 0.02339-0.0035 7e-3 0.0035 0.0164 0 0.02339-0.0049 0.0099-0.01844 0.01352-0.02339 0.02339-0.0035 7e-3 0.0055 0.01789 0 0.02339s-0.0164-0.0035-0.02339 0c-0.09733 0.04866 0.025-0.0016-0.02339 0.04677-0.0055 0.0055-0.01789-0.0055-0.02339 0-0.01103 0.01103 0.0087 0.0338 0 0.04677-0.01222 0.01834-0.03354 0.02913-0.04677 0.04677-0.07088 0.09451-0.0037 0.01111-0.02339 0.07016-0.01103 0.03307-0.0416 0.04001-0.05262 0.07308-0.0044 0.0132 0.0058 0.07525 0.0058 0.09062v0.1637c0 0.03118 0.0076 0.06329 0 0.09355-0.0027 0.01069-0.01847 0.01352-0.02339 0.02339-0.0042 0.0085 0 0.10067 0 0.11693v0.42095c0 0.02339 0.0074 0.04797 0 0.07016-0.0035 0.01045-0.01847 0.01352-0.02339 0.02339-0.0035 7e-3 0.0035 0.0164 0 0.02339-0.0049 0.0099-0.01844 0.01352-0.02339 0.02339-0.0042 0.0085 0 0.10066 0 0.11693 0 0.0086-0.0011 0.0926 0 0.09354 0.0055 0.0055 0.01558 0 0.02339 0" fill="none" stroke="#49c6e9" stroke-width=".26458px"/>
      </g>
     </g>
    </g>
   </g>
  </g>
 </g>
</svg>
