<?xml version="1.0" encoding="UTF-8"?>
<svg width="33" height="33" version="1.1" viewBox="0 0 8.7313 8.7312" xmlns="http://www.w3.org/2000/svg">
 <g transform="translate(-36.054 -267.52)">
  <g transform="translate(-74.293 174.42)">
   <g transform="matrix(1.0084 0 0 1.0084 -57.856 -29.344)">
    <rect transform="rotate(-45)" x="29.045" y="206.88" width="6.085" height="6.085" rx=".32026" ry=".32026" fill="#70a800" stroke="#000" stroke-width=".32026"/>
    <g transform="translate(-1.1279 -1.2345)" stroke-width=".016819">
     <path d="m170.57 128.98c-0.0934-0.029-0.21018-0.15231-0.243-0.25641-0.0265-0.084-0.0262-0.0891 0.0101-0.164 0.083-0.17144 0.41586-0.40778 0.71439-0.50723 0.0886-0.0295 0.19541-0.0491 0.31956-0.0587 0.20535-0.0159 0.29367-0.0398 0.68519-0.18583 0.14477-0.054 0.32641-0.1102 0.40365-0.1249 0.59493-0.11323 0.68534-0.16503 0.89121-0.51068 0.15808-0.26541 0.23448-0.31774 0.43647-0.29897 0.11132 0.0103 0.71382 0.18223 0.94881 0.27068 0.23686 0.0892 0.32792 0.16946 0.3278 0.28908-1.2e-4 0.12378-0.0557 0.18057-0.4204 0.42975-0.25976 0.17747-0.56262 0.35249-1.0007 0.57828-0.57169 0.29467-0.90848 0.40592-1.2782 0.42225-0.17544 8e-3 -0.22879 3e-3 -0.40812-0.035-0.1464-0.0312-0.2566-0.0439-0.37957-0.0439-0.19785 0-0.29709 0.024-0.47368 0.11471-0.0648 0.0333-0.15181 0.0699-0.19344 0.0815-0.093 0.0258-0.25622 0.0256-0.34005-5e-4zm1.7108-1.5322c-0.0962-0.025-1.7144-0.58361-1.8164-0.62703-0.037-0.0157-0.10925-0.0682-0.16055-0.11659-0.15859-0.14957-0.21787-0.33205-0.21787-0.67066 0-0.34455 0.0768-0.54491 0.30056-0.78382 0.15392-0.16436 0.19571-0.19434 0.31364-0.22506 0.20766-0.0541 0.464-0.0212 1.3368 0.17143 0.27288 0.0602 0.55954 0.11986 0.63703 0.13249 0.17381 0.0283 0.29703 0.0869 0.38602 0.18343 0.14297 0.1551 0.20586 0.34423 0.20732 0.62347 2e-3 0.45505-0.14161 0.91123-0.35909 1.1376-0.10893 0.11338-0.19246 0.15869-0.33526 0.18186-0.13393 0.0217-0.1862 0.0205-0.29215-7e-3z" fill="#a6ab9b"/>
     <path d="m170.56 128.97c-0.0875-0.0408-0.20456-0.17407-0.22733-0.25864-0.0242-0.0897 1e-3 -0.15933 0.0957-0.26463 0.20547-0.22853 0.65514-0.4383 0.93956-0.4383 0.13831 0 0.29337-0.0415 0.65335-0.17493 0.1648-0.0611 0.36525-0.1231 0.44544-0.13782 0.24343-0.0447 0.47027-0.10536 0.55408-0.14823 0.11647-0.0596 0.21034-0.16236 0.34184-0.37429 0.0643-0.10363 0.13964-0.20755 0.16742-0.23092 0.10988-0.0925 0.24561-0.0803 0.72936 0.0653 0.51852 0.15605 0.63341 0.20203 0.7411 0.29658 0.0507 0.0446 0.0591 0.0623 0.0591 0.12578 0 0.11963-0.026 0.14271-0.59706 0.52965-0.25682 0.17402-1.0629 0.59859-1.3515 0.71185-0.26205 0.10285-0.52141 0.16268-0.75082 0.17321-0.1767 8e-3 -0.22749 4e-3 -0.408-0.035-0.24619-0.0529-0.50065-0.0597-0.64431-0.0173-0.0503 0.0148-0.16682 0.0659-0.25905 0.11352-0.15233 0.0786-0.17931 0.087-0.29433 0.0913-0.0963 4e-3 -0.1429-3e-3 -0.19455-0.027zm1.7162-1.5413c-0.12935-0.0336-1.7855-0.61081-1.8563-0.64693-0.13411-0.0684-0.26023-0.25046-0.31204-0.45041-0.0418-0.16126-0.0356-0.48873 0.0119-0.62707 0.0622-0.18125 0.15866-0.33307 0.30502-0.48012 0.1879-0.18879 0.25339-0.21827 0.4807-0.21638 0.19382 2e-3 0.35919 0.0316 1.1941 0.21667 0.26363 0.0584 0.52096 0.11172 0.57183 0.11843 0.28357 0.0374 0.46734 0.20798 0.54757 0.50828 0.0155 0.0579 0.0263 0.17166 0.0269 0.282 2e-3 0.33209-0.0568 0.60506-0.18769 0.87456-0.12828 0.26419-0.27575 0.39355-0.48767 0.42778-0.13624 0.022-0.1881 0.0208-0.29432-7e-3z" fill="#838b74"/>
     <path d="m170.58 128.98c-0.14001-0.0691-0.24341-0.20917-0.24219-0.32809 1e-3 -0.13592 0.17121-0.30437 0.47033-0.46657 0.19407-0.10524 0.35831-0.15348 0.57851-0.16991 0.19923-0.0149 0.20973-0.0179 0.84266-0.24282 0.0925-0.0329 0.24009-0.0713 0.32796-0.0854 0.21062-0.0339 0.39294-0.0858 0.49367-0.14061 0.10395-0.0566 0.19015-0.15473 0.31691-0.36087 0.12798-0.20812 0.17442-0.25719 0.26697-0.28211 0.10188-0.0274 0.23079-4e-3 0.61463 0.11042 0.49055 0.14659 0.65184 0.21071 0.76094 0.30251 0.0444 0.0374 0.0529 0.0562 0.0529 0.11801 0 0.11103-0.0348 0.14153-0.60547 0.53026-0.23228 0.15824-1.0807 0.6025-1.3599 0.71208-0.23978 0.0941-0.52034 0.16082-0.72482 0.17233-0.15294 9e-3 -0.20749 4e-3 -0.39602-0.0356-0.26767-0.0558-0.52003-0.0627-0.67329-0.0182-0.0552 0.016-0.17839 0.07-0.27375 0.11999-0.16009 0.0839-0.18203 0.0908-0.28592 0.0905-0.0658-2.2e-4 -0.13395-0.011-0.16407-0.0258zm1.7586-1.5382c-0.0416-7e-3 -0.24219-0.0713-0.44569-0.14243-0.20351-0.0711-0.60058-0.20856-0.88238-0.30539-0.2818-0.0968-0.54911-0.19605-0.59401-0.22049-0.0998-0.0543-0.16515-0.12663-0.22939-0.25388-0.0886-0.17554-0.10601-0.26655-0.0996-0.52111l6e-3 -0.22991 0.087-0.1766c0.13384-0.2718 0.31041-0.46296 0.51217-0.55451 0.14653-0.0665 0.35722-0.0372 1.4001 0.19466 0.23244 0.0517 0.48667 0.10448 0.56493 0.11735 0.24638 0.0405 0.39351 0.13972 0.49025 0.33063 0.0685 0.13528 0.0985 0.27959 0.0987 0.47529 3.3e-4 0.30006-0.0667 0.60187-0.19052 0.85775-0.12845 0.26546-0.28313 0.39563-0.5089 0.42827-0.0638 9e-3 -0.11975 0.016-0.12438 0.0151-5e-3 -9e-4 -0.0425-8e-3 -0.0841-0.0147z" fill="#606654"/>
     <path d="m170.61 128.99c-0.0363-0.0155-0.0653-0.0392-0.15184-0.12403-0.10191-0.0999-0.13491-0.20227-0.0934-0.28978 0.12248-0.25812 0.65852-0.55022 1.0097-0.55022 0.13831 0 0.29337-0.0415 0.65335-0.17494 0.1648-0.0611 0.36525-0.12311 0.44544-0.13785 0.24088-0.0443 0.46046-0.10118 0.54639-0.14161 0.11555-0.0544 0.24828-0.19831 0.37825-0.41021 0.14753-0.24051 0.16713-0.25445 0.35361-0.25159 0.12801 2e-3 0.19051 0.0158 0.51352 0.11396 0.45048 0.13686 0.59656 0.1927 0.71194 0.27216 0.0835 0.0575 0.0892 0.0658 0.0889 0.13086-1.4e-4 0.0382-8e-3 0.0808-0.0166 0.0947-9e-3 0.0139-0.0164 0.0185-0.0166 0.0104-1.3e-4 -8e-3 -0.0149 4e-3 -0.0327 0.0264-0.0285 0.0362-0.27021 0.21063-0.55615 0.4013-0.13073 0.0872-0.60049 0.34704-0.90821 0.50242-0.4879 0.24636-0.82154 0.35089-1.1689 0.36623-0.17544 8e-3 -0.22879 3e-3 -0.40812-0.035-0.24625-0.0524-0.50101-0.0592-0.64419-0.0171-0.0984 0.029-0.38644 0.17022-0.40599 0.19909-0.0131 0.0193-0.25936 0.0316-0.29848 0.0149zm1.6727-1.5774c-0.11831-0.0308-1.7339-0.59074-1.82-0.6308-0.039-0.0182-0.10125-0.0605-0.13842-0.094-0.067-0.0606-0.18596-0.27014-0.18596-0.32769 0-0.0165-9e-3 -0.0331-0.021-0.037-0.028-9e-3 -0.0304-0.56282-2e-3 -0.58085 0.0102-7e-3 0.0273-0.0387 0.0379-0.0713 0.0635-0.19496 0.32539-0.51947 0.48169-0.59689 0.037-0.0183 0.0727-0.0409 0.0794-0.0501 0.0159-0.0221 0.39811-0.0212 0.41353 1e-3 6e-3 9e-3 0.10249 0.034 0.2135 0.0551 0.111 0.0211 0.42509 0.0877 0.69797 0.14797 0.27288 0.0603 0.5589 0.11989 0.6356 0.1324 0.16565 0.027 0.27211 0.075 0.35903 0.16194 0.13518 0.13519 0.20065 0.33326 0.20211 0.61155 3e-3 0.55031-0.19784 1.0625-0.48137 1.2282-0.0666 0.0389-0.23731 0.0762-0.33695 0.0737-0.0278-7.2e-4 -0.0883-0.0112-0.13455-0.0232z" fill="#6da401"/>
     <path d="m170.61 128.99c-0.0365-0.0159-0.0656-0.0396-0.15184-0.1242-0.10191-0.0999-0.13491-0.20227-0.0934-0.28978 0.12248-0.25812 0.65852-0.55022 1.0097-0.55022 0.13831 0 0.29337-0.0415 0.65335-0.17494 0.1648-0.0611 0.36525-0.12311 0.44544-0.13785 0.24088-0.0443 0.46046-0.10118 0.54639-0.14161 0.11555-0.0544 0.24828-0.19831 0.37825-0.41021 0.14753-0.24051 0.16713-0.25445 0.35361-0.25159 0.12801 2e-3 0.19051 0.0158 0.51352 0.11396 0.45048 0.13686 0.59656 0.1927 0.71194 0.27216 0.0812 0.0559 0.0892 0.0671 0.0892 0.12522 0 0.10465-0.0978 0.18929-0.62228 0.53848-0.13117 0.0873-0.60129 0.34735-0.90821 0.50232-0.4879 0.24636-0.82154 0.35089-1.1689 0.36623-0.17544 8e-3 -0.22879 3e-3 -0.40812-0.035-0.24625-0.0524-0.50101-0.0592-0.64419-0.0171-0.0959 0.0282-0.38616 0.16989-0.40515 0.19774-0.0127 0.0187-0.26261 0.0323-0.29932 0.0164zm1.6727-1.5776c-0.11831-0.0308-1.7339-0.59074-1.82-0.6308-0.039-0.0182-0.10125-0.0605-0.13842-0.094-0.067-0.0606-0.18596-0.27014-0.18596-0.32769 0-0.0165-9e-3 -0.0331-0.021-0.037-0.0285-9e-3 -0.0297-0.51102-1e-3 -0.56924 0.0108-0.0222 0.0392-0.0847 0.0629-0.13889 0.0974-0.2216 0.29972-0.4613 0.45642-0.54066 0.0365-0.0185 0.0718-0.0412 0.0785-0.0504 0.0166-0.0231 0.35349-0.0205 0.40254 3e-3 0.0217 0.0105 0.12657 0.0354 0.23294 0.0553 0.10638 0.0199 0.41669 0.0856 0.68957 0.14579 0.27288 0.0602 0.5589 0.11975 0.6356 0.13226 0.16565 0.027 0.27211 0.075 0.35903 0.16194 0.13518 0.13519 0.20065 0.33326 0.20211 0.61155 3e-3 0.55031-0.19784 1.0625-0.48137 1.2282-0.0666 0.0389-0.23731 0.0762-0.33695 0.0737-0.0278-7.2e-4 -0.0883-0.0112-0.13455-0.0232zm0.40602-0.20371c0.14978-0.0926 0.28373-0.35129 0.35356-0.68276 0.0408-0.19374 0.0415-0.54298 1e-3 -0.67284-0.0627-0.20279-0.19953-0.31509-0.4014-0.32953-0.14735-0.0105-0.24471 0.0245-0.35523 0.12789-0.35144 0.32874-0.46326 1.1909-0.19172 1.4783 0.0964 0.10203 0.21137 0.14212 0.38443 0.13405 0.10765-5e-3 0.14319-0.0144 0.20905-0.0551zm-1.4404-0.38723c0-3e-3 -0.0468-0.10031-0.10408-0.21524-0.0933-0.18721-0.10917-0.20971-0.15293-0.21613-0.0279-4e-3 -0.0521 1e-3 -0.0564 0.0124-4e-3 0.0108-5e-3 0.0901-3e-3 0.17636 5e-3 0.14762 7e-3 0.15871 0.0497 0.1902 0.0706 0.0526 0.26628 0.0911 0.26628 0.0524zm-0.24567-0.58824c0.0207-0.0538 9e-3 -0.13874-0.0234-0.17756-0.033-0.039-0.0341-0.0391-0.0589-7e-3 -0.0316 0.0409-0.0318 0.0787-8.7e-4 0.1529 0.0256 0.0613 0.0659 0.0767 0.0831 0.0317zm0.37703-0.0539c0.0122-0.12345-0.0949-0.57564-0.13624-0.57522-0.0112 1.1e-4 -0.0614 0.08-0.1116 0.17761l-0.0913 0.17741 0.0283 0.0789c0.0155 0.0434 0.0282 0.0918 0.0282 0.10765-6e-5 0.0192 0.021 0.0343 0.063 0.0452 0.0347 9e-3 0.0895 0.0238 0.12193 0.0327 0.08 0.0221 0.0917 0.0168 0.0977-0.0442zm-0.56169-0.10871c3e-3 -0.0116 0.0157-0.0536 0.0277-0.0934 0.0185-0.0615 0.0172-0.10627-9e-3 -0.29853-0.0217-0.16159-0.0368-0.22617-0.0527-0.22617-0.0574 0-0.21519 0.3845-0.20554 0.50083 5e-3 0.0599 0.01 0.0642 0.1061 0.0994 0.12068 0.0441 0.12555 0.0447 0.13309 0.0178z" fill="#364c0c"/>
     <path d="m170.64 128.99c-0.0208-5e-3 -0.0378-0.0144-0.0378-0.0219 0-7e-3 -0.0226-0.023-0.0503-0.0344-0.11185-0.0463-0.22077-0.22575-0.19628-0.32333 0.0293-0.11691 0.21255-0.28036 0.46344-0.41348 0.19174-0.10174 0.32194-0.13979 0.53347-0.1559 0.20257-0.0154 0.34119-0.0536 0.73305-0.20185 0.12018-0.0455 0.284-0.0951 0.36405-0.11018 0.25791-0.0487 0.47281-0.1044 0.56357-0.14595 0.12493-0.0572 0.24055-0.18079 0.38125-0.40755 0.15442-0.24887 0.17792-0.26505 0.36962-0.25447 0.11279 6e-3 0.21927 0.031 0.50456 0.11746 0.47999 0.14544 0.61563 0.19994 0.73529 0.29542 0.11826 0.0944 0.0495 0.19091-0.31297 0.43967-0.29513 0.20253-0.4491 0.29501-0.8678 0.52127-0.63932 0.34547-0.9685 0.46947-1.3841 0.52139-0.17042 0.0213-0.23478 0.0159-0.52501-0.0441-0.22416-0.0463-0.43442-0.0518-0.58092-0.0152-0.0932 0.0233-0.441 0.18507-0.46341 0.21551-0.0121 0.0164-0.17697 0.029-0.22968 0.0176zm1.6104-1.5942c-0.0755-0.0233-1.6275-0.5591-1.7604-0.6078-0.1442-0.0529-0.29131-0.22866-0.34376-0.41081-0.012-0.0416-0.0297-0.0811-0.0394-0.0877-0.0269-0.0183-0.0237-0.48773 3e-3 -0.49676 0.0116-4e-3 0.021-0.0212 0.021-0.0384 0-0.0173 0.0394-0.1087 0.0875-0.20315 0.10716-0.21025 0.28741-0.40791 0.43434-0.4763 0.0506-0.0236 0.0844-0.0437 0.0752-0.0447-9e-3 -1e-3 0.01-9e-3 0.042-0.0167 0.0678-0.017 0.28592-1e-3 0.28592 0.0204 0 8e-3 0.0141 0.0147 0.0314 0.0147 0.0459 0 0.47959 0.0877 1.0366 0.20959 0.26826 0.0587 0.52497 0.11128 0.57047 0.11683 0.34894 0.0425 0.55392 0.37622 0.5227 0.85088-0.0388 0.58951-0.2339 1.0187-0.52057 1.1452-0.10505 0.0463-0.335 0.0591-0.44646 0.0248zm0.41621-0.14674c0.21816-0.1035 0.39418-0.51573 0.43335-1.0148 0.0289-0.36815-0.11098-0.65345-0.35516-0.72443-0.30818-0.0896-0.57353 0.0978-0.72793 0.51419-0.18335 0.4944-0.13388 1.0129 0.11293 1.1837 0.13875 0.096 0.38212 0.11479 0.53681 0.0414zm-1.4095-0.40818c0.016-0.0193-3e-3 -0.0685-0.0946-0.24807-0.11175-0.21843-0.11617-0.22427-0.17706-0.23389-0.0347-5e-3 -0.0702-2e-3 -0.0799 8e-3 -0.01 0.01-0.0174 0.0926-0.0174 0.18773 0 0.15487 3e-3 0.17352 0.0378 0.20583 0.0921 0.0864 0.28706 0.13401 0.3312 0.0808zm-0.25472-0.5689c0.0533-0.0642 0.032-0.23149-0.0339-0.26677-0.0311-0.0167-0.0417-0.013-0.0751 0.0259-0.0352 0.0409-0.0389 0.042-0.0389 0.0115 0-0.0186 9e-3 -0.053 0.0194-0.0764 0.0152-0.0333 0.013-0.0897-0.01-0.25727-0.0379-0.27765-0.0412-0.29034-0.076-0.29034-0.0421 0-0.0748 0.0426-0.14215 0.18508-0.0672 0.14224-0.11567 0.3145-0.10778 0.38296 5e-3 0.0408 0.0197 0.0509 0.13792 0.0922 0.0958 0.0335 0.13859 0.0415 0.15406 0.0286 0.0164-0.0136 0.0242-5e-3 0.0334 0.0377 0.0273 0.12649 0.091 0.18468 0.13903 0.12684zm0.39041-0.0465c0.0217-0.0405-2e-3 -0.23704-0.0511-0.43054-0.0722-0.28238-0.1019-0.28547-0.23989-0.025-0.0964 0.182-0.10044 0.19425-0.0798 0.24387 0.0119 0.0287 0.0253 0.0766 0.0298 0.10631 0.0102 0.0682 0.0255 0.0804 0.13919 0.11126 0.13206 0.0358 0.18034 0.0344 0.20188-6e-3z" fill="#020201"/>
    </g>
   </g>
  </g>
 </g>
</svg>
