<?xml version="1.0" encoding="UTF-8"?>
<svg width="33" height="33" version="1.1" viewBox="0 0 8.7313 8.7312" xmlns="http://www.w3.org/2000/svg">
 <g transform="translate(-36.054 -267.52)">
  <g transform="translate(-74.293 174.42)">
   <rect transform="rotate(-45)" x="9.1291" y="146.96" width="6.1362" height="6.1362" rx=".32296" ry=".32296" fill="#beffe8" stroke="#000" stroke-width=".32296"/>
   <g transform="matrix(1.0084 0 0 1.0084 -57.856 -29.344)" stroke-width=".014402">
    <path d="m169.03 125.72v-1.9158l0.0396 0.01c0.36235 0.0914 0.34221 0.0842 0.33949 0.12132-0.0386 0.52672-2e-3 0.80513 0.14334 1.0855 0.12319 0.23794 0.38823 0.43844 0.63876 0.48321 0.0927 0.0166 0.10222 0.0219 0.1494 0.0836 0.0825 0.10788 0.3019 0.32314 0.41765 0.40971 0.30425 0.22755 0.64587 0.30972 0.88909 0.21385l0.0738-0.0291 0.78595 0.72004c0.43226 0.39602 0.78594 0.72303 0.78594 0.72669 0 4e-3 -0.95918 7e-3 -2.1315 7e-3h-2.1315zm3.1252 0.41122v-0.0643l0.30301-8e-3 -0.64838-0.5399c-0.3566-0.29694-0.64837-0.54352-0.64837-0.54796 0-4e-3 0.0252-0.0327 0.056-0.0627l0.056-0.0546 0.65334 0.54296 0.65333 0.54297 8e-3 -0.30558h0.1286v0.56169h-0.56168zm-0.74171-0.0607c-0.34034-0.0764-0.52859-0.17765-0.79578-0.42822-0.15789-0.14808-0.21927-0.19135-0.43826-0.30895-0.26052-0.1399-0.35703-0.23056-0.43562-0.40921-0.0663-0.15061-0.10123-0.34465-0.1174-0.65128l-0.01-0.18723 0.0343 0.0308c0.0189 0.0169 0.0947 0.0649 0.16859 0.10661 0.15962 0.0901 0.17879 0.11295 0.38109 0.45307 0.0801 0.13466 0.17711 0.27824 0.2156 0.31908 0.0776 0.0823 0.19765 0.15112 0.39562 0.22666 0.25792 0.0984 0.35971 0.16755 0.51535 0.34996 0.10637 0.12467 0.20876 0.31439 0.20876 0.38681 0 0.10677-0.0286 0.13293-0.12242 0.11189zm0.88674-0.92184c-8e-3 -0.0302-0.0153-0.0724-0.0153-0.0938-1.1e-4 -0.0534-0.0361-0.0707-0.0956-0.0458-0.064 0.0267-0.0773 0.0251-0.0773-9e-3 0-0.0181 0.0243-0.0462 0.0642-0.0743 0.0946-0.0667 0.14008-0.20812 0.0893-0.27759-0.0445-0.0608-0.20103 0.0543-0.21844 0.16059-0.0209 0.12783-0.0238 0.13568-0.0478 0.13106-0.013-3e-3 -0.0257-0.0174-0.028-0.0332-0.0126-0.0835-0.0184-0.0934-0.0546-0.0934-0.02 0-0.056 0.0101-0.0799 0.0225s-0.0608 0.0203-0.0821 0.0176c-0.0381-5e-3 -0.0376-6e-3 0.037-0.0765 0.0416-0.0394 0.0756-0.0785 0.0756-0.0869 0-8e-3 -0.0194-0.0339-0.0432-0.0567s-0.0432-0.0467-0.0432-0.0531c0-0.019 0.0762-0.0124 0.11521 0.01 0.0836 0.0478 0.26347 2e-3 0.28194-0.0713 6e-3 -0.0228 2e-3 -0.0463-0.0103-0.0608-0.0488-0.0588-0.20031-0.0816-0.27165-0.0408-0.0477 0.0273-0.11521 0.0279-0.11521 9.8e-4 0-0.0113 0.0194-0.0345 0.0432-0.0514 0.0596-0.0424 0.0547-0.0779-0.018-0.13056-0.11721-0.0849-0.10286-0.11551 0.0315-0.0672 0.088 0.0317 0.0895 0.0317 0.10988 4e-3 0.0113-0.0154 0.0207-0.0413 0.0209-0.0576 1.1e-4 -0.0163 6e-3 -0.0393 0.0138-0.0511 0.0215-0.0341 0.0427-6.3e-4 0.0576 0.0914 0.0197 0.12073 0.0953 0.21096 0.17698 0.21096 0.0482 0 0.0682-0.0265 0.0682-0.0907 0-0.0783-0.0351-0.14398-0.10935-0.20485-0.0741-0.0607-0.0855-0.10206-0.0239-0.0869 0.0218 5e-3 0.0571 0.0133 0.0786 0.0176 0.0423 9e-3 0.0409 0.0112 0.0655-0.12483 8e-3 -0.042 0.0192-0.0648 0.0328-0.0648s0.0253 0.023 0.033 0.0648c0.026 0.14106 0.0221 0.13357 0.0644 0.1231 0.10317-0.0255 0.11816-0.0259 0.11816-3e-3 0 0.0124-0.029 0.0468-0.0645 0.0764-0.0755 0.0631-0.10834 0.12446-0.10834 0.20246 0 0.0897 0.0484 0.11483 0.12905 0.0672 0.0519-0.0307 0.11579-0.12996 0.11579-0.18002 0-0.0501 0.0237-0.11327 0.0426-0.11327 8e-3 0 0.0183 0.0178 0.023 0.0396 0.0144 0.0674 0.0338 0.10442 0.0547 0.10442 0.011 0 0.0505-0.0135 0.0878-0.03 0.12193-0.0539 0.14086-3e-3 0.0279 0.0743-0.0746 0.0513-0.0799 0.0857-0.0199 0.12843 0.0238 0.0169 0.0432 0.0401 0.0432 0.0514 0 0.0264-0.0538 0.0259-0.10082-9.8e-4 -0.0718-0.0411-0.23811-0.0169-0.28669 0.0416-0.0336 0.0405-0.0126 0.086 0.0557 0.12044 0.0782 0.0394 0.13615 0.0409 0.22685 6e-3 0.0379-0.0147 0.077-0.0239 0.0869-0.0204 0.0308 0.0109 0.0199 0.0439-0.0252 0.076-0.0238 0.0169-0.0432 0.0419-0.0432 0.0555s0.0328 0.0492 0.0729 0.0792c0.0401 0.0299 0.0703 0.0621 0.0671 0.0715-7e-3 0.0206-0.0607 0.0143-0.11405-0.0132-0.0762-0.0394-0.12673-0.0131-0.12673 0.0658 0 0.0287-0.0358 0.0559-0.0521 0.0396-4e-3 -4e-3 -0.0125-0.0432-0.0184-0.0867-6e-3 -0.0435-0.0215-0.0955-0.0346-0.1156-0.0303-0.0463-0.11378-0.11042-0.14366-0.11042-0.10718 0-0.0794 0.22308 0.0377 0.30267 0.0505 0.0343 0.0789 0.0791 0.0613 0.0967-5e-3 5e-3 -0.0336-2e-3 -0.0645-0.0137-0.0309-0.0121-0.0642-0.0172-0.0739-0.0111-0.01 6e-3 -0.025 0.0517-0.034 0.10146-0.0192 0.10642-0.0442 0.12434-0.0657 0.047z"/>
    <path d="m169.03 125.72v-1.9158l0.0396 0.01c0.29532 0.0745 0.34165 0.0889 0.33801 0.10499-2e-3 0.01-8e-3 0.11929-0.0126 0.24332-0.0136 0.35622 0.0292 0.60787 0.14233 0.83761 0.048 0.0974 0.0854 0.14755 0.18333 0.24535 0.14186 0.14172 0.27043 0.2141 0.45334 0.25521l0.11176 0.0251 0.10135 0.11926c0.34682 0.40808 0.73236 0.62596 1.0692 0.60425 0.0636-4e-3 0.149-0.0202 0.18979-0.0359l0.0742-0.0284 0.73955 0.67612c0.40676 0.37186 0.76214 0.69828 0.78973 0.72537l0.0502 0.0493h-4.2697zm3.1252 0.41122v-0.0643l0.30568-8e-3 -0.6307-0.52568c-0.34688-0.28912-0.64087-0.53344-0.65331-0.54293-0.0198-0.0151-0.0151-0.0248 0.0369-0.0773l0.0595-0.06 0.64958 0.54174c0.35726 0.29795 0.65293 0.54173 0.65702 0.54173 4e-3 0 7e-3 -0.068 7e-3 -0.15122v-0.15123h0.1296v0.56169h-0.56168zm-0.84348-0.0861c-0.28724-0.0743-0.46031-0.17878-0.74075-0.44732-0.11081-0.10611-0.17177-0.14767-0.37664-0.25678-0.0844-0.0449-0.18715-0.10704-0.22838-0.13802-0.14831-0.11144-0.24583-0.28666-0.29325-0.5269-0.023-0.11631-0.0518-0.40701-0.0521-0.52459l-1.4e-4 -0.0637 0.0324 0.0297c0.0178 0.0163 0.093 0.0639 0.16695 0.1057 0.15817 0.0893 0.17691 0.11175 0.38469 0.46009 0.078 0.1307 0.17323 0.27104 0.21171 0.31188 0.0781 0.0829 0.19766 0.15113 0.3999 0.2283 0.26245 0.10016 0.37986 0.18331 0.53568 0.37939 0.14667 0.18457 0.2081 0.34161 0.16981 0.43406-0.0218 0.0526-0.0358 0.0532-0.20986 8e-3zm0.99767-0.86779c-4e-3 -6e-3 -0.0114-0.0453-0.017-0.0864-0.0131-0.0971-0.0312-0.11187-0.10111-0.0827-0.04 0.0167-0.0585 0.0185-0.0704 7e-3 -0.0119-0.0119 4e-3 -0.0344 0.0592-0.0857 0.0844-0.078 0.10469-0.11854 0.10469-0.20895 0-0.10466-0.0635-0.12169-0.15783-0.0423-0.0568 0.0478-0.087 0.10594-0.087 0.16764 0 0.0509-0.0334 0.11169-0.0515 0.0936-6e-3 -6e-3 -0.0145-0.035-0.0194-0.0648-7e-3 -0.0453-0.015-0.0549-0.0472-0.0586-0.0212-2e-3 -0.058 6e-3 -0.0819 0.018-0.0545 0.0282-0.10249 0.0289-0.10249 2e-3 0-0.0115 0.0292-0.041 0.0648-0.0655 0.077-0.053 0.0825-0.0878 0.0216-0.13903-0.0238-0.02-0.0432-0.0423-0.0432-0.0495 0-0.0201 0.0748-0.0146 0.11521 8e-3 0.0654 0.0374 0.20151 0.02 0.26352-0.0337 0.0392-0.0339 0.0254-0.0896-0.0316-0.12786-0.0583-0.0392-0.177-0.0448-0.24106-0.0114-0.051 0.0266-0.10606 0.0281-0.10606 3e-3 0-0.0104 0.0194-0.0333 0.0432-0.0508 0.0593-0.0439 0.0543-0.0761-0.0216-0.13833-0.0594-0.0487-0.0895-0.10692-0.0468-0.0906 0.13844 0.053 0.16709 0.0591 0.18947 0.0405 0.0126-0.0105 0.0231-0.0361 0.0232-0.0569 1.1e-4 -0.0208 6e-3 -0.0475 0.0138-0.0593 0.0215-0.0341 0.0427-6.3e-4 0.0576 0.0914 0.0186 0.11405 0.0754 0.18728 0.16805 0.21658 0.0448 0.0142 0.0771-0.0251 0.0771-0.0935 0-0.084-0.0305-0.14307-0.1058-0.20475-0.0773-0.0633-0.0901-0.10523-0.0274-0.0898 0.11128 0.0274 0.11713 0.027 0.12575-8e-3 5e-3 -0.0187 0.0131-0.0631 0.0191-0.0987 7e-3 -0.0419 0.0182-0.0648 0.0316-0.0648 0.0135 0 0.0246 0.0229 0.0316 0.0648 6e-3 0.0356 0.0145 0.0801 0.0191 0.0987 9e-3 0.0355 0.0145 0.0359 0.12575 8e-3 0.0626-0.0154 0.0498 0.0265-0.0274 0.0898-0.0753 0.0617-0.1058 0.12074-0.1058 0.20475 0 0.0685 0.0323 0.10768 0.0771 0.0935 0.093-0.0294 0.15455-0.10888 0.16947-0.21883 0.012-0.0881 0.0344-0.12366 0.0562-0.0891 7e-3 0.0118 0.0137 0.0385 0.0138 0.0593 1.1e-4 0.0208 0.0105 0.0464 0.0232 0.0569 0.0224 0.0186 0.051 0.0124 0.18946-0.0405 0.0105-4e-3 0.018 5e-3 0.018 0.0207 0 0.0163-0.0265 0.0462-0.0648 0.0733-0.0766 0.054-0.0824 0.0894-0.0216 0.13269 0.0238 0.0169 0.0432 0.0401 0.0432 0.0514 0 0.0264-0.0538 0.0259-0.10082-9.8e-4 -0.0584-0.0334-0.18867-0.0274-0.2463 0.0113-0.057 0.0383-0.0708 0.094-0.0316 0.12786 0.062 0.0537 0.19809 0.0711 0.26352 0.0337 0.0404-0.0231 0.11522-0.0286 0.11522-8e-3 0 7e-3 -0.0194 0.0295-0.0432 0.0495-0.0605 0.0509-0.0554 0.0861 0.0199 0.13784 0.0798 0.0549 0.0952 0.0878 0.0409 0.0871-0.0215-2.8e-4 -0.0554-0.01-0.0752-0.0211-0.0198-0.0113-0.0537-0.0208-0.0753-0.0211-0.0395-5.2e-4 -0.0446 8e-3 -0.0575 0.0931-2e-3 0.0158-0.014 0.0288-0.0258 0.0288-0.0198 0-0.0281-0.0237-0.0526-0.15051-0.01-0.0507-0.12269-0.15913-0.16566-0.15913-0.0509 0-0.0696 0.0263-0.0696 0.0979 0 0.0851 0.0309 0.14496 0.10834 0.20966 0.0355 0.0297 0.0645 0.0633 0.0645 0.0748 0 0.0261-0.0129 0.0262-0.0738 6e-4 -0.0636-0.0268-0.0986-8e-3 -0.1005 0.0532-7.9e-4 0.0255-6e-3 0.062-0.0112 0.0812-0.0101 0.0359-0.037 0.0547-0.0492 0.0342z"/>
    <path d="m169.03 125.72v-1.9164l0.0324 0.0105c0.0178 6e-3 0.10046 0.0277 0.18363 0.0487l0.15122 0.0382-5e-3 0.27269c-7e-3 0.38947 0.0379 0.63115 0.1609 0.86295 0.056 0.10565 0.2003 0.26138 0.30888 0.33345 0.0948 0.0629 0.26435 0.1317 0.35544 0.14419 0.0583 8e-3 0.0726 0.0188 0.15752 0.11945 0.26756 0.31706 0.57743 0.53495 0.85286 0.59971 0.13114 0.0308 0.33269 0.022 0.42463-0.0187l0.0658-0.0291 0.76217 0.69745c0.41919 0.38359 0.77495 0.71002 0.79057 0.7254 0.0281 0.0277 7e-3 0.028-2.1063 0.028h-2.1347zm3.1252 0.41191v-0.0643l0.30568-8e-3 -0.6307-0.52568c-0.34688-0.28912-0.64087-0.53344-0.65331-0.54293-0.0198-0.0151-0.0151-0.0248 0.0368-0.0772l0.0594-0.06 1.3213 1.1017 4e-3 -0.16035 4e-3 -0.16036h0.1142v0.56169h-0.56168zm-0.79049-0.0731c-0.30119-0.0653-0.47514-0.16625-0.79516-0.46127-0.12494-0.11518-0.14877-0.1311-0.44045-0.29421-0.0886-0.0495-0.18812-0.11678-0.22124-0.14943-0.18243-0.17991-0.25172-0.40166-0.28164-0.90131l-0.01-0.16502 0.0463 0.0389c0.0255 0.0214 0.10072 0.0692 0.16726 0.1063 0.0675 0.0376 0.1396 0.0905 0.16313 0.11981 0.0232 0.0288 0.10772 0.1622 0.18789 0.29636 0.23237 0.38887 0.29247 0.44383 0.62952 0.57563 0.13192 0.0516 0.23925 0.10455 0.30397 0.15 0.15816 0.11107 0.33312 0.32722 0.39179 0.48401 0.0341 0.091 0.0359 0.11415 0.0139 0.17709-0.0178 0.051-0.0233 0.0518-0.15539 0.0231zm0.9428-0.88749c-3e-3 -0.0106-0.0102-0.0495-0.0151-0.0864-0.012-0.0902-0.0332-0.10611-0.10247-0.0772-0.0396 0.0166-0.0584 0.0183-0.0697 7e-3 -0.0111-0.0115 5e-3 -0.0347 0.0595-0.0831 0.0829-0.0743 0.10508-0.11841 0.10508-0.20924 0-0.10593-0.0639-0.1271-0.15146-0.0502-0.0627 0.0551-0.0869 0.10045-0.0975 0.18324-8e-3 0.0633-0.0303 0.10187-0.0483 0.0839-5e-3 -5e-3 -0.0136-0.034-0.0184-0.0638-7e-3 -0.0453-0.015-0.0549-0.0472-0.0586-0.0212-2e-3 -0.058 6e-3 -0.0819 0.018-0.0545 0.0282-0.10249 0.0289-0.10249 2e-3 0-0.0115 0.0292-0.041 0.0648-0.0655 0.077-0.053 0.0825-0.0878 0.0216-0.13903-0.0238-0.02-0.0432-0.0423-0.0432-0.0495 0-0.0201 0.0748-0.0146 0.11521 8e-3 0.07 0.04 0.22409 0.0165 0.2723-0.0416 0.0289-0.0349 0.0122-0.0846-0.0404-0.11995-0.0576-0.0387-0.18784-0.0447-0.24631-0.0113-0.0417 0.0239-0.10081 0.0281-0.10081 7e-3 0-8e-3 0.0194-0.0316 0.0432-0.0528s0.0432-0.0496 0.0432-0.0632-0.0292-0.0486-0.0648-0.0778c-0.10327-0.0846-0.0807-0.11739 0.0389-0.0566 0.0756 0.0385 0.12673 0.017 0.12673-0.0533 0-0.0212 0.01-0.0465 0.0214-0.0563 0.0177-0.0147 0.0239-0.0112 0.036 0.0208 8e-3 0.0212 0.0146 0.0579 0.0146 0.0815 0 0.0588 0.034 0.11972 0.09 0.1611 0.10199 0.0754 0.15484 0.0613 0.15484-0.0413 0-0.0917-0.0287-0.14927-0.1058-0.21247-0.0773-0.0633-0.0902-0.10547-0.0274-0.0895 0.0218 6e-3 0.0589 0.0112 0.0825 0.0125 0.0418 2e-3 0.0434-1e-4 0.0593-0.0881 0.0256-0.14141 0.0445-0.14126 0.0704 5.4e-4 0.0159 0.0871 0.0178 0.0899 0.0587 0.0876 0.0233-1e-3 0.0601-7e-3 0.0819-0.0125 0.0628-0.016 0.0498 0.0262-0.0274 0.0895-0.0753 0.0617-0.1058 0.12074-0.1058 0.20475 0 0.10557 0.0561 0.12348 0.15484 0.0495 0.0561-0.042 0.09-0.1029 0.09-0.16156 0-0.0236 7e-3 -0.0603 0.0146-0.0815 0.0121-0.0319 0.0183-0.0355 0.036-0.0208 0.0118 0.01 0.0214 0.0326 0.0214 0.0508 0 0.0851 0.0388 0.0986 0.14603 0.0505 0.0959-0.0429 0.10738-0.0122 0.0231 0.0617-0.0377 0.033-0.0685 0.0712-0.0684 0.0848 5e-5 0.0136 0.0196 0.0392 0.0433 0.0567 0.0238 0.0176 0.0432 0.0404 0.0432 0.0508 0 0.0248-0.0553 0.0233-0.10082-3e-3 -0.0198-0.0113-0.0723-0.0208-0.11669-0.0211-0.22418-1e-3 -0.24541 0.19383-0.0231 0.21227 0.0537 4e-3 0.0912-7e-4 0.1223-0.0168 0.0487-0.0252 0.11829-0.0311 0.11829-0.0101 0 7e-3 -0.0194 0.0295-0.0432 0.0495-0.0609 0.0512-0.0554 0.086 0.0216 0.13903 0.10613 0.073 0.077 0.11358-0.0432 0.0602-0.0725-0.0322-0.10565-0.0255-0.11655 0.0237-0.0173 0.078-0.0231 0.0904-0.0395 0.085-0.015-5e-3 -0.026-0.0403-0.048-0.15381-0.01-0.0507-0.12269-0.15913-0.16566-0.15913-0.0505 0-0.0696 0.0262-0.0696 0.0956 0 0.0896 0.0217 0.13284 0.10494 0.20936 0.0524 0.0481 0.0701 0.0731 0.0594 0.0838s-0.0316 8e-3 -0.0701-8e-3c-0.0692-0.0289-0.0824-0.0172-0.10169 0.09-0.0139 0.0772-0.043 0.1154-0.0563 0.0739z"/>
    <path d="m169.03 125.72v-1.9138l0.36578 0.0916 2e-3 0.34493c1e-3 0.32621 4e-3 0.35275 0.0401 0.48895 0.0794 0.29616 0.24305 0.53128 0.45889 0.65938 0.0931 0.0553 0.28892 0.12554 0.34979 0.12554 0.0242 0 0.0567 0.0283 0.1158 0.10044 0.10432 0.12752 0.31196 0.32546 0.42867 0.40868 0.12901 0.092 0.28174 0.16481 0.41766 0.19918 0.14833 0.0375 0.34304 0.0319 0.44418-0.0129l0.0657-0.029 0.76947 0.70475c0.42321 0.38762 0.77896 0.71403 0.79056 0.72537 0.0183 0.0179-0.26168 0.0206-2.1135 0.0206h-2.1346zm3.1252 0.40925v-0.0643l0.30831-8e-3 -1.3001-1.0834 0.0537-0.0524c0.0295-0.0288 0.0583-0.0524 0.0641-0.0524 6e-3 0 0.30186 0.24304 0.65804 0.54008s0.65095 0.54008 0.65505 0.54008c4e-3 0 7e-3 -0.0713 7e-3 -0.15842v-0.15843h0.1152v0.56169h-0.56168zm-0.79049-0.0731c-0.2897-0.0628-0.44899-0.15314-0.75363-0.42717-0.14206-0.12779-0.21796-0.18367-0.33845-0.24919-0.23608-0.12837-0.32536-0.18786-0.39717-0.26462-0.11606-0.12408-0.18103-0.28624-0.21843-0.54523-0.0254-0.17613-0.0429-0.49266-0.0258-0.46818 7e-3 0.01 0.0819 0.0593 0.16651 0.10961 0.0927 0.0551 0.17164 0.11384 0.19845 0.14758 0.0245 0.0308 0.1153 0.17375 0.20179 0.31766 0.0865 0.14391 0.18477 0.28997 0.2184 0.32458 0.0803 0.0826 0.17923 0.13775 0.40514 0.22581 0.10215 0.0398 0.22204 0.0964 0.26644 0.12569 0.1733 0.11442 0.38151 0.37484 0.42825 0.53563 0.0187 0.0642 0.0199 0.0896 6e-3 0.1346-0.0187 0.0625-0.0209 0.0629-0.15786 0.0332zm0.9428-0.88749c-3e-3 -0.0106-0.0102-0.0495-0.0151-0.0864-0.0122-0.0915-0.0347-0.10796-0.1076-0.0788-0.0888 0.0355-0.0904 2e-3 -3e-3 -0.076 0.0816-0.0729 0.1035-0.11683 0.1035-0.20811 0-0.10593-0.0639-0.1271-0.15146-0.0502-0.0627 0.0551-0.0869 0.10045-0.0975 0.18324-0.0136 0.10622-0.0671 0.11663-0.0677 0.0132-3.5e-4 -0.0619-0.0444-0.0762-0.12464-0.0407-0.13019 0.0576-0.14638 0.024-0.0304-0.0631 0.0668-0.0502 0.0688-0.0875 7e-3 -0.1391-0.0586-0.0492-0.0429-0.0679 0.0365-0.0434 0.10687 0.0331 0.18761 0.0351 0.24791 6e-3 0.13492-0.0647 0.0944-0.16017-0.0844-0.19891-0.0264-6e-3 -0.074 3e-3 -0.13243 0.0238-0.0501 0.018-0.0964 0.0275-0.10272 0.0211-6e-3 -6e-3 9e-3 -0.0304 0.0352-0.0534 0.0257-0.023 0.0468-0.0541 0.0468-0.0691s-0.0292-0.0512-0.0648-0.0804c-0.10327-0.0846-0.0807-0.11739 0.0389-0.0566 0.0777 0.0395 0.12631 0.0205 0.12696-0.0498 1.1e-4 -0.0132 7e-3 -0.0337 0.0147-0.0456 0.0125-0.0187 0.0173-0.0178 0.0358 6e-3 0.0117 0.0154 0.0213 0.0517 0.0213 0.0807 0 0.0631 0.046 0.1368 0.11408 0.18267 0.0562 0.0379 0.0723 0.0399 0.10827 0.0136 0.0193-0.0141 0.0259-0.0369 0.0249-0.086-2e-3 -0.0879-0.0388-0.15643-0.11403-0.21077-0.0719-0.052-0.0838-0.0964-0.0216-0.0805 0.0218 6e-3 0.0589 0.0112 0.0826 0.0125 0.0401 2e-3 0.0438-2e-3 0.0551-0.0624 7e-3 -0.0357 0.015-0.0794 0.0185-0.0972 4e-3 -0.0178 0.0126-0.0324 0.0202-0.0324 8e-3 0 0.0167 0.0146 0.0202 0.0324 4e-3 0.0178 0.0118 0.0616 0.0185 0.0972 0.0113 0.0604 0.015 0.0647 0.0551 0.0624 0.0236-1e-3 0.0608-7e-3 0.0826-0.0125 0.0623-0.0159 0.0498 0.0246-0.0269 0.0875-0.0766 0.0628-0.10629 0.12264-0.10629 0.21441 0 0.10401 0.0647 0.12087 0.15902 0.0415 0.0514-0.0433 0.0858-0.10454 0.0858-0.15285 0-0.019 7e-3 -0.0552 0.016-0.0804 0.0129-0.0369 0.0199-0.0426 0.036-0.0292 0.011 9e-3 0.02 0.0315 0.02 0.0497 0 0.0795 0.051 0.10194 0.12962 0.057 0.041-0.0234 0.10081-0.0283 0.10081-8e-3 0 7e-3 -0.0292 0.0373-0.0648 0.0665-0.0761 0.0624-0.081 0.0955-0.0216 0.14546 0.0797 0.0671 0.0384 0.0843-0.0784 0.0327-0.16343-0.0723-0.36446 0.0677-0.23549 0.16393 0.0531 0.0397 0.17918 0.0496 0.23876 0.0188 0.0496-0.0256 0.11829-0.031 0.11829-9e-3 0 8e-3 -0.0194 0.0284-0.0432 0.0459-0.0628 0.0464-0.0566 0.0871 0.0216 0.14329 0.0634 0.0455 0.0843 0.0849 0.0451 0.0849-0.0108 0-0.0538-0.0142-0.0954-0.0315-0.0738-0.0307-0.0763-0.0308-0.0955-4e-3 -0.0109 0.0149-0.0199 0.0404-0.02 0.0567-1.2e-4 0.0163-6e-3 0.0393-0.0138 0.0511-0.0207 0.0327-0.0445 1.5e-4 -0.0539-0.0737-0.0106-0.0828-0.0347-0.12813-0.0975-0.18324-0.0876-0.0769-0.15146-0.0557-0.15146 0.0502 0 0.0915 0.0219 0.13522 0.10478 0.20948 0.0552 0.0495 0.071 0.0717 0.0593 0.0836-0.0117 0.012-0.0297 0.01-0.0687-9e-3 -0.0685-0.0327-0.0904-0.0131-0.10589 0.0946-0.0106 0.0737-0.0399 0.11254-0.0533 0.0707z"/>
    <path d="m169.03 125.72v-1.9138l0.36523 0.0916 2e-3 0.3522c2e-3 0.31323 5e-3 0.36558 0.0337 0.47309 0.0649 0.24686 0.20373 0.47712 0.36026 0.59747 0.13629 0.10478 0.34578 0.19618 0.44965 0.19618 0.0307 0 0.0561 0.0209 0.11959 0.0985 0.17666 0.21593 0.42089 0.42421 0.60944 0.51973 0.15686 0.0795 0.24644 0.10441 0.40394 0.11245 0.12673 6e-3 0.16153 3e-3 0.24821-0.0249l0.10082-0.0324 0.23425 0.21473c0.12884 0.1181 0.47081 0.43096 0.75993 0.69524s0.53846 0.49248 0.55408 0.50711c0.0276 0.0259-0.0299 0.0266-2.1063 0.0266h-2.1347zm3.1352 0.46428c-5e-3 -5e-3 -0.01-0.0315-0.01-0.0579v-0.048h0.15842c0.0871 0 0.15806-5e-3 0.15761-0.0108-4.4e-4 -6e-3 -0.28596-0.24736-0.63447-0.53648-0.34852-0.28912-0.64081-0.53404-0.64954-0.54427-0.0121-0.0141-4e-3 -0.0306 0.0327-0.0687 0.0267-0.0276 0.0566-0.0471 0.0664-0.0433 0.01 4e-3 0.30579 0.24694 0.65783 0.54041 0.35203 0.29348 0.64399 0.5336 0.64879 0.5336 5e-3 0 9e-3 -0.0713 9e-3 -0.15842v-0.15843h0.1158l-8e-3 0.55448-0.26733 4e-3c-0.14703 2e-3 -0.27179-5.5e-4 -0.27724-6e-3zm-0.78762-0.12823c-0.30375-0.065-0.47425-0.15943-0.74865-0.41481-0.15636-0.14554-0.20884-0.18134-0.51433-0.35082-0.34598-0.19195-0.44265-0.40113-0.48735-1.0545l-9e-3 -0.13583 0.0337 0.0237c0.0185 0.013 0.0877 0.0545 0.15363 0.0922 0.066 0.0377 0.14396 0.0946 0.17331 0.12653 0.0294 0.0319 0.11711 0.16494 0.195 0.29564 0.0779 0.1307 0.16626 0.27068 0.19636 0.31106 0.0753 0.10104 0.18698 0.17096 0.42898 0.26863 0.24893 0.10045 0.33066 0.15091 0.45715 0.28223 0.19726 0.20479 0.30095 0.40813 0.26659 0.52281-0.0185 0.0618-0.0151 0.061-0.14508 0.0332zm0.93047-0.8934c-5e-3 -0.0125-9e-3 -0.0442-9e-3 -0.0704s-0.0122-0.0627-0.0271-0.0811c-0.0241-0.0298-0.0314-0.0315-0.0655-0.016-0.0456 0.0208-0.0946 0.0229-0.0946 4e-3 0-7e-3 0.0296-0.0377 0.0657-0.0673 0.0743-0.0609 0.0992-0.10227 0.11202-0.1865 6e-3 -0.0411 2e-3 -0.0678-0.0132-0.09-0.0629-0.0897-0.22109 0.0353-0.24174 0.19104-0.0108 0.0812-0.0318 0.11292-0.0528 0.0797-7e-3 -0.0118-0.0137-0.0385-0.0138-0.0593-4e-4 -0.067-0.0342-0.0793-0.12003-0.0437-0.12926 0.0536-0.14781 0.0348-0.0471-0.0478 0.0871-0.0713 0.0899-0.0867 0.0269-0.14447-0.064-0.0587-0.0537-0.0771 0.0289-0.0514 0.0334 0.0104 0.0964 0.0219 0.13997 0.0255 0.10196 8e-3 0.17749-0.0354 0.18448-0.10692 4e-3 -0.0402-2e-3 -0.0489-0.0504-0.0734-0.0957-0.0485-0.14202-0.0516-0.23674-0.0162-0.10295 0.0385-0.13879 0.0233-0.0738-0.0314 0.0554-0.0466 0.0668-0.0803 0.0358-0.10551-0.10022-0.0813-0.11852-0.0983-0.11852-0.1099 0-0.0204 0.0545-0.0155 0.10249 9e-3 0.0239 0.0123 0.0608 0.0205 0.0819 0.018 0.0322-4e-3 0.0399-0.0133 0.0472-0.0586 5e-3 -0.0298 0.0131-0.0585 0.0184-0.0639 0.018-0.018 0.0402 0.0206 0.0483 0.0839 0.0104 0.0811 0.0354 0.12958 0.0911 0.17645 0.0979 0.0824 0.16698 0.0589 0.16256-0.0554-3e-3 -0.087-0.0396-0.15644-0.10553-0.20209-0.0941-0.0652-0.0947-0.11255-9.3e-4 -0.0757 0.0773 0.0303 0.10022 0.0115 0.11453-0.0939 0.018-0.13269 0.0428-0.13269 0.0608 0 0.0141 0.10414 0.0394 0.12651 0.10987 0.0971 0.0275-0.0115 0.0558-0.0173 0.0629-0.0129 0.0205 0.0127-0.0118 0.0598-0.0607 0.0883-0.0887 0.0518-0.13978 0.2416-0.0773 0.28729 0.0365 0.0267 0.0523 0.0247 0.1087-0.0132 0.0625-0.0422 0.11409-0.11899 0.11409-0.17008 0-0.0508 0.0236-0.11402 0.0426-0.11402 8e-3 0 0.0185 0.0178 0.0233 0.0396 0.019 0.0854 0.0222 0.09 0.0611 0.0895 0.0213-2.8e-4 0.0548-0.01 0.0746-0.0211 0.0407-0.0232 0.10081-0.0283 0.10081-8e-3 0 0.0116-0.0183 0.0286-0.11852 0.1099-0.0312 0.0253-0.0202 0.0565 0.0382 0.10863 0.0244 0.0218 0.0391 0.0448 0.0328 0.0512-6e-3 6e-3 -0.0532-3e-3 -0.10414-0.0216-0.1013-0.0363-0.1458-0.0336-0.24157 0.0149-0.048 0.0243-0.0543 0.0333-0.0504 0.0724 6e-3 0.0643 0.064 0.10185 0.16758 0.10934 0.0592 4e-3 0.0976-7.9e-4 0.1291-0.0171 0.0477-0.0247 0.10384-0.0309 0.10384-0.0114 0 6e-3 -0.0227 0.0318-0.0504 0.0564-0.0601 0.0532-0.0565 0.07 0.0301 0.14097 0.10071 0.0825 0.0822 0.10135-0.0471 0.0478-0.0859-0.0356-0.11964-0.0233-0.12003 0.0437-1.2e-4 0.0208-6e-3 0.0475-0.0138 0.0593-0.0211 0.0334-0.0421 1e-3 -0.0523-0.0797-0.0108-0.0853-0.0614-0.16613-0.12567-0.20075-0.0997-0.0537-0.15241 7e-3 -0.11863 0.13769 0.0164 0.0633 0.0336 0.0894 0.0936 0.14259 0.0404 0.0358 0.0734 0.0699 0.0733 0.0759-4.2e-4 0.0162-0.0517 0.013-0.0928-6e-3 -0.0479-0.0218-0.0767 2e-3 -0.088 0.072-0.0154 0.0961-0.0216 0.11737-0.0343 0.11737-7e-3 0-0.0165-0.0102-0.0213-0.0228z"/>
    <path d="m169.03 125.73c0-1.5172 4e-3 -1.9082 0.018-1.908 0.0226 3.9e-4 0.34241 0.0817 0.34958 0.0888 3e-3 3e-3 1.5e-4 0.0898-6e-3 0.19303-0.0445 0.73406 0.19618 1.2139 0.69243 1.3802 0.0608 0.0204 0.12771 0.0371 0.14868 0.0371 0.0269 0 0.0537 0.0179 0.0911 0.0612 0.40757 0.4711 0.74267 0.67703 1.099 0.67534 0.0872-4.2e-4 0.15137-0.01 0.21468-0.031l0.0903-0.0304 0.0662 0.0636c0.0364 0.035 0.37729 0.34742 0.75751 0.69427 0.38021 0.34685 0.70408 0.64267 0.7197 0.65737 0.0277 0.026-0.0263 0.0267-2.1063 0.0267h-2.1347zm3.1252 0.40326v-0.0504h0.15842c0.0871 0 0.15806-5e-3 0.15761-0.0108-4.4e-4 -6e-3 -0.28596-0.24736-0.63447-0.53648-0.34852-0.28912-0.64081-0.53404-0.64954-0.54427-0.0121-0.0141-4e-3 -0.0306 0.0327-0.0687 0.0267-0.0276 0.0567-0.0471 0.0665-0.0433 0.01 4e-3 0.3098 0.2503 0.66655 0.54782l0.64864 0.54095v-0.33167h0.1152v0.54728h-0.56168zm-0.7762-0.0727c-0.30835-0.0669-0.47579-0.15949-0.75016-0.41485-0.10146-0.0944-0.20496-0.1752-0.27883-0.2176-0.0646-0.0371-0.17096-0.0977-0.23631-0.13481-0.15483-0.0878-0.23947-0.16057-0.30533-0.26248-0.10092-0.15614-0.15386-0.38803-0.18037-0.79007l-9e-3 -0.13543 0.0331 0.0233c0.0182 0.0129 0.0849 0.0535 0.1483 0.0904s0.13674 0.0873 0.16304 0.11208c0.0263 0.0248 0.12352 0.17104 0.21604 0.325 0.23259 0.38709 0.296 0.44544 0.61726 0.56804 0.20766 0.0792 0.29993 0.13236 0.40958 0.23581 0.19379 0.18281 0.32065 0.38459 0.32066 0.51004 1e-5 0.0604-0.0228 0.11473-0.0469 0.11168-5e-3 -6.3e-4 -0.0505-0.0101-0.10114-0.0211zm0.92896-0.89344c-5e-3 -0.0125-9e-3 -0.0442-9e-3 -0.0704s-0.0122-0.0627-0.0271-0.0811c-0.0241-0.0298-0.0314-0.0315-0.0655-0.016-0.0456 0.0208-0.0946 0.0229-0.0946 4e-3 0-7e-3 0.0296-0.0377 0.0657-0.0673 0.0728-0.0597 0.0983-0.10099 0.11325-0.18329 0.0121-0.067-0.0193-0.12488-0.0677-0.12474-0.0729 2.2e-4 -0.18216 0.11466-0.18473 0.19353-4e-3 0.11586-0.0495 0.16305-0.0648 0.067-0.014-0.0879-0.0358-0.0985-0.12555-0.0613-0.13319 0.0552-0.14698 0.0355-0.0386-0.0553 0.0396-0.0332 0.072-0.0667 0.072-0.0746 0-8e-3 -0.0227-0.0344-0.0504-0.0589s-0.0504-0.0499-0.0504-0.0564c0-0.0187 0.0614-0.0127 0.10081 0.01 0.0474 0.0271 0.17789 0.0272 0.23028 9e-5 0.0951-0.0492 0.10225-0.12111 0.0163-0.1646-0.0929-0.047-0.13997-0.05-0.23403-0.0148-0.10858 0.0406-0.13473 0.0234-0.0633-0.0417 0.0595-0.0542 0.0615-0.0653 0.0183-0.10167-0.0178-0.015-0.0519-0.0435-0.0756-0.0635-0.0594-0.0499-0.0357-0.0639 0.0556-0.0328 0.10357 0.0352 0.12908 0.0282 0.13993-0.0386 0.0167-0.10263 0.0506-0.0872 0.0694 0.0314 0.0135 0.0851 0.0464 0.13718 0.11745 0.1855 0.0967 0.0658 0.16005 3e-3 0.12883-0.12678-0.0169-0.0704-0.0395-0.10135-0.12938-0.17692-0.0606-0.051-0.0426-0.078 0.0313-0.0471 0.0715 0.0299 0.0967 8e-3 0.11088-0.0967 0.018-0.13226 0.0428-0.1327 0.0607-1e-3 0.015 0.11044 0.0354 0.12935 0.10707 0.0994 0.0774-0.0323 0.0973-7e-3 0.0353 0.0454-0.091 0.0765-0.11315 0.10748-0.12859 0.17949-0.0283 0.13195 0.0316 0.18949 0.12902 0.12387 0.0691-0.0466 0.10944-0.1124 0.12065-0.19692 5e-3 -0.0397 0.0166-0.0765 0.0252-0.0818 0.0209-0.0129 0.0407 0.0209 0.041 0.0701 3.1e-4 0.057 0.0473 0.0713 0.12219 0.0373 0.0634-0.0288 0.10846-0.0345 0.10846-0.0138 0 7e-3 -0.0275 0.0346-0.0612 0.0608s-0.0655 0.0537-0.0707 0.0611c-0.0145 0.0206 4e-3 0.0551 0.0491 0.0934 0.065 0.0547 0.0291 0.0699-0.0738 0.0314-0.0947-0.0354-0.14104-0.0323-0.23674 0.0162-0.0483 0.0245-0.0543 0.0332-0.0504 0.0734 7e-3 0.0678 0.0787 0.1115 0.18301 0.11084 0.0444-2.8e-4 0.0969-0.01 0.11669-0.0211 0.0394-0.0225 0.10082-0.0285 0.10082-0.01 0 6e-3 -0.0227 0.0318-0.0504 0.0564-0.0601 0.0532-0.0565 0.07 0.0301 0.14097 0.10071 0.0825 0.0822 0.10135-0.0471 0.0478-0.0898-0.0372-0.1115-0.0266-0.12556 0.0613-0.0126 0.0785-0.0414 0.0662-0.0566-0.024-0.0167-0.0993-0.0508-0.16208-0.10977-0.20217-0.0971-0.066-0.16687-0.0253-0.14967 0.0872 0.0129 0.0842 0.0377 0.12564 0.11202 0.1865 0.0361 0.0296 0.0657 0.0599 0.0657 0.0673 0 0.0188-0.049 0.0167-0.0946-4e-3 -0.0341-0.0155-0.0414-0.0138-0.0655 0.016-0.0149 0.0184-0.0271 0.0549-0.0271 0.0811 0 0.0541-0.0121 0.0932-0.0288 0.0932-6e-3 0-0.0153-0.0102-0.0201-0.0228z"/>
    <path d="m169.03 125.73c0-1.4071 4e-3 -1.9083 0.0163-1.9083 9e-3 0 0.0936 0.0206 0.1881 0.0457l0.17186 0.0457-0.0113 0.0947c-0.0188 0.15814-0.0106 0.48671 0.0156 0.6251 0.0515 0.272 0.17121 0.50945 0.32801 0.65043 0.13562 0.12193 0.32656 0.21519 0.50121 0.2448 0.0384 7e-3 0.0641 0.0259 0.10778 0.0812 0.0912 0.11557 0.28967 0.3085 0.4126 0.40113 0.1334 0.10052 0.31386 0.19223 0.44456 0.22592 0.13279 0.0342 0.31544 0.0309 0.42844-8e-3l0.09-0.0308 0.77665 0.70944c0.42716 0.3902 0.77715 0.71431 0.77775 0.72025 5.9e-4 6e-3 -0.95485 0.0108-2.1232 0.0108h-2.1243zm3.1252 0.40371v-0.0499l0.33175-8e-3 -0.65554-0.54593c-0.36055-0.30026-0.65555-0.55013-0.65555-0.55526 0-5e-3 0.0224-0.031 0.0498-0.0576l0.0498-0.0482 0.0474 0.0369c0.0261 0.0203 0.32289 0.26676 0.65954 0.54773l0.61209 0.51084 4e-3 -0.16472 4e-3 -0.16471 0.0536 4e-3 0.0535 4e-3 4e-3 0.27003 4e-3 0.27004h-0.56232zm-0.7057-0.062c-0.0893-0.0134-0.27511-0.067-0.36559-0.1055-0.14551-0.0619-0.27429-0.15315-0.4553-0.32263-0.16191-0.15159-0.20957-0.18488-0.46131-0.32222-0.17565-0.0958-0.26611-0.16464-0.33421-0.25423-0.10336-0.136-0.17043-0.37145-0.19067-0.66935-5e-3 -0.0673-0.0118-0.16027-0.016-0.20652l-8e-3 -0.0841 0.0621 0.0419c0.0341 0.0231 0.10537 0.0658 0.15829 0.0951 0.0529 0.0292 0.11825 0.0788 0.14518 0.11031 0.0269 0.0315 0.11898 0.17431 0.20457 0.31746 0.0856 0.14314 0.18228 0.28901 0.21487 0.32415 0.0761 0.082 0.19188 0.14996 0.38239 0.22432 0.23229 0.0907 0.30848 0.13408 0.4203 0.23957 0.19322 0.18227 0.30257 0.35483 0.31193 0.49225 6e-3 0.0928-0.0138 0.12776-0.0688 0.11951zm0.85813-0.91422c-4e-3 -0.0178-0.01-0.0578-0.0142-0.0888-0.0107-0.0793-0.0241-0.088-0.1019-0.0662-0.10706 0.03-0.10117 0.0134 0.0399-0.11217 0.024-0.0214 0.0433-0.0605 0.0546-0.1109 0.0152-0.0677 0.0143-0.0826-7e-3 -0.11455-0.0152-0.0233-0.0374-0.0367-0.0603-0.0367-0.0725 0-0.17911 0.11332-0.17911 0.19038 0 0.0458-0.0279 0.12646-0.0438 0.12646-7e-3 0-0.0175-0.0269-0.024-0.0597-0.017-0.0858-0.0414-0.0955-0.13887-0.0551-0.0446 0.0185-0.086 0.0286-0.0921 0.0226-6e-3 -6e-3 0.0232-0.0412 0.0649-0.0782 0.0417-0.0369 0.0758-0.0751 0.0756-0.0847-1.6e-4 -0.01-0.0197-0.0319-0.0435-0.0495-0.0451-0.0334-0.0574-0.0697-0.0234-0.0697 0.0109 0 0.0504 0.0136 0.0879 0.0301 0.0764 0.0338 0.13497 0.0295 0.22547-0.0167 0.12333-0.0629 0.0637-0.17191-0.1069-0.19529-0.0466-6e-3 -0.081-5e-4 -0.13619 0.0232-0.0989 0.0425-0.1267 0.0243-0.0549-0.036 0.0674-0.0566 0.0621-0.0845-0.0281-0.14804-0.10388-0.0732-0.0742-0.10157 0.0482-0.046 0.0798 0.0362 0.11041 0.0217 0.12321-0.0583 0.0157-0.0982 0.0613-0.0498 0.0649 0.069 1e-3 0.0354 0.0185 0.0645 0.0708 0.11882 0.0809 0.084 0.1313 0.0944 0.17007 0.0352 0.0212-0.0324 0.0219-0.0465 6e-3 -0.11882-0.0157-0.0707-0.0292-0.0922-0.0965-0.1545-0.043-0.0398-0.0741-0.0766-0.069-0.0817 5e-3 -5e-3 0.0363 2.2e-4 0.0692 0.0119 0.0571 0.0202 0.0611 0.0197 0.0851-0.01 0.0139-0.0171 0.0253-0.0546 0.0254-0.0835 1.2e-4 -0.0288 7e-3 -0.0621 0.0144-0.074 0.0126-0.0192 0.0157-0.0192 0.0284 0 8e-3 0.0119 0.0143 0.0452 0.0144 0.074 1.3e-4 0.0292 0.012 0.0669 0.0268 0.0853 0.026 0.0322 0.0278 0.0324 0.0858 9e-3 0.0724-0.029 0.0931-9e-3 0.0377 0.037-0.10068 0.0829-0.11827 0.10709-0.13619 0.18713-0.016 0.0715-0.0153 0.0857 6e-3 0.11798 0.0362 0.0553 0.0855 0.0476 0.16253-0.0251 0.0576-0.0544 0.0674-0.0729 0.082-0.15364 0.0196-0.10884 0.0477-0.12955 0.0612-0.0451 0.0138 0.0866 0.035 0.0973 0.12004 0.0607 0.12257-0.0527 0.15662-0.0328 0.0621 0.0363-0.0591 0.0433-0.09 0.0759-0.09 0.0951 0 7e-3 0.0235 0.0339 0.0521 0.0601 0.0665 0.061 0.0446 0.0754-0.0547 0.0361-0.11897-0.0471-0.2696-0.0137-0.30011 0.0665-0.0186 0.049-5e-3 0.0756 0.056 0.10631 0.093 0.0471 0.13831 0.0496 0.23894 0.0136 0.0509-0.0183 0.0973-0.0284 0.10314-0.0226 6e-3 6e-3 -0.0133 0.0324-0.0424 0.0591-0.0292 0.0267-0.0531 0.0542-0.0533 0.061-1.6e-4 7e-3 0.0339 0.0427 0.0756 0.0796 0.0417 0.037 0.071 0.0721 0.0649 0.0782-6e-3 6e-3 -0.0475-4e-3 -0.0921-0.0226-0.0977-0.0405-0.12189-0.0307-0.13904 0.056-0.0165 0.0833-0.0426 0.068-0.0613-0.036-0.0174-0.0964-0.0441-0.14437-0.10624-0.19029-0.0575-0.0425-0.10934-0.0409-0.13892 4e-3 -0.043 0.0657 5e-3 0.20815 0.0881 0.26276 0.0268 0.0176 0.0562 0.0459 0.0653 0.0629 0.0178 0.0333 0.0115 0.0336-0.10498 5e-3 -0.0336-8e-3 -0.0415-4e-3 -0.054 0.0289-8e-3 0.0212-0.0147 0.0571-0.0147 0.0797 0 0.0798-0.036 0.1195-0.0492 0.0542z"/>
   </g>
  </g>
 </g>
</svg>
