<?xml version="1.0" encoding="UTF-8" standalone="no"?>
<!-- Created with Inkscape (http://www.inkscape.org/) -->

<svg
   xmlns:dc="http://purl.org/dc/elements/1.1/"
   xmlns:cc="http://creativecommons.org/ns#"
   xmlns:rdf="http://www.w3.org/1999/02/22-rdf-syntax-ns#"
   xmlns:svg="http://www.w3.org/2000/svg"
   xmlns="http://www.w3.org/2000/svg"
   xmlns:sodipodi="http://sodipodi.sourceforge.net/DTD/sodipodi-0.dtd"
   xmlns:inkscape="http://www.inkscape.org/namespaces/inkscape"
   width="32"
   height="39"
   viewBox="0 0 32 39.000001"
   id="svg8605"
   version="1.1"
   inkscape:version="0.91 r13725"
   sodipodi:docname="ParquesJardinesAreasNaturales.svg"
   inkscape:export-filename="C:\Users\jhernandez\Documents\imagenCorp\iconos\cartografia\varios\ParquesJardinesAreasNaturales.png"
   inkscape:export-xdpi="286.42999"
   inkscape:export-ydpi="286.42999">
  <defs
     id="defs8607" />
  <sodipodi:namedview
     id="base"
     pagecolor="#ffffff"
     bordercolor="#666666"
     borderopacity="1.0"
     inkscape:pageopacity="0.0"
     inkscape:pageshadow="2"
     inkscape:zoom="15.839192"
     inkscape:cx="4.9356533"
     inkscape:cy="25.903821"
     inkscape:document-units="px"
     inkscape:current-layer="layer1"
     showgrid="false"
     units="px"
     inkscape:window-width="1920"
     inkscape:window-height="1018"
     inkscape:window-x="1912"
     inkscape:window-y="-8"
     inkscape:window-maximized="1" />
  <metadata
     id="metadata8610">
    <rdf:RDF>
      <cc:Work
         rdf:about="">
        <dc:format>image/svg+xml</dc:format>
        <dc:type
           rdf:resource="http://purl.org/dc/dcmitype/StillImage" />
        <dc:title />
      </cc:Work>
    </rdf:RDF>
  </metadata>
  <g
     inkscape:label="Capa 1"
     inkscape:groupmode="layer"
     id="layer1"
     transform="translate(0,-1013.3622)">
    <g
       id="g9432"
       transform="translate(1.226519,2.5339722)">
      <path
         inkscape:export-ydpi="89.889763"
         inkscape:export-xdpi="89.889763"
         inkscape:export-filename="C:\Documents and Settings\jhernandez\Mis documentos\imagenCorp\iconos\cartografia\ICONOS_GRAFCAN.png"
         style="display:inline;fill:#008f3c;fill-opacity:1;stroke:none;stroke-width:0.54071635"
         d="m 2.357931,1011.3229 c -2.29459999,0 -3.5842,1.1861 -3.5842,3.6101 l 0,24.9866 c 0,2.2674 1.15980001,3.4545 3.4523,3.4545 l 5.5251,0 2.9817,2.5671 4.0406,3.3968 4.0413,-3.3968 2.9811,-2.5671 5.5229,0 c 2.2931,0 3.4545,-1.1278 3.4545,-3.4545 l 0,-24.9866 c 0,-2.3649 -1.1619,-3.6101 -3.5265,-3.6101 -10e-5,0 -24.8967,-0.01 -24.8888,0 z"
         id="path7647"
         inkscape:connector-curvature="0" />
      <path
         inkscape:export-ydpi="89.889763"
         inkscape:export-xdpi="89.889763"
         inkscape:export-filename="C:\Documents and Settings\jhernandez\Mis documentos\imagenCorp\iconos\cartografia\ICONOS_GRAFCAN.png"
         inkscape:connector-curvature="0"
         id="path6893"
         d="m 11.806231,1017.6435 c -1.5162,0 -2.7651,1.1402 -2.9395,2.6093 -0.3168,-0.1156 -0.6588,-0.1777 -1.0156,-0.1777 -1.6355,0 -2.9628,1.3253 -2.9628,2.9609 0,1.1092 0.6109,2.0746 1.5137,2.5819 -0.2576,0.2879 -0.4559,0.6278 -0.5859,1 -0.07,0.055 -0.1384,0.1118 -0.1973,0.1778 -0.2812,-0.4492 -0.7806,-0.7481 -1.3496,-0.7481 -0.8144,0 -1.4861,0.6131 -1.5801,1.4024 -0.1701,-0.063 -0.3532,-0.098 -0.5449,-0.098 -0.8785,0 -1.59169999,0.7132 -1.59169999,1.5918 0,0.5959 0.3275,1.114 0.81249999,1.3866 -0.2517,0.2813 -0.40429999,0.6534 -0.40429999,1.0606 0,0.8787 0.71309999,1.5898 1.59169999,1.5898 0.4064,0 0.7774,-0.1515 1.0586,-0.4023 -0.066,1.0062 -0.276,2.5993 -0.9336,3.2225 l 3.4004,0 c 0,0 -0.7341,-1.5014 -0.5215,-2.8886 0.2155,0.1092 0.4588,0.1719 0.7167,0.1719 0.8785,0 1.5918,-0.7132 1.5918,-1.5918 l 0,-0.018 c 0.5616,-0.082 1.0252,-0.457 1.2363,-0.9648 0.5621,-0.094 1.071,-0.3457 1.4784,-0.709 -0.1229,1.873 -0.5101,4.8399 -1.7345,5.9999 l 6.3261,0 c 0,0 -1.3624,-2.7946 -0.9667,-5.3768 0.4013,0.2029 0.8535,0.3183 1.3341,0.3183 1.6356,0 2.9608,-1.3273 2.9608,-2.9628 l 0,-0.029 c 1.4323,-0.208 2.5333,-1.4418 2.5333,-2.9316 0,-1.2092 -0.7249,-2.2469 -1.7637,-2.7069 0.1329,-0.337 0.207,-0.7055 0.207,-1.0899 0,-1.6356 -1.3272,-2.9608 -2.9628,-2.9608 -0.8712,0 -1.6534,0.3756 -2.1953,0.9745 -0.5234,-0.8361 -1.4524,-1.3925 -2.5116,-1.3925 z m 7.3631,13.4196 c -0.4395,0 -0.795,0.3533 -0.795,0.793 l 0,2.4121 c 0,0.02 0.012,0.039 0.012,0.059 0,0 -0.012,0 -0.012,0.012 l 0,1.414 c 0,0.013 0.011,0.023 0.025,0.023 l 1.4278,0 c 0.013,0 0.023,-0.01 0.023,-0.023 l 0,-0.6856 7.6699,0 0,0.6856 c 0,0.013 0.01,0.023 0.022,0.023 l 1.4296,0 c 0.013,0 0.023,-0.01 0.023,-0.023 l 0,-1.414 c 0,0 -0.01,0 -0.01,-0.012 0,-0.02 0.01,-0.039 0.01,-0.059 l 0,-2.4101 c 0,-0.4398 -0.353,-0.795 -0.7928,-0.795 l -9.0332,0 z m -0.1329,0.2246 9.2949,0 c 0.017,0 0.031,0.014 0.031,0.031 l 0,0.3398 c 0,0.017 -0.014,0.029 -0.031,0.029 l -9.2949,0 c -0.017,0 -0.029,-0.012 -0.029,-0.029 l 0,-0.3398 c 0,-0.017 0.012,-0.031 0.029,-0.031 z m 0,0.6993 9.2949,0 c 0.017,0 0.031,0.014 0.031,0.031 l 0,0.3399 c 0,0.017 -0.014,0.031 -0.031,0.031 l -9.2949,0 c -0.017,0 -0.029,-0.014 -0.029,-0.031 l 0,-0.3399 c 0,-0.017 0.012,-0.031 0.029,-0.031 z m 0,0.6992 9.2949,0 c 0.017,0 0.031,0.014 0.031,0.031 l 0,0.3399 c 0,0.017 -0.014,0.031 -0.031,0.031 l -9.2949,0 c -0.017,0 -0.029,-0.014 -0.029,-0.031 l 0,-0.3399 c 0,-0.017 0.012,-0.031 0.029,-0.031 z m 0,1.666 9.2949,0 c 0.017,0 0.031,0.014 0.031,0.031 l 0,0.3398 c 0,0.017 -0.014,0.029 -0.031,0.029 l -9.2949,0 c -0.017,0 -0.029,-0.012 -0.029,-0.029 l 0,-0.3398 c 0,-0.017 0.012,-0.031 0.029,-0.031 z"
         style="display:inline;fill:#ffffff;stroke:none;stroke-width:0.54071635" />
    </g>
  </g>
</svg>
