<?xml version="1.0" encoding="UTF-8" standalone="no"?>
<!-- Created with Inkscape (http://www.inkscape.org/) -->

<svg
   xmlns:dc="http://purl.org/dc/elements/1.1/"
   xmlns:cc="http://creativecommons.org/ns#"
   xmlns:rdf="http://www.w3.org/1999/02/22-rdf-syntax-ns#"
   xmlns:svg="http://www.w3.org/2000/svg"
   xmlns="http://www.w3.org/2000/svg"
   xmlns:sodipodi="http://sodipodi.sourceforge.net/DTD/sodipodi-0.dtd"
   xmlns:inkscape="http://www.inkscape.org/namespaces/inkscape"
   width="32"
   height="39"
   viewBox="0 0 32 39.000001"
   id="svg8605"
   version="1.1"
   inkscape:version="0.91 r13725"
   sodipodi:docname="Tanatorio.svg"
   inkscape:export-filename="C:\Users\jhernandez\Documents\imagenCorp\iconos\cartografia\varios\Tanatorio.png"
   inkscape:export-xdpi="286.42999"
   inkscape:export-ydpi="286.42999">
  <defs
     id="defs8607" />
  <sodipodi:namedview
     id="base"
     pagecolor="#ffffff"
     bordercolor="#666666"
     borderopacity="1.0"
     inkscape:pageopacity="0.0"
     inkscape:pageshadow="2"
     inkscape:zoom="15.839192"
     inkscape:cx="-9.6168567"
     inkscape:cy="25.840686"
     inkscape:document-units="px"
     inkscape:current-layer="layer1"
     showgrid="false"
     units="px"
     inkscape:window-width="1920"
     inkscape:window-height="1018"
     inkscape:window-x="1912"
     inkscape:window-y="-8"
     inkscape:window-maximized="1" />
  <metadata
     id="metadata8610">
    <rdf:RDF>
      <cc:Work
         rdf:about="">
        <dc:format>image/svg+xml</dc:format>
        <dc:type
           rdf:resource="http://purl.org/dc/dcmitype/StillImage" />
        <dc:title />
      </cc:Work>
    </rdf:RDF>
  </metadata>
  <g
     inkscape:label="Capa 1"
     inkscape:groupmode="layer"
     id="layer1"
     transform="translate(0,-1013.3622)">
    <g
       id="g9285"
       transform="translate(-11.021581,12.635522)"
       inkscape:export-xdpi="90"
       inkscape:export-ydpi="90">
      <path
         inkscape:export-ydpi="89.889763"
         inkscape:export-xdpi="89.889763"
         inkscape:export-filename="C:\Documents and Settings\jhernandez\Mis documentos\imagenCorp\iconos\cartografia\ICONOS_GRAFCAN.png"
         style="display:inline;fill:#1a1a1a;fill-opacity:1;stroke:none;stroke-width:3.40799999"
         d="m 14.605981,1001.2214 c -2.2944,0 -3.5841,1.1861 -3.5841,3.61 l 0,24.9873 c 0,2.2673 1.16,3.4545 3.4524,3.4545 l 5.5256,0 2.9801,2.5658 4.0416,3.3974 4.0406,-3.3974 2.9801,-2.5658 5.5244,0 c 2.2932,0 3.4546,-1.1277 3.4546,-3.4545 l 0,-24.9873 c 0,-2.3648 -1.1621,-3.61 -3.5264,-3.61 -2e-4,0 -24.8967,-0.01 -24.8889,0 z"
         id="path7749"
         inkscape:connector-curvature="0" />
      <path
         inkscape:export-ydpi="89.889763"
         inkscape:export-xdpi="89.889763"
         inkscape:export-filename="C:\Documents and Settings\jhernandez\Mis documentos\imagenCorp\iconos\cartografia\ICONOS_GRAFCAN.png"
         id="path6995"
         d="m 23.468381,1003.1262 -3.5544,6.1554 3.5544,22.376 7.107,0 3.5537,-22.376 -3.5537,-6.1554 -7.107,0 z m 2.7336,3.3715 1.5617,0 c 0.1,0 0.1814,0.081 0.1814,0.1814 2e-4,0.3112 0,0.6217 0,0.9328 0,0.4979 -2e-4,1.0133 0,1.5196 0,0.043 0,0.084 0,0.1236 0,0.021 0,0.051 0,0.075 0.263,0 0.5452,0 0.9015,0 l 0.5564,0 c 0.3165,0 0.6326,10e-5 0.949,0 0.1,0 0.1806,0.081 0.1806,0.1807 l 0,1.3947 0,0 c 0,0.1 -0.081,0.1807 -0.1813,0.1807 -0.1169,1e-4 -0.2335,0 -0.3505,0 l -0.9851,0 c -0.2888,0 -0.578,2e-4 -0.8668,0 -0.013,0 -0.027,0 -0.042,0 -0.028,0 -0.055,0 -0.081,0 -0.023,0 -0.045,0 -0.064,0 0,0 -0.01,-2e-4 -0.01,0 0,0.9566 0,1.9282 0,2.8688 0,0.5957 0,1.212 0,1.8179 -2e-4,0.1 -0.081,0.1807 -0.1814,0.1807 l -1.5611,0 c -0.1,0 -0.1814,-0.081 -0.1814,-0.1814 -10e-5,-0.5742 0,-1.1479 0,-1.7221 2e-4,-0.9043 2e-4,-1.8398 0,-2.7595 0,-0.043 -10e-5,-0.083 0,-0.1229 0,-0.021 0,-0.052 0,-0.075 -0.2531,0 -0.5247,0 -0.8676,0 l -0.5379,0 c -0.3062,0 -0.6124,0 -0.9186,0 -0.1,0 -0.1806,-0.081 -0.1806,-0.1807 l 0,-1.3947 c 0,-0.1 0.081,-0.1811 0.1806,-0.1814 0.2758,0 0.551,-1e-4 0.8269,0 l 0.4836,0 c 0.3412,0 0.6047,0 0.8533,0 0.01,0 0.012,2e-4 0.018,0 l 0.025,0 c 0.031,0 0.063,0.01 0.092,0.01 l 0.022,0 0,-2.6575 c 0,-0.1 0.081,-0.1814 0.1807,-0.1814 z"
         style="display:inline;fill:#ffffff;stroke:none"
         inkscape:connector-curvature="0" />
    </g>
  </g>
</svg>
