<?xml version="1.0" encoding="UTF-8" standalone="no"?>
<!-- Created with Inkscape (http://www.inkscape.org/) -->

<svg
   xmlns:dc="http://purl.org/dc/elements/1.1/"
   xmlns:cc="http://creativecommons.org/ns#"
   xmlns:rdf="http://www.w3.org/1999/02/22-rdf-syntax-ns#"
   xmlns:svg="http://www.w3.org/2000/svg"
   xmlns="http://www.w3.org/2000/svg"
   xmlns:sodipodi="http://sodipodi.sourceforge.net/DTD/sodipodi-0.dtd"
   xmlns:inkscape="http://www.inkscape.org/namespaces/inkscape"
   width="95"
   height="110"
   viewBox="0 0 95 110"
   id="svg5237"
   version="1.1"
   inkscape:version="0.91 r13725"
   sodipodi:docname="A.svg"
   inkscape:export-filename="C:\Documents and Settings\jhernandez\Mis documentos\imagenCorp\iconos\cartografia\H5GL.png"
   inkscape:export-xdpi="100"
   inkscape:export-ydpi="100">
  <defs
     id="defs5239" />
  <sodipodi:namedview
     id="base"
     pagecolor="#ffffff"
     bordercolor="#666666"
     borderopacity="1.0"
     inkscape:pageopacity="0.0"
     inkscape:pageshadow="2"
     inkscape:zoom="2.8"
     inkscape:cx="40.5249"
     inkscape:cy="35.46842"
     inkscape:document-units="px"
     inkscape:current-layer="layer1"
     showgrid="false"
     units="px"
     inkscape:window-width="1920"
     inkscape:window-height="1018"
     inkscape:window-x="1912"
     inkscape:window-y="-8"
     inkscape:window-maximized="1" />
  <metadata
     id="metadata5242">
    <rdf:RDF>
      <cc:Work
         rdf:about="">
        <dc:format>image/svg+xml</dc:format>
        <dc:type
           rdf:resource="http://purl.org/dc/dcmitype/StillImage" />
        <dc:title />
      </cc:Work>
    </rdf:RDF>
  </metadata>
  <g
     inkscape:label="Capa 1"
     inkscape:groupmode="layer"
     id="layer1"
     transform="translate(0,-942.36216)">
    <g
       transform="translate(148.85878,124.29933)"
       id="g4714"
       inkscape:export-xdpi="200"
       inkscape:export-ydpi="200">
      <path
         inkscape:connector-curvature="0"
         style="fill:#ffffff;fill-opacity:1;stroke:none;stroke-width:0.54303503;stroke-opacity:1"
         d="m -136.9955,818.42042 c -6.58637,0 -10.28906,3.4037 -10.28906,10.36133 l 0,71.72463 c 0,6.5083 3.32999,9.9141 9.91015,9.9141 l 15.6543,0 8.74414,7.5273 11.61719,9.7676 11.617188,-9.7676 8.74413,-7.5273 15.648437,0 c 6.58191,0 9.91602,-3.2353 9.91602,-9.9141 l 0,-71.72463 c 0,-6.78825 -3.33364,-10.36133 -10.1211,-10.36133 -4.8e-4,0 -71.464025,-0.0228 -71.441395,0 z"
         id="path4695"
         sodipodi:nodetypes="cssscccccssssc" />
      <path
         id="path4693"
         d="m -136.99551,818.42044 c -6.58637,0 -10.28906,3.4037 -10.28906,10.36133 l 0,71.72461 c 0,6.5083 3.32999,9.91406 9.91015,9.91406 l 15.6543,0 8.74414,7.52734 11.61719,9.76758 11.61719,-9.76758 8.74414,-7.52734 15.648444,0 c 6.58191,0 9.91602,-3.23527 9.91602,-9.91406 l 0,-71.72461 c 0,-6.78825 -3.33364,-10.36133 -10.1211,-10.36133 -4.8e-4,0 -71.464044,-0.0228 -71.441414,0 z m 15.1289,19.27148 c 5.70378,0 10.34175,4.35257 10.34375,9.70118 10e-4,2.66801 -1.17795,5.24031 -3.23632,7.06445 -1.92469,1.70543 -4.44546,2.64552 -7.09961,2.64648 l -0.004,0 c -5.6998,0 -10.3398,-4.35045 -10.3418,-9.69922 -0.001,-2.668 1.17795,-5.24226 3.23633,-7.0664 1.92468,-1.70543 4.44741,-2.64553 7.10156,-2.64649 z m -18.2207,5.91602 c 0.0124,0 0.0247,-1.6e-4 0.0371,0 1.57636,0.0202 2.83856,1.31426 2.81836,2.89063 l -0.2832,22.0996 72.359384,0.48243 0.20508,-10.44141 c 0.0309,-1.5762 1.32884,-2.82988 2.91015,-2.79688 1.57604,0.0309 2.82798,1.3338 2.79688,2.91016 l -0.50977,25.9961 c -0.0304,1.55691 -1.30328,2.79882 -2.85351,2.79882 -0.019,0 -0.0376,-0.002 -0.0566,-0.002 -1.57637,-0.0311 -2.82778,-1.3338 -2.79688,-2.91016 l 0.19141,-9.8457 -72.320324,-0.48242 -0.15235,11.95117 c -0.0201,1.56409 -1.2942,2.81836 -2.85351,2.81836 -0.0124,0 -0.0247,1.6e-4 -0.0371,0 -1.57636,-0.0202 -2.83856,-1.31606 -2.81836,-2.89258 l 0.50977,-39.75781 c 0.0201,-1.56394 1.2942,-2.81836 2.85351,-2.81836 z m 33.13477,10.02148 33.132824,0 c 3.77751,0 6.84961,3.07391 6.84961,6.85157 0,3.77751 -3.0721,6.84961 -6.84961,6.84961 l -33.132824,0 c -3.77751,0 -6.85157,-3.0721 -6.85157,-6.84961 0,-3.77766 3.07406,-6.85157 6.85157,-6.85157 z m -25.61524,6.03516 14.27149,0 c 1.92532,0 3.49218,1.56491 3.49218,3.49023 0,1.92566 -1.56686,3.49219 -3.49218,3.49219 l -14.27149,0 c -1.92532,0 -3.49219,-1.56653 -3.49219,-3.49219 0,-1.92532 1.56687,-3.49023 3.49219,-3.49023 z"
         style="fill:#008bd0;fill-opacity:1;stroke:none;stroke-width:0.54303503"
         inkscape:connector-curvature="0" />
    </g>
  </g>
</svg>
