<?xml version="1.0" encoding="UTF-8" standalone="no"?>
<!-- Created with Inkscape (http://www.inkscape.org/) -->

<svg
   xmlns:dc="http://purl.org/dc/elements/1.1/"
   xmlns:cc="http://creativecommons.org/ns#"
   xmlns:rdf="http://www.w3.org/1999/02/22-rdf-syntax-ns#"
   xmlns:svg="http://www.w3.org/2000/svg"
   xmlns="http://www.w3.org/2000/svg"
   xmlns:sodipodi="http://sodipodi.sourceforge.net/DTD/sodipodi-0.dtd"
   xmlns:inkscape="http://www.inkscape.org/namespaces/inkscape"
   width="95"
   height="110"
   viewBox="0 0 95 110"
   id="svg5237"
   version="1.1"
   inkscape:version="0.91 r13725"
   sodipodi:docname="A4.svg">
  <defs
     id="defs5239" />
  <sodipodi:namedview
     id="base"
     pagecolor="#ffffff"
     bordercolor="#666666"
     borderopacity="1.0"
     inkscape:pageopacity="0.0"
     inkscape:pageshadow="2"
     inkscape:zoom="3.959798"
     inkscape:cx="15.975102"
     inkscape:cy="19.792429"
     inkscape:document-units="px"
     inkscape:current-layer="layer1"
     showgrid="false"
     units="px"
     inkscape:window-width="1920"
     inkscape:window-height="1020"
     inkscape:window-x="-4"
     inkscape:window-y="-4"
     inkscape:window-maximized="1" />
  <metadata
     id="metadata5242">
    <rdf:RDF>
      <cc:Work
         rdf:about="">
        <dc:format>image/svg+xml</dc:format>
        <dc:type
           rdf:resource="http://purl.org/dc/dcmitype/StillImage" />
        <dc:title></dc:title>
      </cc:Work>
    </rdf:RDF>
  </metadata>
  <g
     inkscape:label="Capa 1"
     inkscape:groupmode="layer"
     id="layer1"
     transform="translate(0,-942.36216)">
    <g
       transform="translate(-153.84569,-20.873993)"
       id="g4618">
      <path
         inkscape:connector-curvature="0"
         style="fill:#ffffff;fill-opacity:1;stroke:none;stroke-width:0.54303503;stroke-opacity:1"
         d="m 165.70897,963.59374 c -6.58636,0 -10.28906,3.4037 -10.28906,10.36133 l 0,71.72463 c 0,6.5083 3.32999,9.9141 9.91015,9.9141 l 15.65431,0 8.74413,7.5273 11.61719,9.7676 11.61719,-9.7676 8.74414,-7.5273 15.64844,0 c 6.58191,0 9.91602,-3.2353 9.91602,-9.9141 l 0,-71.72463 c 0,-6.78825 -3.33364,-10.36133 -10.1211,-10.36133 -4.8e-4,0 -71.46404,-0.0228 -71.44141,0 z"
         id="path4576"
         sodipodi:nodetypes="cssscccccssssc" />
      <path
         inkscape:export-ydpi="200"
         inkscape:export-xdpi="200"
         inkscape:connector-curvature="0"
         style="fill:#008bd0;fill-opacity:1;stroke:none;stroke-width:0.54303503"
         d="m 165.70898,963.59375 c -6.58638,0 -10.28906,3.4037 -10.28906,10.36133 l 0,71.72462 c 0,6.5083 3.33,9.914 9.91016,9.914 l 15.6543,0 8.74414,7.5274 11.61718,9.7676 11.61719,-9.7676 8.74414,-7.5274 15.64844,0 c 6.58191,0 9.91601,-3.2352 9.91601,-9.914 l 0,-71.72462 c 0,-6.78825 -3.33363,-10.36133 -10.12109,-10.36133 -4.8e-4,0 -71.46404,-0.0228 -71.44141,0 z m 15.12891,19.27148 c 5.70378,0 10.34175,4.35257 10.34375,9.70118 0.001,2.66801 -1.17796,5.24031 -3.23633,7.06445 -1.92469,1.70544 -4.44546,2.64554 -7.09961,2.64644 l -0.004,0 c -5.6998,0 -10.3398,-4.35041 -10.3418,-9.69918 -0.001,-2.668 1.17795,-5.24226 3.23633,-7.0664 1.92468,-1.70543 4.44741,-2.64553 7.10156,-2.64649 z m -18.2207,5.91602 c 0.0124,0 0.0247,-1.6e-4 0.0371,0 1.57636,0.0202 2.83856,1.31426 2.81836,2.89063 l -0.28321,22.09962 72.35938,0.4824 0.20508,-10.4414 c 0.0309,-1.5762 1.32884,-2.8299 2.91015,-2.7969 1.57604,0.031 2.82798,1.3338 2.79688,2.9102 l -0.50977,25.9961 c -0.0304,1.5569 -1.30328,2.7988 -2.85351,2.7988 -0.019,0 -0.0376,0 -0.0566,0 -1.57637,-0.031 -2.82778,-1.3338 -2.79688,-2.9102 l 0.19141,-9.8457 -72.32032,-0.4824 -0.15234,11.9512 c -0.0201,1.5641 -1.2942,2.8184 -2.85351,2.8184 -0.0124,0 -0.0247,10e-5 -0.0371,0 -1.57636,-0.02 -2.83856,-1.3161 -2.81836,-2.8926 l 0.50976,-39.75784 c 0.0201,-1.56394 1.29421,-2.81836 2.85352,-2.81836 z m 33.13476,10.02148 33.13282,0 c 3.77751,0 6.84961,3.07387 6.84961,6.85157 0,3.7775 -3.0721,6.8496 -6.84961,6.8496 l -33.13282,0 c -3.77751,0 -6.85156,-3.0721 -6.85156,-6.8496 0,-3.7777 3.07405,-6.85157 6.85156,-6.85157 z m -25.61523,6.03517 14.27148,0 c 1.92532,0 3.49219,1.5649 3.49219,3.4902 0,1.9257 -1.56687,3.4922 -3.49219,3.4922 l -14.27148,0 c -1.92532,0 -3.49219,-1.5665 -3.49219,-3.4922 0,-1.9253 1.56687,-3.4902 3.49219,-3.4902 z m 6.86523,30.1328 2.66602,4.9785 5.60547,0.6934 -3.91016,4.0742 1.07227,5.5449 -5.08399,-2.4609 -4.9414,2.7363 0.76953,-5.5957 -4.12891,-3.8555 5.56055,-0.998 2.39062,-5.1172 z m 16.1836,0 2.66601,4.9785 5.60547,0.6934 -3.91015,4.0742 1.07421,5.5449 -5.08398,-2.4609 -4.94336,2.7363 0.76953,-5.5957 -4.12695,-3.8555 5.55859,-0.998 2.39063,-5.1172 z m 16.09179,0 2.66602,4.9785 5.60547,0.6934 -3.91016,4.0742 1.07422,5.5449 -5.08398,-2.4609 -4.94141,2.7363 0.76758,-5.5957 -4.12696,-3.8555 5.5586,-0.998 2.39062,-5.1172 z m 16.0918,0 2.66797,4.9785 5.60351,0.6934 -3.91015,4.0742 1.07422,5.5449 -5.08399,-2.4609 -4.9414,2.7363 0.76758,-5.5957 -4.12696,-3.8555 5.5586,-0.998 2.39062,-5.1172 z"
         id="path5233" />
    </g>
  </g>
</svg>
