<?xml version="1.0" encoding="UTF-8" standalone="no"?>
<!-- Created with Inkscape (http://www.inkscape.org/) -->

<svg
   xmlns:dc="http://purl.org/dc/elements/1.1/"
   xmlns:cc="http://creativecommons.org/ns#"
   xmlns:rdf="http://www.w3.org/1999/02/22-rdf-syntax-ns#"
   xmlns:svg="http://www.w3.org/2000/svg"
   xmlns="http://www.w3.org/2000/svg"
   xmlns:sodipodi="http://sodipodi.sourceforge.net/DTD/sodipodi-0.dtd"
   xmlns:inkscape="http://www.inkscape.org/namespaces/inkscape"
   width="95"
   height="110"
   viewBox="0 0 95 110"
   id="svg5237"
   version="1.1"
   inkscape:version="0.91 r13725"
   sodipodi:docname="H3.svg">
  <defs
     id="defs5239" />
  <sodipodi:namedview
     id="base"
     pagecolor="#ffffff"
     bordercolor="#666666"
     borderopacity="1.0"
     inkscape:pageopacity="0.0"
     inkscape:pageshadow="2"
     inkscape:zoom="3.959798"
     inkscape:cx="15.975102"
     inkscape:cy="19.792429"
     inkscape:document-units="px"
     inkscape:current-layer="layer1"
     showgrid="false"
     units="px"
     inkscape:window-width="1920"
     inkscape:window-height="1020"
     inkscape:window-x="-4"
     inkscape:window-y="-4"
     inkscape:window-maximized="1" />
  <metadata
     id="metadata5242">
    <rdf:RDF>
      <cc:Work
         rdf:about="">
        <dc:format>image/svg+xml</dc:format>
        <dc:type
           rdf:resource="http://purl.org/dc/dcmitype/StillImage" />
        <dc:title></dc:title>
      </cc:Work>
    </rdf:RDF>
  </metadata>
  <g
     inkscape:label="Capa 1"
     inkscape:groupmode="layer"
     id="layer1"
     transform="translate(0,-942.36216)">
    <g
       transform="translate(-274.0547,119.12602)"
       id="g4598">
      <path
         inkscape:connector-curvature="0"
         style="fill:#ffffff;fill-opacity:1;stroke:none;stroke-width:0.54303503;stroke-opacity:1"
         d="m 285.91797,823.59374 c -6.58637,0 -10.28906,3.40369 -10.28906,10.36132 l 0,71.72462 c 0,6.5083 3.32999,9.9141 9.91015,9.9141 l 15.65429,0 8.74415,7.5273 11.61719,9.7676 11.61718,-9.7676 8.74415,-7.5273 15.64844,0 c 6.58191,0 9.91602,-3.2353 9.91602,-9.9141 l 0,-71.72462 c 0,-6.78824 -3.33365,-10.36132 -10.12111,-10.36132 -4.7e-4,0 -71.46403,-0.0228 -71.44141,0 z"
         id="path4566"
         sodipodi:nodetypes="cssscccccssssc" />
      <path
         inkscape:connector-curvature="0"
         inkscape:export-ydpi="200"
         inkscape:export-xdpi="200"
         id="path5181"
         d="m 285.91797,823.59375 c -6.58638,0 -10.28906,3.4037 -10.28906,10.36133 l 0,71.72461 c 0,6.5083 3.32999,9.91406 9.91015,9.91406 l 15.6543,0 8.74414,7.52734 11.61719,9.76758 11.61719,-9.76758 8.74414,-7.52734 15.64843,0 c 6.58191,0 9.91602,-3.23527 9.91602,-9.91406 l 0,-71.72461 c 0,-6.78825 -3.33363,-10.36133 -10.12109,-10.36133 -4.8e-4,0 -71.46404,-0.0228 -71.44141,0 z m 15.12891,19.27148 c 5.70377,0 10.34174,4.35257 10.34374,9.70118 10e-4,2.66801 -1.17795,5.24031 -3.23632,7.06445 -1.92469,1.70543 -4.44546,2.64552 -7.09961,2.64648 l -0.004,0 c -5.6998,0 -10.3398,-4.35045 -10.3418,-9.69922 -10e-4,-2.668 1.17795,-5.24226 3.23633,-7.0664 1.92468,-1.70543 4.44741,-2.64553 7.10157,-2.64649 z m -18.22071,5.91602 c 0.0124,0 0.0247,-1.6e-4 0.0371,0 1.57636,0.0202 2.83856,1.31426 2.81836,2.89063 l -0.2832,22.0996 72.35937,0.48243 0.20508,-10.44141 c 0.0309,-1.5762 1.32885,-2.82988 2.91016,-2.79688 1.57604,0.0309 2.82797,1.3338 2.79687,2.91016 l -0.50976,25.9961 c -0.0304,1.55691 -1.30329,2.79882 -2.85352,2.79882 -0.019,0 -0.0376,-0.002 -0.0566,-0.002 -1.57637,-0.0311 -2.82778,-1.3338 -2.79688,-2.91016 l 0.19141,-9.8457 -72.32031,-0.48242 -0.15234,11.95117 c -0.0201,1.56409 -1.29421,2.81836 -2.85352,2.81836 -0.0124,0 -0.0247,1.6e-4 -0.0371,0 -1.57636,-0.0202 -2.83856,-1.31606 -2.81836,-2.89258 l 0.50977,-39.75781 c 0.0201,-1.56394 1.2942,-2.81836 2.85351,-2.81836 z m 33.13477,10.02148 33.13281,0 c 3.77751,0 6.84961,3.07391 6.84961,6.85157 0,3.77751 -3.0721,6.84961 -6.84961,6.84961 l -33.13281,0 c -3.77751,0 -6.85156,-3.0721 -6.85156,-6.84961 0,-3.77766 3.07405,-6.85157 6.85156,-6.85157 z m -25.61524,6.03516 14.27149,0 c 1.92532,0 3.49219,1.56494 3.49219,3.49023 0,1.92566 -1.56687,3.49219 -3.49219,3.49219 l -14.27149,0 c -1.92532,0 -3.49218,-1.56652 -3.49218,-3.49219 0,-1.92532 1.56686,-3.49023 3.49218,-3.49023 z m 14.91016,31.14258 2.66602,4.97851 5.60546,0.69336 -3.91015,4.07422 1.07422,5.54492 -5.08399,-2.45898 -4.94336,2.73438 0.76953,-5.59571 -4.1289,-3.85547 5.56054,-0.99804 2.39063,-5.11719 z m 16.18359,0 2.66602,4.97851 5.60547,0.69336 -3.91016,4.07422 1.07422,5.54492 -5.08398,-2.45898 -4.94141,2.73438 0.76758,-5.59571 -4.12696,-3.85547 5.5586,-0.99804 2.39062,-5.11719 z m 16.0918,0 2.66797,4.97851 5.60351,0.69336 -3.91015,4.07422 1.07422,5.54492 -5.08399,-2.45898 -4.9414,2.73438 0.76757,-5.59571 -4.12695,-3.85547 5.55859,-0.99804 2.39063,-5.11719 z"
         style="fill:#a96000;fill-opacity:1;stroke:none;stroke-width:0.54303503" />
    </g>
  </g>
</svg>
