<?xml version="1.0" encoding="UTF-8" standalone="no"?>
<!-- Created with Inkscape (http://www.inkscape.org/) -->

<svg
   xmlns:dc="http://purl.org/dc/elements/1.1/"
   xmlns:cc="http://creativecommons.org/ns#"
   xmlns:rdf="http://www.w3.org/1999/02/22-rdf-syntax-ns#"
   xmlns:svg="http://www.w3.org/2000/svg"
   xmlns="http://www.w3.org/2000/svg"
   xmlns:sodipodi="http://sodipodi.sourceforge.net/DTD/sodipodi-0.dtd"
   xmlns:inkscape="http://www.inkscape.org/namespaces/inkscape"
   width="95"
   height="110"
   viewBox="0 0 95 110"
   id="svg5237"
   version="1.1"
   inkscape:version="0.91 r13725"
   sodipodi:docname="H4GL.svg">
  <defs
     id="defs5239" />
  <sodipodi:namedview
     id="base"
     pagecolor="#ffffff"
     bordercolor="#666666"
     borderopacity="1.0"
     inkscape:pageopacity="0.0"
     inkscape:pageshadow="2"
     inkscape:zoom="3.959798"
     inkscape:cx="-27.08265"
     inkscape:cy="19.539891"
     inkscape:document-units="px"
     inkscape:current-layer="layer1"
     showgrid="false"
     units="px"
     inkscape:window-width="1920"
     inkscape:window-height="1020"
     inkscape:window-x="-4"
     inkscape:window-y="-4"
     inkscape:window-maximized="1" />
  <metadata
     id="metadata5242">
    <rdf:RDF>
      <cc:Work
         rdf:about="">
        <dc:format>image/svg+xml</dc:format>
        <dc:type
           rdf:resource="http://purl.org/dc/dcmitype/StillImage" />
        <dc:title></dc:title>
      </cc:Work>
    </rdf:RDF>
  </metadata>
  <g
     inkscape:label="Capa 1"
     inkscape:groupmode="layer"
     id="layer1"
     transform="translate(0,-942.36216)">
    <g
       transform="translate(-730.07088,276.64333)"
       id="g4645">
      <path
         sodipodi:nodetypes="cssscccccssssc"
         id="path4643"
         d="m 741.93416,666.07642 c -6.58637,0 -10.28906,3.4037 -10.28906,10.36133 l 0,71.72463 c 0,6.5083 3.32999,9.9141 9.91015,9.9141 l 15.6543,0 8.74414,7.5273 11.61719,9.7676 11.61719,-9.7676 8.74413,-7.5273 15.64844,0 c 6.58191,0 9.91602,-3.2353 9.91602,-9.9141 l 0,-71.72463 c 0,-6.78825 -3.33364,-10.36133 -10.1211,-10.36133 -4.8e-4,0 -71.46403,-0.0228 -71.4414,0 z"
         style="fill:#ffffff;fill-opacity:1;stroke:none;stroke-width:0.54303503;stroke-opacity:1"
         inkscape:connector-curvature="0" />
      <path
         inkscape:connector-curvature="0"
         id="path4538"
         d="m 741.93416,666.07645 c -6.58637,0 -10.28906,3.4037 -10.28906,10.36133 l 0,71.72458 c 0,6.5083 3.32999,9.9141 9.91015,9.9141 l 15.6543,0 8.74414,7.5273 11.61719,9.7676 11.61718,-9.7676 8.74414,-7.5273 15.64844,0 c 6.58191,0 9.91602,-3.2353 9.91602,-9.9141 l 0,-71.72458 c 0,-6.78825 -3.33364,-10.36133 -10.1211,-10.36133 -4.8e-4,0 -71.46403,-0.0228 -71.4414,0 z m 15.1289,19.27149 c 5.70378,0 10.34175,4.35256 10.34375,9.70117 0.001,2.66801 -1.17795,5.24031 -3.23632,7.06445 -1.92469,1.70543 -4.44546,2.64553 -7.09961,2.64649 l -0.004,0 c -5.6998,0 -10.3398,-4.35045 -10.3418,-9.69922 -0.001,-2.668 1.17795,-5.24227 3.23633,-7.06641 1.92468,-1.70543 4.44741,-2.64552 7.10156,-2.64648 z m -18.2207,5.91601 c 0.0124,0 0.0247,-1.6e-4 0.0371,0 1.57636,0.0202 2.83856,1.31426 2.81836,2.89063 l -0.2832,22.09961 72.35937,0.48242 0.20508,-10.44141 c 0.0309,-1.5762 1.32885,-2.82987 2.91016,-2.79687 1.57604,0.0309 2.82797,1.33379 2.79687,2.91015 l -0.50977,25.99608 c -0.0304,1.5569 -1.30328,2.7988 -2.85351,2.7988 l -0.0566,0 c -1.57637,-0.031 -2.82778,-1.3338 -2.79688,-2.9101 l 0.19141,-9.84571 -72.32031,-0.48242 -0.15235,11.95113 c -0.0201,1.5641 -1.2942,2.8184 -2.85351,2.8184 -0.0124,0 -0.0247,1e-4 -0.0371,0 -1.57636,-0.02 -2.83856,-1.3161 -2.81836,-2.8926 l 0.50976,-39.75779 c 0.0201,-1.56394 1.29421,-2.81836 2.85352,-2.81836 l 0,-0.002 z m 33.13477,10.02149 33.13281,0 c 3.77751,0 6.84961,3.0739 6.84961,6.85156 0,3.77751 -3.0721,6.84961 -6.84961,6.84961 l -33.13281,0 c -3.77751,0 -6.85157,-3.0721 -6.85157,-6.84961 0,-3.77766 3.07406,-6.85156 6.85157,-6.85156 z m -25.61524,6.03515 14.27149,0 c 1.92532,0 3.49218,1.56492 3.49218,3.49024 0,1.92566 -1.56686,3.49219 -3.49218,3.49219 l -14.27149,0 c -1.92532,0 -3.49219,-1.56653 -3.49219,-3.49219 0,-1.92532 1.56687,-3.49024 3.49219,-3.49024 z m 25.09766,28.61917 2.66601,4.9785 5.60547,0.6914 -3.91015,4.0762 1.07226,5.5449 -5.08398,-2.4609 -4.94141,2.7343 0.76953,-5.5957 -4.1289,-3.8535 5.56054,-0.998 2.39063,-5.1172 z m 16,1.4082 c 0.81744,0 1.59958,0.0768 2.3457,0.2304 0.75161,0.1536 1.45922,0.3819 2.12305,0.6836 l 0,2.543 c -0.68578,-0.3895 -1.3705,-0.681 -2.05078,-0.873 -0.6748,-0.192 -1.35097,-0.2871 -2.03125,-0.2871 -1.26182,0 -2.2361,0.3528 -2.92188,1.0605 -0.68028,0.7022 -1.01953,1.7103 -1.01953,3.0215 0,1.3003 0.32799,2.304 0.98633,3.0117 0.65835,0.7077 1.5942,1.0605 2.80664,1.0605 0.32917,0 0.63427,-0.0199 0.91406,-0.0585 0.28528,-0.044 0.53874,-0.1096 0.76367,-0.1973 l 0,-2.3867 -1.93359,0 0,-2.1231 4.9375,0 0,5.9102 c -0.79001,0.384 -1.60862,0.6712 -2.45898,0.8633 -0.85036,0.192 -1.72955,0.289 -2.63477,0.289 -2.04634,0 -3.66729,-0.5717 -4.86328,-1.7129 -1.19599,-1.1466 -1.79297,-2.6976 -1.79297,-4.6562 0,-1.9805 0.60825,-3.5401 1.82617,-4.6758 1.21794,-1.1356 2.88625,-1.7031 5.00391,-1.7031 z m -31.28906,0.2226 3.52343,0 0,7.752 1.75196,0 0,2.2969 -1.75196,0 0,2.2382 -2.99609,0 0,-2.2382 -5.44727,0 0,-2.7168 4.91993,-7.3321 z m 38.99023,0 3.16992,0 0,9.8907 5.5625,0 0,2.3964 -8.73242,0 0,-12.2871 z m -38.46289,2.6094 -3.47266,5.1426 3.47266,0 0,-5.1426 z"
         style="fill:#a96000;fill-opacity:1;stroke:none;stroke-width:0.54303503" />
    </g>
  </g>
</svg>
