<?xml version="1.0" encoding="UTF-8" standalone="no"?>
<!-- Created with Inkscape (http://www.inkscape.org/) -->

<svg
   xmlns:dc="http://purl.org/dc/elements/1.1/"
   xmlns:cc="http://creativecommons.org/ns#"
   xmlns:rdf="http://www.w3.org/1999/02/22-rdf-syntax-ns#"
   xmlns:svg="http://www.w3.org/2000/svg"
   xmlns="http://www.w3.org/2000/svg"
   xmlns:sodipodi="http://sodipodi.sourceforge.net/DTD/sodipodi-0.dtd"
   xmlns:inkscape="http://www.inkscape.org/namespaces/inkscape"
   width="95"
   height="110"
   viewBox="0 0 95 110"
   id="svg5237"
   version="1.1"
   inkscape:version="0.91 r13725"
   sodipodi:docname="H5.svg">
  <defs
     id="defs5239" />
  <sodipodi:namedview
     id="base"
     pagecolor="#ffffff"
     bordercolor="#666666"
     borderopacity="1.0"
     inkscape:pageopacity="0.0"
     inkscape:pageshadow="2"
     inkscape:zoom="3.959798"
     inkscape:cx="15.975102"
     inkscape:cy="19.792429"
     inkscape:document-units="px"
     inkscape:current-layer="layer1"
     showgrid="false"
     units="px"
     inkscape:window-width="1920"
     inkscape:window-height="1020"
     inkscape:window-x="-4"
     inkscape:window-y="-4"
     inkscape:window-maximized="1" />
  <metadata
     id="metadata5242">
    <rdf:RDF>
      <cc:Work
         rdf:about="">
        <dc:format>image/svg+xml</dc:format>
        <dc:type
           rdf:resource="http://purl.org/dc/dcmitype/StillImage" />
        <dc:title></dc:title>
      </cc:Work>
    </rdf:RDF>
  </metadata>
  <g
     inkscape:label="Capa 1"
     inkscape:groupmode="layer"
     id="layer1"
     transform="translate(0,-942.36216)">
    <g
       transform="translate(-40.708987,119.12602)"
       id="g4590">
      <path
         sodipodi:nodetypes="cssscccccssssc"
         id="path4562"
         d="m 52.572263,823.59374 c -6.58637,0 -10.28906,3.4037 -10.28906,10.36133 l 0,71.72462 c 0,6.5083 3.32999,9.9141 9.91015,9.9141 l 15.6543,0 8.74414,7.52729 11.61719,9.7676 11.61719,-9.7676 8.744137,-7.52729 15.64844,0 c 6.58191,0 9.91602,-3.23531 9.91602,-9.9141 l 0,-71.72462 c 0,-6.78825 -3.33364,-10.36133 -10.1211,-10.36133 -4.8e-4,0 -71.464037,-0.0228 -71.441407,0 z"
         style="fill:#ffffff;fill-opacity:1;stroke:none;stroke-width:0.54303503;stroke-opacity:1"
         inkscape:connector-curvature="0" />
      <path
         inkscape:connector-curvature="0"
         inkscape:export-ydpi="200"
         inkscape:export-xdpi="200"
         id="path4678"
         d="m 52.572266,823.59375 c -6.586372,0 -10.289063,3.4037 -10.289063,10.36133 l 0,71.72461 c 0,6.5083 3.329999,9.91406 9.910156,9.91406 l 15.654297,0 8.744141,7.52734 11.617187,9.76758 11.617188,-9.76758 8.744138,-7.52734 15.64844,0 c 6.58191,0 9.91602,-3.23527 9.91602,-9.91406 l 0,-71.72461 c 0,-6.78825 -3.33364,-10.36133 -10.1211,-10.36133 -4.8e-4,0 -71.464031,-0.0228 -71.441404,0 z m 15.128906,19.27148 c 5.70378,0 10.34175,4.35257 10.34375,9.70118 0.0013,2.66801 -1.177958,5.24031 -3.236328,7.06445 -1.92469,1.70543 -4.44546,2.64552 -7.09961,2.64648 l -0.0039,0 c -5.6998,0 -10.339797,-4.35045 -10.341797,-9.69922 -0.0013,-2.668 1.177948,-5.24226 3.236328,-7.0664 1.92468,-1.70543 4.447413,-2.64553 7.101563,-2.64649 z m -18.220703,5.91602 c 0.0124,0 0.02471,-1.6e-4 0.03711,0 1.57636,0.0202 2.83856,1.31426 2.81836,2.89063 l -0.283204,22.0996 72.359375,0.48243 0.20508,-10.44141 c 0.0309,-1.5762 1.32884,-2.82988 2.91015,-2.79688 1.57604,0.0309 2.82798,1.3338 2.79688,2.91016 l -0.50977,25.9961 c -0.0304,1.55691 -1.30328,2.79882 -2.85351,2.79882 -0.019,0 -0.0376,-0.002 -0.0566,-0.002 -1.57637,-0.0311 -2.82778,-1.3338 -2.79688,-2.91016 l 0.19141,-9.8457 -72.320313,-0.48242 -0.152344,11.95117 c -0.02008,1.56409 -1.294206,2.81836 -2.853516,2.81836 -0.0124,0 -0.02471,1.6e-4 -0.03711,0 -1.57636,-0.0202 -2.838561,-1.31606 -2.818359,-2.89258 l 0.509765,-39.75781 c 0.02008,-1.56394 1.294206,-2.81836 2.853516,-2.81836 z m 33.134765,10.02148 33.132816,0 c 3.77751,0 6.84961,3.07391 6.84961,6.85157 0,3.77751 -3.0721,6.84961 -6.84961,6.84961 l -33.132816,0 c -3.77751,0 -6.851562,-3.0721 -6.851562,-6.84961 0,-3.77766 3.074052,-6.85157 6.851562,-6.85157 z M 57,864.83789 l 14.271484,0 c 1.92532,0 3.492188,1.56491 3.492188,3.49023 0,1.92566 -1.566868,3.49219 -3.492188,3.49219 l -14.271484,0 c -1.92532,0 -3.492188,-1.56653 -3.492188,-3.49219 0,-1.92532 1.566868,-3.49023 3.492188,-3.49023 z m -1.044922,29.62891 2.667969,4.97851 5.605469,0.69141 -3.910157,4.07422 1.072266,5.54492 -5.083984,-2.45898 -4.941407,2.73437 0.769532,-5.5957 -4.128907,-3.85547 5.558594,-0.99805 2.390625,-5.11523 z m 16.185547,0 2.666016,4.97851 5.605468,0.69141 -3.910156,4.07422 1.072266,5.54492 -5.083985,-2.45898 -4.941406,2.73437 0.769531,-5.5957 -4.128906,-3.85547 5.560547,-0.99805 2.390625,-5.11523 z m 16.091797,0 2.666016,4.97851 5.605468,0.69141 -3.910156,4.07422 1.074219,5.54492 -5.083985,-2.45898 -4.943359,2.73437 0.769531,-5.5957 -4.126953,-3.85547 5.558594,-0.99805 2.390625,-5.11523 z m 16.091798,0 2.66601,4.97851 5.60547,0.69141 -3.91015,4.07422 1.07422,5.54492 -5.08399,-2.45898 -4.941405,2.73437 0.767575,-5.5957 -4.12695,-3.85547 5.55859,-0.99805 2.39063,-5.11523 z m 15.8164,0 2.66602,4.97851 5.60547,0.69141 -3.91016,4.07422 1.07422,5.54492 -5.08398,-2.45898 -4.94141,2.73437 0.76758,-5.5957 -4.12695,-3.85547 5.55859,-0.99805 2.39062,-5.11523 z"
         style="fill:#a96000;fill-opacity:1;stroke:none;stroke-width:0.54303503" />
    </g>
  </g>
</svg>
