<?xml version="1.0" encoding="UTF-8" standalone="no"?>
<!-- Created with Inkscape (http://www.inkscape.org/) -->

<svg
   xmlns:dc="http://purl.org/dc/elements/1.1/"
   xmlns:cc="http://creativecommons.org/ns#"
   xmlns:rdf="http://www.w3.org/1999/02/22-rdf-syntax-ns#"
   xmlns:svg="http://www.w3.org/2000/svg"
   xmlns="http://www.w3.org/2000/svg"
   xmlns:sodipodi="http://sodipodi.sourceforge.net/DTD/sodipodi-0.dtd"
   xmlns:inkscape="http://www.inkscape.org/namespaces/inkscape"
   width="95"
   height="110"
   viewBox="0 0 95 110"
   id="svg5237"
   version="1.1"
   inkscape:version="0.91 r13725"
   sodipodi:docname="H5GL.svg"
   inkscape:export-filename="C:\Documents and Settings\jhernandez\Mis documentos\imagenCorp\iconos\cartografia\Hoteles_Aptos\H5GL.png"
   inkscape:export-xdpi="100"
   inkscape:export-ydpi="100">
  <defs
     id="defs5239" />
  <sodipodi:namedview
     id="base"
     pagecolor="#ffffff"
     bordercolor="#666666"
     borderopacity="1.0"
     inkscape:pageopacity="0.0"
     inkscape:pageshadow="2"
     inkscape:zoom="3.959798"
     inkscape:cx="-79.963266"
     inkscape:cy="19.034815"
     inkscape:document-units="px"
     inkscape:current-layer="layer1"
     showgrid="false"
     units="px"
     inkscape:window-width="1920"
     inkscape:window-height="1018"
     inkscape:window-x="1912"
     inkscape:window-y="-8"
     inkscape:window-maximized="1" />
  <metadata
     id="metadata5242">
    <rdf:RDF>
      <cc:Work
         rdf:about="">
        <dc:format>image/svg+xml</dc:format>
        <dc:type
           rdf:resource="http://purl.org/dc/dcmitype/StillImage" />
        <dc:title />
      </cc:Work>
    </rdf:RDF>
  </metadata>
  <g
     inkscape:label="Capa 1"
     inkscape:groupmode="layer"
     id="layer1"
     transform="translate(0,-942.36216)">
    <g
       transform="translate(-842.92802,279.50051)"
       id="g4649">
      <path
         inkscape:connector-curvature="0"
         style="fill:#ffffff;fill-opacity:1;stroke:none;stroke-width:0.54303503;stroke-opacity:1"
         d="m 854.7913,663.21924 c -6.58637,0 -10.28906,3.4037 -10.28906,10.36133 l 0,71.72463 c 0,6.5083 3.32999,9.9141 9.91015,9.9141 l 15.6543,0 8.74414,7.5273 11.61719,9.7676 11.61719,-9.7676 8.74413,-7.5273 15.64844,0 c 6.58191,0 9.91602,-3.2353 9.91602,-9.9141 l 0,-71.72463 c 0,-6.78825 -3.33364,-10.36133 -10.1211,-10.36133 -4.8e-4,0 -71.46403,-0.0228 -71.4414,0 z"
         id="path4641"
         sodipodi:nodetypes="cssscccccssssc" />
      <path
         inkscape:connector-curvature="0"
         id="path4561"
         d="m 854.7913,663.21931 c -6.58637,0 -10.28906,3.4037 -10.28906,10.3613 l 0,71.7246 c 0,6.5083 3.32999,9.9141 9.91015,9.9141 l 15.6543,0 8.74414,7.5273 11.61719,9.7676 11.61718,-9.7676 8.74414,-7.5273 15.64844,0 c 6.58191,0 9.91602,-3.2353 9.91602,-9.9141 l 0,-71.7246 c 0,-6.7882 -3.33364,-10.3613 -10.1211,-10.3613 -4.8e-4,0 -71.46403,-0.023 -71.4414,0 z m 15.1289,19.2715 c 5.70378,0 10.34175,4.3528 10.34375,9.7011 10e-4,2.6683 -1.17795,5.2403 -3.23632,7.0645 -1.92469,1.7054 -4.44546,2.6455 -7.09961,2.6465 l -0.004,0 c -5.6998,0 -10.3398,-4.3504 -10.3418,-9.6992 -10e-4,-2.668 1.17795,-5.2422 3.23633,-7.0664 1.92468,-1.7054 4.44741,-2.6455 7.10156,-2.6465 z m -18.2207,5.916 c 0.0124,0 0.0247,-2e-4 0.0371,0 1.57636,0.02 2.83856,1.3142 2.81836,2.8906 l -0.2832,22.0996 72.35937,0.4825 0.20508,-10.4415 c 0.0309,-1.5762 1.32885,-2.8298 2.91016,-2.7968 1.57604,0.031 2.82797,1.3337 2.79687,2.9101 l -0.50977,25.9961 c -0.0304,1.5569 -1.30328,2.7988 -2.85351,2.7988 l -0.0566,0 c -1.57637,-0.031 -2.82778,-1.3338 -2.79688,-2.9101 l 0.19141,-9.8457 -72.32031,-0.4824 -0.15235,11.9511 c -0.0201,1.5641 -1.2942,2.8184 -2.85351,2.8184 -0.0124,0 -0.0247,10e-5 -0.0371,0 -1.57636,-0.02 -2.83856,-1.3161 -2.81836,-2.8926 l 0.50976,-39.7578 c 0.0201,-1.564 1.29421,-2.8184 2.85352,-2.8184 l 0,-0.002 z m 33.13477,10.0215 33.13281,0 c 3.77751,0 6.84961,3.0739 6.84961,6.8515 0,3.7775 -3.0721,6.8497 -6.84961,6.8497 l -33.13281,0 c -3.77751,0 -6.85157,-3.0722 -6.85157,-6.8497 0,-3.7776 3.07406,-6.8515 6.85157,-6.8515 z m -25.61524,6.0351 14.27149,0 c 1.92532,0 3.49218,1.565 3.49218,3.4903 0,1.9257 -1.56686,3.4922 -3.49218,3.4922 l -14.27149,0 c -1.92532,0 -3.49219,-1.5665 -3.49219,-3.4922 0,-1.9253 1.56687,-3.4903 3.49219,-3.4903 z m 25.09766,28.6192 2.66601,4.9785 5.60547,0.6914 -3.91015,4.0762 1.07226,5.5449 -5.08398,-2.4609 -4.94141,2.7343 0.76953,-5.5957 -4.1289,-3.8535 5.56054,-0.998 2.39063,-5.1172 z m 16,1.4082 c 0.81744,0 1.59958,0.0768 2.3457,0.2304 0.75161,0.1536 1.45922,0.3819 2.12305,0.6836 l 0,2.543 c -0.68578,-0.3895 -1.3705,-0.681 -2.05078,-0.873 -0.6748,-0.192 -1.35097,-0.2871 -2.03125,-0.2871 -1.26182,0 -2.2361,0.3528 -2.92188,1.0605 -0.68028,0.7023 -1.01953,1.7103 -1.01953,3.0215 0,1.3002 0.32799,2.304 0.98633,3.0117 0.65835,0.7077 1.5942,1.0605 2.80664,1.0605 0.32917,0 0.63427,-0.0199 0.91406,-0.0585 0.28528,-0.044 0.53874,-0.1096 0.76367,-0.1973 l 0,-2.3848 -1.93359,0 0,-2.125 4.9375,0 0,5.9102 c -0.79001,0.384 -1.60862,0.6713 -2.45898,0.8633 -0.85036,0.192 -1.72955,0.289 -2.63477,0.289 -2.04634,0 -3.66729,-0.5717 -4.86328,-1.7129 -1.19599,-1.1466 -1.79297,-2.6977 -1.79297,-4.6562 0,-1.9805 0.60825,-3.5402 1.82617,-4.6758 1.21794,-1.1357 2.88625,-1.7031 5.00391,-1.7031 z m -35.17969,0.2226 7.875,0 0,2.3282 -5.34961,0 0,1.9023 c 0.24139,-0.066 0.48322,-0.1157 0.72461,-0.1484 0.24688,-0.0387 0.50229,-0.0586 0.76563,-0.0586 1.49772,0 2.66219,0.3753 3.49609,1.1269 0.83389,0.7462 1.25195,1.7884 1.25195,3.127 0,1.3276 -0.45648,2.3675 -1.36719,3.1191 -0.90521,0.7516 -2.16441,1.127 -3.77734,1.127 -0.69675,0 -1.38649,-0.068 -2.07226,-0.2051 -0.68028,-0.1317 -1.35841,-0.335 -2.03321,-0.6094 l 0,-2.4922 c 0.66932,0.384 1.3024,0.6713 1.90039,0.8633 0.60348,0.192 1.17097,0.2891 1.70313,0.2891 0.76806,0 1.37165,-0.1876 1.81055,-0.5606 0.44438,-0.3786 0.66796,-0.8894 0.66796,-1.5312 0,-0.6474 -0.22358,-1.1563 -0.66796,-1.5293 -0.4389,-0.3731 -1.04249,-0.5606 -1.81055,-0.5606 -0.45536,0 -0.93938,0.061 -1.45508,0.1817 -0.5157,0.1152 -1.0696,0.296 -1.66211,0.5429 l 0,-6.9121 z m 42.88086,0 3.16992,0 0,9.8907 5.5625,0 0,2.3964 -8.73242,0 0,-12.2871 z"
         style="fill:#a96000;fill-opacity:1;stroke:none;stroke-width:0.54303503" />
    </g>
  </g>
</svg>
