<?xml version="1.0" encoding="UTF-8" standalone="no"?>
<!-- Created with Inkscape (http://www.inkscape.org/) -->

<svg
   xmlns:dc="http://purl.org/dc/elements/1.1/"
   xmlns:cc="http://creativecommons.org/ns#"
   xmlns:rdf="http://www.w3.org/1999/02/22-rdf-syntax-ns#"
   xmlns:svg="http://www.w3.org/2000/svg"
   xmlns="http://www.w3.org/2000/svg"
   xmlns:sodipodi="http://sodipodi.sourceforge.net/DTD/sodipodi-0.dtd"
   xmlns:inkscape="http://www.inkscape.org/namespaces/inkscape"
   width="95"
   height="110"
   viewBox="0 0 95 110"
   id="svg5237"
   version="1.1"
   inkscape:version="0.91 r13725"
   sodipodi:docname="HR.svg">
  <defs
     id="defs5239" />
  <sodipodi:namedview
     id="base"
     pagecolor="#ffffff"
     bordercolor="#666666"
     borderopacity="1.0"
     inkscape:pageopacity="0.0"
     inkscape:pageshadow="2"
     inkscape:zoom="3.959798"
     inkscape:cx="15.975102"
     inkscape:cy="19.792429"
     inkscape:document-units="px"
     inkscape:current-layer="layer1"
     showgrid="false"
     units="px"
     inkscape:window-width="1920"
     inkscape:window-height="1020"
     inkscape:window-x="-4"
     inkscape:window-y="-4"
     inkscape:window-maximized="1" />
  <metadata
     id="metadata5242">
    <rdf:RDF>
      <cc:Work
         rdf:about="">
        <dc:format>image/svg+xml</dc:format>
        <dc:type
           rdf:resource="http://purl.org/dc/dcmitype/StillImage" />
        <dc:title></dc:title>
      </cc:Work>
    </rdf:RDF>
  </metadata>
  <g
     inkscape:label="Capa 1"
     inkscape:groupmode="layer"
     id="layer1"
     transform="translate(0,-942.36216)">
    <g
       transform="translate(-615.48633,-22.893503)"
       id="g4635">
      <path
         inkscape:connector-curvature="0"
         style="fill:#ffffff;fill-opacity:1;stroke:none;stroke-width:0.54303503;stroke-opacity:1"
         d="m 627.3496,965.61326 c -6.58637,0 -10.28906,3.40369 -10.28906,10.36132 l 0,71.72462 c 0,6.5083 3.32999,9.9141 9.91015,9.9141 l 15.6543,0 8.74414,7.5273 11.61719,9.7676 11.6172,-9.7676 8.74414,-7.5273 15.64844,0 c 6.58191,0 9.91602,-3.2353 9.91602,-9.9141 l 0,-71.72462 c 0,-6.78824 -3.33364,-10.36132 -10.1211,-10.36132 -4.8e-4,0 -71.46404,-0.0228 -71.44141,0 z"
         id="path4584"
         sodipodi:nodetypes="cssscccccssssc" />
      <path
         inkscape:connector-curvature="0"
         id="path4878"
         d="m 627.34961,965.61328 c -6.58637,0 -10.28906,3.40565 -10.28906,10.36328 l 0,71.72264 c 0,6.5083 3.32999,9.916 9.91015,9.916 l 15.6543,0 8.74414,7.5274 11.61719,9.7656 11.61719,-9.7656 8.74414,-7.5274 15.64843,0 c 6.58191,0 9.91602,-3.2372 9.91602,-9.916 l 0,-71.72264 c 0,-6.78825 -3.33363,-10.36328 -10.12109,-10.36328 -4.8e-4,0 -71.46403,-0.0228 -71.44141,0 z m 15.12695,19.27344 c 5.70378,0 10.34371,4.35061 10.34571,9.69922 10e-4,2.66801 -1.17796,5.24256 -3.23633,7.06636 -1.92469,1.7054 -4.44743,2.6455 -7.10156,2.6465 l -0.004,0 c -5.6998,0 -10.33785,-4.35237 -10.33985,-9.70114 -10e-4,-2.66801 1.17795,-5.24227 3.23633,-7.06641 1.92468,-1.70543 4.44546,-2.64357 7.09961,-2.64453 z m -18.21875,5.91406 c 0.0124,0 0.0247,-1.6e-4 0.0371,0 1.57636,0.0202 2.83856,1.31622 2.81836,2.89258 l -0.2832,22.09764 72.35742,0.4824 0.20508,-10.4394 c 0.0309,-1.5762 1.32884,-2.8318 2.91015,-2.7988 1.57604,0.031 2.82993,1.3338 2.79883,2.9101 l -0.50976,25.9961 c -0.0304,1.5569 -1.30329,2.7988 -2.85352,2.7988 -0.019,0 -0.0376,3e-4 -0.0566,0 -1.57637,-0.031 -2.82973,-1.3337 -2.79883,-2.9101 l 0.19336,-9.8477 -72.32031,-0.4824 -0.15234,11.9512 c -0.0201,1.5641 -1.29421,2.8183 -2.85352,2.8183 -0.0124,0 -0.0247,2e-4 -0.0371,0 -1.57636,-0.02 -2.83856,-1.3141 -2.81836,-2.8906 l 0.50977,-39.75976 c 0.0201,-1.56394 1.2942,-2.81836 2.85351,-2.81836 z m 33.13281,10.02152 33.13282,0 c 3.77751,0 6.85156,3.0739 6.85156,6.8515 0,3.7776 -3.07405,6.8496 -6.85156,6.8496 l -33.13282,0 c -3.77751,0 -6.8496,-3.072 -6.8496,-6.8496 0,-3.7776 3.07209,-6.8515 6.8496,-6.8515 z m -25.61328,6.0351 14.27149,0 c 1.92532,0 3.49219,1.5669 3.49219,3.4922 0,1.9256 -1.56687,3.4922 -3.49219,3.4922 l -14.27149,0 c -1.92532,0 -3.49218,-1.5666 -3.49218,-3.4922 0,-1.9253 1.56686,-3.4922 3.49218,-3.4922 z m 0.50977,29.834 4.83789,0 c 1.61842,0 2.80503,0.2713 3.55664,0.8145 0.75709,0.5431 1.13477,1.4021 1.13477,2.5761 0,0.812 -0.19679,1.4788 -0.5918,2 -0.38951,0.5212 -0.97952,0.9054 -1.76953,1.1524 0.4334,0.099 0.82001,0.3227 1.16015,0.6738 0.34563,0.3456 0.69381,0.8723 1.04493,1.5801 l 1.7207,3.4902 -3.375,0 -1.49805,-3.0547 c -0.30174,-0.6144 -0.60916,-1.0329 -0.92187,-1.2578 -0.30723,-0.2249 -0.71868,-0.3379 -1.23438,-0.3379 l -0.89648,0 0,4.6504 -3.16797,0 0,-12.2871 z m 12.96875,0 3.16797,0 0,7.3652 c 0,1.015 0.16497,1.7428 0.49414,2.1817 0.33465,0.4334 0.87728,0.6484 1.62891,0.6484 0.75709,0 1.30168,-0.215 1.63085,-0.6484 0.33466,-0.4389 0.50196,-1.1667 0.50196,-2.1817 l 0,-7.3652 3.16797,0 0,7.3652 c 0,1.7392 -0.43629,3.0345 -1.3086,3.8848 -0.8723,0.8503 -2.20369,1.2754 -3.99218,1.2754 -1.78301,0 -3.11013,-0.4251 -3.98243,-1.2754 -0.8723,-0.8503 -1.30859,-2.1456 -1.30859,-3.8848 l 0,-7.3652 z m 13.69336,0 4.83984,0 c 1.61842,0 2.80308,0.2713 3.55469,0.8145 0.75709,0.5431 1.13477,1.4021 1.13477,2.5761 0,0.812 -0.19679,1.4788 -0.5918,2 -0.38952,0.5212 -0.97953,0.9054 -1.76953,1.1524 0.4334,0.099 0.82001,0.3227 1.16015,0.6738 0.34563,0.3456 0.69381,0.8723 1.04493,1.5801 l 1.7207,3.4902 -3.375,0 -1.49609,-3.0547 c -0.30174,-0.6144 -0.60917,-1.0329 -0.92188,-1.2578 -0.30723,-0.2249 -0.71866,-0.3379 -1.23438,-0.3379 l -0.89843,0 0,4.6504 -3.16797,0 0,-12.2871 z m 16.05664,0 3.77539,0 4.55078,12.2871 -3.18359,0 -0.77344,-2.2383 -4.95508,0 -0.78125,2.2383 -3.18359,0 4.55078,-12.2871 z m 9.94922,0 3.16797,0 0,9.8926 5.5625,0 0,2.3945 -8.73047,0 0,-12.2871 z m -49.5,2.2969 0,3.1504 1.33398,0 c 0.66383,0 1.13855,-0.1223 1.42383,-0.3692 0.29077,-0.2469 0.43555,-0.6537 0.43555,-1.2187 0,-0.5596 -0.14478,-0.9599 -0.43555,-1.2012 -0.28528,-0.2414 -0.76,-0.3613 -1.42383,-0.3613 l -1.33398,0 z m 26.66211,0 0,3.1504 1.33398,0 c 0.66383,0 1.13855,-0.1223 1.42383,-0.3692 0.29077,-0.2469 0.43555,-0.6537 0.43555,-1.2187 0,-0.5596 -0.14478,-0.9599 -0.43555,-1.2012 -0.28528,-0.2414 -0.76,-0.3613 -1.42383,-0.3613 l -1.33398,0 z m 14.78125,0.584 -1.6875,4.8867 3.36523,0 -1.67773,-4.8867 z"
         style="fill:#a96000;fill-opacity:1;stroke:none;stroke-width:0.54303503" />
    </g>
  </g>
</svg>
